%TF.GenerationSoftware,KiCad,Pcbnew,(5.1.6)-1*%
%TF.CreationDate,2020-08-13T11:00:50+03:00*%
%TF.ProjectId,Rechargeable 5V power bank REV 0.53,52656368-6172-4676-9561-626c65203556,rev?*%
%TF.SameCoordinates,Original*%
%TF.FileFunction,Legend,Top*%
%TF.FilePolarity,Positive*%
%FSLAX46Y46*%
G04 Gerber Fmt 4.6, Leading zero omitted, Abs format (unit mm)*
G04 Created by KiCad (PCBNEW (5.1.6)-1) date 2020-08-13 11:00:50*
%MOMM*%
%LPD*%
G01*
G04 APERTURE LIST*
%ADD10C,0.120000*%
%ADD11C,0.300000*%
%ADD12C,0.150000*%
%ADD13C,0.200000*%
G04 APERTURE END LIST*
D10*
%TO.C,BAT1*%
X107570000Y-71230000D02*
X106300000Y-71230000D01*
X107570000Y-68690000D02*
X107570000Y-71230000D01*
X129160000Y-68690000D02*
X107570000Y-68690000D01*
X129160000Y-76310000D02*
X129160000Y-68690000D01*
X107570000Y-76310000D02*
X129160000Y-76310000D01*
X107570000Y-73770000D02*
X107570000Y-76310000D01*
X106300000Y-73770000D02*
X107570000Y-73770000D01*
X106300000Y-71230000D02*
X106300000Y-73770000D01*
X157370000Y-61070000D02*
X78630000Y-61070000D01*
X78630000Y-66150000D02*
X78630000Y-61070000D01*
X157370000Y-66150000D02*
X157370000Y-61070000D01*
X78630000Y-78850000D02*
X78630000Y-83930000D01*
X78630000Y-83930000D02*
X157370000Y-83930000D01*
X157370000Y-78850000D02*
X157370000Y-83930000D01*
%TO.C,R2*%
X75990000Y-62703733D02*
X75990000Y-63046267D01*
X77010000Y-62703733D02*
X77010000Y-63046267D01*
%TO.C,R1*%
X77010000Y-82296267D02*
X77010000Y-81953733D01*
X75990000Y-82296267D02*
X75990000Y-81953733D01*
%TO.C,NTC1*%
X117953733Y-73010000D02*
X118296267Y-73010000D01*
X117953733Y-71990000D02*
X118296267Y-71990000D01*
%TO.C,J2*%
X160805000Y-79485000D02*
X158265000Y-79485000D01*
X158265000Y-79485000D02*
X158265000Y-65515000D01*
X158265000Y-65515000D02*
X160805000Y-65515000D01*
X164615000Y-79485000D02*
X168425000Y-79485000D01*
X168425000Y-65515000D02*
X164615000Y-65515000D01*
%TO.C,J1*%
X74754000Y-75929000D02*
X74754000Y-77072000D01*
X74754000Y-77072000D02*
X73611000Y-77072000D01*
X73611000Y-67928000D02*
X74754000Y-67928000D01*
X74754000Y-67928000D02*
X74754000Y-69071000D01*
D11*
%TO.C,DS2*%
X74526000Y-79635000D02*
X74526000Y-78365000D01*
D10*
X71986000Y-78365000D02*
X73764000Y-78365000D01*
X71986000Y-79635000D02*
X73764000Y-79635000D01*
D11*
%TO.C,DS1*%
X74526000Y-66635000D02*
X74526000Y-65365000D01*
D10*
X71986000Y-65365000D02*
X73764000Y-65365000D01*
X71986000Y-66635000D02*
X73764000Y-66635000D01*
%TO.C,BAT1*%
D12*
X86438571Y-73514285D02*
X86486190Y-73371428D01*
X86533809Y-73323809D01*
X86629047Y-73276190D01*
X86771904Y-73276190D01*
X86867142Y-73323809D01*
X86914761Y-73371428D01*
X86962380Y-73466666D01*
X86962380Y-73847619D01*
X85962380Y-73847619D01*
X85962380Y-73514285D01*
X86010000Y-73419047D01*
X86057619Y-73371428D01*
X86152857Y-73323809D01*
X86248095Y-73323809D01*
X86343333Y-73371428D01*
X86390952Y-73419047D01*
X86438571Y-73514285D01*
X86438571Y-73847619D01*
X86676666Y-72895238D02*
X86676666Y-72419047D01*
X86962380Y-72990476D02*
X85962380Y-72657142D01*
X86962380Y-72323809D01*
X85962380Y-72133333D02*
X85962380Y-71561904D01*
X86962380Y-71847619D02*
X85962380Y-71847619D01*
X86962380Y-70704761D02*
X86962380Y-71276190D01*
X86962380Y-70990476D02*
X85962380Y-70990476D01*
X86105238Y-71085714D01*
X86200476Y-71180952D01*
X86248095Y-71276190D01*
D13*
X88415238Y-72657142D02*
X92224761Y-72657142D01*
X90320000Y-74561904D02*
X90320000Y-70752380D01*
X144295238Y-72657142D02*
X148104761Y-72657142D01*
%TO.C,R2*%
D12*
X78326380Y-62814666D02*
X77850190Y-63148000D01*
X78326380Y-63386095D02*
X77326380Y-63386095D01*
X77326380Y-63005142D01*
X77374000Y-62909904D01*
X77421619Y-62862285D01*
X77516857Y-62814666D01*
X77659714Y-62814666D01*
X77754952Y-62862285D01*
X77802571Y-62909904D01*
X77850190Y-63005142D01*
X77850190Y-63386095D01*
X77421619Y-62433714D02*
X77374000Y-62386095D01*
X77326380Y-62290857D01*
X77326380Y-62052761D01*
X77374000Y-61957523D01*
X77421619Y-61909904D01*
X77516857Y-61862285D01*
X77612095Y-61862285D01*
X77754952Y-61909904D01*
X78326380Y-62481333D01*
X78326380Y-61862285D01*
%TO.C,R1*%
X78326380Y-82118666D02*
X77850190Y-82452000D01*
X78326380Y-82690095D02*
X77326380Y-82690095D01*
X77326380Y-82309142D01*
X77374000Y-82213904D01*
X77421619Y-82166285D01*
X77516857Y-82118666D01*
X77659714Y-82118666D01*
X77754952Y-82166285D01*
X77802571Y-82213904D01*
X77850190Y-82309142D01*
X77850190Y-82690095D01*
X78326380Y-81166285D02*
X78326380Y-81737714D01*
X78326380Y-81452000D02*
X77326380Y-81452000D01*
X77469238Y-81547238D01*
X77564476Y-81642476D01*
X77612095Y-81737714D01*
%TO.C,NTC1*%
X112807142Y-72752380D02*
X112807142Y-71752380D01*
X113378571Y-72752380D01*
X113378571Y-71752380D01*
X113711904Y-71752380D02*
X114283333Y-71752380D01*
X113997619Y-72752380D02*
X113997619Y-71752380D01*
X115188095Y-72657142D02*
X115140476Y-72704761D01*
X114997619Y-72752380D01*
X114902380Y-72752380D01*
X114759523Y-72704761D01*
X114664285Y-72609523D01*
X114616666Y-72514285D01*
X114569047Y-72323809D01*
X114569047Y-72180952D01*
X114616666Y-71990476D01*
X114664285Y-71895238D01*
X114759523Y-71800000D01*
X114902380Y-71752380D01*
X114997619Y-71752380D01*
X115140476Y-71800000D01*
X115188095Y-71847619D01*
X116140476Y-72752380D02*
X115569047Y-72752380D01*
X115854761Y-72752380D02*
X115854761Y-71752380D01*
X115759523Y-71895238D01*
X115664285Y-71990476D01*
X115569047Y-72038095D01*
%TO.C,J2*%
X158566666Y-80134380D02*
X158566666Y-80848666D01*
X158519047Y-80991523D01*
X158423809Y-81086761D01*
X158280952Y-81134380D01*
X158185714Y-81134380D01*
X158995238Y-80229619D02*
X159042857Y-80182000D01*
X159138095Y-80134380D01*
X159376190Y-80134380D01*
X159471428Y-80182000D01*
X159519047Y-80229619D01*
X159566666Y-80324857D01*
X159566666Y-80420095D01*
X159519047Y-80562952D01*
X158947619Y-81134380D01*
X159566666Y-81134380D01*
%TO.C,J1*%
X76056380Y-69585333D02*
X76770666Y-69585333D01*
X76913523Y-69632952D01*
X77008761Y-69728190D01*
X77056380Y-69871047D01*
X77056380Y-69966285D01*
X77056380Y-68585333D02*
X77056380Y-69156761D01*
X77056380Y-68871047D02*
X76056380Y-68871047D01*
X76199238Y-68966285D01*
X76294476Y-69061523D01*
X76342095Y-69156761D01*
%TO.C,DS2*%
X76040380Y-80372285D02*
X75040380Y-80372285D01*
X75040380Y-80134190D01*
X75088000Y-79991333D01*
X75183238Y-79896095D01*
X75278476Y-79848476D01*
X75468952Y-79800857D01*
X75611809Y-79800857D01*
X75802285Y-79848476D01*
X75897523Y-79896095D01*
X75992761Y-79991333D01*
X76040380Y-80134190D01*
X76040380Y-80372285D01*
X75992761Y-79419904D02*
X76040380Y-79277047D01*
X76040380Y-79038952D01*
X75992761Y-78943714D01*
X75945142Y-78896095D01*
X75849904Y-78848476D01*
X75754666Y-78848476D01*
X75659428Y-78896095D01*
X75611809Y-78943714D01*
X75564190Y-79038952D01*
X75516571Y-79229428D01*
X75468952Y-79324666D01*
X75421333Y-79372285D01*
X75326095Y-79419904D01*
X75230857Y-79419904D01*
X75135619Y-79372285D01*
X75088000Y-79324666D01*
X75040380Y-79229428D01*
X75040380Y-78991333D01*
X75088000Y-78848476D01*
X75135619Y-78467523D02*
X75088000Y-78419904D01*
X75040380Y-78324666D01*
X75040380Y-78086571D01*
X75088000Y-77991333D01*
X75135619Y-77943714D01*
X75230857Y-77896095D01*
X75326095Y-77896095D01*
X75468952Y-77943714D01*
X76040380Y-78515142D01*
X76040380Y-77896095D01*
%TO.C,DS1*%
X76040380Y-66910285D02*
X75040380Y-66910285D01*
X75040380Y-66672190D01*
X75088000Y-66529333D01*
X75183238Y-66434095D01*
X75278476Y-66386476D01*
X75468952Y-66338857D01*
X75611809Y-66338857D01*
X75802285Y-66386476D01*
X75897523Y-66434095D01*
X75992761Y-66529333D01*
X76040380Y-66672190D01*
X76040380Y-66910285D01*
X75992761Y-65957904D02*
X76040380Y-65815047D01*
X76040380Y-65576952D01*
X75992761Y-65481714D01*
X75945142Y-65434095D01*
X75849904Y-65386476D01*
X75754666Y-65386476D01*
X75659428Y-65434095D01*
X75611809Y-65481714D01*
X75564190Y-65576952D01*
X75516571Y-65767428D01*
X75468952Y-65862666D01*
X75421333Y-65910285D01*
X75326095Y-65957904D01*
X75230857Y-65957904D01*
X75135619Y-65910285D01*
X75088000Y-65862666D01*
X75040380Y-65767428D01*
X75040380Y-65529333D01*
X75088000Y-65386476D01*
X76040380Y-64434095D02*
X76040380Y-65005523D01*
X76040380Y-64719809D02*
X75040380Y-64719809D01*
X75183238Y-64815047D01*
X75278476Y-64910285D01*
X75326095Y-65005523D01*
%TD*%
M02*
