%TF.GenerationSoftware,KiCad,Pcbnew,(5.1.6)-1*%
%TF.CreationDate,2020-08-13T11:00:50+03:00*%
%TF.ProjectId,Rechargeable 5V power bank REV 0.53,52656368-6172-4676-9561-626c65203556,rev?*%
%TF.SameCoordinates,Original*%
%TF.FileFunction,Legend,Bot*%
%TF.FilePolarity,Positive*%
%FSLAX46Y46*%
G04 Gerber Fmt 4.6, Leading zero omitted, Abs format (unit mm)*
G04 Created by KiCad (PCBNEW (5.1.6)-1) date 2020-08-13 11:00:50*
%MOMM*%
%LPD*%
G01*
G04 APERTURE LIST*
%ADD10C,0.120000*%
%ADD11C,0.300000*%
%ADD12C,0.150000*%
G04 APERTURE END LIST*
D10*
%TO.C,C13*%
X102110000Y-71638748D02*
X102110000Y-72161252D01*
X100690000Y-71638748D02*
X100690000Y-72161252D01*
%TO.C,C11*%
X85590000Y-68861252D02*
X85590000Y-68338748D01*
X87010000Y-68861252D02*
X87010000Y-68338748D01*
%TO.C,U1*%
X95000000Y-70260000D02*
X93476000Y-70260000D01*
X95000000Y-70260000D02*
X96500000Y-70260000D01*
X95000000Y-67040000D02*
X93500000Y-67040000D01*
X95000000Y-67040000D02*
X96500000Y-67040000D01*
X92470305Y-70428000D02*
G75*
G03*
X92470305Y-70428000I-200805J0D01*
G01*
%TO.C,C12*%
X157160000Y-80135436D02*
X157160000Y-81339564D01*
X154440000Y-80135436D02*
X154440000Y-81339564D01*
%TO.C,MH4*%
X170000000Y-82000000D02*
G75*
G03*
X170000000Y-82000000I-3000000J0D01*
G01*
%TO.C,MH3*%
X170000000Y-63000000D02*
G75*
G03*
X170000000Y-63000000I-3000000J0D01*
G01*
%TO.C,MH2*%
X76000000Y-82000000D02*
G75*
G03*
X76000000Y-82000000I-3000000J0D01*
G01*
%TO.C,MH1*%
X76000000Y-63000000D02*
G75*
G03*
X76000000Y-63000000I-3000000J0D01*
G01*
%TO.C,U3*%
X129319210Y-71048000D02*
G75*
G03*
X129319210Y-71048000I-359210J0D01*
G01*
X133024000Y-70540000D02*
X133024000Y-65460000D01*
X133024000Y-65460000D02*
X129976000Y-65460000D01*
X129976000Y-65460000D02*
X129976000Y-70540000D01*
X129976000Y-70540000D02*
X133024000Y-70540000D01*
X132008000Y-70540000D02*
G75*
G03*
X130992000Y-70540000I-508000J0D01*
G01*
%TO.C,U2*%
X153224408Y-67933907D02*
G75*
G03*
X153224408Y-67933907I-269408J0D01*
G01*
X149440000Y-66850000D02*
X149440000Y-65050000D01*
X152660000Y-65050000D02*
X152660000Y-66839000D01*
%TO.C,R19*%
X164010000Y-72203733D02*
X164010000Y-72546267D01*
X162990000Y-72203733D02*
X162990000Y-72546267D01*
%TO.C,R18*%
X167490000Y-75046267D02*
X167490000Y-74703733D01*
X168510000Y-75046267D02*
X168510000Y-74703733D01*
%TO.C,R17*%
X168510000Y-69953733D02*
X168510000Y-70296267D01*
X167490000Y-69953733D02*
X167490000Y-70296267D01*
%TO.C,R16*%
X166260000Y-74703733D02*
X166260000Y-75046267D01*
X165240000Y-74703733D02*
X165240000Y-75046267D01*
%TO.C,R15*%
X165240000Y-70296267D02*
X165240000Y-69953733D01*
X166260000Y-70296267D02*
X166260000Y-69953733D01*
%TO.C,R14*%
X138910000Y-66303733D02*
X138910000Y-66646267D01*
X137890000Y-66303733D02*
X137890000Y-66646267D01*
%TO.C,R13*%
X125596267Y-63010000D02*
X125253733Y-63010000D01*
X125596267Y-61990000D02*
X125253733Y-61990000D01*
%TO.C,R12*%
X139190000Y-70846267D02*
X139190000Y-70503733D01*
X140210000Y-70846267D02*
X140210000Y-70503733D01*
%TO.C,R11*%
X123653733Y-65890000D02*
X123996267Y-65890000D01*
X123653733Y-66910000D02*
X123996267Y-66910000D01*
%TO.C,R10*%
X115003733Y-69090000D02*
X115346267Y-69090000D01*
X115003733Y-70110000D02*
X115346267Y-70110000D01*
%TO.C,R9*%
X112196267Y-75810000D02*
X111853733Y-75810000D01*
X112196267Y-74790000D02*
X111853733Y-74790000D01*
%TO.C,R8*%
X121940000Y-69796267D02*
X121940000Y-69453733D01*
X122960000Y-69796267D02*
X122960000Y-69453733D01*
%TO.C,R7*%
X155510000Y-66953733D02*
X155510000Y-67296267D01*
X154490000Y-66953733D02*
X154490000Y-67296267D01*
%TO.C,R6*%
X148671267Y-62310000D02*
X148328733Y-62310000D01*
X148671267Y-61290000D02*
X148328733Y-61290000D01*
%TO.C,R5*%
X88340000Y-64671267D02*
X88340000Y-64328733D01*
X89360000Y-64671267D02*
X89360000Y-64328733D01*
%TO.C,R4*%
X95328733Y-62890000D02*
X95671267Y-62890000D01*
X95328733Y-63910000D02*
X95671267Y-63910000D01*
%TO.C,R3*%
X90490000Y-64671267D02*
X90490000Y-64328733D01*
X91510000Y-64671267D02*
X91510000Y-64328733D01*
%TO.C,Q3*%
X115733500Y-70962500D02*
X116813000Y-70970000D01*
X113640000Y-74130000D02*
X113640000Y-73200000D01*
X113640000Y-70970000D02*
X113640000Y-71900000D01*
X113640000Y-70970000D02*
X115098500Y-70970000D01*
X113640000Y-74130000D02*
X115100000Y-74130000D01*
%TO.C,Q2*%
X144637500Y-73083500D02*
X144630000Y-74163000D01*
X141470000Y-70990000D02*
X142400000Y-70990000D01*
X144630000Y-70990000D02*
X143700000Y-70990000D01*
X144630000Y-70990000D02*
X144630000Y-72448500D01*
X141470000Y-70990000D02*
X141470000Y-72450000D01*
%TO.C,Q1*%
X149137500Y-73083500D02*
X149130000Y-74163000D01*
X145970000Y-70990000D02*
X146900000Y-70990000D01*
X149130000Y-70990000D02*
X148200000Y-70990000D01*
X149130000Y-70990000D02*
X149130000Y-72448500D01*
X145970000Y-70990000D02*
X145970000Y-72450000D01*
%TO.C,L1*%
X132360000Y-83360000D02*
X130582000Y-83360000D01*
X132360000Y-83360000D02*
X132360000Y-81582000D01*
X132360000Y-73040000D02*
X132360000Y-74818000D01*
X132360000Y-73040000D02*
X130582000Y-73040000D01*
X122040000Y-73040000D02*
X123818000Y-73040000D01*
X122040000Y-73040000D02*
X122040000Y-74818000D01*
X122040000Y-83360000D02*
X122040000Y-81582000D01*
X122040000Y-83360000D02*
X123818000Y-83360000D01*
%TO.C,F1*%
X86335000Y-75832000D02*
X91415000Y-75832000D01*
X86335000Y-71768000D02*
X91415000Y-71768000D01*
D11*
%TO.C,D4*%
X79924000Y-71456000D02*
X76876000Y-71456000D01*
D10*
X76876000Y-70440000D02*
X76876000Y-65360000D01*
X79924000Y-70440000D02*
X79924000Y-65360000D01*
%TO.C,D3*%
X138544000Y-75244000D02*
X145656000Y-75244000D01*
X138544000Y-82356000D02*
X145656000Y-82356000D01*
D11*
X147434000Y-75752000D02*
X147434000Y-81848000D01*
D10*
%TO.C,D2*%
X100344000Y-75344000D02*
X107456000Y-75344000D01*
X100344000Y-82456000D02*
X107456000Y-82456000D01*
D11*
X109234000Y-75852000D02*
X109234000Y-81948000D01*
%TO.C,D1*%
X93976000Y-73844000D02*
X97024000Y-73844000D01*
D10*
X97024000Y-74860000D02*
X97024000Y-79940000D01*
X93976000Y-74860000D02*
X93976000Y-79940000D01*
%TO.C,C10*%
X122260000Y-63253733D02*
X122260000Y-63596267D01*
X121240000Y-63253733D02*
X121240000Y-63596267D01*
%TO.C,C9*%
X137710000Y-70503733D02*
X137710000Y-70846267D01*
X136690000Y-70503733D02*
X136690000Y-70846267D01*
%TO.C,C8*%
X125596267Y-64810000D02*
X125253733Y-64810000D01*
X125596267Y-63790000D02*
X125253733Y-63790000D01*
%TO.C,C7*%
X152760000Y-80135436D02*
X152760000Y-81339564D01*
X150040000Y-80135436D02*
X150040000Y-81339564D01*
%TO.C,C6*%
X124540000Y-69821267D02*
X124540000Y-69478733D01*
X125560000Y-69821267D02*
X125560000Y-69478733D01*
%TO.C,C5*%
X117710000Y-80213748D02*
X117710000Y-80736252D01*
X116290000Y-80213748D02*
X116290000Y-80736252D01*
%TO.C,C4*%
X113760000Y-79597936D02*
X113760000Y-80802064D01*
X111040000Y-79597936D02*
X111040000Y-80802064D01*
%TO.C,C3*%
X152103733Y-61290000D02*
X152446267Y-61290000D01*
X152103733Y-62310000D02*
X152446267Y-62310000D01*
%TO.C,C2*%
X98690000Y-71871267D02*
X98690000Y-71528733D01*
X99710000Y-71871267D02*
X99710000Y-71528733D01*
%TO.C,C1*%
X88340000Y-68896267D02*
X88340000Y-68553733D01*
X89360000Y-68896267D02*
X89360000Y-68553733D01*
%TO.C,C13*%
D12*
X104170857Y-69609142D02*
X104218476Y-69656761D01*
X104361333Y-69704380D01*
X104456571Y-69704380D01*
X104599428Y-69656761D01*
X104694666Y-69561523D01*
X104742285Y-69466285D01*
X104789904Y-69275809D01*
X104789904Y-69132952D01*
X104742285Y-68942476D01*
X104694666Y-68847238D01*
X104599428Y-68752000D01*
X104456571Y-68704380D01*
X104361333Y-68704380D01*
X104218476Y-68752000D01*
X104170857Y-68799619D01*
X103218476Y-69704380D02*
X103789904Y-69704380D01*
X103504190Y-69704380D02*
X103504190Y-68704380D01*
X103599428Y-68847238D01*
X103694666Y-68942476D01*
X103789904Y-68990095D01*
X102885142Y-68704380D02*
X102266095Y-68704380D01*
X102599428Y-69085333D01*
X102456571Y-69085333D01*
X102361333Y-69132952D01*
X102313714Y-69180571D01*
X102266095Y-69275809D01*
X102266095Y-69513904D01*
X102313714Y-69609142D01*
X102361333Y-69656761D01*
X102456571Y-69704380D01*
X102742285Y-69704380D01*
X102837523Y-69656761D01*
X102885142Y-69609142D01*
%TO.C,C11*%
X84612857Y-70371142D02*
X84660476Y-70418761D01*
X84803333Y-70466380D01*
X84898571Y-70466380D01*
X85041428Y-70418761D01*
X85136666Y-70323523D01*
X85184285Y-70228285D01*
X85231904Y-70037809D01*
X85231904Y-69894952D01*
X85184285Y-69704476D01*
X85136666Y-69609238D01*
X85041428Y-69514000D01*
X84898571Y-69466380D01*
X84803333Y-69466380D01*
X84660476Y-69514000D01*
X84612857Y-69561619D01*
X83660476Y-70466380D02*
X84231904Y-70466380D01*
X83946190Y-70466380D02*
X83946190Y-69466380D01*
X84041428Y-69609238D01*
X84136666Y-69704476D01*
X84231904Y-69752095D01*
X82708095Y-70466380D02*
X83279523Y-70466380D01*
X82993809Y-70466380D02*
X82993809Y-69466380D01*
X83089047Y-69609238D01*
X83184285Y-69704476D01*
X83279523Y-69752095D01*
%TO.C,U1*%
X97939904Y-70736380D02*
X97939904Y-71545904D01*
X97892285Y-71641142D01*
X97844666Y-71688761D01*
X97749428Y-71736380D01*
X97558952Y-71736380D01*
X97463714Y-71688761D01*
X97416095Y-71641142D01*
X97368476Y-71545904D01*
X97368476Y-70736380D01*
X96368476Y-71736380D02*
X96939904Y-71736380D01*
X96654190Y-71736380D02*
X96654190Y-70736380D01*
X96749428Y-70879238D01*
X96844666Y-70974476D01*
X96939904Y-71022095D01*
%TO.C,C12*%
X154716857Y-77991142D02*
X154764476Y-78038761D01*
X154907333Y-78086380D01*
X155002571Y-78086380D01*
X155145428Y-78038761D01*
X155240666Y-77943523D01*
X155288285Y-77848285D01*
X155335904Y-77657809D01*
X155335904Y-77514952D01*
X155288285Y-77324476D01*
X155240666Y-77229238D01*
X155145428Y-77134000D01*
X155002571Y-77086380D01*
X154907333Y-77086380D01*
X154764476Y-77134000D01*
X154716857Y-77181619D01*
X153764476Y-78086380D02*
X154335904Y-78086380D01*
X154050190Y-78086380D02*
X154050190Y-77086380D01*
X154145428Y-77229238D01*
X154240666Y-77324476D01*
X154335904Y-77372095D01*
X153383523Y-77181619D02*
X153335904Y-77134000D01*
X153240666Y-77086380D01*
X153002571Y-77086380D01*
X152907333Y-77134000D01*
X152859714Y-77181619D01*
X152812095Y-77276857D01*
X152812095Y-77372095D01*
X152859714Y-77514952D01*
X153431142Y-78086380D01*
X152812095Y-78086380D01*
%TO.C,U3*%
X134261904Y-70990380D02*
X134261904Y-71799904D01*
X134214285Y-71895142D01*
X134166666Y-71942761D01*
X134071428Y-71990380D01*
X133880952Y-71990380D01*
X133785714Y-71942761D01*
X133738095Y-71895142D01*
X133690476Y-71799904D01*
X133690476Y-70990380D01*
X133309523Y-70990380D02*
X132690476Y-70990380D01*
X133023809Y-71371333D01*
X132880952Y-71371333D01*
X132785714Y-71418952D01*
X132738095Y-71466571D01*
X132690476Y-71561809D01*
X132690476Y-71799904D01*
X132738095Y-71895142D01*
X132785714Y-71942761D01*
X132880952Y-71990380D01*
X133166666Y-71990380D01*
X133261904Y-71942761D01*
X133309523Y-71895142D01*
%TO.C,U2*%
X149161904Y-64452380D02*
X149161904Y-65261904D01*
X149114285Y-65357142D01*
X149066666Y-65404761D01*
X148971428Y-65452380D01*
X148780952Y-65452380D01*
X148685714Y-65404761D01*
X148638095Y-65357142D01*
X148590476Y-65261904D01*
X148590476Y-64452380D01*
X148161904Y-64547619D02*
X148114285Y-64500000D01*
X148019047Y-64452380D01*
X147780952Y-64452380D01*
X147685714Y-64500000D01*
X147638095Y-64547619D01*
X147590476Y-64642857D01*
X147590476Y-64738095D01*
X147638095Y-64880952D01*
X148209523Y-65452380D01*
X147590476Y-65452380D01*
%TO.C,TP11*%
X153526095Y-75308380D02*
X152954666Y-75308380D01*
X153240380Y-76308380D02*
X153240380Y-75308380D01*
X152621333Y-76308380D02*
X152621333Y-75308380D01*
X152240380Y-75308380D01*
X152145142Y-75356000D01*
X152097523Y-75403619D01*
X152049904Y-75498857D01*
X152049904Y-75641714D01*
X152097523Y-75736952D01*
X152145142Y-75784571D01*
X152240380Y-75832190D01*
X152621333Y-75832190D01*
X151097523Y-76308380D02*
X151668952Y-76308380D01*
X151383238Y-76308380D02*
X151383238Y-75308380D01*
X151478476Y-75451238D01*
X151573714Y-75546476D01*
X151668952Y-75594095D01*
X150145142Y-76308380D02*
X150716571Y-76308380D01*
X150430857Y-76308380D02*
X150430857Y-75308380D01*
X150526095Y-75451238D01*
X150621333Y-75546476D01*
X150716571Y-75594095D01*
%TO.C,TP10*%
X83168095Y-74038380D02*
X82596666Y-74038380D01*
X82882380Y-75038380D02*
X82882380Y-74038380D01*
X82263333Y-75038380D02*
X82263333Y-74038380D01*
X81882380Y-74038380D01*
X81787142Y-74086000D01*
X81739523Y-74133619D01*
X81691904Y-74228857D01*
X81691904Y-74371714D01*
X81739523Y-74466952D01*
X81787142Y-74514571D01*
X81882380Y-74562190D01*
X82263333Y-74562190D01*
X80739523Y-75038380D02*
X81310952Y-75038380D01*
X81025238Y-75038380D02*
X81025238Y-74038380D01*
X81120476Y-74181238D01*
X81215714Y-74276476D01*
X81310952Y-74324095D01*
X80120476Y-74038380D02*
X80025238Y-74038380D01*
X79930000Y-74086000D01*
X79882380Y-74133619D01*
X79834761Y-74228857D01*
X79787142Y-74419333D01*
X79787142Y-74657428D01*
X79834761Y-74847904D01*
X79882380Y-74943142D01*
X79930000Y-74990761D01*
X80025238Y-75038380D01*
X80120476Y-75038380D01*
X80215714Y-74990761D01*
X80263333Y-74943142D01*
X80310952Y-74847904D01*
X80358571Y-74657428D01*
X80358571Y-74419333D01*
X80310952Y-74228857D01*
X80263333Y-74133619D01*
X80215714Y-74086000D01*
X80120476Y-74038380D01*
%TO.C,TP9*%
X155315904Y-63683880D02*
X154744476Y-63683880D01*
X155030190Y-64683880D02*
X155030190Y-63683880D01*
X154411142Y-64683880D02*
X154411142Y-63683880D01*
X154030190Y-63683880D01*
X153934952Y-63731500D01*
X153887333Y-63779119D01*
X153839714Y-63874357D01*
X153839714Y-64017214D01*
X153887333Y-64112452D01*
X153934952Y-64160071D01*
X154030190Y-64207690D01*
X154411142Y-64207690D01*
X153363523Y-64683880D02*
X153173047Y-64683880D01*
X153077809Y-64636261D01*
X153030190Y-64588642D01*
X152934952Y-64445785D01*
X152887333Y-64255309D01*
X152887333Y-63874357D01*
X152934952Y-63779119D01*
X152982571Y-63731500D01*
X153077809Y-63683880D01*
X153268285Y-63683880D01*
X153363523Y-63731500D01*
X153411142Y-63779119D01*
X153458761Y-63874357D01*
X153458761Y-64112452D01*
X153411142Y-64207690D01*
X153363523Y-64255309D01*
X153268285Y-64302928D01*
X153077809Y-64302928D01*
X152982571Y-64255309D01*
X152934952Y-64207690D01*
X152887333Y-64112452D01*
%TO.C,TP8*%
X149716380Y-70530095D02*
X149716380Y-71101523D01*
X150716380Y-70815809D02*
X149716380Y-70815809D01*
X150716380Y-71434857D02*
X149716380Y-71434857D01*
X149716380Y-71815809D01*
X149764000Y-71911047D01*
X149811619Y-71958666D01*
X149906857Y-72006285D01*
X150049714Y-72006285D01*
X150144952Y-71958666D01*
X150192571Y-71911047D01*
X150240190Y-71815809D01*
X150240190Y-71434857D01*
X150144952Y-72577714D02*
X150097333Y-72482476D01*
X150049714Y-72434857D01*
X149954476Y-72387238D01*
X149906857Y-72387238D01*
X149811619Y-72434857D01*
X149764000Y-72482476D01*
X149716380Y-72577714D01*
X149716380Y-72768190D01*
X149764000Y-72863428D01*
X149811619Y-72911047D01*
X149906857Y-72958666D01*
X149954476Y-72958666D01*
X150049714Y-72911047D01*
X150097333Y-72863428D01*
X150144952Y-72768190D01*
X150144952Y-72577714D01*
X150192571Y-72482476D01*
X150240190Y-72434857D01*
X150335428Y-72387238D01*
X150525904Y-72387238D01*
X150621142Y-72434857D01*
X150668761Y-72482476D01*
X150716380Y-72577714D01*
X150716380Y-72768190D01*
X150668761Y-72863428D01*
X150621142Y-72911047D01*
X150525904Y-72958666D01*
X150335428Y-72958666D01*
X150240190Y-72911047D01*
X150192571Y-72863428D01*
X150144952Y-72768190D01*
%TO.C,TP7*%
X151452380Y-70538095D02*
X151452380Y-71109523D01*
X152452380Y-70823809D02*
X151452380Y-70823809D01*
X152452380Y-71442857D02*
X151452380Y-71442857D01*
X151452380Y-71823809D01*
X151500000Y-71919047D01*
X151547619Y-71966666D01*
X151642857Y-72014285D01*
X151785714Y-72014285D01*
X151880952Y-71966666D01*
X151928571Y-71919047D01*
X151976190Y-71823809D01*
X151976190Y-71442857D01*
X151452380Y-72347619D02*
X151452380Y-73014285D01*
X152452380Y-72585714D01*
%TO.C,TP6*%
X151409523Y-60261904D02*
X150952380Y-60261904D01*
X151180952Y-61061904D02*
X151180952Y-60261904D01*
X150685714Y-61061904D02*
X150685714Y-60261904D01*
X150380952Y-60261904D01*
X150304761Y-60300000D01*
X150266666Y-60338095D01*
X150228571Y-60414285D01*
X150228571Y-60528571D01*
X150266666Y-60604761D01*
X150304761Y-60642857D01*
X150380952Y-60680952D01*
X150685714Y-60680952D01*
X149542857Y-60261904D02*
X149695238Y-60261904D01*
X149771428Y-60300000D01*
X149809523Y-60338095D01*
X149885714Y-60452380D01*
X149923809Y-60604761D01*
X149923809Y-60909523D01*
X149885714Y-60985714D01*
X149847619Y-61023809D01*
X149771428Y-61061904D01*
X149619047Y-61061904D01*
X149542857Y-61023809D01*
X149504761Y-60985714D01*
X149466666Y-60909523D01*
X149466666Y-60719047D01*
X149504761Y-60642857D01*
X149542857Y-60604761D01*
X149619047Y-60566666D01*
X149771428Y-60566666D01*
X149847619Y-60604761D01*
X149885714Y-60642857D01*
X149923809Y-60719047D01*
%TO.C,TP5*%
X137047904Y-75816380D02*
X136476476Y-75816380D01*
X136762190Y-76816380D02*
X136762190Y-75816380D01*
X136143142Y-76816380D02*
X136143142Y-75816380D01*
X135762190Y-75816380D01*
X135666952Y-75864000D01*
X135619333Y-75911619D01*
X135571714Y-76006857D01*
X135571714Y-76149714D01*
X135619333Y-76244952D01*
X135666952Y-76292571D01*
X135762190Y-76340190D01*
X136143142Y-76340190D01*
X134666952Y-75816380D02*
X135143142Y-75816380D01*
X135190761Y-76292571D01*
X135143142Y-76244952D01*
X135047904Y-76197333D01*
X134809809Y-76197333D01*
X134714571Y-76244952D01*
X134666952Y-76292571D01*
X134619333Y-76387809D01*
X134619333Y-76625904D01*
X134666952Y-76721142D01*
X134714571Y-76768761D01*
X134809809Y-76816380D01*
X135047904Y-76816380D01*
X135143142Y-76768761D01*
X135190761Y-76721142D01*
%TO.C,TP4*%
X136052380Y-63938095D02*
X136052380Y-64509523D01*
X137052380Y-64223809D02*
X136052380Y-64223809D01*
X137052380Y-64842857D02*
X136052380Y-64842857D01*
X136052380Y-65223809D01*
X136100000Y-65319047D01*
X136147619Y-65366666D01*
X136242857Y-65414285D01*
X136385714Y-65414285D01*
X136480952Y-65366666D01*
X136528571Y-65319047D01*
X136576190Y-65223809D01*
X136576190Y-64842857D01*
X136385714Y-66271428D02*
X137052380Y-66271428D01*
X136004761Y-66033333D02*
X136719047Y-65795238D01*
X136719047Y-66414285D01*
%TO.C,TP3*%
X119521904Y-75308380D02*
X118950476Y-75308380D01*
X119236190Y-76308380D02*
X119236190Y-75308380D01*
X118617142Y-76308380D02*
X118617142Y-75308380D01*
X118236190Y-75308380D01*
X118140952Y-75356000D01*
X118093333Y-75403619D01*
X118045714Y-75498857D01*
X118045714Y-75641714D01*
X118093333Y-75736952D01*
X118140952Y-75784571D01*
X118236190Y-75832190D01*
X118617142Y-75832190D01*
X117712380Y-75308380D02*
X117093333Y-75308380D01*
X117426666Y-75689333D01*
X117283809Y-75689333D01*
X117188571Y-75736952D01*
X117140952Y-75784571D01*
X117093333Y-75879809D01*
X117093333Y-76117904D01*
X117140952Y-76213142D01*
X117188571Y-76260761D01*
X117283809Y-76308380D01*
X117569523Y-76308380D01*
X117664761Y-76260761D01*
X117712380Y-76213142D01*
%TO.C,TP2*%
X127649904Y-64894380D02*
X127078476Y-64894380D01*
X127364190Y-65894380D02*
X127364190Y-64894380D01*
X126745142Y-65894380D02*
X126745142Y-64894380D01*
X126364190Y-64894380D01*
X126268952Y-64942000D01*
X126221333Y-64989619D01*
X126173714Y-65084857D01*
X126173714Y-65227714D01*
X126221333Y-65322952D01*
X126268952Y-65370571D01*
X126364190Y-65418190D01*
X126745142Y-65418190D01*
X125792761Y-64989619D02*
X125745142Y-64942000D01*
X125649904Y-64894380D01*
X125411809Y-64894380D01*
X125316571Y-64942000D01*
X125268952Y-64989619D01*
X125221333Y-65084857D01*
X125221333Y-65180095D01*
X125268952Y-65322952D01*
X125840380Y-65894380D01*
X125221333Y-65894380D01*
%TO.C,TP1*%
X123361904Y-69990476D02*
X123361904Y-70447619D01*
X124161904Y-70219047D02*
X123361904Y-70219047D01*
X124161904Y-70714285D02*
X123361904Y-70714285D01*
X123361904Y-71019047D01*
X123400000Y-71095238D01*
X123438095Y-71133333D01*
X123514285Y-71171428D01*
X123628571Y-71171428D01*
X123704761Y-71133333D01*
X123742857Y-71095238D01*
X123780952Y-71019047D01*
X123780952Y-70714285D01*
X124161904Y-71933333D02*
X124161904Y-71476190D01*
X124161904Y-71704761D02*
X123361904Y-71704761D01*
X123476190Y-71628571D01*
X123552380Y-71552380D01*
X123590476Y-71476190D01*
%TO.C,R19*%
X162452380Y-71732142D02*
X161976190Y-71398809D01*
X162452380Y-71160714D02*
X161452380Y-71160714D01*
X161452380Y-71541666D01*
X161500000Y-71636904D01*
X161547619Y-71684523D01*
X161642857Y-71732142D01*
X161785714Y-71732142D01*
X161880952Y-71684523D01*
X161928571Y-71636904D01*
X161976190Y-71541666D01*
X161976190Y-71160714D01*
X162452380Y-72684523D02*
X162452380Y-72113095D01*
X162452380Y-72398809D02*
X161452380Y-72398809D01*
X161595238Y-72303571D01*
X161690476Y-72208333D01*
X161738095Y-72113095D01*
X162452380Y-73160714D02*
X162452380Y-73351190D01*
X162404761Y-73446428D01*
X162357142Y-73494047D01*
X162214285Y-73589285D01*
X162023809Y-73636904D01*
X161642857Y-73636904D01*
X161547619Y-73589285D01*
X161500000Y-73541666D01*
X161452380Y-73446428D01*
X161452380Y-73255952D01*
X161500000Y-73160714D01*
X161547619Y-73113095D01*
X161642857Y-73065476D01*
X161880952Y-73065476D01*
X161976190Y-73113095D01*
X162023809Y-73160714D01*
X162071428Y-73255952D01*
X162071428Y-73446428D01*
X162023809Y-73541666D01*
X161976190Y-73589285D01*
X161880952Y-73636904D01*
%TO.C,R18*%
X169652380Y-74232142D02*
X169176190Y-73898809D01*
X169652380Y-73660714D02*
X168652380Y-73660714D01*
X168652380Y-74041666D01*
X168700000Y-74136904D01*
X168747619Y-74184523D01*
X168842857Y-74232142D01*
X168985714Y-74232142D01*
X169080952Y-74184523D01*
X169128571Y-74136904D01*
X169176190Y-74041666D01*
X169176190Y-73660714D01*
X169652380Y-75184523D02*
X169652380Y-74613095D01*
X169652380Y-74898809D02*
X168652380Y-74898809D01*
X168795238Y-74803571D01*
X168890476Y-74708333D01*
X168938095Y-74613095D01*
X169080952Y-75755952D02*
X169033333Y-75660714D01*
X168985714Y-75613095D01*
X168890476Y-75565476D01*
X168842857Y-75565476D01*
X168747619Y-75613095D01*
X168700000Y-75660714D01*
X168652380Y-75755952D01*
X168652380Y-75946428D01*
X168700000Y-76041666D01*
X168747619Y-76089285D01*
X168842857Y-76136904D01*
X168890476Y-76136904D01*
X168985714Y-76089285D01*
X169033333Y-76041666D01*
X169080952Y-75946428D01*
X169080952Y-75755952D01*
X169128571Y-75660714D01*
X169176190Y-75613095D01*
X169271428Y-75565476D01*
X169461904Y-75565476D01*
X169557142Y-75613095D01*
X169604761Y-75660714D01*
X169652380Y-75755952D01*
X169652380Y-75946428D01*
X169604761Y-76041666D01*
X169557142Y-76089285D01*
X169461904Y-76136904D01*
X169271428Y-76136904D01*
X169176190Y-76089285D01*
X169128571Y-76041666D01*
X169080952Y-75946428D01*
%TO.C,R17*%
X169652380Y-69557142D02*
X169176190Y-69223809D01*
X169652380Y-68985714D02*
X168652380Y-68985714D01*
X168652380Y-69366666D01*
X168700000Y-69461904D01*
X168747619Y-69509523D01*
X168842857Y-69557142D01*
X168985714Y-69557142D01*
X169080952Y-69509523D01*
X169128571Y-69461904D01*
X169176190Y-69366666D01*
X169176190Y-68985714D01*
X169652380Y-70509523D02*
X169652380Y-69938095D01*
X169652380Y-70223809D02*
X168652380Y-70223809D01*
X168795238Y-70128571D01*
X168890476Y-70033333D01*
X168938095Y-69938095D01*
X168652380Y-70842857D02*
X168652380Y-71509523D01*
X169652380Y-71080952D01*
%TO.C,R16*%
X164772380Y-74957142D02*
X164296190Y-74623809D01*
X164772380Y-74385714D02*
X163772380Y-74385714D01*
X163772380Y-74766666D01*
X163820000Y-74861904D01*
X163867619Y-74909523D01*
X163962857Y-74957142D01*
X164105714Y-74957142D01*
X164200952Y-74909523D01*
X164248571Y-74861904D01*
X164296190Y-74766666D01*
X164296190Y-74385714D01*
X164772380Y-75909523D02*
X164772380Y-75338095D01*
X164772380Y-75623809D02*
X163772380Y-75623809D01*
X163915238Y-75528571D01*
X164010476Y-75433333D01*
X164058095Y-75338095D01*
X163772380Y-76766666D02*
X163772380Y-76576190D01*
X163820000Y-76480952D01*
X163867619Y-76433333D01*
X164010476Y-76338095D01*
X164200952Y-76290476D01*
X164581904Y-76290476D01*
X164677142Y-76338095D01*
X164724761Y-76385714D01*
X164772380Y-76480952D01*
X164772380Y-76671428D01*
X164724761Y-76766666D01*
X164677142Y-76814285D01*
X164581904Y-76861904D01*
X164343809Y-76861904D01*
X164248571Y-76814285D01*
X164200952Y-76766666D01*
X164153333Y-76671428D01*
X164153333Y-76480952D01*
X164200952Y-76385714D01*
X164248571Y-76338095D01*
X164343809Y-76290476D01*
%TO.C,R15*%
X164652380Y-68557142D02*
X164176190Y-68223809D01*
X164652380Y-67985714D02*
X163652380Y-67985714D01*
X163652380Y-68366666D01*
X163700000Y-68461904D01*
X163747619Y-68509523D01*
X163842857Y-68557142D01*
X163985714Y-68557142D01*
X164080952Y-68509523D01*
X164128571Y-68461904D01*
X164176190Y-68366666D01*
X164176190Y-67985714D01*
X164652380Y-69509523D02*
X164652380Y-68938095D01*
X164652380Y-69223809D02*
X163652380Y-69223809D01*
X163795238Y-69128571D01*
X163890476Y-69033333D01*
X163938095Y-68938095D01*
X163652380Y-70414285D02*
X163652380Y-69938095D01*
X164128571Y-69890476D01*
X164080952Y-69938095D01*
X164033333Y-70033333D01*
X164033333Y-70271428D01*
X164080952Y-70366666D01*
X164128571Y-70414285D01*
X164223809Y-70461904D01*
X164461904Y-70461904D01*
X164557142Y-70414285D01*
X164604761Y-70366666D01*
X164652380Y-70271428D01*
X164652380Y-70033333D01*
X164604761Y-69938095D01*
X164557142Y-69890476D01*
%TO.C,R14*%
X141242857Y-66852380D02*
X141576190Y-66376190D01*
X141814285Y-66852380D02*
X141814285Y-65852380D01*
X141433333Y-65852380D01*
X141338095Y-65900000D01*
X141290476Y-65947619D01*
X141242857Y-66042857D01*
X141242857Y-66185714D01*
X141290476Y-66280952D01*
X141338095Y-66328571D01*
X141433333Y-66376190D01*
X141814285Y-66376190D01*
X140290476Y-66852380D02*
X140861904Y-66852380D01*
X140576190Y-66852380D02*
X140576190Y-65852380D01*
X140671428Y-65995238D01*
X140766666Y-66090476D01*
X140861904Y-66138095D01*
X139433333Y-66185714D02*
X139433333Y-66852380D01*
X139671428Y-65804761D02*
X139909523Y-66519047D01*
X139290476Y-66519047D01*
%TO.C,R13*%
X126067857Y-61576380D02*
X126401190Y-61100190D01*
X126639285Y-61576380D02*
X126639285Y-60576380D01*
X126258333Y-60576380D01*
X126163095Y-60624000D01*
X126115476Y-60671619D01*
X126067857Y-60766857D01*
X126067857Y-60909714D01*
X126115476Y-61004952D01*
X126163095Y-61052571D01*
X126258333Y-61100190D01*
X126639285Y-61100190D01*
X125115476Y-61576380D02*
X125686904Y-61576380D01*
X125401190Y-61576380D02*
X125401190Y-60576380D01*
X125496428Y-60719238D01*
X125591666Y-60814476D01*
X125686904Y-60862095D01*
X124782142Y-60576380D02*
X124163095Y-60576380D01*
X124496428Y-60957333D01*
X124353571Y-60957333D01*
X124258333Y-61004952D01*
X124210714Y-61052571D01*
X124163095Y-61147809D01*
X124163095Y-61385904D01*
X124210714Y-61481142D01*
X124258333Y-61528761D01*
X124353571Y-61576380D01*
X124639285Y-61576380D01*
X124734523Y-61528761D01*
X124782142Y-61481142D01*
%TO.C,R12*%
X140492857Y-73514380D02*
X140826190Y-73038190D01*
X141064285Y-73514380D02*
X141064285Y-72514380D01*
X140683333Y-72514380D01*
X140588095Y-72562000D01*
X140540476Y-72609619D01*
X140492857Y-72704857D01*
X140492857Y-72847714D01*
X140540476Y-72942952D01*
X140588095Y-72990571D01*
X140683333Y-73038190D01*
X141064285Y-73038190D01*
X139540476Y-73514380D02*
X140111904Y-73514380D01*
X139826190Y-73514380D02*
X139826190Y-72514380D01*
X139921428Y-72657238D01*
X140016666Y-72752476D01*
X140111904Y-72800095D01*
X139159523Y-72609619D02*
X139111904Y-72562000D01*
X139016666Y-72514380D01*
X138778571Y-72514380D01*
X138683333Y-72562000D01*
X138635714Y-72609619D01*
X138588095Y-72704857D01*
X138588095Y-72800095D01*
X138635714Y-72942952D01*
X139207142Y-73514380D01*
X138588095Y-73514380D01*
%TO.C,R11*%
X121342857Y-67752380D02*
X121676190Y-67276190D01*
X121914285Y-67752380D02*
X121914285Y-66752380D01*
X121533333Y-66752380D01*
X121438095Y-66800000D01*
X121390476Y-66847619D01*
X121342857Y-66942857D01*
X121342857Y-67085714D01*
X121390476Y-67180952D01*
X121438095Y-67228571D01*
X121533333Y-67276190D01*
X121914285Y-67276190D01*
X120390476Y-67752380D02*
X120961904Y-67752380D01*
X120676190Y-67752380D02*
X120676190Y-66752380D01*
X120771428Y-66895238D01*
X120866666Y-66990476D01*
X120961904Y-67038095D01*
X119438095Y-67752380D02*
X120009523Y-67752380D01*
X119723809Y-67752380D02*
X119723809Y-66752380D01*
X119819047Y-66895238D01*
X119914285Y-66990476D01*
X120009523Y-67038095D01*
%TO.C,R10*%
X117632857Y-68434380D02*
X117966190Y-67958190D01*
X118204285Y-68434380D02*
X118204285Y-67434380D01*
X117823333Y-67434380D01*
X117728095Y-67482000D01*
X117680476Y-67529619D01*
X117632857Y-67624857D01*
X117632857Y-67767714D01*
X117680476Y-67862952D01*
X117728095Y-67910571D01*
X117823333Y-67958190D01*
X118204285Y-67958190D01*
X116680476Y-68434380D02*
X117251904Y-68434380D01*
X116966190Y-68434380D02*
X116966190Y-67434380D01*
X117061428Y-67577238D01*
X117156666Y-67672476D01*
X117251904Y-67720095D01*
X116061428Y-67434380D02*
X115966190Y-67434380D01*
X115870952Y-67482000D01*
X115823333Y-67529619D01*
X115775714Y-67624857D01*
X115728095Y-67815333D01*
X115728095Y-68053428D01*
X115775714Y-68243904D01*
X115823333Y-68339142D01*
X115870952Y-68386761D01*
X115966190Y-68434380D01*
X116061428Y-68434380D01*
X116156666Y-68386761D01*
X116204285Y-68339142D01*
X116251904Y-68243904D01*
X116299523Y-68053428D01*
X116299523Y-67815333D01*
X116251904Y-67624857D01*
X116204285Y-67529619D01*
X116156666Y-67482000D01*
X116061428Y-67434380D01*
%TO.C,R9*%
X110806666Y-74322380D02*
X111140000Y-73846190D01*
X111378095Y-74322380D02*
X111378095Y-73322380D01*
X110997142Y-73322380D01*
X110901904Y-73370000D01*
X110854285Y-73417619D01*
X110806666Y-73512857D01*
X110806666Y-73655714D01*
X110854285Y-73750952D01*
X110901904Y-73798571D01*
X110997142Y-73846190D01*
X111378095Y-73846190D01*
X110330476Y-74322380D02*
X110140000Y-74322380D01*
X110044761Y-74274761D01*
X109997142Y-74227142D01*
X109901904Y-74084285D01*
X109854285Y-73893809D01*
X109854285Y-73512857D01*
X109901904Y-73417619D01*
X109949523Y-73370000D01*
X110044761Y-73322380D01*
X110235238Y-73322380D01*
X110330476Y-73370000D01*
X110378095Y-73417619D01*
X110425714Y-73512857D01*
X110425714Y-73750952D01*
X110378095Y-73846190D01*
X110330476Y-73893809D01*
X110235238Y-73941428D01*
X110044761Y-73941428D01*
X109949523Y-73893809D01*
X109901904Y-73846190D01*
X109854285Y-73750952D01*
%TO.C,R8*%
X121652380Y-69233333D02*
X121176190Y-68900000D01*
X121652380Y-68661904D02*
X120652380Y-68661904D01*
X120652380Y-69042857D01*
X120700000Y-69138095D01*
X120747619Y-69185714D01*
X120842857Y-69233333D01*
X120985714Y-69233333D01*
X121080952Y-69185714D01*
X121128571Y-69138095D01*
X121176190Y-69042857D01*
X121176190Y-68661904D01*
X121080952Y-69804761D02*
X121033333Y-69709523D01*
X120985714Y-69661904D01*
X120890476Y-69614285D01*
X120842857Y-69614285D01*
X120747619Y-69661904D01*
X120700000Y-69709523D01*
X120652380Y-69804761D01*
X120652380Y-69995238D01*
X120700000Y-70090476D01*
X120747619Y-70138095D01*
X120842857Y-70185714D01*
X120890476Y-70185714D01*
X120985714Y-70138095D01*
X121033333Y-70090476D01*
X121080952Y-69995238D01*
X121080952Y-69804761D01*
X121128571Y-69709523D01*
X121176190Y-69661904D01*
X121271428Y-69614285D01*
X121461904Y-69614285D01*
X121557142Y-69661904D01*
X121604761Y-69709523D01*
X121652380Y-69804761D01*
X121652380Y-69995238D01*
X121604761Y-70090476D01*
X121557142Y-70138095D01*
X121461904Y-70185714D01*
X121271428Y-70185714D01*
X121176190Y-70138095D01*
X121128571Y-70090476D01*
X121080952Y-69995238D01*
%TO.C,R7*%
X156966666Y-69052380D02*
X157300000Y-68576190D01*
X157538095Y-69052380D02*
X157538095Y-68052380D01*
X157157142Y-68052380D01*
X157061904Y-68100000D01*
X157014285Y-68147619D01*
X156966666Y-68242857D01*
X156966666Y-68385714D01*
X157014285Y-68480952D01*
X157061904Y-68528571D01*
X157157142Y-68576190D01*
X157538095Y-68576190D01*
X156633333Y-68052380D02*
X155966666Y-68052380D01*
X156395238Y-69052380D01*
%TO.C,R6*%
X145966666Y-62252380D02*
X146300000Y-61776190D01*
X146538095Y-62252380D02*
X146538095Y-61252380D01*
X146157142Y-61252380D01*
X146061904Y-61300000D01*
X146014285Y-61347619D01*
X145966666Y-61442857D01*
X145966666Y-61585714D01*
X146014285Y-61680952D01*
X146061904Y-61728571D01*
X146157142Y-61776190D01*
X146538095Y-61776190D01*
X145109523Y-61252380D02*
X145300000Y-61252380D01*
X145395238Y-61300000D01*
X145442857Y-61347619D01*
X145538095Y-61490476D01*
X145585714Y-61680952D01*
X145585714Y-62061904D01*
X145538095Y-62157142D01*
X145490476Y-62204761D01*
X145395238Y-62252380D01*
X145204761Y-62252380D01*
X145109523Y-62204761D01*
X145061904Y-62157142D01*
X145014285Y-62061904D01*
X145014285Y-61823809D01*
X145061904Y-61728571D01*
X145109523Y-61680952D01*
X145204761Y-61633333D01*
X145395238Y-61633333D01*
X145490476Y-61680952D01*
X145538095Y-61728571D01*
X145585714Y-61823809D01*
%TO.C,R5*%
X88962666Y-62592380D02*
X89296000Y-62116190D01*
X89534095Y-62592380D02*
X89534095Y-61592380D01*
X89153142Y-61592380D01*
X89057904Y-61640000D01*
X89010285Y-61687619D01*
X88962666Y-61782857D01*
X88962666Y-61925714D01*
X89010285Y-62020952D01*
X89057904Y-62068571D01*
X89153142Y-62116190D01*
X89534095Y-62116190D01*
X88057904Y-61592380D02*
X88534095Y-61592380D01*
X88581714Y-62068571D01*
X88534095Y-62020952D01*
X88438857Y-61973333D01*
X88200761Y-61973333D01*
X88105523Y-62020952D01*
X88057904Y-62068571D01*
X88010285Y-62163809D01*
X88010285Y-62401904D01*
X88057904Y-62497142D01*
X88105523Y-62544761D01*
X88200761Y-62592380D01*
X88438857Y-62592380D01*
X88534095Y-62544761D01*
X88581714Y-62497142D01*
%TO.C,R4*%
X95666666Y-62338380D02*
X96000000Y-61862190D01*
X96238095Y-62338380D02*
X96238095Y-61338380D01*
X95857142Y-61338380D01*
X95761904Y-61386000D01*
X95714285Y-61433619D01*
X95666666Y-61528857D01*
X95666666Y-61671714D01*
X95714285Y-61766952D01*
X95761904Y-61814571D01*
X95857142Y-61862190D01*
X96238095Y-61862190D01*
X94809523Y-61671714D02*
X94809523Y-62338380D01*
X95047619Y-61290761D02*
X95285714Y-62005047D01*
X94666666Y-62005047D01*
%TO.C,R3*%
X91248666Y-62592380D02*
X91582000Y-62116190D01*
X91820095Y-62592380D02*
X91820095Y-61592380D01*
X91439142Y-61592380D01*
X91343904Y-61640000D01*
X91296285Y-61687619D01*
X91248666Y-61782857D01*
X91248666Y-61925714D01*
X91296285Y-62020952D01*
X91343904Y-62068571D01*
X91439142Y-62116190D01*
X91820095Y-62116190D01*
X90915333Y-61592380D02*
X90296285Y-61592380D01*
X90629619Y-61973333D01*
X90486761Y-61973333D01*
X90391523Y-62020952D01*
X90343904Y-62068571D01*
X90296285Y-62163809D01*
X90296285Y-62401904D01*
X90343904Y-62497142D01*
X90391523Y-62544761D01*
X90486761Y-62592380D01*
X90772476Y-62592380D01*
X90867714Y-62544761D01*
X90915333Y-62497142D01*
%TO.C,Q3*%
X112005238Y-71577619D02*
X112100476Y-71530000D01*
X112195714Y-71434761D01*
X112338571Y-71291904D01*
X112433809Y-71244285D01*
X112529047Y-71244285D01*
X112481428Y-71482380D02*
X112576666Y-71434761D01*
X112671904Y-71339523D01*
X112719523Y-71149047D01*
X112719523Y-70815714D01*
X112671904Y-70625238D01*
X112576666Y-70530000D01*
X112481428Y-70482380D01*
X112290952Y-70482380D01*
X112195714Y-70530000D01*
X112100476Y-70625238D01*
X112052857Y-70815714D01*
X112052857Y-71149047D01*
X112100476Y-71339523D01*
X112195714Y-71434761D01*
X112290952Y-71482380D01*
X112481428Y-71482380D01*
X111719523Y-70482380D02*
X111100476Y-70482380D01*
X111433809Y-70863333D01*
X111290952Y-70863333D01*
X111195714Y-70910952D01*
X111148095Y-70958571D01*
X111100476Y-71053809D01*
X111100476Y-71291904D01*
X111148095Y-71387142D01*
X111195714Y-71434761D01*
X111290952Y-71482380D01*
X111576666Y-71482380D01*
X111671904Y-71434761D01*
X111719523Y-71387142D01*
%TO.C,Q2*%
X141723238Y-69037619D02*
X141818476Y-68990000D01*
X141913714Y-68894761D01*
X142056571Y-68751904D01*
X142151809Y-68704285D01*
X142247047Y-68704285D01*
X142199428Y-68942380D02*
X142294666Y-68894761D01*
X142389904Y-68799523D01*
X142437523Y-68609047D01*
X142437523Y-68275714D01*
X142389904Y-68085238D01*
X142294666Y-67990000D01*
X142199428Y-67942380D01*
X142008952Y-67942380D01*
X141913714Y-67990000D01*
X141818476Y-68085238D01*
X141770857Y-68275714D01*
X141770857Y-68609047D01*
X141818476Y-68799523D01*
X141913714Y-68894761D01*
X142008952Y-68942380D01*
X142199428Y-68942380D01*
X141389904Y-68037619D02*
X141342285Y-67990000D01*
X141247047Y-67942380D01*
X141008952Y-67942380D01*
X140913714Y-67990000D01*
X140866095Y-68037619D01*
X140818476Y-68132857D01*
X140818476Y-68228095D01*
X140866095Y-68370952D01*
X141437523Y-68942380D01*
X140818476Y-68942380D01*
%TO.C,Q1*%
X146295238Y-69037619D02*
X146390476Y-68990000D01*
X146485714Y-68894761D01*
X146628571Y-68751904D01*
X146723809Y-68704285D01*
X146819047Y-68704285D01*
X146771428Y-68942380D02*
X146866666Y-68894761D01*
X146961904Y-68799523D01*
X147009523Y-68609047D01*
X147009523Y-68275714D01*
X146961904Y-68085238D01*
X146866666Y-67990000D01*
X146771428Y-67942380D01*
X146580952Y-67942380D01*
X146485714Y-67990000D01*
X146390476Y-68085238D01*
X146342857Y-68275714D01*
X146342857Y-68609047D01*
X146390476Y-68799523D01*
X146485714Y-68894761D01*
X146580952Y-68942380D01*
X146771428Y-68942380D01*
X145390476Y-68942380D02*
X145961904Y-68942380D01*
X145676190Y-68942380D02*
X145676190Y-67942380D01*
X145771428Y-68085238D01*
X145866666Y-68180476D01*
X145961904Y-68228095D01*
%TO.C,L1*%
X133920666Y-81642380D02*
X134396857Y-81642380D01*
X134396857Y-80642380D01*
X133063523Y-81642380D02*
X133634952Y-81642380D01*
X133349238Y-81642380D02*
X133349238Y-80642380D01*
X133444476Y-80785238D01*
X133539714Y-80880476D01*
X133634952Y-80928095D01*
%TO.C,J6*%
X159333333Y-62458380D02*
X159333333Y-63172666D01*
X159380952Y-63315523D01*
X159476190Y-63410761D01*
X159619047Y-63458380D01*
X159714285Y-63458380D01*
X158428571Y-62458380D02*
X158619047Y-62458380D01*
X158714285Y-62506000D01*
X158761904Y-62553619D01*
X158857142Y-62696476D01*
X158904761Y-62886952D01*
X158904761Y-63267904D01*
X158857142Y-63363142D01*
X158809523Y-63410761D01*
X158714285Y-63458380D01*
X158523809Y-63458380D01*
X158428571Y-63410761D01*
X158380952Y-63363142D01*
X158333333Y-63267904D01*
X158333333Y-63029809D01*
X158380952Y-62934571D01*
X158428571Y-62886952D01*
X158523809Y-62839333D01*
X158714285Y-62839333D01*
X158809523Y-62886952D01*
X158857142Y-62934571D01*
X158904761Y-63029809D01*
%TO.C,J5*%
X84557333Y-81912380D02*
X84557333Y-82626666D01*
X84604952Y-82769523D01*
X84700190Y-82864761D01*
X84843047Y-82912380D01*
X84938285Y-82912380D01*
X83604952Y-81912380D02*
X84081142Y-81912380D01*
X84128761Y-82388571D01*
X84081142Y-82340952D01*
X83985904Y-82293333D01*
X83747809Y-82293333D01*
X83652571Y-82340952D01*
X83604952Y-82388571D01*
X83557333Y-82483809D01*
X83557333Y-82721904D01*
X83604952Y-82817142D01*
X83652571Y-82864761D01*
X83747809Y-82912380D01*
X83985904Y-82912380D01*
X84081142Y-82864761D01*
X84128761Y-82817142D01*
%TO.C,J4*%
X155931333Y-73784380D02*
X155931333Y-74498666D01*
X155978952Y-74641523D01*
X156074190Y-74736761D01*
X156217047Y-74784380D01*
X156312285Y-74784380D01*
X155026571Y-74117714D02*
X155026571Y-74784380D01*
X155264666Y-73736761D02*
X155502761Y-74451047D01*
X154883714Y-74451047D01*
%TO.C,J3*%
X79731333Y-77340380D02*
X79731333Y-78054666D01*
X79778952Y-78197523D01*
X79874190Y-78292761D01*
X80017047Y-78340380D01*
X80112285Y-78340380D01*
X79350380Y-77340380D02*
X78731333Y-77340380D01*
X79064666Y-77721333D01*
X78921809Y-77721333D01*
X78826571Y-77768952D01*
X78778952Y-77816571D01*
X78731333Y-77911809D01*
X78731333Y-78149904D01*
X78778952Y-78245142D01*
X78826571Y-78292761D01*
X78921809Y-78340380D01*
X79207523Y-78340380D01*
X79302761Y-78292761D01*
X79350380Y-78245142D01*
%TO.C,F1*%
X89129333Y-76800571D02*
X89462666Y-76800571D01*
X89462666Y-77324380D02*
X89462666Y-76324380D01*
X88986476Y-76324380D01*
X88081714Y-77324380D02*
X88653142Y-77324380D01*
X88367428Y-77324380D02*
X88367428Y-76324380D01*
X88462666Y-76467238D01*
X88557904Y-76562476D01*
X88653142Y-76610095D01*
%TO.C,D4*%
X76580095Y-68942380D02*
X76580095Y-67942380D01*
X76342000Y-67942380D01*
X76199142Y-67990000D01*
X76103904Y-68085238D01*
X76056285Y-68180476D01*
X76008666Y-68370952D01*
X76008666Y-68513809D01*
X76056285Y-68704285D01*
X76103904Y-68799523D01*
X76199142Y-68894761D01*
X76342000Y-68942380D01*
X76580095Y-68942380D01*
X75151523Y-68275714D02*
X75151523Y-68942380D01*
X75389619Y-67894761D02*
X75627714Y-68609047D01*
X75008666Y-68609047D01*
%TO.C,D3*%
X144870095Y-83824380D02*
X144870095Y-82824380D01*
X144632000Y-82824380D01*
X144489142Y-82872000D01*
X144393904Y-82967238D01*
X144346285Y-83062476D01*
X144298666Y-83252952D01*
X144298666Y-83395809D01*
X144346285Y-83586285D01*
X144393904Y-83681523D01*
X144489142Y-83776761D01*
X144632000Y-83824380D01*
X144870095Y-83824380D01*
X143965333Y-82824380D02*
X143346285Y-82824380D01*
X143679619Y-83205333D01*
X143536761Y-83205333D01*
X143441523Y-83252952D01*
X143393904Y-83300571D01*
X143346285Y-83395809D01*
X143346285Y-83633904D01*
X143393904Y-83729142D01*
X143441523Y-83776761D01*
X143536761Y-83824380D01*
X143822476Y-83824380D01*
X143917714Y-83776761D01*
X143965333Y-83729142D01*
%TO.C,D2*%
X104774095Y-75038380D02*
X104774095Y-74038380D01*
X104536000Y-74038380D01*
X104393142Y-74086000D01*
X104297904Y-74181238D01*
X104250285Y-74276476D01*
X104202666Y-74466952D01*
X104202666Y-74609809D01*
X104250285Y-74800285D01*
X104297904Y-74895523D01*
X104393142Y-74990761D01*
X104536000Y-75038380D01*
X104774095Y-75038380D01*
X103821714Y-74133619D02*
X103774095Y-74086000D01*
X103678857Y-74038380D01*
X103440761Y-74038380D01*
X103345523Y-74086000D01*
X103297904Y-74133619D01*
X103250285Y-74228857D01*
X103250285Y-74324095D01*
X103297904Y-74466952D01*
X103869333Y-75038380D01*
X103250285Y-75038380D01*
%TO.C,D1*%
X93344095Y-77832380D02*
X93344095Y-76832380D01*
X93106000Y-76832380D01*
X92963142Y-76880000D01*
X92867904Y-76975238D01*
X92820285Y-77070476D01*
X92772666Y-77260952D01*
X92772666Y-77403809D01*
X92820285Y-77594285D01*
X92867904Y-77689523D01*
X92963142Y-77784761D01*
X93106000Y-77832380D01*
X93344095Y-77832380D01*
X91820285Y-77832380D02*
X92391714Y-77832380D01*
X92106000Y-77832380D02*
X92106000Y-76832380D01*
X92201238Y-76975238D01*
X92296476Y-77070476D01*
X92391714Y-77118095D01*
%TO.C,C10*%
X121696857Y-61481142D02*
X121744476Y-61528761D01*
X121887333Y-61576380D01*
X121982571Y-61576380D01*
X122125428Y-61528761D01*
X122220666Y-61433523D01*
X122268285Y-61338285D01*
X122315904Y-61147809D01*
X122315904Y-61004952D01*
X122268285Y-60814476D01*
X122220666Y-60719238D01*
X122125428Y-60624000D01*
X121982571Y-60576380D01*
X121887333Y-60576380D01*
X121744476Y-60624000D01*
X121696857Y-60671619D01*
X120744476Y-61576380D02*
X121315904Y-61576380D01*
X121030190Y-61576380D02*
X121030190Y-60576380D01*
X121125428Y-60719238D01*
X121220666Y-60814476D01*
X121315904Y-60862095D01*
X120125428Y-60576380D02*
X120030190Y-60576380D01*
X119934952Y-60624000D01*
X119887333Y-60671619D01*
X119839714Y-60766857D01*
X119792095Y-60957333D01*
X119792095Y-61195428D01*
X119839714Y-61385904D01*
X119887333Y-61481142D01*
X119934952Y-61528761D01*
X120030190Y-61576380D01*
X120125428Y-61576380D01*
X120220666Y-61528761D01*
X120268285Y-61481142D01*
X120315904Y-61385904D01*
X120363523Y-61195428D01*
X120363523Y-60957333D01*
X120315904Y-60766857D01*
X120268285Y-60671619D01*
X120220666Y-60624000D01*
X120125428Y-60576380D01*
%TO.C,C9*%
X136714666Y-73419142D02*
X136762285Y-73466761D01*
X136905142Y-73514380D01*
X137000380Y-73514380D01*
X137143238Y-73466761D01*
X137238476Y-73371523D01*
X137286095Y-73276285D01*
X137333714Y-73085809D01*
X137333714Y-72942952D01*
X137286095Y-72752476D01*
X137238476Y-72657238D01*
X137143238Y-72562000D01*
X137000380Y-72514380D01*
X136905142Y-72514380D01*
X136762285Y-72562000D01*
X136714666Y-72609619D01*
X136238476Y-73514380D02*
X136048000Y-73514380D01*
X135952761Y-73466761D01*
X135905142Y-73419142D01*
X135809904Y-73276285D01*
X135762285Y-73085809D01*
X135762285Y-72704857D01*
X135809904Y-72609619D01*
X135857523Y-72562000D01*
X135952761Y-72514380D01*
X136143238Y-72514380D01*
X136238476Y-72562000D01*
X136286095Y-72609619D01*
X136333714Y-72704857D01*
X136333714Y-72942952D01*
X136286095Y-73038190D01*
X136238476Y-73085809D01*
X136143238Y-73133428D01*
X135952761Y-73133428D01*
X135857523Y-73085809D01*
X135809904Y-73038190D01*
X135762285Y-72942952D01*
%TO.C,C8*%
X128078666Y-64529142D02*
X128126285Y-64576761D01*
X128269142Y-64624380D01*
X128364380Y-64624380D01*
X128507238Y-64576761D01*
X128602476Y-64481523D01*
X128650095Y-64386285D01*
X128697714Y-64195809D01*
X128697714Y-64052952D01*
X128650095Y-63862476D01*
X128602476Y-63767238D01*
X128507238Y-63672000D01*
X128364380Y-63624380D01*
X128269142Y-63624380D01*
X128126285Y-63672000D01*
X128078666Y-63719619D01*
X127507238Y-64052952D02*
X127602476Y-64005333D01*
X127650095Y-63957714D01*
X127697714Y-63862476D01*
X127697714Y-63814857D01*
X127650095Y-63719619D01*
X127602476Y-63672000D01*
X127507238Y-63624380D01*
X127316761Y-63624380D01*
X127221523Y-63672000D01*
X127173904Y-63719619D01*
X127126285Y-63814857D01*
X127126285Y-63862476D01*
X127173904Y-63957714D01*
X127221523Y-64005333D01*
X127316761Y-64052952D01*
X127507238Y-64052952D01*
X127602476Y-64100571D01*
X127650095Y-64148190D01*
X127697714Y-64243428D01*
X127697714Y-64433904D01*
X127650095Y-64529142D01*
X127602476Y-64576761D01*
X127507238Y-64624380D01*
X127316761Y-64624380D01*
X127221523Y-64576761D01*
X127173904Y-64529142D01*
X127126285Y-64433904D01*
X127126285Y-64243428D01*
X127173904Y-64148190D01*
X127221523Y-64100571D01*
X127316761Y-64052952D01*
%TO.C,C7*%
X150684666Y-77991142D02*
X150732285Y-78038761D01*
X150875142Y-78086380D01*
X150970380Y-78086380D01*
X151113238Y-78038761D01*
X151208476Y-77943523D01*
X151256095Y-77848285D01*
X151303714Y-77657809D01*
X151303714Y-77514952D01*
X151256095Y-77324476D01*
X151208476Y-77229238D01*
X151113238Y-77134000D01*
X150970380Y-77086380D01*
X150875142Y-77086380D01*
X150732285Y-77134000D01*
X150684666Y-77181619D01*
X150351333Y-77086380D02*
X149684666Y-77086380D01*
X150113238Y-78086380D01*
%TO.C,C6*%
X126837142Y-69483333D02*
X126884761Y-69435714D01*
X126932380Y-69292857D01*
X126932380Y-69197619D01*
X126884761Y-69054761D01*
X126789523Y-68959523D01*
X126694285Y-68911904D01*
X126503809Y-68864285D01*
X126360952Y-68864285D01*
X126170476Y-68911904D01*
X126075238Y-68959523D01*
X125980000Y-69054761D01*
X125932380Y-69197619D01*
X125932380Y-69292857D01*
X125980000Y-69435714D01*
X126027619Y-69483333D01*
X125932380Y-70340476D02*
X125932380Y-70150000D01*
X125980000Y-70054761D01*
X126027619Y-70007142D01*
X126170476Y-69911904D01*
X126360952Y-69864285D01*
X126741904Y-69864285D01*
X126837142Y-69911904D01*
X126884761Y-69959523D01*
X126932380Y-70054761D01*
X126932380Y-70245238D01*
X126884761Y-70340476D01*
X126837142Y-70388095D01*
X126741904Y-70435714D01*
X126503809Y-70435714D01*
X126408571Y-70388095D01*
X126360952Y-70340476D01*
X126313333Y-70245238D01*
X126313333Y-70054761D01*
X126360952Y-69959523D01*
X126408571Y-69911904D01*
X126503809Y-69864285D01*
%TO.C,C5*%
X117156666Y-78499142D02*
X117204285Y-78546761D01*
X117347142Y-78594380D01*
X117442380Y-78594380D01*
X117585238Y-78546761D01*
X117680476Y-78451523D01*
X117728095Y-78356285D01*
X117775714Y-78165809D01*
X117775714Y-78022952D01*
X117728095Y-77832476D01*
X117680476Y-77737238D01*
X117585238Y-77642000D01*
X117442380Y-77594380D01*
X117347142Y-77594380D01*
X117204285Y-77642000D01*
X117156666Y-77689619D01*
X116251904Y-77594380D02*
X116728095Y-77594380D01*
X116775714Y-78070571D01*
X116728095Y-78022952D01*
X116632857Y-77975333D01*
X116394761Y-77975333D01*
X116299523Y-78022952D01*
X116251904Y-78070571D01*
X116204285Y-78165809D01*
X116204285Y-78403904D01*
X116251904Y-78499142D01*
X116299523Y-78546761D01*
X116394761Y-78594380D01*
X116632857Y-78594380D01*
X116728095Y-78546761D01*
X116775714Y-78499142D01*
%TO.C,C4*%
X112584666Y-77483142D02*
X112632285Y-77530761D01*
X112775142Y-77578380D01*
X112870380Y-77578380D01*
X113013238Y-77530761D01*
X113108476Y-77435523D01*
X113156095Y-77340285D01*
X113203714Y-77149809D01*
X113203714Y-77006952D01*
X113156095Y-76816476D01*
X113108476Y-76721238D01*
X113013238Y-76626000D01*
X112870380Y-76578380D01*
X112775142Y-76578380D01*
X112632285Y-76626000D01*
X112584666Y-76673619D01*
X111727523Y-76911714D02*
X111727523Y-77578380D01*
X111965619Y-76530761D02*
X112203714Y-77245047D01*
X111584666Y-77245047D01*
%TO.C,C3*%
X154966666Y-62157142D02*
X155014285Y-62204761D01*
X155157142Y-62252380D01*
X155252380Y-62252380D01*
X155395238Y-62204761D01*
X155490476Y-62109523D01*
X155538095Y-62014285D01*
X155585714Y-61823809D01*
X155585714Y-61680952D01*
X155538095Y-61490476D01*
X155490476Y-61395238D01*
X155395238Y-61300000D01*
X155252380Y-61252380D01*
X155157142Y-61252380D01*
X155014285Y-61300000D01*
X154966666Y-61347619D01*
X154633333Y-61252380D02*
X154014285Y-61252380D01*
X154347619Y-61633333D01*
X154204761Y-61633333D01*
X154109523Y-61680952D01*
X154061904Y-61728571D01*
X154014285Y-61823809D01*
X154014285Y-62061904D01*
X154061904Y-62157142D01*
X154109523Y-62204761D01*
X154204761Y-62252380D01*
X154490476Y-62252380D01*
X154585714Y-62204761D01*
X154633333Y-62157142D01*
%TO.C,C2*%
X99884666Y-69609142D02*
X99932285Y-69656761D01*
X100075142Y-69704380D01*
X100170380Y-69704380D01*
X100313238Y-69656761D01*
X100408476Y-69561523D01*
X100456095Y-69466285D01*
X100503714Y-69275809D01*
X100503714Y-69132952D01*
X100456095Y-68942476D01*
X100408476Y-68847238D01*
X100313238Y-68752000D01*
X100170380Y-68704380D01*
X100075142Y-68704380D01*
X99932285Y-68752000D01*
X99884666Y-68799619D01*
X99503714Y-68799619D02*
X99456095Y-68752000D01*
X99360857Y-68704380D01*
X99122761Y-68704380D01*
X99027523Y-68752000D01*
X98979904Y-68799619D01*
X98932285Y-68894857D01*
X98932285Y-68990095D01*
X98979904Y-69132952D01*
X99551333Y-69704380D01*
X98932285Y-69704380D01*
%TO.C,C1*%
X90740666Y-70117142D02*
X90788285Y-70164761D01*
X90931142Y-70212380D01*
X91026380Y-70212380D01*
X91169238Y-70164761D01*
X91264476Y-70069523D01*
X91312095Y-69974285D01*
X91359714Y-69783809D01*
X91359714Y-69640952D01*
X91312095Y-69450476D01*
X91264476Y-69355238D01*
X91169238Y-69260000D01*
X91026380Y-69212380D01*
X90931142Y-69212380D01*
X90788285Y-69260000D01*
X90740666Y-69307619D01*
X89788285Y-70212380D02*
X90359714Y-70212380D01*
X90074000Y-70212380D02*
X90074000Y-69212380D01*
X90169238Y-69355238D01*
X90264476Y-69450476D01*
X90359714Y-69498095D01*
%TD*%
M02*
