%TF.GenerationSoftware,KiCad,Pcbnew,(5.1.6)-1*%
%TF.CreationDate,2020-08-13T11:00:50+03:00*%
%TF.ProjectId,Rechargeable 5V power bank REV 0.53,52656368-6172-4676-9561-626c65203556,rev?*%
%TF.SameCoordinates,Original*%
%TF.FileFunction,Copper,L1,Top*%
%TF.FilePolarity,Positive*%
%FSLAX46Y46*%
G04 Gerber Fmt 4.6, Leading zero omitted, Abs format (unit mm)*
G04 Created by KiCad (PCBNEW (5.1.6)-1) date 2020-08-13 11:00:50*
%MOMM*%
%LPD*%
G01*
G04 APERTURE LIST*
%TA.AperFunction,ComponentPad*%
%ADD10C,2.200000*%
%TD*%
%TA.AperFunction,ComponentPad*%
%ADD11R,2.200000X2.200000*%
%TD*%
%TA.AperFunction,ComponentPad*%
%ADD12C,3.200000*%
%TD*%
%TA.AperFunction,ComponentPad*%
%ADD13C,1.500000*%
%TD*%
%TA.AperFunction,ComponentPad*%
%ADD14R,1.500000X1.500000*%
%TD*%
%TA.AperFunction,SMDPad,CuDef*%
%ADD15R,1.900000X1.900000*%
%TD*%
%TA.AperFunction,ComponentPad*%
%ADD16O,2.000000X1.300000*%
%TD*%
%TA.AperFunction,ComponentPad*%
%ADD17O,1.400000X1.200000*%
%TD*%
%TA.AperFunction,SMDPad,CuDef*%
%ADD18R,2.350000X0.400000*%
%TD*%
%TA.AperFunction,ViaPad*%
%ADD19C,0.600000*%
%TD*%
%TA.AperFunction,Conductor*%
%ADD20C,0.500000*%
%TD*%
%TA.AperFunction,Conductor*%
%ADD21C,0.250000*%
%TD*%
%TA.AperFunction,Conductor*%
%ADD22C,0.300000*%
%TD*%
%TA.AperFunction,Conductor*%
%ADD23C,0.254000*%
%TD*%
G04 APERTURE END LIST*
D10*
%TO.P,BAT1,-*%
%TO.N,/-VBAT*%
X154110000Y-72500000D03*
D11*
%TO.P,BAT1,+*%
%TO.N,/+VBAT*%
X81890000Y-72500000D03*
%TD*%
%TO.P,R2,2*%
%TO.N,/BLED*%
%TA.AperFunction,SMDPad,CuDef*%
G36*
G01*
X76262500Y-63225000D02*
X76737500Y-63225000D01*
G75*
G02*
X76975000Y-63462500I0J-237500D01*
G01*
X76975000Y-64037500D01*
G75*
G02*
X76737500Y-64275000I-237500J0D01*
G01*
X76262500Y-64275000D01*
G75*
G02*
X76025000Y-64037500I0J237500D01*
G01*
X76025000Y-63462500D01*
G75*
G02*
X76262500Y-63225000I237500J0D01*
G01*
G37*
%TD.AperFunction*%
%TO.P,R2,1*%
%TO.N,/~PG*%
%TA.AperFunction,SMDPad,CuDef*%
G36*
G01*
X76262500Y-61475000D02*
X76737500Y-61475000D01*
G75*
G02*
X76975000Y-61712500I0J-237500D01*
G01*
X76975000Y-62287500D01*
G75*
G02*
X76737500Y-62525000I-237500J0D01*
G01*
X76262500Y-62525000D01*
G75*
G02*
X76025000Y-62287500I0J237500D01*
G01*
X76025000Y-61712500D01*
G75*
G02*
X76262500Y-61475000I237500J0D01*
G01*
G37*
%TD.AperFunction*%
%TD*%
%TO.P,R1,2*%
%TO.N,/GLED*%
%TA.AperFunction,SMDPad,CuDef*%
G36*
G01*
X76737500Y-81775000D02*
X76262500Y-81775000D01*
G75*
G02*
X76025000Y-81537500I0J237500D01*
G01*
X76025000Y-80962500D01*
G75*
G02*
X76262500Y-80725000I237500J0D01*
G01*
X76737500Y-80725000D01*
G75*
G02*
X76975000Y-80962500I0J-237500D01*
G01*
X76975000Y-81537500D01*
G75*
G02*
X76737500Y-81775000I-237500J0D01*
G01*
G37*
%TD.AperFunction*%
%TO.P,R1,1*%
%TO.N,/~CHG*%
%TA.AperFunction,SMDPad,CuDef*%
G36*
G01*
X76737500Y-83525000D02*
X76262500Y-83525000D01*
G75*
G02*
X76025000Y-83287500I0J237500D01*
G01*
X76025000Y-82712500D01*
G75*
G02*
X76262500Y-82475000I237500J0D01*
G01*
X76737500Y-82475000D01*
G75*
G02*
X76975000Y-82712500I0J-237500D01*
G01*
X76975000Y-83287500D01*
G75*
G02*
X76737500Y-83525000I-237500J0D01*
G01*
G37*
%TD.AperFunction*%
%TD*%
%TO.P,NTC1,2*%
%TO.N,GND*%
%TA.AperFunction,SMDPad,CuDef*%
G36*
G01*
X118475000Y-72737500D02*
X118475000Y-72262500D01*
G75*
G02*
X118712500Y-72025000I237500J0D01*
G01*
X119287500Y-72025000D01*
G75*
G02*
X119525000Y-72262500I0J-237500D01*
G01*
X119525000Y-72737500D01*
G75*
G02*
X119287500Y-72975000I-237500J0D01*
G01*
X118712500Y-72975000D01*
G75*
G02*
X118475000Y-72737500I0J237500D01*
G01*
G37*
%TD.AperFunction*%
%TO.P,NTC1,1*%
%TO.N,/NTC*%
%TA.AperFunction,SMDPad,CuDef*%
G36*
G01*
X116725000Y-72737500D02*
X116725000Y-72262500D01*
G75*
G02*
X116962500Y-72025000I237500J0D01*
G01*
X117537500Y-72025000D01*
G75*
G02*
X117775000Y-72262500I0J-237500D01*
G01*
X117775000Y-72737500D01*
G75*
G02*
X117537500Y-72975000I-237500J0D01*
G01*
X116962500Y-72975000D01*
G75*
G02*
X116725000Y-72737500I0J237500D01*
G01*
G37*
%TD.AperFunction*%
%TD*%
D12*
%TO.P,J2,6*%
%TO.N,GND*%
X162710000Y-65930000D03*
%TO.P,J2,5*%
X162710000Y-79070000D03*
D13*
%TO.P,J2,4*%
X160000000Y-69000000D03*
%TO.P,J2,3*%
%TO.N,Net-(J2-Pad3)*%
X160000000Y-71500000D03*
%TO.P,J2,2*%
%TO.N,Net-(J2-Pad2)*%
X160000000Y-73500000D03*
D14*
%TO.P,J2,1*%
%TO.N,VOUT*%
X160000000Y-76000000D03*
%TD*%
D15*
%TO.P,J1,9*%
%TO.N,GND*%
X71500000Y-71300000D03*
%TO.P,J1,10*%
X71500000Y-73700000D03*
D16*
%TO.P,J1,8*%
X71500000Y-68300000D03*
%TO.P,J1,11*%
X71500000Y-76700000D03*
D17*
%TO.P,J1,7*%
X74500000Y-74850000D03*
%TO.P,J1,6*%
X74500000Y-70150000D03*
D18*
%TO.P,J1,1*%
%TO.N,VBUS*%
X74500000Y-71200000D03*
%TO.P,J1,2*%
%TO.N,Net-(J1-Pad2)*%
X74500000Y-71850000D03*
%TO.P,J1,3*%
X74500000Y-72500000D03*
%TO.P,J1,4*%
%TO.N,GND*%
X74500000Y-73150000D03*
%TO.P,J1,5*%
X74500000Y-73800000D03*
%TD*%
%TO.P,DS2,K*%
%TO.N,/GLED*%
%TA.AperFunction,SMDPad,CuDef*%
G36*
G01*
X74275000Y-78762500D02*
X74275000Y-79237500D01*
G75*
G02*
X74037500Y-79475000I-237500J0D01*
G01*
X73462500Y-79475000D01*
G75*
G02*
X73225000Y-79237500I0J237500D01*
G01*
X73225000Y-78762500D01*
G75*
G02*
X73462500Y-78525000I237500J0D01*
G01*
X74037500Y-78525000D01*
G75*
G02*
X74275000Y-78762500I0J-237500D01*
G01*
G37*
%TD.AperFunction*%
%TO.P,DS2,A*%
%TO.N,VBUS*%
%TA.AperFunction,SMDPad,CuDef*%
G36*
G01*
X72525000Y-78762500D02*
X72525000Y-79237500D01*
G75*
G02*
X72287500Y-79475000I-237500J0D01*
G01*
X71712500Y-79475000D01*
G75*
G02*
X71475000Y-79237500I0J237500D01*
G01*
X71475000Y-78762500D01*
G75*
G02*
X71712500Y-78525000I237500J0D01*
G01*
X72287500Y-78525000D01*
G75*
G02*
X72525000Y-78762500I0J-237500D01*
G01*
G37*
%TD.AperFunction*%
%TD*%
%TO.P,DS1,K*%
%TO.N,/BLED*%
%TA.AperFunction,SMDPad,CuDef*%
G36*
G01*
X74275000Y-65762500D02*
X74275000Y-66237500D01*
G75*
G02*
X74037500Y-66475000I-237500J0D01*
G01*
X73462500Y-66475000D01*
G75*
G02*
X73225000Y-66237500I0J237500D01*
G01*
X73225000Y-65762500D01*
G75*
G02*
X73462500Y-65525000I237500J0D01*
G01*
X74037500Y-65525000D01*
G75*
G02*
X74275000Y-65762500I0J-237500D01*
G01*
G37*
%TD.AperFunction*%
%TO.P,DS1,A*%
%TO.N,VBUS*%
%TA.AperFunction,SMDPad,CuDef*%
G36*
G01*
X72525000Y-65762500D02*
X72525000Y-66237500D01*
G75*
G02*
X72287500Y-66475000I-237500J0D01*
G01*
X71712500Y-66475000D01*
G75*
G02*
X71475000Y-66237500I0J237500D01*
G01*
X71475000Y-65762500D01*
G75*
G02*
X71712500Y-65525000I237500J0D01*
G01*
X72287500Y-65525000D01*
G75*
G02*
X72525000Y-65762500I0J-237500D01*
G01*
G37*
%TD.AperFunction*%
%TD*%
D19*
%TO.N,/+VBAT*%
X83600000Y-67900000D03*
%TO.N,GND*%
X144000000Y-75250000D03*
X143250000Y-75250000D03*
X142500000Y-75250000D03*
X141750000Y-74500000D03*
X142500000Y-74500000D03*
X141750000Y-75250000D03*
X142500000Y-76000000D03*
X143250000Y-76000000D03*
X144000000Y-76000000D03*
X137750000Y-72500000D03*
X95800000Y-70800000D03*
X95000000Y-70800000D03*
X94200000Y-70800000D03*
X94200000Y-71600000D03*
X95000000Y-71600000D03*
X95800000Y-71600000D03*
X95800000Y-72400000D03*
X95000000Y-72400000D03*
X94200000Y-72400000D03*
X93400000Y-71600000D03*
X93400000Y-72400000D03*
X95800000Y-70000000D03*
X95000000Y-70000000D03*
X94200000Y-70000000D03*
X94200000Y-67200000D03*
X95000000Y-67200000D03*
X95800000Y-67200000D03*
X96000000Y-66400000D03*
X95200000Y-66400000D03*
X94400000Y-66400000D03*
X93600000Y-66400000D03*
X96800000Y-66400000D03*
X97600000Y-66400000D03*
X97600000Y-65600000D03*
X96800000Y-65600000D03*
X96000000Y-65600000D03*
X95200000Y-65600000D03*
X94400000Y-65600000D03*
X93600000Y-65600000D03*
X93600000Y-64800000D03*
X94400000Y-64800000D03*
X95200000Y-64800000D03*
X96000000Y-64800000D03*
X96800000Y-64800000D03*
X130400000Y-70400000D03*
X131300000Y-70400000D03*
X132200000Y-70400000D03*
X130400000Y-71200000D03*
X131300000Y-71200000D03*
X132200000Y-71200000D03*
X132200000Y-72000000D03*
X131300000Y-72000000D03*
X130400000Y-72000000D03*
X129400000Y-72000000D03*
X132200000Y-72800000D03*
X131300000Y-72800000D03*
X130400000Y-72800000D03*
X129400000Y-72800000D03*
X129400000Y-73600000D03*
X130400000Y-73600000D03*
X131300000Y-73600000D03*
X132200000Y-73600000D03*
X132400000Y-65400000D03*
X131600000Y-65400000D03*
X130800000Y-65400000D03*
X130800000Y-64600000D03*
X131600000Y-64600000D03*
X132400000Y-64600000D03*
X132400000Y-63800000D03*
X133200000Y-64600000D03*
X130000000Y-64600000D03*
X130800000Y-63800000D03*
X131600000Y-63800000D03*
X130000000Y-63800000D03*
X133200000Y-63800000D03*
X129200000Y-64600000D03*
X134000000Y-64600000D03*
X132400000Y-63000000D03*
X131600000Y-63000000D03*
X130800000Y-63000000D03*
X129200000Y-63800000D03*
X130000000Y-63000000D03*
X134000000Y-63800000D03*
X133200000Y-63000000D03*
X120400000Y-72300000D03*
X153400000Y-68000000D03*
X153400000Y-69800000D03*
X155200000Y-69800000D03*
X112800000Y-69800000D03*
X114400000Y-68600000D03*
X112800000Y-68600000D03*
X110200000Y-68600000D03*
X101800000Y-68600000D03*
X101400000Y-74400000D03*
X88800000Y-66600000D03*
X87600000Y-66400000D03*
X86200000Y-66400000D03*
X84800000Y-66400000D03*
X84800000Y-67400000D03*
X84800000Y-64900000D03*
X86200000Y-64900000D03*
X87600000Y-64900000D03*
X103100000Y-72000000D03*
X98800000Y-73800000D03*
X85000000Y-83400000D03*
X87000000Y-83400000D03*
X89000000Y-83400000D03*
X91000000Y-83400000D03*
X93000000Y-83400000D03*
X95000000Y-83400000D03*
X97000000Y-83400000D03*
X99000000Y-83400000D03*
X101000000Y-83400000D03*
X103000000Y-83400000D03*
X105000000Y-83400000D03*
X107000000Y-83400000D03*
X109000000Y-83400000D03*
X111000000Y-83400000D03*
X113000000Y-83400000D03*
X115000000Y-83400000D03*
X117000000Y-83400000D03*
X119000000Y-83400000D03*
X121000000Y-83400000D03*
X123000000Y-83400000D03*
X125000000Y-83400000D03*
X127000000Y-83400000D03*
X129000000Y-83400000D03*
X131000000Y-83400000D03*
X133000000Y-83400000D03*
X135000000Y-83400000D03*
X137000000Y-83400000D03*
X139000000Y-83400000D03*
X141000000Y-83400000D03*
X143000000Y-83400000D03*
X145000000Y-83400000D03*
X147000000Y-83400000D03*
X149000000Y-83400000D03*
X151000000Y-83400000D03*
X153000000Y-83400000D03*
X155000000Y-83400000D03*
X157000000Y-83400000D03*
X159000000Y-83400000D03*
X161000000Y-83400000D03*
X163000000Y-83400000D03*
X100600000Y-62400000D03*
X102600000Y-62400000D03*
X104600000Y-62400000D03*
X106600000Y-62400000D03*
X108600000Y-62400000D03*
X110600000Y-62400000D03*
X112600000Y-62400000D03*
X114600000Y-62400000D03*
X116600000Y-62400000D03*
X118600000Y-62400000D03*
X102600000Y-64400000D03*
X104600000Y-64400000D03*
X106600000Y-64400000D03*
X108600000Y-64400000D03*
X110600000Y-64400000D03*
X112600000Y-64400000D03*
X114600000Y-64400000D03*
X116600000Y-64400000D03*
X118600000Y-64400000D03*
X120600000Y-64400000D03*
X102600000Y-66400000D03*
X104600000Y-66400000D03*
X106600000Y-66400000D03*
X108600000Y-66400000D03*
X110600000Y-66400000D03*
X112600000Y-66400000D03*
X114600000Y-66400000D03*
X116600000Y-66400000D03*
X118600000Y-66400000D03*
X120600000Y-66400000D03*
X156200000Y-61400000D03*
X157600000Y-61400000D03*
X159600000Y-61400000D03*
X161600000Y-61400000D03*
X163600000Y-61400000D03*
X155600000Y-63400000D03*
X157600000Y-63400000D03*
X159600000Y-63400000D03*
X161600000Y-63400000D03*
X163600000Y-63400000D03*
X93000000Y-82200000D03*
X95000000Y-82200000D03*
X97000000Y-82200000D03*
X99000000Y-82200000D03*
X101000000Y-82200000D03*
X103000000Y-82200000D03*
X105000000Y-82200000D03*
X107000000Y-82200000D03*
X109000000Y-82200000D03*
X115000000Y-82200000D03*
X119000000Y-82200000D03*
X121000000Y-82200000D03*
X123000000Y-82200000D03*
X125000000Y-82200000D03*
X127000000Y-82200000D03*
X129000000Y-82200000D03*
X131000000Y-82200000D03*
X133000000Y-82200000D03*
X135000000Y-82200000D03*
X137000000Y-82200000D03*
X139000000Y-82200000D03*
X141000000Y-82200000D03*
X143000000Y-82200000D03*
X145000000Y-82200000D03*
X147000000Y-82200000D03*
X149000000Y-82200000D03*
X153600000Y-82200000D03*
X159000000Y-82200000D03*
X161000000Y-82200000D03*
X163000000Y-82200000D03*
X87000000Y-82200000D03*
X85000000Y-82200000D03*
X85000000Y-80800000D03*
X87000000Y-80800000D03*
X87000000Y-79400000D03*
X85000000Y-79400000D03*
X85000000Y-78000000D03*
X87000000Y-78000000D03*
X87000000Y-76600000D03*
X85000000Y-76600000D03*
X79800000Y-80800000D03*
X79800000Y-82200000D03*
X79800000Y-83400000D03*
X79800000Y-64800000D03*
X79800000Y-67000000D03*
X76800000Y-67000000D03*
X79800000Y-65800000D03*
X78800000Y-83400000D03*
X78800000Y-82200000D03*
X78800000Y-80800000D03*
X125800000Y-74800000D03*
X127400000Y-74800000D03*
X128800000Y-74800000D03*
X125800000Y-76800000D03*
X125800000Y-78800000D03*
X125800000Y-80800000D03*
X128800000Y-76800000D03*
X128800000Y-78800000D03*
X128800000Y-80800000D03*
X127400000Y-76800000D03*
X127400000Y-78800000D03*
X127400000Y-80800000D03*
X124600000Y-72000000D03*
X126200000Y-72000000D03*
X127800000Y-72000000D03*
X128800000Y-71000000D03*
X127800000Y-73200000D03*
X126200000Y-73200000D03*
X124600000Y-73200000D03*
X138400000Y-63800000D03*
X140200000Y-65400000D03*
X135200000Y-64600000D03*
X136600000Y-63800000D03*
X140200000Y-63800000D03*
X142800000Y-67600000D03*
X145200000Y-67600000D03*
X147800000Y-67600000D03*
X148600000Y-66000000D03*
X148600000Y-63800000D03*
X142600000Y-62200000D03*
X142600000Y-64200000D03*
X142600000Y-66000000D03*
X140200000Y-62200000D03*
X138400000Y-62200000D03*
X136800000Y-62200000D03*
X135200000Y-62200000D03*
X135200000Y-63400000D03*
X156800000Y-73600000D03*
X156800000Y-72000000D03*
X168000000Y-65700000D03*
X165800000Y-65700000D03*
X165800000Y-66900000D03*
X168000000Y-66900000D03*
X168000000Y-78000000D03*
X166000000Y-78000000D03*
X166000000Y-79600000D03*
X168000000Y-79600000D03*
X120400000Y-70600000D03*
X120400000Y-68400000D03*
X120400000Y-74200000D03*
X118800000Y-74200000D03*
X70800000Y-69800000D03*
X72000000Y-69800000D03*
X70800000Y-75200000D03*
X72000000Y-75200000D03*
X77800000Y-79800000D03*
X77000000Y-79000000D03*
X81200000Y-67000000D03*
X82400000Y-67000000D03*
X138400000Y-71000000D03*
X138400000Y-69600000D03*
X93500000Y-63500000D03*
X90000000Y-63700000D03*
X87600000Y-63700000D03*
X126400000Y-70700000D03*
X127100000Y-69800000D03*
X168000000Y-76900000D03*
X168000000Y-67900000D03*
X93000000Y-81100000D03*
X93000000Y-79900000D03*
X93000000Y-78700000D03*
X76800000Y-65900000D03*
X105100000Y-72000000D03*
X107100000Y-72000000D03*
X109100000Y-72000000D03*
X103100000Y-74000000D03*
X105100000Y-74000000D03*
X107100000Y-74000000D03*
X109100000Y-74000000D03*
X98800000Y-75700000D03*
X100800000Y-75700000D03*
X102800000Y-75700000D03*
%TO.N,VBUS*%
X76750000Y-72750000D03*
X76750000Y-74250000D03*
X76750000Y-73500000D03*
X76750000Y-72000000D03*
X78200000Y-73500000D03*
X77450000Y-73500000D03*
X78200000Y-74250000D03*
X77450000Y-74250000D03*
X77450000Y-72000000D03*
X78200000Y-72000000D03*
X78200000Y-72750000D03*
X77450000Y-72750000D03*
%TO.N,/NTC*%
X117800000Y-69700010D03*
%TO.N,/~CHG*%
X81600016Y-62500000D03*
X93200000Y-62500000D03*
X75334000Y-82460000D03*
%TO.N,/~PG*%
X86399998Y-61800000D03*
%TD*%
D20*
%TO.N,/+VBAT*%
X83600000Y-71700000D02*
X83600000Y-67900000D01*
X81890000Y-72500000D02*
X82800000Y-72500000D01*
X82800000Y-72500000D02*
X83600000Y-71700000D01*
D21*
%TO.N,GND*%
X119000000Y-72500000D02*
X120200000Y-72500000D01*
X120200000Y-72500000D02*
X120400000Y-72300000D01*
X71500000Y-70300000D02*
X72000000Y-69800000D01*
X71500000Y-71300000D02*
X71500000Y-70300000D01*
X71500000Y-71300000D02*
X71500000Y-73700000D01*
X71500000Y-74700000D02*
X72000000Y-75200000D01*
X71500000Y-73700000D02*
X71500000Y-74700000D01*
D20*
%TO.N,VBUS*%
X74500000Y-71200000D02*
X76400000Y-71200000D01*
D22*
X73000000Y-71200000D02*
X74500000Y-71200000D01*
X72900000Y-71100000D02*
X73000000Y-71200000D01*
X72900000Y-67500000D02*
X72900000Y-71100000D01*
X72000000Y-66000000D02*
X72000000Y-66600000D01*
X72000000Y-66600000D02*
X72900000Y-67500000D01*
X72900000Y-78100000D02*
X72900000Y-71100000D01*
X72000000Y-79000000D02*
X72900000Y-78100000D01*
%TO.N,/BLED*%
X74800000Y-66000000D02*
X73750000Y-66000000D01*
X76500000Y-63750000D02*
X76500000Y-64300000D01*
X76500000Y-64300000D02*
X74800000Y-66000000D01*
%TO.N,/GLED*%
X75000000Y-79000000D02*
X73750000Y-79000000D01*
X76500000Y-81250000D02*
X76500000Y-80500000D01*
X76500000Y-80500000D02*
X75000000Y-79000000D01*
%TO.N,Net-(J1-Pad2)*%
X74500000Y-72500000D02*
X74500000Y-71850000D01*
%TO.N,/NTC*%
X117800000Y-71950000D02*
X117800000Y-69700010D01*
X117250000Y-72500000D02*
X117800000Y-71950000D01*
%TO.N,/~CHG*%
X81600016Y-62500000D02*
X93200000Y-62500000D01*
X76500000Y-83000000D02*
X75874000Y-83000000D01*
X75874000Y-83000000D02*
X75334000Y-82460000D01*
%TO.N,/~PG*%
X76400000Y-62250000D02*
X76500000Y-62150000D01*
X76500000Y-62150000D02*
X76500000Y-62000000D01*
X76500000Y-62000000D02*
X76700000Y-61800000D01*
X76700000Y-61800000D02*
X86399998Y-61800000D01*
%TD*%
D23*
%TO.N,VBUS*%
G36*
X78473000Y-71040033D02*
G01*
X78473000Y-74434644D01*
X78209301Y-74623000D01*
X76640699Y-74623000D01*
X76377000Y-74434644D01*
X76377000Y-71750000D01*
X76374560Y-71725224D01*
X76367333Y-71701399D01*
X76355597Y-71679443D01*
X76339803Y-71660197D01*
X76327970Y-71649752D01*
X76038835Y-71424869D01*
X76031755Y-71411624D01*
X75978395Y-71346605D01*
X75913376Y-71293245D01*
X75839196Y-71253595D01*
X75758707Y-71229178D01*
X75675000Y-71220934D01*
X74827000Y-71220934D01*
X74827000Y-71173701D01*
X74899175Y-71132458D01*
X74994917Y-71103415D01*
X75173331Y-71008051D01*
X75302731Y-70901855D01*
X75783727Y-70627000D01*
X78183877Y-70627000D01*
X78473000Y-71040033D01*
G37*
X78473000Y-71040033D02*
X78473000Y-74434644D01*
X78209301Y-74623000D01*
X76640699Y-74623000D01*
X76377000Y-74434644D01*
X76377000Y-71750000D01*
X76374560Y-71725224D01*
X76367333Y-71701399D01*
X76355597Y-71679443D01*
X76339803Y-71660197D01*
X76327970Y-71649752D01*
X76038835Y-71424869D01*
X76031755Y-71411624D01*
X75978395Y-71346605D01*
X75913376Y-71293245D01*
X75839196Y-71253595D01*
X75758707Y-71229178D01*
X75675000Y-71220934D01*
X74827000Y-71220934D01*
X74827000Y-71173701D01*
X74899175Y-71132458D01*
X74994917Y-71103415D01*
X75173331Y-71008051D01*
X75302731Y-70901855D01*
X75783727Y-70627000D01*
X78183877Y-70627000D01*
X78473000Y-71040033D01*
%TO.N,GND*%
G36*
X169523001Y-84523000D02*
G01*
X70477000Y-84523000D01*
X70477000Y-65762500D01*
X71045934Y-65762500D01*
X71045934Y-66237500D01*
X71058742Y-66367541D01*
X71096673Y-66492584D01*
X71158271Y-66607824D01*
X71241167Y-66708833D01*
X71342176Y-66791729D01*
X71457416Y-66853327D01*
X71485748Y-66861921D01*
X71517922Y-66922115D01*
X71548840Y-66959788D01*
X71571963Y-66987964D01*
X71571966Y-66987967D01*
X71590027Y-67009974D01*
X71612033Y-67028034D01*
X72323000Y-67739002D01*
X72323001Y-71071659D01*
X72320210Y-71100000D01*
X72323001Y-71128341D01*
X72323000Y-77860998D01*
X72088064Y-78095934D01*
X71712500Y-78095934D01*
X71582459Y-78108742D01*
X71457416Y-78146673D01*
X71342176Y-78208271D01*
X71241167Y-78291167D01*
X71158271Y-78392176D01*
X71096673Y-78507416D01*
X71058742Y-78632459D01*
X71045934Y-78762500D01*
X71045934Y-79237500D01*
X71058742Y-79367541D01*
X71096673Y-79492584D01*
X71158271Y-79607824D01*
X71241167Y-79708833D01*
X71342176Y-79791729D01*
X71457416Y-79853327D01*
X71582459Y-79891258D01*
X71712500Y-79904066D01*
X72287500Y-79904066D01*
X72417541Y-79891258D01*
X72542584Y-79853327D01*
X72657824Y-79791729D01*
X72758833Y-79708833D01*
X72841729Y-79607824D01*
X72875000Y-79545579D01*
X72908271Y-79607824D01*
X72991167Y-79708833D01*
X73092176Y-79791729D01*
X73207416Y-79853327D01*
X73332459Y-79891258D01*
X73462500Y-79904066D01*
X74037500Y-79904066D01*
X74167541Y-79891258D01*
X74292584Y-79853327D01*
X74407824Y-79791729D01*
X74508833Y-79708833D01*
X74591729Y-79607824D01*
X74608205Y-79577000D01*
X74760999Y-79577000D01*
X75738879Y-80554880D01*
X75708271Y-80592176D01*
X75646673Y-80707416D01*
X75608742Y-80832459D01*
X75595934Y-80962500D01*
X75595934Y-81537500D01*
X75608742Y-81667541D01*
X75646673Y-81792584D01*
X75653559Y-81805466D01*
X75546058Y-81760938D01*
X75405603Y-81733000D01*
X75262397Y-81733000D01*
X75121942Y-81760938D01*
X74989636Y-81815741D01*
X74927000Y-81857593D01*
X74927000Y-81810207D01*
X74852947Y-81437915D01*
X74707685Y-81087223D01*
X74496799Y-80771609D01*
X74228391Y-80503201D01*
X73912777Y-80292315D01*
X73562085Y-80147053D01*
X73189793Y-80073000D01*
X72810207Y-80073000D01*
X72437915Y-80147053D01*
X72087223Y-80292315D01*
X71771609Y-80503201D01*
X71503201Y-80771609D01*
X71292315Y-81087223D01*
X71147053Y-81437915D01*
X71073000Y-81810207D01*
X71073000Y-82189793D01*
X71147053Y-82562085D01*
X71292315Y-82912777D01*
X71503201Y-83228391D01*
X71771609Y-83496799D01*
X72087223Y-83707685D01*
X72437915Y-83852947D01*
X72810207Y-83927000D01*
X73189793Y-83927000D01*
X73562085Y-83852947D01*
X73912777Y-83707685D01*
X74228391Y-83496799D01*
X74496799Y-83228391D01*
X74707685Y-82912777D01*
X74728539Y-82862430D01*
X74769302Y-82923436D01*
X74870564Y-83024698D01*
X74989636Y-83104259D01*
X75121942Y-83159062D01*
X75240679Y-83182680D01*
X75445961Y-83387962D01*
X75464026Y-83409974D01*
X75551885Y-83482079D01*
X75643110Y-83530839D01*
X75646673Y-83542584D01*
X75708271Y-83657824D01*
X75791167Y-83758833D01*
X75892176Y-83841729D01*
X76007416Y-83903327D01*
X76132459Y-83941258D01*
X76262500Y-83954066D01*
X76737500Y-83954066D01*
X76867541Y-83941258D01*
X76992584Y-83903327D01*
X77107824Y-83841729D01*
X77208833Y-83758833D01*
X77291729Y-83657824D01*
X77353327Y-83542584D01*
X77391258Y-83417541D01*
X77404066Y-83287500D01*
X77404066Y-82712500D01*
X77391258Y-82582459D01*
X77353327Y-82457416D01*
X77291729Y-82342176D01*
X77208833Y-82241167D01*
X77107824Y-82158271D01*
X77045579Y-82125000D01*
X77107824Y-82091729D01*
X77208833Y-82008833D01*
X77291729Y-81907824D01*
X77353327Y-81792584D01*
X77391258Y-81667541D01*
X77404066Y-81537500D01*
X77404066Y-80962500D01*
X77391258Y-80832459D01*
X77353327Y-80707416D01*
X77291729Y-80592176D01*
X77208833Y-80491167D01*
X77107824Y-80408271D01*
X77068696Y-80387356D01*
X77068650Y-80386888D01*
X77035657Y-80278124D01*
X76982079Y-80177885D01*
X76963777Y-80155584D01*
X88223000Y-80155584D01*
X88223000Y-80584416D01*
X88306660Y-81005008D01*
X88470767Y-81401196D01*
X88709013Y-81757757D01*
X89012243Y-82060987D01*
X89368804Y-82299233D01*
X89764992Y-82463340D01*
X90185584Y-82547000D01*
X90614416Y-82547000D01*
X91035008Y-82463340D01*
X91431196Y-82299233D01*
X91787757Y-82060987D01*
X92038537Y-81810207D01*
X165073000Y-81810207D01*
X165073000Y-82189793D01*
X165147053Y-82562085D01*
X165292315Y-82912777D01*
X165503201Y-83228391D01*
X165771609Y-83496799D01*
X166087223Y-83707685D01*
X166437915Y-83852947D01*
X166810207Y-83927000D01*
X167189793Y-83927000D01*
X167562085Y-83852947D01*
X167912777Y-83707685D01*
X168228391Y-83496799D01*
X168496799Y-83228391D01*
X168707685Y-82912777D01*
X168852947Y-82562085D01*
X168927000Y-82189793D01*
X168927000Y-81810207D01*
X168852947Y-81437915D01*
X168707685Y-81087223D01*
X168496799Y-80771609D01*
X168228391Y-80503201D01*
X167912777Y-80292315D01*
X167562085Y-80147053D01*
X167189793Y-80073000D01*
X166810207Y-80073000D01*
X166437915Y-80147053D01*
X166087223Y-80292315D01*
X165771609Y-80503201D01*
X165503201Y-80771609D01*
X165292315Y-81087223D01*
X165147053Y-81437915D01*
X165073000Y-81810207D01*
X92038537Y-81810207D01*
X92090987Y-81757757D01*
X92329233Y-81401196D01*
X92493340Y-81005008D01*
X92577000Y-80584416D01*
X92577000Y-80155584D01*
X92493340Y-79734992D01*
X92329233Y-79338804D01*
X92090987Y-78982243D01*
X91787757Y-78679013D01*
X91431196Y-78440767D01*
X91035008Y-78276660D01*
X90614416Y-78193000D01*
X90185584Y-78193000D01*
X89764992Y-78276660D01*
X89368804Y-78440767D01*
X89012243Y-78679013D01*
X88709013Y-78982243D01*
X88470767Y-79338804D01*
X88306660Y-79734992D01*
X88223000Y-80155584D01*
X76963777Y-80155584D01*
X76909974Y-80090026D01*
X76887962Y-80071961D01*
X75428037Y-78612036D01*
X75409974Y-78590026D01*
X75322115Y-78517921D01*
X75221876Y-78464343D01*
X75157770Y-78444897D01*
X75113111Y-78431349D01*
X75058045Y-78425926D01*
X75028336Y-78423000D01*
X75028331Y-78423000D01*
X75000000Y-78420210D01*
X74971669Y-78423000D01*
X74608205Y-78423000D01*
X74591729Y-78392176D01*
X74508833Y-78291167D01*
X74407824Y-78208271D01*
X74292584Y-78146673D01*
X74167541Y-78108742D01*
X74037500Y-78095934D01*
X73479389Y-78095934D01*
X73477000Y-78071672D01*
X73477000Y-75250000D01*
X158820934Y-75250000D01*
X158820934Y-76750000D01*
X158829178Y-76833707D01*
X158853595Y-76914196D01*
X158893245Y-76988376D01*
X158946605Y-77053395D01*
X159011624Y-77106755D01*
X159085804Y-77146405D01*
X159166293Y-77170822D01*
X159250000Y-77179066D01*
X160750000Y-77179066D01*
X160833707Y-77170822D01*
X160914196Y-77146405D01*
X160988376Y-77106755D01*
X161053395Y-77053395D01*
X161106755Y-76988376D01*
X161146405Y-76914196D01*
X161170822Y-76833707D01*
X161179066Y-76750000D01*
X161179066Y-75250000D01*
X161170822Y-75166293D01*
X161146405Y-75085804D01*
X161106755Y-75011624D01*
X161053395Y-74946605D01*
X160988376Y-74893245D01*
X160914196Y-74853595D01*
X160833707Y-74829178D01*
X160750000Y-74820934D01*
X159250000Y-74820934D01*
X159166293Y-74829178D01*
X159085804Y-74853595D01*
X159011624Y-74893245D01*
X158946605Y-74946605D01*
X158893245Y-75011624D01*
X158853595Y-75085804D01*
X158829178Y-75166293D01*
X158820934Y-75250000D01*
X73477000Y-75250000D01*
X73477000Y-73129066D01*
X75675000Y-73129066D01*
X75758707Y-73120822D01*
X75823000Y-73101318D01*
X75823000Y-74500000D01*
X75828810Y-74570198D01*
X75850598Y-74651020D01*
X75887735Y-74726037D01*
X75938793Y-74792369D01*
X76001811Y-74847464D01*
X76351811Y-75097464D01*
X76436594Y-75144497D01*
X76516696Y-75168795D01*
X76600000Y-75177000D01*
X78250000Y-75177000D01*
X78346328Y-75165993D01*
X78425633Y-75139207D01*
X78498189Y-75097464D01*
X78848189Y-74847464D01*
X78901935Y-74801935D01*
X78955038Y-74737228D01*
X78994497Y-74663406D01*
X79018795Y-74583304D01*
X79027000Y-74500000D01*
X79027000Y-71400000D01*
X80360934Y-71400000D01*
X80360934Y-73600000D01*
X80369178Y-73683707D01*
X80393595Y-73764196D01*
X80433245Y-73838376D01*
X80486605Y-73903395D01*
X80551624Y-73956755D01*
X80625804Y-73996405D01*
X80706293Y-74020822D01*
X80790000Y-74029066D01*
X82990000Y-74029066D01*
X83073707Y-74020822D01*
X83154196Y-73996405D01*
X83228376Y-73956755D01*
X83293395Y-73903395D01*
X83346755Y-73838376D01*
X83386405Y-73764196D01*
X83410822Y-73683707D01*
X83419066Y-73600000D01*
X83419066Y-72838356D01*
X83994922Y-72262500D01*
X116295934Y-72262500D01*
X116295934Y-72737500D01*
X116308742Y-72867541D01*
X116346673Y-72992584D01*
X116408271Y-73107824D01*
X116491167Y-73208833D01*
X116592176Y-73291729D01*
X116707416Y-73353327D01*
X116832459Y-73391258D01*
X116962500Y-73404066D01*
X117537500Y-73404066D01*
X117667541Y-73391258D01*
X117792584Y-73353327D01*
X117907824Y-73291729D01*
X118008833Y-73208833D01*
X118091729Y-73107824D01*
X118153327Y-72992584D01*
X118191258Y-72867541D01*
X118204066Y-72737500D01*
X118204066Y-72364823D01*
X118209974Y-72359974D01*
X118218484Y-72349604D01*
X152583000Y-72349604D01*
X152583000Y-72650396D01*
X152641681Y-72945410D01*
X152756790Y-73223306D01*
X152923901Y-73473406D01*
X153136594Y-73686099D01*
X153386694Y-73853210D01*
X153664590Y-73968319D01*
X153959604Y-74027000D01*
X154260396Y-74027000D01*
X154555410Y-73968319D01*
X154833306Y-73853210D01*
X155083406Y-73686099D01*
X155296099Y-73473406D01*
X155463210Y-73223306D01*
X155578319Y-72945410D01*
X155637000Y-72650396D01*
X155637000Y-72349604D01*
X155578319Y-72054590D01*
X155463210Y-71776694D01*
X155296099Y-71526594D01*
X155153581Y-71384076D01*
X158823000Y-71384076D01*
X158823000Y-71615924D01*
X158868231Y-71843318D01*
X158956956Y-72057519D01*
X159085764Y-72250294D01*
X159249706Y-72414236D01*
X159378061Y-72500000D01*
X159249706Y-72585764D01*
X159085764Y-72749706D01*
X158956956Y-72942481D01*
X158868231Y-73156682D01*
X158823000Y-73384076D01*
X158823000Y-73615924D01*
X158868231Y-73843318D01*
X158956956Y-74057519D01*
X159085764Y-74250294D01*
X159249706Y-74414236D01*
X159442481Y-74543044D01*
X159656682Y-74631769D01*
X159884076Y-74677000D01*
X160115924Y-74677000D01*
X160343318Y-74631769D01*
X160557519Y-74543044D01*
X160750294Y-74414236D01*
X160914236Y-74250294D01*
X161043044Y-74057519D01*
X161131769Y-73843318D01*
X161177000Y-73615924D01*
X161177000Y-73384076D01*
X161131769Y-73156682D01*
X161043044Y-72942481D01*
X160914236Y-72749706D01*
X160750294Y-72585764D01*
X160621939Y-72500000D01*
X160750294Y-72414236D01*
X160914236Y-72250294D01*
X161043044Y-72057519D01*
X161131769Y-71843318D01*
X161177000Y-71615924D01*
X161177000Y-71384076D01*
X161131769Y-71156682D01*
X161043044Y-70942481D01*
X160914236Y-70749706D01*
X160750294Y-70585764D01*
X160557519Y-70456956D01*
X160343318Y-70368231D01*
X160115924Y-70323000D01*
X159884076Y-70323000D01*
X159656682Y-70368231D01*
X159442481Y-70456956D01*
X159249706Y-70585764D01*
X159085764Y-70749706D01*
X158956956Y-70942481D01*
X158868231Y-71156682D01*
X158823000Y-71384076D01*
X155153581Y-71384076D01*
X155083406Y-71313901D01*
X154833306Y-71146790D01*
X154555410Y-71031681D01*
X154260396Y-70973000D01*
X153959604Y-70973000D01*
X153664590Y-71031681D01*
X153386694Y-71146790D01*
X153136594Y-71313901D01*
X152923901Y-71526594D01*
X152756790Y-71776694D01*
X152641681Y-72054590D01*
X152583000Y-72349604D01*
X118218484Y-72349604D01*
X118282079Y-72272115D01*
X118335657Y-72171876D01*
X118368650Y-72063112D01*
X118377000Y-71978336D01*
X118377000Y-71978330D01*
X118379790Y-71950001D01*
X118377000Y-71921672D01*
X118377000Y-70145035D01*
X118444259Y-70044374D01*
X118499062Y-69912068D01*
X118527000Y-69771613D01*
X118527000Y-69628407D01*
X118499062Y-69487952D01*
X118444259Y-69355646D01*
X118364698Y-69236574D01*
X118263436Y-69135312D01*
X118144364Y-69055751D01*
X118012058Y-69000948D01*
X117871603Y-68973010D01*
X117728397Y-68973010D01*
X117587942Y-69000948D01*
X117455636Y-69055751D01*
X117336564Y-69135312D01*
X117235302Y-69236574D01*
X117155741Y-69355646D01*
X117100938Y-69487952D01*
X117073000Y-69628407D01*
X117073000Y-69771613D01*
X117100938Y-69912068D01*
X117155741Y-70044374D01*
X117223001Y-70145036D01*
X117223000Y-71595934D01*
X116962500Y-71595934D01*
X116832459Y-71608742D01*
X116707416Y-71646673D01*
X116592176Y-71708271D01*
X116491167Y-71791167D01*
X116408271Y-71892176D01*
X116346673Y-72007416D01*
X116308742Y-72132459D01*
X116295934Y-72262500D01*
X83994922Y-72262500D01*
X84055205Y-72202218D01*
X84081026Y-72181027D01*
X84102218Y-72155205D01*
X84102224Y-72155199D01*
X84165628Y-72077941D01*
X84228492Y-71960330D01*
X84267204Y-71832715D01*
X84280275Y-71700000D01*
X84277000Y-71666748D01*
X84277000Y-68165320D01*
X84299062Y-68112058D01*
X84327000Y-67971603D01*
X84327000Y-67828397D01*
X84299062Y-67687942D01*
X84244259Y-67555636D01*
X84164698Y-67436564D01*
X84063436Y-67335302D01*
X83944364Y-67255741D01*
X83812058Y-67200938D01*
X83671603Y-67173000D01*
X83528397Y-67173000D01*
X83387942Y-67200938D01*
X83255636Y-67255741D01*
X83136564Y-67335302D01*
X83035302Y-67436564D01*
X82955741Y-67555636D01*
X82900938Y-67687942D01*
X82873000Y-67828397D01*
X82873000Y-67971603D01*
X82900938Y-68112058D01*
X82923001Y-68165323D01*
X82923000Y-70970934D01*
X80790000Y-70970934D01*
X80706293Y-70979178D01*
X80625804Y-71003595D01*
X80551624Y-71043245D01*
X80486605Y-71096605D01*
X80433245Y-71161624D01*
X80393595Y-71235804D01*
X80369178Y-71316293D01*
X80360934Y-71400000D01*
X79027000Y-71400000D01*
X79027000Y-71000000D01*
X79016891Y-70907638D01*
X78990862Y-70828082D01*
X78949812Y-70755132D01*
X78599812Y-70255132D01*
X78551935Y-70198065D01*
X78487228Y-70144962D01*
X78413406Y-70105503D01*
X78333304Y-70081205D01*
X78250000Y-70073000D01*
X75750000Y-70073000D01*
X75696151Y-70076409D01*
X75614547Y-70095054D01*
X75538149Y-70129260D01*
X74849104Y-70523000D01*
X74466748Y-70523000D01*
X74367285Y-70532796D01*
X74241562Y-70570934D01*
X73477000Y-70570934D01*
X73477000Y-67528328D01*
X73479790Y-67499999D01*
X73477000Y-67471670D01*
X73477000Y-67471664D01*
X73468650Y-67386888D01*
X73435657Y-67278124D01*
X73382079Y-67177885D01*
X73309974Y-67090026D01*
X73287968Y-67071966D01*
X72833659Y-66617657D01*
X72841729Y-66607824D01*
X72875000Y-66545579D01*
X72908271Y-66607824D01*
X72991167Y-66708833D01*
X73092176Y-66791729D01*
X73207416Y-66853327D01*
X73332459Y-66891258D01*
X73462500Y-66904066D01*
X74037500Y-66904066D01*
X74167541Y-66891258D01*
X74292584Y-66853327D01*
X74407824Y-66791729D01*
X74508833Y-66708833D01*
X74591729Y-66607824D01*
X74608205Y-66577000D01*
X74771669Y-66577000D01*
X74800000Y-66579790D01*
X74828331Y-66577000D01*
X74828336Y-66577000D01*
X74858045Y-66574074D01*
X74913111Y-66568651D01*
X74957770Y-66555103D01*
X75021876Y-66535657D01*
X75122115Y-66482079D01*
X75209974Y-66409974D01*
X75228039Y-66387962D01*
X76887967Y-64728035D01*
X76909974Y-64709974D01*
X76944491Y-64667916D01*
X76992584Y-64653327D01*
X77107824Y-64591729D01*
X77208833Y-64508833D01*
X77291729Y-64407824D01*
X77353327Y-64292584D01*
X77391258Y-64167541D01*
X77404066Y-64037500D01*
X77404066Y-63462500D01*
X77391258Y-63332459D01*
X77353327Y-63207416D01*
X77291729Y-63092176D01*
X77208833Y-62991167D01*
X77107824Y-62908271D01*
X77045579Y-62875000D01*
X77107824Y-62841729D01*
X77208833Y-62758833D01*
X77291729Y-62657824D01*
X77353327Y-62542584D01*
X77391258Y-62417541D01*
X77395251Y-62377000D01*
X80883239Y-62377000D01*
X80873016Y-62428397D01*
X80873016Y-62571603D01*
X80900954Y-62712058D01*
X80955757Y-62844364D01*
X81035318Y-62963436D01*
X81136580Y-63064698D01*
X81244053Y-63136509D01*
X81119327Y-63188172D01*
X80852848Y-63366227D01*
X80626227Y-63592848D01*
X80448172Y-63859327D01*
X80325525Y-64155422D01*
X80263000Y-64469755D01*
X80263000Y-64790245D01*
X80325525Y-65104578D01*
X80448172Y-65400673D01*
X80626227Y-65667152D01*
X80852848Y-65893773D01*
X81119327Y-66071828D01*
X81415422Y-66194475D01*
X81729755Y-66257000D01*
X82050245Y-66257000D01*
X82364578Y-66194475D01*
X82660673Y-66071828D01*
X82927152Y-65893773D01*
X83153773Y-65667152D01*
X83331828Y-65400673D01*
X83454475Y-65104578D01*
X83517000Y-64790245D01*
X83517000Y-64469755D01*
X83506225Y-64415584D01*
X143423000Y-64415584D01*
X143423000Y-64844416D01*
X143506660Y-65265008D01*
X143670767Y-65661196D01*
X143909013Y-66017757D01*
X144212243Y-66320987D01*
X144568804Y-66559233D01*
X144964992Y-66723340D01*
X145385584Y-66807000D01*
X145814416Y-66807000D01*
X146235008Y-66723340D01*
X146631196Y-66559233D01*
X146987757Y-66320987D01*
X147290987Y-66017757D01*
X147529233Y-65661196D01*
X147693340Y-65265008D01*
X147777000Y-64844416D01*
X147777000Y-64415584D01*
X147693340Y-63994992D01*
X147529233Y-63598804D01*
X147290987Y-63242243D01*
X146987757Y-62939013D01*
X146794985Y-62810207D01*
X165073000Y-62810207D01*
X165073000Y-63189793D01*
X165147053Y-63562085D01*
X165292315Y-63912777D01*
X165503201Y-64228391D01*
X165771609Y-64496799D01*
X166087223Y-64707685D01*
X166437915Y-64852947D01*
X166810207Y-64927000D01*
X167189793Y-64927000D01*
X167562085Y-64852947D01*
X167912777Y-64707685D01*
X168228391Y-64496799D01*
X168496799Y-64228391D01*
X168707685Y-63912777D01*
X168852947Y-63562085D01*
X168927000Y-63189793D01*
X168927000Y-62810207D01*
X168852947Y-62437915D01*
X168707685Y-62087223D01*
X168496799Y-61771609D01*
X168228391Y-61503201D01*
X167912777Y-61292315D01*
X167562085Y-61147053D01*
X167189793Y-61073000D01*
X166810207Y-61073000D01*
X166437915Y-61147053D01*
X166087223Y-61292315D01*
X165771609Y-61503201D01*
X165503201Y-61771609D01*
X165292315Y-62087223D01*
X165147053Y-62437915D01*
X165073000Y-62810207D01*
X146794985Y-62810207D01*
X146631196Y-62700767D01*
X146235008Y-62536660D01*
X145814416Y-62453000D01*
X145385584Y-62453000D01*
X144964992Y-62536660D01*
X144568804Y-62700767D01*
X144212243Y-62939013D01*
X143909013Y-63242243D01*
X143670767Y-63598804D01*
X143506660Y-63994992D01*
X143423000Y-64415584D01*
X83506225Y-64415584D01*
X83454475Y-64155422D01*
X83331828Y-63859327D01*
X83153773Y-63592848D01*
X82927152Y-63366227D01*
X82660673Y-63188172D01*
X82392281Y-63077000D01*
X92754975Y-63077000D01*
X92855636Y-63144259D01*
X92987942Y-63199062D01*
X93128397Y-63227000D01*
X93271603Y-63227000D01*
X93412058Y-63199062D01*
X93544364Y-63144259D01*
X93663436Y-63064698D01*
X93764698Y-62963436D01*
X93844259Y-62844364D01*
X93899062Y-62712058D01*
X93927000Y-62571603D01*
X93927000Y-62428397D01*
X93899062Y-62287942D01*
X93844259Y-62155636D01*
X93764698Y-62036564D01*
X93663436Y-61935302D01*
X93544364Y-61855741D01*
X93412058Y-61800938D01*
X93271603Y-61773000D01*
X93128397Y-61773000D01*
X92987942Y-61800938D01*
X92855636Y-61855741D01*
X92754975Y-61923000D01*
X87116775Y-61923000D01*
X87126998Y-61871603D01*
X87126998Y-61728397D01*
X87099060Y-61587942D01*
X87044257Y-61455636D01*
X86964696Y-61336564D01*
X86863434Y-61235302D01*
X86744362Y-61155741D01*
X86612056Y-61100938D01*
X86471601Y-61073000D01*
X86328395Y-61073000D01*
X86187940Y-61100938D01*
X86055634Y-61155741D01*
X85954973Y-61223000D01*
X77186696Y-61223000D01*
X77107824Y-61158271D01*
X76992584Y-61096673D01*
X76867541Y-61058742D01*
X76737500Y-61045934D01*
X76262500Y-61045934D01*
X76132459Y-61058742D01*
X76007416Y-61096673D01*
X75892176Y-61158271D01*
X75791167Y-61241167D01*
X75708271Y-61342176D01*
X75646673Y-61457416D01*
X75608742Y-61582459D01*
X75595934Y-61712500D01*
X75595934Y-62287500D01*
X75608742Y-62417541D01*
X75646673Y-62542584D01*
X75708271Y-62657824D01*
X75791167Y-62758833D01*
X75892176Y-62841729D01*
X75954421Y-62875000D01*
X75892176Y-62908271D01*
X75791167Y-62991167D01*
X75708271Y-63092176D01*
X75646673Y-63207416D01*
X75608742Y-63332459D01*
X75595934Y-63462500D01*
X75595934Y-64037500D01*
X75608742Y-64167541D01*
X75646673Y-64292584D01*
X75662258Y-64321741D01*
X74591762Y-65392237D01*
X74591729Y-65392176D01*
X74508833Y-65291167D01*
X74407824Y-65208271D01*
X74292584Y-65146673D01*
X74167541Y-65108742D01*
X74037500Y-65095934D01*
X73462500Y-65095934D01*
X73332459Y-65108742D01*
X73207416Y-65146673D01*
X73092176Y-65208271D01*
X72991167Y-65291167D01*
X72908271Y-65392176D01*
X72875000Y-65454421D01*
X72841729Y-65392176D01*
X72758833Y-65291167D01*
X72657824Y-65208271D01*
X72542584Y-65146673D01*
X72417541Y-65108742D01*
X72287500Y-65095934D01*
X71712500Y-65095934D01*
X71582459Y-65108742D01*
X71457416Y-65146673D01*
X71342176Y-65208271D01*
X71241167Y-65291167D01*
X71158271Y-65392176D01*
X71096673Y-65507416D01*
X71058742Y-65632459D01*
X71045934Y-65762500D01*
X70477000Y-65762500D01*
X70477000Y-62810207D01*
X71073000Y-62810207D01*
X71073000Y-63189793D01*
X71147053Y-63562085D01*
X71292315Y-63912777D01*
X71503201Y-64228391D01*
X71771609Y-64496799D01*
X72087223Y-64707685D01*
X72437915Y-64852947D01*
X72810207Y-64927000D01*
X73189793Y-64927000D01*
X73562085Y-64852947D01*
X73912777Y-64707685D01*
X74228391Y-64496799D01*
X74496799Y-64228391D01*
X74707685Y-63912777D01*
X74852947Y-63562085D01*
X74927000Y-63189793D01*
X74927000Y-62810207D01*
X74852947Y-62437915D01*
X74707685Y-62087223D01*
X74496799Y-61771609D01*
X74228391Y-61503201D01*
X73912777Y-61292315D01*
X73562085Y-61147053D01*
X73189793Y-61073000D01*
X72810207Y-61073000D01*
X72437915Y-61147053D01*
X72087223Y-61292315D01*
X71771609Y-61503201D01*
X71503201Y-61771609D01*
X71292315Y-62087223D01*
X71147053Y-62437915D01*
X71073000Y-62810207D01*
X70477000Y-62810207D01*
X70477000Y-60477000D01*
X169523000Y-60477000D01*
X169523001Y-84523000D01*
G37*
X169523001Y-84523000D02*
X70477000Y-84523000D01*
X70477000Y-65762500D01*
X71045934Y-65762500D01*
X71045934Y-66237500D01*
X71058742Y-66367541D01*
X71096673Y-66492584D01*
X71158271Y-66607824D01*
X71241167Y-66708833D01*
X71342176Y-66791729D01*
X71457416Y-66853327D01*
X71485748Y-66861921D01*
X71517922Y-66922115D01*
X71548840Y-66959788D01*
X71571963Y-66987964D01*
X71571966Y-66987967D01*
X71590027Y-67009974D01*
X71612033Y-67028034D01*
X72323000Y-67739002D01*
X72323001Y-71071659D01*
X72320210Y-71100000D01*
X72323001Y-71128341D01*
X72323000Y-77860998D01*
X72088064Y-78095934D01*
X71712500Y-78095934D01*
X71582459Y-78108742D01*
X71457416Y-78146673D01*
X71342176Y-78208271D01*
X71241167Y-78291167D01*
X71158271Y-78392176D01*
X71096673Y-78507416D01*
X71058742Y-78632459D01*
X71045934Y-78762500D01*
X71045934Y-79237500D01*
X71058742Y-79367541D01*
X71096673Y-79492584D01*
X71158271Y-79607824D01*
X71241167Y-79708833D01*
X71342176Y-79791729D01*
X71457416Y-79853327D01*
X71582459Y-79891258D01*
X71712500Y-79904066D01*
X72287500Y-79904066D01*
X72417541Y-79891258D01*
X72542584Y-79853327D01*
X72657824Y-79791729D01*
X72758833Y-79708833D01*
X72841729Y-79607824D01*
X72875000Y-79545579D01*
X72908271Y-79607824D01*
X72991167Y-79708833D01*
X73092176Y-79791729D01*
X73207416Y-79853327D01*
X73332459Y-79891258D01*
X73462500Y-79904066D01*
X74037500Y-79904066D01*
X74167541Y-79891258D01*
X74292584Y-79853327D01*
X74407824Y-79791729D01*
X74508833Y-79708833D01*
X74591729Y-79607824D01*
X74608205Y-79577000D01*
X74760999Y-79577000D01*
X75738879Y-80554880D01*
X75708271Y-80592176D01*
X75646673Y-80707416D01*
X75608742Y-80832459D01*
X75595934Y-80962500D01*
X75595934Y-81537500D01*
X75608742Y-81667541D01*
X75646673Y-81792584D01*
X75653559Y-81805466D01*
X75546058Y-81760938D01*
X75405603Y-81733000D01*
X75262397Y-81733000D01*
X75121942Y-81760938D01*
X74989636Y-81815741D01*
X74927000Y-81857593D01*
X74927000Y-81810207D01*
X74852947Y-81437915D01*
X74707685Y-81087223D01*
X74496799Y-80771609D01*
X74228391Y-80503201D01*
X73912777Y-80292315D01*
X73562085Y-80147053D01*
X73189793Y-80073000D01*
X72810207Y-80073000D01*
X72437915Y-80147053D01*
X72087223Y-80292315D01*
X71771609Y-80503201D01*
X71503201Y-80771609D01*
X71292315Y-81087223D01*
X71147053Y-81437915D01*
X71073000Y-81810207D01*
X71073000Y-82189793D01*
X71147053Y-82562085D01*
X71292315Y-82912777D01*
X71503201Y-83228391D01*
X71771609Y-83496799D01*
X72087223Y-83707685D01*
X72437915Y-83852947D01*
X72810207Y-83927000D01*
X73189793Y-83927000D01*
X73562085Y-83852947D01*
X73912777Y-83707685D01*
X74228391Y-83496799D01*
X74496799Y-83228391D01*
X74707685Y-82912777D01*
X74728539Y-82862430D01*
X74769302Y-82923436D01*
X74870564Y-83024698D01*
X74989636Y-83104259D01*
X75121942Y-83159062D01*
X75240679Y-83182680D01*
X75445961Y-83387962D01*
X75464026Y-83409974D01*
X75551885Y-83482079D01*
X75643110Y-83530839D01*
X75646673Y-83542584D01*
X75708271Y-83657824D01*
X75791167Y-83758833D01*
X75892176Y-83841729D01*
X76007416Y-83903327D01*
X76132459Y-83941258D01*
X76262500Y-83954066D01*
X76737500Y-83954066D01*
X76867541Y-83941258D01*
X76992584Y-83903327D01*
X77107824Y-83841729D01*
X77208833Y-83758833D01*
X77291729Y-83657824D01*
X77353327Y-83542584D01*
X77391258Y-83417541D01*
X77404066Y-83287500D01*
X77404066Y-82712500D01*
X77391258Y-82582459D01*
X77353327Y-82457416D01*
X77291729Y-82342176D01*
X77208833Y-82241167D01*
X77107824Y-82158271D01*
X77045579Y-82125000D01*
X77107824Y-82091729D01*
X77208833Y-82008833D01*
X77291729Y-81907824D01*
X77353327Y-81792584D01*
X77391258Y-81667541D01*
X77404066Y-81537500D01*
X77404066Y-80962500D01*
X77391258Y-80832459D01*
X77353327Y-80707416D01*
X77291729Y-80592176D01*
X77208833Y-80491167D01*
X77107824Y-80408271D01*
X77068696Y-80387356D01*
X77068650Y-80386888D01*
X77035657Y-80278124D01*
X76982079Y-80177885D01*
X76963777Y-80155584D01*
X88223000Y-80155584D01*
X88223000Y-80584416D01*
X88306660Y-81005008D01*
X88470767Y-81401196D01*
X88709013Y-81757757D01*
X89012243Y-82060987D01*
X89368804Y-82299233D01*
X89764992Y-82463340D01*
X90185584Y-82547000D01*
X90614416Y-82547000D01*
X91035008Y-82463340D01*
X91431196Y-82299233D01*
X91787757Y-82060987D01*
X92038537Y-81810207D01*
X165073000Y-81810207D01*
X165073000Y-82189793D01*
X165147053Y-82562085D01*
X165292315Y-82912777D01*
X165503201Y-83228391D01*
X165771609Y-83496799D01*
X166087223Y-83707685D01*
X166437915Y-83852947D01*
X166810207Y-83927000D01*
X167189793Y-83927000D01*
X167562085Y-83852947D01*
X167912777Y-83707685D01*
X168228391Y-83496799D01*
X168496799Y-83228391D01*
X168707685Y-82912777D01*
X168852947Y-82562085D01*
X168927000Y-82189793D01*
X168927000Y-81810207D01*
X168852947Y-81437915D01*
X168707685Y-81087223D01*
X168496799Y-80771609D01*
X168228391Y-80503201D01*
X167912777Y-80292315D01*
X167562085Y-80147053D01*
X167189793Y-80073000D01*
X166810207Y-80073000D01*
X166437915Y-80147053D01*
X166087223Y-80292315D01*
X165771609Y-80503201D01*
X165503201Y-80771609D01*
X165292315Y-81087223D01*
X165147053Y-81437915D01*
X165073000Y-81810207D01*
X92038537Y-81810207D01*
X92090987Y-81757757D01*
X92329233Y-81401196D01*
X92493340Y-81005008D01*
X92577000Y-80584416D01*
X92577000Y-80155584D01*
X92493340Y-79734992D01*
X92329233Y-79338804D01*
X92090987Y-78982243D01*
X91787757Y-78679013D01*
X91431196Y-78440767D01*
X91035008Y-78276660D01*
X90614416Y-78193000D01*
X90185584Y-78193000D01*
X89764992Y-78276660D01*
X89368804Y-78440767D01*
X89012243Y-78679013D01*
X88709013Y-78982243D01*
X88470767Y-79338804D01*
X88306660Y-79734992D01*
X88223000Y-80155584D01*
X76963777Y-80155584D01*
X76909974Y-80090026D01*
X76887962Y-80071961D01*
X75428037Y-78612036D01*
X75409974Y-78590026D01*
X75322115Y-78517921D01*
X75221876Y-78464343D01*
X75157770Y-78444897D01*
X75113111Y-78431349D01*
X75058045Y-78425926D01*
X75028336Y-78423000D01*
X75028331Y-78423000D01*
X75000000Y-78420210D01*
X74971669Y-78423000D01*
X74608205Y-78423000D01*
X74591729Y-78392176D01*
X74508833Y-78291167D01*
X74407824Y-78208271D01*
X74292584Y-78146673D01*
X74167541Y-78108742D01*
X74037500Y-78095934D01*
X73479389Y-78095934D01*
X73477000Y-78071672D01*
X73477000Y-75250000D01*
X158820934Y-75250000D01*
X158820934Y-76750000D01*
X158829178Y-76833707D01*
X158853595Y-76914196D01*
X158893245Y-76988376D01*
X158946605Y-77053395D01*
X159011624Y-77106755D01*
X159085804Y-77146405D01*
X159166293Y-77170822D01*
X159250000Y-77179066D01*
X160750000Y-77179066D01*
X160833707Y-77170822D01*
X160914196Y-77146405D01*
X160988376Y-77106755D01*
X161053395Y-77053395D01*
X161106755Y-76988376D01*
X161146405Y-76914196D01*
X161170822Y-76833707D01*
X161179066Y-76750000D01*
X161179066Y-75250000D01*
X161170822Y-75166293D01*
X161146405Y-75085804D01*
X161106755Y-75011624D01*
X161053395Y-74946605D01*
X160988376Y-74893245D01*
X160914196Y-74853595D01*
X160833707Y-74829178D01*
X160750000Y-74820934D01*
X159250000Y-74820934D01*
X159166293Y-74829178D01*
X159085804Y-74853595D01*
X159011624Y-74893245D01*
X158946605Y-74946605D01*
X158893245Y-75011624D01*
X158853595Y-75085804D01*
X158829178Y-75166293D01*
X158820934Y-75250000D01*
X73477000Y-75250000D01*
X73477000Y-73129066D01*
X75675000Y-73129066D01*
X75758707Y-73120822D01*
X75823000Y-73101318D01*
X75823000Y-74500000D01*
X75828810Y-74570198D01*
X75850598Y-74651020D01*
X75887735Y-74726037D01*
X75938793Y-74792369D01*
X76001811Y-74847464D01*
X76351811Y-75097464D01*
X76436594Y-75144497D01*
X76516696Y-75168795D01*
X76600000Y-75177000D01*
X78250000Y-75177000D01*
X78346328Y-75165993D01*
X78425633Y-75139207D01*
X78498189Y-75097464D01*
X78848189Y-74847464D01*
X78901935Y-74801935D01*
X78955038Y-74737228D01*
X78994497Y-74663406D01*
X79018795Y-74583304D01*
X79027000Y-74500000D01*
X79027000Y-71400000D01*
X80360934Y-71400000D01*
X80360934Y-73600000D01*
X80369178Y-73683707D01*
X80393595Y-73764196D01*
X80433245Y-73838376D01*
X80486605Y-73903395D01*
X80551624Y-73956755D01*
X80625804Y-73996405D01*
X80706293Y-74020822D01*
X80790000Y-74029066D01*
X82990000Y-74029066D01*
X83073707Y-74020822D01*
X83154196Y-73996405D01*
X83228376Y-73956755D01*
X83293395Y-73903395D01*
X83346755Y-73838376D01*
X83386405Y-73764196D01*
X83410822Y-73683707D01*
X83419066Y-73600000D01*
X83419066Y-72838356D01*
X83994922Y-72262500D01*
X116295934Y-72262500D01*
X116295934Y-72737500D01*
X116308742Y-72867541D01*
X116346673Y-72992584D01*
X116408271Y-73107824D01*
X116491167Y-73208833D01*
X116592176Y-73291729D01*
X116707416Y-73353327D01*
X116832459Y-73391258D01*
X116962500Y-73404066D01*
X117537500Y-73404066D01*
X117667541Y-73391258D01*
X117792584Y-73353327D01*
X117907824Y-73291729D01*
X118008833Y-73208833D01*
X118091729Y-73107824D01*
X118153327Y-72992584D01*
X118191258Y-72867541D01*
X118204066Y-72737500D01*
X118204066Y-72364823D01*
X118209974Y-72359974D01*
X118218484Y-72349604D01*
X152583000Y-72349604D01*
X152583000Y-72650396D01*
X152641681Y-72945410D01*
X152756790Y-73223306D01*
X152923901Y-73473406D01*
X153136594Y-73686099D01*
X153386694Y-73853210D01*
X153664590Y-73968319D01*
X153959604Y-74027000D01*
X154260396Y-74027000D01*
X154555410Y-73968319D01*
X154833306Y-73853210D01*
X155083406Y-73686099D01*
X155296099Y-73473406D01*
X155463210Y-73223306D01*
X155578319Y-72945410D01*
X155637000Y-72650396D01*
X155637000Y-72349604D01*
X155578319Y-72054590D01*
X155463210Y-71776694D01*
X155296099Y-71526594D01*
X155153581Y-71384076D01*
X158823000Y-71384076D01*
X158823000Y-71615924D01*
X158868231Y-71843318D01*
X158956956Y-72057519D01*
X159085764Y-72250294D01*
X159249706Y-72414236D01*
X159378061Y-72500000D01*
X159249706Y-72585764D01*
X159085764Y-72749706D01*
X158956956Y-72942481D01*
X158868231Y-73156682D01*
X158823000Y-73384076D01*
X158823000Y-73615924D01*
X158868231Y-73843318D01*
X158956956Y-74057519D01*
X159085764Y-74250294D01*
X159249706Y-74414236D01*
X159442481Y-74543044D01*
X159656682Y-74631769D01*
X159884076Y-74677000D01*
X160115924Y-74677000D01*
X160343318Y-74631769D01*
X160557519Y-74543044D01*
X160750294Y-74414236D01*
X160914236Y-74250294D01*
X161043044Y-74057519D01*
X161131769Y-73843318D01*
X161177000Y-73615924D01*
X161177000Y-73384076D01*
X161131769Y-73156682D01*
X161043044Y-72942481D01*
X160914236Y-72749706D01*
X160750294Y-72585764D01*
X160621939Y-72500000D01*
X160750294Y-72414236D01*
X160914236Y-72250294D01*
X161043044Y-72057519D01*
X161131769Y-71843318D01*
X161177000Y-71615924D01*
X161177000Y-71384076D01*
X161131769Y-71156682D01*
X161043044Y-70942481D01*
X160914236Y-70749706D01*
X160750294Y-70585764D01*
X160557519Y-70456956D01*
X160343318Y-70368231D01*
X160115924Y-70323000D01*
X159884076Y-70323000D01*
X159656682Y-70368231D01*
X159442481Y-70456956D01*
X159249706Y-70585764D01*
X159085764Y-70749706D01*
X158956956Y-70942481D01*
X158868231Y-71156682D01*
X158823000Y-71384076D01*
X155153581Y-71384076D01*
X155083406Y-71313901D01*
X154833306Y-71146790D01*
X154555410Y-71031681D01*
X154260396Y-70973000D01*
X153959604Y-70973000D01*
X153664590Y-71031681D01*
X153386694Y-71146790D01*
X153136594Y-71313901D01*
X152923901Y-71526594D01*
X152756790Y-71776694D01*
X152641681Y-72054590D01*
X152583000Y-72349604D01*
X118218484Y-72349604D01*
X118282079Y-72272115D01*
X118335657Y-72171876D01*
X118368650Y-72063112D01*
X118377000Y-71978336D01*
X118377000Y-71978330D01*
X118379790Y-71950001D01*
X118377000Y-71921672D01*
X118377000Y-70145035D01*
X118444259Y-70044374D01*
X118499062Y-69912068D01*
X118527000Y-69771613D01*
X118527000Y-69628407D01*
X118499062Y-69487952D01*
X118444259Y-69355646D01*
X118364698Y-69236574D01*
X118263436Y-69135312D01*
X118144364Y-69055751D01*
X118012058Y-69000948D01*
X117871603Y-68973010D01*
X117728397Y-68973010D01*
X117587942Y-69000948D01*
X117455636Y-69055751D01*
X117336564Y-69135312D01*
X117235302Y-69236574D01*
X117155741Y-69355646D01*
X117100938Y-69487952D01*
X117073000Y-69628407D01*
X117073000Y-69771613D01*
X117100938Y-69912068D01*
X117155741Y-70044374D01*
X117223001Y-70145036D01*
X117223000Y-71595934D01*
X116962500Y-71595934D01*
X116832459Y-71608742D01*
X116707416Y-71646673D01*
X116592176Y-71708271D01*
X116491167Y-71791167D01*
X116408271Y-71892176D01*
X116346673Y-72007416D01*
X116308742Y-72132459D01*
X116295934Y-72262500D01*
X83994922Y-72262500D01*
X84055205Y-72202218D01*
X84081026Y-72181027D01*
X84102218Y-72155205D01*
X84102224Y-72155199D01*
X84165628Y-72077941D01*
X84228492Y-71960330D01*
X84267204Y-71832715D01*
X84280275Y-71700000D01*
X84277000Y-71666748D01*
X84277000Y-68165320D01*
X84299062Y-68112058D01*
X84327000Y-67971603D01*
X84327000Y-67828397D01*
X84299062Y-67687942D01*
X84244259Y-67555636D01*
X84164698Y-67436564D01*
X84063436Y-67335302D01*
X83944364Y-67255741D01*
X83812058Y-67200938D01*
X83671603Y-67173000D01*
X83528397Y-67173000D01*
X83387942Y-67200938D01*
X83255636Y-67255741D01*
X83136564Y-67335302D01*
X83035302Y-67436564D01*
X82955741Y-67555636D01*
X82900938Y-67687942D01*
X82873000Y-67828397D01*
X82873000Y-67971603D01*
X82900938Y-68112058D01*
X82923001Y-68165323D01*
X82923000Y-70970934D01*
X80790000Y-70970934D01*
X80706293Y-70979178D01*
X80625804Y-71003595D01*
X80551624Y-71043245D01*
X80486605Y-71096605D01*
X80433245Y-71161624D01*
X80393595Y-71235804D01*
X80369178Y-71316293D01*
X80360934Y-71400000D01*
X79027000Y-71400000D01*
X79027000Y-71000000D01*
X79016891Y-70907638D01*
X78990862Y-70828082D01*
X78949812Y-70755132D01*
X78599812Y-70255132D01*
X78551935Y-70198065D01*
X78487228Y-70144962D01*
X78413406Y-70105503D01*
X78333304Y-70081205D01*
X78250000Y-70073000D01*
X75750000Y-70073000D01*
X75696151Y-70076409D01*
X75614547Y-70095054D01*
X75538149Y-70129260D01*
X74849104Y-70523000D01*
X74466748Y-70523000D01*
X74367285Y-70532796D01*
X74241562Y-70570934D01*
X73477000Y-70570934D01*
X73477000Y-67528328D01*
X73479790Y-67499999D01*
X73477000Y-67471670D01*
X73477000Y-67471664D01*
X73468650Y-67386888D01*
X73435657Y-67278124D01*
X73382079Y-67177885D01*
X73309974Y-67090026D01*
X73287968Y-67071966D01*
X72833659Y-66617657D01*
X72841729Y-66607824D01*
X72875000Y-66545579D01*
X72908271Y-66607824D01*
X72991167Y-66708833D01*
X73092176Y-66791729D01*
X73207416Y-66853327D01*
X73332459Y-66891258D01*
X73462500Y-66904066D01*
X74037500Y-66904066D01*
X74167541Y-66891258D01*
X74292584Y-66853327D01*
X74407824Y-66791729D01*
X74508833Y-66708833D01*
X74591729Y-66607824D01*
X74608205Y-66577000D01*
X74771669Y-66577000D01*
X74800000Y-66579790D01*
X74828331Y-66577000D01*
X74828336Y-66577000D01*
X74858045Y-66574074D01*
X74913111Y-66568651D01*
X74957770Y-66555103D01*
X75021876Y-66535657D01*
X75122115Y-66482079D01*
X75209974Y-66409974D01*
X75228039Y-66387962D01*
X76887967Y-64728035D01*
X76909974Y-64709974D01*
X76944491Y-64667916D01*
X76992584Y-64653327D01*
X77107824Y-64591729D01*
X77208833Y-64508833D01*
X77291729Y-64407824D01*
X77353327Y-64292584D01*
X77391258Y-64167541D01*
X77404066Y-64037500D01*
X77404066Y-63462500D01*
X77391258Y-63332459D01*
X77353327Y-63207416D01*
X77291729Y-63092176D01*
X77208833Y-62991167D01*
X77107824Y-62908271D01*
X77045579Y-62875000D01*
X77107824Y-62841729D01*
X77208833Y-62758833D01*
X77291729Y-62657824D01*
X77353327Y-62542584D01*
X77391258Y-62417541D01*
X77395251Y-62377000D01*
X80883239Y-62377000D01*
X80873016Y-62428397D01*
X80873016Y-62571603D01*
X80900954Y-62712058D01*
X80955757Y-62844364D01*
X81035318Y-62963436D01*
X81136580Y-63064698D01*
X81244053Y-63136509D01*
X81119327Y-63188172D01*
X80852848Y-63366227D01*
X80626227Y-63592848D01*
X80448172Y-63859327D01*
X80325525Y-64155422D01*
X80263000Y-64469755D01*
X80263000Y-64790245D01*
X80325525Y-65104578D01*
X80448172Y-65400673D01*
X80626227Y-65667152D01*
X80852848Y-65893773D01*
X81119327Y-66071828D01*
X81415422Y-66194475D01*
X81729755Y-66257000D01*
X82050245Y-66257000D01*
X82364578Y-66194475D01*
X82660673Y-66071828D01*
X82927152Y-65893773D01*
X83153773Y-65667152D01*
X83331828Y-65400673D01*
X83454475Y-65104578D01*
X83517000Y-64790245D01*
X83517000Y-64469755D01*
X83506225Y-64415584D01*
X143423000Y-64415584D01*
X143423000Y-64844416D01*
X143506660Y-65265008D01*
X143670767Y-65661196D01*
X143909013Y-66017757D01*
X144212243Y-66320987D01*
X144568804Y-66559233D01*
X144964992Y-66723340D01*
X145385584Y-66807000D01*
X145814416Y-66807000D01*
X146235008Y-66723340D01*
X146631196Y-66559233D01*
X146987757Y-66320987D01*
X147290987Y-66017757D01*
X147529233Y-65661196D01*
X147693340Y-65265008D01*
X147777000Y-64844416D01*
X147777000Y-64415584D01*
X147693340Y-63994992D01*
X147529233Y-63598804D01*
X147290987Y-63242243D01*
X146987757Y-62939013D01*
X146794985Y-62810207D01*
X165073000Y-62810207D01*
X165073000Y-63189793D01*
X165147053Y-63562085D01*
X165292315Y-63912777D01*
X165503201Y-64228391D01*
X165771609Y-64496799D01*
X166087223Y-64707685D01*
X166437915Y-64852947D01*
X166810207Y-64927000D01*
X167189793Y-64927000D01*
X167562085Y-64852947D01*
X167912777Y-64707685D01*
X168228391Y-64496799D01*
X168496799Y-64228391D01*
X168707685Y-63912777D01*
X168852947Y-63562085D01*
X168927000Y-63189793D01*
X168927000Y-62810207D01*
X168852947Y-62437915D01*
X168707685Y-62087223D01*
X168496799Y-61771609D01*
X168228391Y-61503201D01*
X167912777Y-61292315D01*
X167562085Y-61147053D01*
X167189793Y-61073000D01*
X166810207Y-61073000D01*
X166437915Y-61147053D01*
X166087223Y-61292315D01*
X165771609Y-61503201D01*
X165503201Y-61771609D01*
X165292315Y-62087223D01*
X165147053Y-62437915D01*
X165073000Y-62810207D01*
X146794985Y-62810207D01*
X146631196Y-62700767D01*
X146235008Y-62536660D01*
X145814416Y-62453000D01*
X145385584Y-62453000D01*
X144964992Y-62536660D01*
X144568804Y-62700767D01*
X144212243Y-62939013D01*
X143909013Y-63242243D01*
X143670767Y-63598804D01*
X143506660Y-63994992D01*
X143423000Y-64415584D01*
X83506225Y-64415584D01*
X83454475Y-64155422D01*
X83331828Y-63859327D01*
X83153773Y-63592848D01*
X82927152Y-63366227D01*
X82660673Y-63188172D01*
X82392281Y-63077000D01*
X92754975Y-63077000D01*
X92855636Y-63144259D01*
X92987942Y-63199062D01*
X93128397Y-63227000D01*
X93271603Y-63227000D01*
X93412058Y-63199062D01*
X93544364Y-63144259D01*
X93663436Y-63064698D01*
X93764698Y-62963436D01*
X93844259Y-62844364D01*
X93899062Y-62712058D01*
X93927000Y-62571603D01*
X93927000Y-62428397D01*
X93899062Y-62287942D01*
X93844259Y-62155636D01*
X93764698Y-62036564D01*
X93663436Y-61935302D01*
X93544364Y-61855741D01*
X93412058Y-61800938D01*
X93271603Y-61773000D01*
X93128397Y-61773000D01*
X92987942Y-61800938D01*
X92855636Y-61855741D01*
X92754975Y-61923000D01*
X87116775Y-61923000D01*
X87126998Y-61871603D01*
X87126998Y-61728397D01*
X87099060Y-61587942D01*
X87044257Y-61455636D01*
X86964696Y-61336564D01*
X86863434Y-61235302D01*
X86744362Y-61155741D01*
X86612056Y-61100938D01*
X86471601Y-61073000D01*
X86328395Y-61073000D01*
X86187940Y-61100938D01*
X86055634Y-61155741D01*
X85954973Y-61223000D01*
X77186696Y-61223000D01*
X77107824Y-61158271D01*
X76992584Y-61096673D01*
X76867541Y-61058742D01*
X76737500Y-61045934D01*
X76262500Y-61045934D01*
X76132459Y-61058742D01*
X76007416Y-61096673D01*
X75892176Y-61158271D01*
X75791167Y-61241167D01*
X75708271Y-61342176D01*
X75646673Y-61457416D01*
X75608742Y-61582459D01*
X75595934Y-61712500D01*
X75595934Y-62287500D01*
X75608742Y-62417541D01*
X75646673Y-62542584D01*
X75708271Y-62657824D01*
X75791167Y-62758833D01*
X75892176Y-62841729D01*
X75954421Y-62875000D01*
X75892176Y-62908271D01*
X75791167Y-62991167D01*
X75708271Y-63092176D01*
X75646673Y-63207416D01*
X75608742Y-63332459D01*
X75595934Y-63462500D01*
X75595934Y-64037500D01*
X75608742Y-64167541D01*
X75646673Y-64292584D01*
X75662258Y-64321741D01*
X74591762Y-65392237D01*
X74591729Y-65392176D01*
X74508833Y-65291167D01*
X74407824Y-65208271D01*
X74292584Y-65146673D01*
X74167541Y-65108742D01*
X74037500Y-65095934D01*
X73462500Y-65095934D01*
X73332459Y-65108742D01*
X73207416Y-65146673D01*
X73092176Y-65208271D01*
X72991167Y-65291167D01*
X72908271Y-65392176D01*
X72875000Y-65454421D01*
X72841729Y-65392176D01*
X72758833Y-65291167D01*
X72657824Y-65208271D01*
X72542584Y-65146673D01*
X72417541Y-65108742D01*
X72287500Y-65095934D01*
X71712500Y-65095934D01*
X71582459Y-65108742D01*
X71457416Y-65146673D01*
X71342176Y-65208271D01*
X71241167Y-65291167D01*
X71158271Y-65392176D01*
X71096673Y-65507416D01*
X71058742Y-65632459D01*
X71045934Y-65762500D01*
X70477000Y-65762500D01*
X70477000Y-62810207D01*
X71073000Y-62810207D01*
X71073000Y-63189793D01*
X71147053Y-63562085D01*
X71292315Y-63912777D01*
X71503201Y-64228391D01*
X71771609Y-64496799D01*
X72087223Y-64707685D01*
X72437915Y-64852947D01*
X72810207Y-64927000D01*
X73189793Y-64927000D01*
X73562085Y-64852947D01*
X73912777Y-64707685D01*
X74228391Y-64496799D01*
X74496799Y-64228391D01*
X74707685Y-63912777D01*
X74852947Y-63562085D01*
X74927000Y-63189793D01*
X74927000Y-62810207D01*
X74852947Y-62437915D01*
X74707685Y-62087223D01*
X74496799Y-61771609D01*
X74228391Y-61503201D01*
X73912777Y-61292315D01*
X73562085Y-61147053D01*
X73189793Y-61073000D01*
X72810207Y-61073000D01*
X72437915Y-61147053D01*
X72087223Y-61292315D01*
X71771609Y-61503201D01*
X71503201Y-61771609D01*
X71292315Y-62087223D01*
X71147053Y-62437915D01*
X71073000Y-62810207D01*
X70477000Y-62810207D01*
X70477000Y-60477000D01*
X169523000Y-60477000D01*
X169523001Y-84523000D01*
%TD*%
M02*
