%TF.GenerationSoftware,KiCad,Pcbnew,(5.1.6)-1*%
%TF.CreationDate,2020-08-13T11:00:50+03:00*%
%TF.ProjectId,Rechargeable 5V power bank REV 0.53,52656368-6172-4676-9561-626c65203556,rev?*%
%TF.SameCoordinates,Original*%
%TF.FileFunction,OtherDrawing,Comment*%
%FSLAX46Y46*%
G04 Gerber Fmt 4.6, Leading zero omitted, Abs format (unit mm)*
G04 Created by KiCad (PCBNEW (5.1.6)-1) date 2020-08-13 11:00:50*
%MOMM*%
%LPD*%
G01*
G04 APERTURE LIST*
%ADD10C,0.150000*%
G04 APERTURE END LIST*
D10*
X64852380Y-82321428D02*
X64852380Y-82892857D01*
X64852380Y-82607142D02*
X63852380Y-82607142D01*
X63995238Y-82702380D01*
X64090476Y-82797619D01*
X64138095Y-82892857D01*
X63947619Y-81940476D02*
X63900000Y-81892857D01*
X63852380Y-81797619D01*
X63852380Y-81559523D01*
X63900000Y-81464285D01*
X63947619Y-81416666D01*
X64042857Y-81369047D01*
X64138095Y-81369047D01*
X64280952Y-81416666D01*
X64852380Y-81988095D01*
X64852380Y-81369047D01*
X64757142Y-80940476D02*
X64804761Y-80892857D01*
X64852380Y-80940476D01*
X64804761Y-80988095D01*
X64757142Y-80940476D01*
X64852380Y-80940476D01*
X63852380Y-79988095D02*
X63852380Y-80464285D01*
X64328571Y-80511904D01*
X64280952Y-80464285D01*
X64233333Y-80369047D01*
X64233333Y-80130952D01*
X64280952Y-80035714D01*
X64328571Y-79988095D01*
X64423809Y-79940476D01*
X64661904Y-79940476D01*
X64757142Y-79988095D01*
X64804761Y-80035714D01*
X64852380Y-80130952D01*
X64852380Y-80369047D01*
X64804761Y-80464285D01*
X64757142Y-80511904D01*
X63852380Y-79321428D02*
X63852380Y-79226190D01*
X63900000Y-79130952D01*
X63947619Y-79083333D01*
X64042857Y-79035714D01*
X64233333Y-78988095D01*
X64471428Y-78988095D01*
X64661904Y-79035714D01*
X64757142Y-79083333D01*
X64804761Y-79130952D01*
X64852380Y-79226190D01*
X64852380Y-79321428D01*
X64804761Y-79416666D01*
X64757142Y-79464285D01*
X64661904Y-79511904D01*
X64471428Y-79559523D01*
X64233333Y-79559523D01*
X64042857Y-79511904D01*
X63947619Y-79464285D01*
X63900000Y-79416666D01*
X63852380Y-79321428D01*
X63852380Y-78369047D02*
X63852380Y-78273809D01*
X63900000Y-78178571D01*
X63947619Y-78130952D01*
X64042857Y-78083333D01*
X64233333Y-78035714D01*
X64471428Y-78035714D01*
X64661904Y-78083333D01*
X64757142Y-78130952D01*
X64804761Y-78178571D01*
X64852380Y-78273809D01*
X64852380Y-78369047D01*
X64804761Y-78464285D01*
X64757142Y-78511904D01*
X64661904Y-78559523D01*
X64471428Y-78607142D01*
X64233333Y-78607142D01*
X64042857Y-78559523D01*
X63947619Y-78511904D01*
X63900000Y-78464285D01*
X63852380Y-78369047D01*
X64852380Y-76845238D02*
X64185714Y-76845238D01*
X64280952Y-76845238D02*
X64233333Y-76797619D01*
X64185714Y-76702380D01*
X64185714Y-76559523D01*
X64233333Y-76464285D01*
X64328571Y-76416666D01*
X64852380Y-76416666D01*
X64328571Y-76416666D02*
X64233333Y-76369047D01*
X64185714Y-76273809D01*
X64185714Y-76130952D01*
X64233333Y-76035714D01*
X64328571Y-75988095D01*
X64852380Y-75988095D01*
X64852380Y-75511904D02*
X64185714Y-75511904D01*
X64280952Y-75511904D02*
X64233333Y-75464285D01*
X64185714Y-75369047D01*
X64185714Y-75226190D01*
X64233333Y-75130952D01*
X64328571Y-75083333D01*
X64852380Y-75083333D01*
X64328571Y-75083333D02*
X64233333Y-75035714D01*
X64185714Y-74940476D01*
X64185714Y-74797619D01*
X64233333Y-74702380D01*
X64328571Y-74654761D01*
X64852380Y-74654761D01*
X65700000Y-85000000D02*
X65700000Y-72500000D01*
X70000000Y-85000000D02*
X65113579Y-85000000D01*
X70000000Y-72500000D02*
X65113579Y-72500000D01*
X65700000Y-72500000D02*
X66286421Y-73626504D01*
X65700000Y-72500000D02*
X65113579Y-73626504D01*
X65700000Y-85000000D02*
X66286421Y-83873496D01*
X65700000Y-85000000D02*
X65113579Y-83873496D01*
X177352380Y-68357142D02*
X177400000Y-68404761D01*
X177447619Y-68500000D01*
X177447619Y-68738095D01*
X177400000Y-68833333D01*
X177352380Y-68880952D01*
X177257142Y-68928571D01*
X177161904Y-68928571D01*
X177019047Y-68880952D01*
X176447619Y-68309523D01*
X176447619Y-68928571D01*
X177447619Y-69833333D02*
X177447619Y-69357142D01*
X176971428Y-69309523D01*
X177019047Y-69357142D01*
X177066666Y-69452380D01*
X177066666Y-69690476D01*
X177019047Y-69785714D01*
X176971428Y-69833333D01*
X176876190Y-69880952D01*
X176638095Y-69880952D01*
X176542857Y-69833333D01*
X176495238Y-69785714D01*
X176447619Y-69690476D01*
X176447619Y-69452380D01*
X176495238Y-69357142D01*
X176542857Y-69309523D01*
X176542857Y-70309523D02*
X176495238Y-70357142D01*
X176447619Y-70309523D01*
X176495238Y-70261904D01*
X176542857Y-70309523D01*
X176447619Y-70309523D01*
X177447619Y-70976190D02*
X177447619Y-71071428D01*
X177400000Y-71166666D01*
X177352380Y-71214285D01*
X177257142Y-71261904D01*
X177066666Y-71309523D01*
X176828571Y-71309523D01*
X176638095Y-71261904D01*
X176542857Y-71214285D01*
X176495238Y-71166666D01*
X176447619Y-71071428D01*
X176447619Y-70976190D01*
X176495238Y-70880952D01*
X176542857Y-70833333D01*
X176638095Y-70785714D01*
X176828571Y-70738095D01*
X177066666Y-70738095D01*
X177257142Y-70785714D01*
X177352380Y-70833333D01*
X177400000Y-70880952D01*
X177447619Y-70976190D01*
X177447619Y-71928571D02*
X177447619Y-72023809D01*
X177400000Y-72119047D01*
X177352380Y-72166666D01*
X177257142Y-72214285D01*
X177066666Y-72261904D01*
X176828571Y-72261904D01*
X176638095Y-72214285D01*
X176542857Y-72166666D01*
X176495238Y-72119047D01*
X176447619Y-72023809D01*
X176447619Y-71928571D01*
X176495238Y-71833333D01*
X176542857Y-71785714D01*
X176638095Y-71738095D01*
X176828571Y-71690476D01*
X177066666Y-71690476D01*
X177257142Y-71738095D01*
X177352380Y-71785714D01*
X177400000Y-71833333D01*
X177447619Y-71928571D01*
X177447619Y-72880952D02*
X177447619Y-72976190D01*
X177400000Y-73071428D01*
X177352380Y-73119047D01*
X177257142Y-73166666D01*
X177066666Y-73214285D01*
X176828571Y-73214285D01*
X176638095Y-73166666D01*
X176542857Y-73119047D01*
X176495238Y-73071428D01*
X176447619Y-72976190D01*
X176447619Y-72880952D01*
X176495238Y-72785714D01*
X176542857Y-72738095D01*
X176638095Y-72690476D01*
X176828571Y-72642857D01*
X177066666Y-72642857D01*
X177257142Y-72690476D01*
X177352380Y-72738095D01*
X177400000Y-72785714D01*
X177447619Y-72880952D01*
X176447619Y-74404761D02*
X177114285Y-74404761D01*
X177019047Y-74404761D02*
X177066666Y-74452380D01*
X177114285Y-74547619D01*
X177114285Y-74690476D01*
X177066666Y-74785714D01*
X176971428Y-74833333D01*
X176447619Y-74833333D01*
X176971428Y-74833333D02*
X177066666Y-74880952D01*
X177114285Y-74976190D01*
X177114285Y-75119047D01*
X177066666Y-75214285D01*
X176971428Y-75261904D01*
X176447619Y-75261904D01*
X176447619Y-75738095D02*
X177114285Y-75738095D01*
X177019047Y-75738095D02*
X177066666Y-75785714D01*
X177114285Y-75880952D01*
X177114285Y-76023809D01*
X177066666Y-76119047D01*
X176971428Y-76166666D01*
X176447619Y-76166666D01*
X176971428Y-76166666D02*
X177066666Y-76214285D01*
X177114285Y-76309523D01*
X177114285Y-76452380D01*
X177066666Y-76547619D01*
X176971428Y-76595238D01*
X176447619Y-76595238D01*
X175600000Y-60000000D02*
X175600000Y-85000000D01*
X170000000Y-60000000D02*
X176186421Y-60000000D01*
X170000000Y-85000000D02*
X176186421Y-85000000D01*
X175600000Y-85000000D02*
X175013579Y-83873496D01*
X175600000Y-85000000D02*
X176186421Y-83873496D01*
X175600000Y-60000000D02*
X175013579Y-61126504D01*
X175600000Y-60000000D02*
X176186421Y-61126504D01*
X115952380Y-50852380D02*
X115380952Y-50852380D01*
X115666666Y-50852380D02*
X115666666Y-49852380D01*
X115571428Y-49995238D01*
X115476190Y-50090476D01*
X115380952Y-50138095D01*
X116571428Y-49852380D02*
X116666666Y-49852380D01*
X116761904Y-49900000D01*
X116809523Y-49947619D01*
X116857142Y-50042857D01*
X116904761Y-50233333D01*
X116904761Y-50471428D01*
X116857142Y-50661904D01*
X116809523Y-50757142D01*
X116761904Y-50804761D01*
X116666666Y-50852380D01*
X116571428Y-50852380D01*
X116476190Y-50804761D01*
X116428571Y-50757142D01*
X116380952Y-50661904D01*
X116333333Y-50471428D01*
X116333333Y-50233333D01*
X116380952Y-50042857D01*
X116428571Y-49947619D01*
X116476190Y-49900000D01*
X116571428Y-49852380D01*
X117523809Y-49852380D02*
X117619047Y-49852380D01*
X117714285Y-49900000D01*
X117761904Y-49947619D01*
X117809523Y-50042857D01*
X117857142Y-50233333D01*
X117857142Y-50471428D01*
X117809523Y-50661904D01*
X117761904Y-50757142D01*
X117714285Y-50804761D01*
X117619047Y-50852380D01*
X117523809Y-50852380D01*
X117428571Y-50804761D01*
X117380952Y-50757142D01*
X117333333Y-50661904D01*
X117285714Y-50471428D01*
X117285714Y-50233333D01*
X117333333Y-50042857D01*
X117380952Y-49947619D01*
X117428571Y-49900000D01*
X117523809Y-49852380D01*
X118285714Y-50757142D02*
X118333333Y-50804761D01*
X118285714Y-50852380D01*
X118238095Y-50804761D01*
X118285714Y-50757142D01*
X118285714Y-50852380D01*
X118952380Y-49852380D02*
X119047619Y-49852380D01*
X119142857Y-49900000D01*
X119190476Y-49947619D01*
X119238095Y-50042857D01*
X119285714Y-50233333D01*
X119285714Y-50471428D01*
X119238095Y-50661904D01*
X119190476Y-50757142D01*
X119142857Y-50804761D01*
X119047619Y-50852380D01*
X118952380Y-50852380D01*
X118857142Y-50804761D01*
X118809523Y-50757142D01*
X118761904Y-50661904D01*
X118714285Y-50471428D01*
X118714285Y-50233333D01*
X118761904Y-50042857D01*
X118809523Y-49947619D01*
X118857142Y-49900000D01*
X118952380Y-49852380D01*
X119904761Y-49852380D02*
X120000000Y-49852380D01*
X120095238Y-49900000D01*
X120142857Y-49947619D01*
X120190476Y-50042857D01*
X120238095Y-50233333D01*
X120238095Y-50471428D01*
X120190476Y-50661904D01*
X120142857Y-50757142D01*
X120095238Y-50804761D01*
X120000000Y-50852380D01*
X119904761Y-50852380D01*
X119809523Y-50804761D01*
X119761904Y-50757142D01*
X119714285Y-50661904D01*
X119666666Y-50471428D01*
X119666666Y-50233333D01*
X119714285Y-50042857D01*
X119761904Y-49947619D01*
X119809523Y-49900000D01*
X119904761Y-49852380D01*
X120857142Y-49852380D02*
X120952380Y-49852380D01*
X121047619Y-49900000D01*
X121095238Y-49947619D01*
X121142857Y-50042857D01*
X121190476Y-50233333D01*
X121190476Y-50471428D01*
X121142857Y-50661904D01*
X121095238Y-50757142D01*
X121047619Y-50804761D01*
X120952380Y-50852380D01*
X120857142Y-50852380D01*
X120761904Y-50804761D01*
X120714285Y-50757142D01*
X120666666Y-50661904D01*
X120619047Y-50471428D01*
X120619047Y-50233333D01*
X120666666Y-50042857D01*
X120714285Y-49947619D01*
X120761904Y-49900000D01*
X120857142Y-49852380D01*
X122380952Y-50852380D02*
X122380952Y-50185714D01*
X122380952Y-50280952D02*
X122428571Y-50233333D01*
X122523809Y-50185714D01*
X122666666Y-50185714D01*
X122761904Y-50233333D01*
X122809523Y-50328571D01*
X122809523Y-50852380D01*
X122809523Y-50328571D02*
X122857142Y-50233333D01*
X122952380Y-50185714D01*
X123095238Y-50185714D01*
X123190476Y-50233333D01*
X123238095Y-50328571D01*
X123238095Y-50852380D01*
X123714285Y-50852380D02*
X123714285Y-50185714D01*
X123714285Y-50280952D02*
X123761904Y-50233333D01*
X123857142Y-50185714D01*
X124000000Y-50185714D01*
X124095238Y-50233333D01*
X124142857Y-50328571D01*
X124142857Y-50852380D01*
X124142857Y-50328571D02*
X124190476Y-50233333D01*
X124285714Y-50185714D01*
X124428571Y-50185714D01*
X124523809Y-50233333D01*
X124571428Y-50328571D01*
X124571428Y-50852380D01*
X70000000Y-51700000D02*
X170000000Y-51700000D01*
X70000000Y-60000000D02*
X70000000Y-51113579D01*
X170000000Y-60000000D02*
X170000000Y-51113579D01*
X170000000Y-51700000D02*
X168873496Y-52286421D01*
X170000000Y-51700000D02*
X168873496Y-51113579D01*
X70000000Y-51700000D02*
X71126504Y-52286421D01*
X70000000Y-51700000D02*
X71126504Y-51113579D01*
M02*
