%TF.GenerationSoftware,KiCad,Pcbnew,(5.1.6)-1*%
%TF.CreationDate,2020-08-13T11:00:50+03:00*%
%TF.ProjectId,Rechargeable 5V power bank REV 0.53,52656368-6172-4676-9561-626c65203556,rev?*%
%TF.SameCoordinates,Original*%
%TF.FileFunction,Other,User*%
%FSLAX46Y46*%
G04 Gerber Fmt 4.6, Leading zero omitted, Abs format (unit mm)*
G04 Created by KiCad (PCBNEW (5.1.6)-1) date 2020-08-13 11:00:50*
%MOMM*%
%LPD*%
G01*
G04 APERTURE LIST*
%ADD10C,0.050000*%
%ADD11C,0.120000*%
G04 APERTURE END LIST*
D10*
%TO.C,C13*%
X102350000Y-73750000D02*
X102350000Y-70050000D01*
X100450000Y-73750000D02*
X102350000Y-73750000D01*
X100450000Y-70050000D02*
X100450000Y-73750000D01*
X102350000Y-70050000D02*
X100450000Y-70050000D01*
%TO.C,C11*%
X85350000Y-66750000D02*
X85350000Y-70450000D01*
X87250000Y-66750000D02*
X85350000Y-66750000D01*
X87250000Y-70450000D02*
X87250000Y-66750000D01*
X85350000Y-70450000D02*
X87250000Y-70450000D01*
%TO.C,U1*%
X98150000Y-70400000D02*
X91850000Y-70400000D01*
X98150000Y-66900000D02*
X98150000Y-70400000D01*
X91850000Y-66900000D02*
X98150000Y-66900000D01*
X91850000Y-70400000D02*
X91850000Y-66900000D01*
%TO.C,C12*%
X157380000Y-83187500D02*
X157380000Y-78287500D01*
X154220000Y-83187500D02*
X157380000Y-83187500D01*
X154220000Y-78287500D02*
X154220000Y-83187500D01*
X157380000Y-78287500D02*
X154220000Y-78287500D01*
D11*
%TO.C,MH4*%
X170000000Y-82000000D02*
G75*
G03*
X170000000Y-82000000I-3000000J0D01*
G01*
%TO.C,MH3*%
X170000000Y-63000000D02*
G75*
G03*
X170000000Y-63000000I-3000000J0D01*
G01*
%TO.C,MH2*%
X76000000Y-82000000D02*
G75*
G03*
X76000000Y-82000000I-3000000J0D01*
G01*
%TO.C,MH1*%
X76000000Y-63000000D02*
G75*
G03*
X76000000Y-63000000I-3000000J0D01*
G01*
%TO.C,U3*%
X135310000Y-70794000D02*
X127690000Y-70794000D01*
X127690000Y-70794000D02*
X127690000Y-65206000D01*
X127690000Y-65206000D02*
X135310000Y-65206000D01*
X135310000Y-65206000D02*
X135310000Y-70794000D01*
D10*
%TO.C,U2*%
X149250000Y-68350000D02*
X152850000Y-68350000D01*
X149250000Y-63550000D02*
X149250000Y-68350000D01*
X152850000Y-63550000D02*
X149250000Y-63550000D01*
X152850000Y-68350000D02*
X152850000Y-63550000D01*
%TO.C,R19*%
X164230000Y-74025000D02*
X164230000Y-70725000D01*
X162770000Y-74025000D02*
X164230000Y-74025000D01*
X162770000Y-70725000D02*
X162770000Y-74025000D01*
X164230000Y-70725000D02*
X162770000Y-70725000D01*
%TO.C,R18*%
X167270000Y-73225000D02*
X167270000Y-76525000D01*
X168730000Y-73225000D02*
X167270000Y-73225000D01*
X168730000Y-76525000D02*
X168730000Y-73225000D01*
X167270000Y-76525000D02*
X168730000Y-76525000D01*
%TO.C,R17*%
X168730000Y-71775000D02*
X168730000Y-68475000D01*
X167270000Y-71775000D02*
X168730000Y-71775000D01*
X167270000Y-68475000D02*
X167270000Y-71775000D01*
X168730000Y-68475000D02*
X167270000Y-68475000D01*
%TO.C,R16*%
X166480000Y-76525000D02*
X166480000Y-73225000D01*
X165020000Y-76525000D02*
X166480000Y-76525000D01*
X165020000Y-73225000D02*
X165020000Y-76525000D01*
X166480000Y-73225000D02*
X165020000Y-73225000D01*
%TO.C,R15*%
X165020000Y-68475000D02*
X165020000Y-71775000D01*
X166480000Y-68475000D02*
X165020000Y-68475000D01*
X166480000Y-71775000D02*
X166480000Y-68475000D01*
X165020000Y-71775000D02*
X166480000Y-71775000D01*
%TO.C,R14*%
X139130000Y-68125000D02*
X139130000Y-64825000D01*
X137670000Y-68125000D02*
X139130000Y-68125000D01*
X137670000Y-64825000D02*
X137670000Y-68125000D01*
X139130000Y-64825000D02*
X137670000Y-64825000D01*
%TO.C,R13*%
X123775000Y-63230000D02*
X127075000Y-63230000D01*
X123775000Y-61770000D02*
X123775000Y-63230000D01*
X127075000Y-61770000D02*
X123775000Y-61770000D01*
X127075000Y-63230000D02*
X127075000Y-61770000D01*
%TO.C,R12*%
X138970000Y-69025000D02*
X138970000Y-72325000D01*
X140430000Y-69025000D02*
X138970000Y-69025000D01*
X140430000Y-72325000D02*
X140430000Y-69025000D01*
X138970000Y-72325000D02*
X140430000Y-72325000D01*
%TO.C,R11*%
X125475000Y-65670000D02*
X122175000Y-65670000D01*
X125475000Y-67130000D02*
X125475000Y-65670000D01*
X122175000Y-67130000D02*
X125475000Y-67130000D01*
X122175000Y-65670000D02*
X122175000Y-67130000D01*
%TO.C,R10*%
X116825000Y-68870000D02*
X113525000Y-68870000D01*
X116825000Y-70330000D02*
X116825000Y-68870000D01*
X113525000Y-70330000D02*
X116825000Y-70330000D01*
X113525000Y-68870000D02*
X113525000Y-70330000D01*
%TO.C,R9*%
X110375000Y-76030000D02*
X113675000Y-76030000D01*
X110375000Y-74570000D02*
X110375000Y-76030000D01*
X113675000Y-74570000D02*
X110375000Y-74570000D01*
X113675000Y-76030000D02*
X113675000Y-74570000D01*
%TO.C,R8*%
X121720000Y-67975000D02*
X121720000Y-71275000D01*
X123180000Y-67975000D02*
X121720000Y-67975000D01*
X123180000Y-71275000D02*
X123180000Y-67975000D01*
X121720000Y-71275000D02*
X123180000Y-71275000D01*
%TO.C,R7*%
X155730000Y-68775000D02*
X155730000Y-65475000D01*
X154270000Y-68775000D02*
X155730000Y-68775000D01*
X154270000Y-65475000D02*
X154270000Y-68775000D01*
X155730000Y-65475000D02*
X154270000Y-65475000D01*
%TO.C,R6*%
X146850000Y-62530000D02*
X150150000Y-62530000D01*
X146850000Y-61070000D02*
X146850000Y-62530000D01*
X150150000Y-61070000D02*
X146850000Y-61070000D01*
X150150000Y-62530000D02*
X150150000Y-61070000D01*
%TO.C,R5*%
X88120000Y-62850000D02*
X88120000Y-66150000D01*
X89580000Y-62850000D02*
X88120000Y-62850000D01*
X89580000Y-66150000D02*
X89580000Y-62850000D01*
X88120000Y-66150000D02*
X89580000Y-66150000D01*
%TO.C,R4*%
X97150000Y-62670000D02*
X93850000Y-62670000D01*
X97150000Y-64130000D02*
X97150000Y-62670000D01*
X93850000Y-64130000D02*
X97150000Y-64130000D01*
X93850000Y-62670000D02*
X93850000Y-64130000D01*
%TO.C,R3*%
X90270000Y-62850000D02*
X90270000Y-66150000D01*
X91730000Y-62850000D02*
X90270000Y-62850000D01*
X91730000Y-66150000D02*
X91730000Y-62850000D01*
X90270000Y-66150000D02*
X91730000Y-66150000D01*
%TO.C,Q3*%
X117100000Y-70800000D02*
X111700000Y-70800000D01*
X111700000Y-70800000D02*
X111700000Y-74300000D01*
X111700000Y-74300000D02*
X117100000Y-74300000D01*
X117100000Y-74300000D02*
X117100000Y-70800000D01*
%TO.C,Q2*%
X144800000Y-74450000D02*
X144800000Y-69050000D01*
X144800000Y-69050000D02*
X141300000Y-69050000D01*
X141300000Y-69050000D02*
X141300000Y-74450000D01*
X141300000Y-74450000D02*
X144800000Y-74450000D01*
%TO.C,Q1*%
X149300000Y-74450000D02*
X149300000Y-69050000D01*
X149300000Y-69050000D02*
X145800000Y-69050000D01*
X145800000Y-69050000D02*
X145800000Y-74450000D01*
X145800000Y-74450000D02*
X149300000Y-74450000D01*
D11*
%TO.C,L1*%
X119580000Y-83915000D02*
X119580000Y-72485000D01*
X119580000Y-72485000D02*
X134820000Y-72485000D01*
X134820000Y-72485000D02*
X134820000Y-83915000D01*
X134820000Y-83915000D02*
X119580000Y-83915000D01*
%TO.C,F1*%
X85065000Y-75705000D02*
X85065000Y-71768000D01*
X85065000Y-71768000D02*
X92685000Y-71768000D01*
X92685000Y-71768000D02*
X92685000Y-75705000D01*
X92685000Y-75705000D02*
X92685000Y-75832000D01*
X92685000Y-75832000D02*
X85065000Y-75832000D01*
X85065000Y-75832000D02*
X85065000Y-75705000D01*
%TO.C,D4*%
X80178000Y-71456000D02*
X76622000Y-71456000D01*
X76622000Y-71456000D02*
X76622000Y-64598000D01*
X76622000Y-64598000D02*
X76622000Y-64344000D01*
X76622000Y-64344000D02*
X80178000Y-64344000D01*
X80178000Y-64344000D02*
X80178000Y-71456000D01*
%TO.C,D3*%
X147688000Y-75244000D02*
X147688000Y-82356000D01*
X147688000Y-82356000D02*
X137020000Y-82356000D01*
X137020000Y-82356000D02*
X136512000Y-82356000D01*
X136512000Y-82356000D02*
X136512000Y-75244000D01*
X136512000Y-75244000D02*
X147688000Y-75244000D01*
%TO.C,D2*%
X109488000Y-75344000D02*
X109488000Y-82456000D01*
X109488000Y-82456000D02*
X98820000Y-82456000D01*
X98820000Y-82456000D02*
X98312000Y-82456000D01*
X98312000Y-82456000D02*
X98312000Y-75344000D01*
X98312000Y-75344000D02*
X109488000Y-75344000D01*
%TO.C,D1*%
X93722000Y-73844000D02*
X97278000Y-73844000D01*
X97278000Y-73844000D02*
X97278000Y-80702000D01*
X97278000Y-80702000D02*
X97278000Y-80956000D01*
X97278000Y-80956000D02*
X93722000Y-80956000D01*
X93722000Y-80956000D02*
X93722000Y-73844000D01*
D10*
%TO.C,C10*%
X122480000Y-65075000D02*
X122480000Y-61775000D01*
X121020000Y-65075000D02*
X122480000Y-65075000D01*
X121020000Y-61775000D02*
X121020000Y-65075000D01*
X122480000Y-61775000D02*
X121020000Y-61775000D01*
%TO.C,C9*%
X137930000Y-72325000D02*
X137930000Y-69025000D01*
X136470000Y-72325000D02*
X137930000Y-72325000D01*
X136470000Y-69025000D02*
X136470000Y-72325000D01*
X137930000Y-69025000D02*
X136470000Y-69025000D01*
%TO.C,C8*%
X123775000Y-65030000D02*
X127075000Y-65030000D01*
X123775000Y-63570000D02*
X123775000Y-65030000D01*
X127075000Y-63570000D02*
X123775000Y-63570000D01*
X127075000Y-65030000D02*
X127075000Y-63570000D01*
%TO.C,C7*%
X152980000Y-83187500D02*
X152980000Y-78287500D01*
X149820000Y-83187500D02*
X152980000Y-83187500D01*
X149820000Y-78287500D02*
X149820000Y-83187500D01*
X152980000Y-78287500D02*
X149820000Y-78287500D01*
%TO.C,C6*%
X124320000Y-68000000D02*
X124320000Y-71300000D01*
X125780000Y-68000000D02*
X124320000Y-68000000D01*
X125780000Y-71300000D02*
X125780000Y-68000000D01*
X124320000Y-71300000D02*
X125780000Y-71300000D01*
%TO.C,C5*%
X117950000Y-82325000D02*
X117950000Y-78625000D01*
X116050000Y-82325000D02*
X117950000Y-82325000D01*
X116050000Y-78625000D02*
X116050000Y-82325000D01*
X117950000Y-78625000D02*
X116050000Y-78625000D01*
%TO.C,C4*%
X113980000Y-82650000D02*
X113980000Y-77750000D01*
X110820000Y-82650000D02*
X113980000Y-82650000D01*
X110820000Y-77750000D02*
X110820000Y-82650000D01*
X113980000Y-77750000D02*
X110820000Y-77750000D01*
%TO.C,C3*%
X153925000Y-61070000D02*
X150625000Y-61070000D01*
X153925000Y-62530000D02*
X153925000Y-61070000D01*
X150625000Y-62530000D02*
X153925000Y-62530000D01*
X150625000Y-61070000D02*
X150625000Y-62530000D01*
%TO.C,C2*%
X98470000Y-70050000D02*
X98470000Y-73350000D01*
X99930000Y-70050000D02*
X98470000Y-70050000D01*
X99930000Y-73350000D02*
X99930000Y-70050000D01*
X98470000Y-73350000D02*
X99930000Y-73350000D01*
%TO.C,C1*%
X88120000Y-67075000D02*
X88120000Y-70375000D01*
X89580000Y-67075000D02*
X88120000Y-67075000D01*
X89580000Y-70375000D02*
X89580000Y-67075000D01*
X88120000Y-70375000D02*
X89580000Y-70375000D01*
%TD*%
M02*
