%TF.GenerationSoftware,KiCad,Pcbnew,(5.1.6)-1*%
%TF.CreationDate,2020-08-13T11:00:50+03:00*%
%TF.ProjectId,Rechargeable 5V power bank REV 0.53,52656368-6172-4676-9561-626c65203556,rev?*%
%TF.SameCoordinates,Original*%
%TF.FileFunction,Soldermask,Bot*%
%TF.FilePolarity,Negative*%
%FSLAX46Y46*%
G04 Gerber Fmt 4.6, Leading zero omitted, Abs format (unit mm)*
G04 Created by KiCad (PCBNEW (5.1.6)-1) date 2020-08-13 11:00:50*
%MOMM*%
%LPD*%
G01*
G04 APERTURE LIST*
%ADD10C,2.200000*%
%ADD11R,2.200000X2.200000*%
%ADD12C,3.500000*%
%ADD13C,2.400000*%
%ADD14R,1.730000X1.980000*%
%ADD15C,3.000000*%
%ADD16R,2.620000X3.500000*%
%ADD17R,1.800000X0.850000*%
%ADD18R,0.650000X1.560000*%
%ADD19R,1.250000X1.250000*%
%ADD20R,1.900000X0.900000*%
%ADD21R,0.900000X1.900000*%
%ADD22R,4.000000X3.500000*%
%ADD23R,3.000000X3.000000*%
%ADD24C,3.200000*%
%ADD25C,1.500000*%
%ADD26R,1.500000X1.500000*%
%ADD27O,2.000000X1.300000*%
%ADD28O,1.400000X1.200000*%
%ADD29R,2.000000X3.600000*%
%ADD30R,1.700000X2.300000*%
%ADD31R,2.540000X3.300000*%
G04 APERTURE END LIST*
%TO.C,C13*%
G36*
G01*
X100949999Y-70300000D02*
X101850001Y-70300000D01*
G75*
G02*
X102100000Y-70549999I0J-249999D01*
G01*
X102100000Y-71200001D01*
G75*
G02*
X101850001Y-71450000I-249999J0D01*
G01*
X100949999Y-71450000D01*
G75*
G02*
X100700000Y-71200001I0J249999D01*
G01*
X100700000Y-70549999D01*
G75*
G02*
X100949999Y-70300000I249999J0D01*
G01*
G37*
G36*
G01*
X100949999Y-72350000D02*
X101850001Y-72350000D01*
G75*
G02*
X102100000Y-72599999I0J-249999D01*
G01*
X102100000Y-73250001D01*
G75*
G02*
X101850001Y-73500000I-249999J0D01*
G01*
X100949999Y-73500000D01*
G75*
G02*
X100700000Y-73250001I0J249999D01*
G01*
X100700000Y-72599999D01*
G75*
G02*
X100949999Y-72350000I249999J0D01*
G01*
G37*
%TD*%
%TO.C,C11*%
G36*
G01*
X86750001Y-70200000D02*
X85849999Y-70200000D01*
G75*
G02*
X85600000Y-69950001I0J249999D01*
G01*
X85600000Y-69299999D01*
G75*
G02*
X85849999Y-69050000I249999J0D01*
G01*
X86750001Y-69050000D01*
G75*
G02*
X87000000Y-69299999I0J-249999D01*
G01*
X87000000Y-69950001D01*
G75*
G02*
X86750001Y-70200000I-249999J0D01*
G01*
G37*
G36*
G01*
X86750001Y-68150000D02*
X85849999Y-68150000D01*
G75*
G02*
X85600000Y-67900001I0J249999D01*
G01*
X85600000Y-67249999D01*
G75*
G02*
X85849999Y-67000000I249999J0D01*
G01*
X86750001Y-67000000D01*
G75*
G02*
X87000000Y-67249999I0J-249999D01*
G01*
X87000000Y-67900001D01*
G75*
G02*
X86750001Y-68150000I-249999J0D01*
G01*
G37*
%TD*%
D10*
%TO.C,BAT1*%
X154110000Y-72500000D03*
D11*
X81890000Y-72500000D03*
D12*
X90400000Y-80370000D03*
X145600000Y-64630000D03*
D13*
X81890000Y-64630000D03*
%TD*%
%TO.C,U1*%
G36*
G01*
X91900000Y-69725000D02*
X91900000Y-69575000D01*
G75*
G02*
X91975000Y-69500000I75000J0D01*
G01*
X93300000Y-69500000D01*
G75*
G02*
X93375000Y-69575000I0J-75000D01*
G01*
X93375000Y-69725000D01*
G75*
G02*
X93300000Y-69800000I-75000J0D01*
G01*
X91975000Y-69800000D01*
G75*
G02*
X91900000Y-69725000I0J75000D01*
G01*
G37*
G36*
G01*
X91900000Y-69225000D02*
X91900000Y-69075000D01*
G75*
G02*
X91975000Y-69000000I75000J0D01*
G01*
X93300000Y-69000000D01*
G75*
G02*
X93375000Y-69075000I0J-75000D01*
G01*
X93375000Y-69225000D01*
G75*
G02*
X93300000Y-69300000I-75000J0D01*
G01*
X91975000Y-69300000D01*
G75*
G02*
X91900000Y-69225000I0J75000D01*
G01*
G37*
G36*
G01*
X91900000Y-68725000D02*
X91900000Y-68575000D01*
G75*
G02*
X91975000Y-68500000I75000J0D01*
G01*
X93300000Y-68500000D01*
G75*
G02*
X93375000Y-68575000I0J-75000D01*
G01*
X93375000Y-68725000D01*
G75*
G02*
X93300000Y-68800000I-75000J0D01*
G01*
X91975000Y-68800000D01*
G75*
G02*
X91900000Y-68725000I0J75000D01*
G01*
G37*
G36*
G01*
X91900000Y-68225000D02*
X91900000Y-68075000D01*
G75*
G02*
X91975000Y-68000000I75000J0D01*
G01*
X93300000Y-68000000D01*
G75*
G02*
X93375000Y-68075000I0J-75000D01*
G01*
X93375000Y-68225000D01*
G75*
G02*
X93300000Y-68300000I-75000J0D01*
G01*
X91975000Y-68300000D01*
G75*
G02*
X91900000Y-68225000I0J75000D01*
G01*
G37*
G36*
G01*
X91900000Y-67725000D02*
X91900000Y-67575000D01*
G75*
G02*
X91975000Y-67500000I75000J0D01*
G01*
X93300000Y-67500000D01*
G75*
G02*
X93375000Y-67575000I0J-75000D01*
G01*
X93375000Y-67725000D01*
G75*
G02*
X93300000Y-67800000I-75000J0D01*
G01*
X91975000Y-67800000D01*
G75*
G02*
X91900000Y-67725000I0J75000D01*
G01*
G37*
G36*
G01*
X96625000Y-67725000D02*
X96625000Y-67575000D01*
G75*
G02*
X96700000Y-67500000I75000J0D01*
G01*
X98025000Y-67500000D01*
G75*
G02*
X98100000Y-67575000I0J-75000D01*
G01*
X98100000Y-67725000D01*
G75*
G02*
X98025000Y-67800000I-75000J0D01*
G01*
X96700000Y-67800000D01*
G75*
G02*
X96625000Y-67725000I0J75000D01*
G01*
G37*
G36*
G01*
X96625000Y-68225000D02*
X96625000Y-68075000D01*
G75*
G02*
X96700000Y-68000000I75000J0D01*
G01*
X98025000Y-68000000D01*
G75*
G02*
X98100000Y-68075000I0J-75000D01*
G01*
X98100000Y-68225000D01*
G75*
G02*
X98025000Y-68300000I-75000J0D01*
G01*
X96700000Y-68300000D01*
G75*
G02*
X96625000Y-68225000I0J75000D01*
G01*
G37*
G36*
G01*
X96625000Y-68725000D02*
X96625000Y-68575000D01*
G75*
G02*
X96700000Y-68500000I75000J0D01*
G01*
X98025000Y-68500000D01*
G75*
G02*
X98100000Y-68575000I0J-75000D01*
G01*
X98100000Y-68725000D01*
G75*
G02*
X98025000Y-68800000I-75000J0D01*
G01*
X96700000Y-68800000D01*
G75*
G02*
X96625000Y-68725000I0J75000D01*
G01*
G37*
G36*
G01*
X96625000Y-69225000D02*
X96625000Y-69075000D01*
G75*
G02*
X96700000Y-69000000I75000J0D01*
G01*
X98025000Y-69000000D01*
G75*
G02*
X98100000Y-69075000I0J-75000D01*
G01*
X98100000Y-69225000D01*
G75*
G02*
X98025000Y-69300000I-75000J0D01*
G01*
X96700000Y-69300000D01*
G75*
G02*
X96625000Y-69225000I0J75000D01*
G01*
G37*
G36*
G01*
X96625000Y-69725000D02*
X96625000Y-69575000D01*
G75*
G02*
X96700000Y-69500000I75000J0D01*
G01*
X98025000Y-69500000D01*
G75*
G02*
X98100000Y-69575000I0J-75000D01*
G01*
X98100000Y-69725000D01*
G75*
G02*
X98025000Y-69800000I-75000J0D01*
G01*
X96700000Y-69800000D01*
G75*
G02*
X96625000Y-69725000I0J75000D01*
G01*
G37*
D14*
X95000000Y-68650000D03*
%TD*%
%TO.C,C12*%
G36*
G01*
X154725000Y-81512500D02*
X156875000Y-81512500D01*
G75*
G02*
X157125000Y-81762500I0J-250000D01*
G01*
X157125000Y-82687500D01*
G75*
G02*
X156875000Y-82937500I-250000J0D01*
G01*
X154725000Y-82937500D01*
G75*
G02*
X154475000Y-82687500I0J250000D01*
G01*
X154475000Y-81762500D01*
G75*
G02*
X154725000Y-81512500I250000J0D01*
G01*
G37*
G36*
G01*
X154725000Y-78537500D02*
X156875000Y-78537500D01*
G75*
G02*
X157125000Y-78787500I0J-250000D01*
G01*
X157125000Y-79712500D01*
G75*
G02*
X156875000Y-79962500I-250000J0D01*
G01*
X154725000Y-79962500D01*
G75*
G02*
X154475000Y-79712500I0J250000D01*
G01*
X154475000Y-78787500D01*
G75*
G02*
X154725000Y-78537500I250000J0D01*
G01*
G37*
%TD*%
D15*
%TO.C,MH4*%
X167000000Y-82000000D03*
%TD*%
%TO.C,MH3*%
X167000000Y-63000000D03*
%TD*%
%TO.C,MH2*%
X73000000Y-82000000D03*
%TD*%
%TO.C,MH1*%
X73000000Y-63000000D03*
%TD*%
D16*
%TO.C,U3*%
X131500000Y-68000000D03*
D17*
X134250000Y-69905000D03*
X134250000Y-68635000D03*
X134250000Y-67365000D03*
X134250000Y-66095000D03*
X128750000Y-66095000D03*
X128750000Y-67365000D03*
X128750000Y-68635000D03*
X128750000Y-69905000D03*
%TD*%
D18*
%TO.C,U2*%
X152000000Y-67400000D03*
X151050000Y-67400000D03*
X150100000Y-67400000D03*
X150100000Y-64500000D03*
X152000000Y-64500000D03*
X151050000Y-64500000D03*
%TD*%
D19*
%TO.C,TP11*%
X152000000Y-74400000D03*
%TD*%
%TO.C,TP10*%
X84000000Y-74000000D03*
%TD*%
%TO.C,TP9*%
X153800000Y-66200000D03*
%TD*%
%TO.C,TP8*%
X150000000Y-69600000D03*
%TD*%
%TO.C,TP7*%
X152000000Y-69600000D03*
%TD*%
%TO.C,TP6*%
X150400000Y-61800000D03*
%TD*%
%TO.C,TP5*%
X135400000Y-74800000D03*
%TD*%
%TO.C,TP4*%
X136600000Y-67200000D03*
%TD*%
%TO.C,TP3*%
X116200000Y-76600000D03*
%TD*%
%TO.C,TP2*%
X126400000Y-66800000D03*
%TD*%
%TO.C,TP1*%
X123800000Y-68800000D03*
%TD*%
%TO.C,R19*%
G36*
G01*
X163262500Y-72725000D02*
X163737500Y-72725000D01*
G75*
G02*
X163975000Y-72962500I0J-237500D01*
G01*
X163975000Y-73537500D01*
G75*
G02*
X163737500Y-73775000I-237500J0D01*
G01*
X163262500Y-73775000D01*
G75*
G02*
X163025000Y-73537500I0J237500D01*
G01*
X163025000Y-72962500D01*
G75*
G02*
X163262500Y-72725000I237500J0D01*
G01*
G37*
G36*
G01*
X163262500Y-70975000D02*
X163737500Y-70975000D01*
G75*
G02*
X163975000Y-71212500I0J-237500D01*
G01*
X163975000Y-71787500D01*
G75*
G02*
X163737500Y-72025000I-237500J0D01*
G01*
X163262500Y-72025000D01*
G75*
G02*
X163025000Y-71787500I0J237500D01*
G01*
X163025000Y-71212500D01*
G75*
G02*
X163262500Y-70975000I237500J0D01*
G01*
G37*
%TD*%
%TO.C,R18*%
G36*
G01*
X168237500Y-74525000D02*
X167762500Y-74525000D01*
G75*
G02*
X167525000Y-74287500I0J237500D01*
G01*
X167525000Y-73712500D01*
G75*
G02*
X167762500Y-73475000I237500J0D01*
G01*
X168237500Y-73475000D01*
G75*
G02*
X168475000Y-73712500I0J-237500D01*
G01*
X168475000Y-74287500D01*
G75*
G02*
X168237500Y-74525000I-237500J0D01*
G01*
G37*
G36*
G01*
X168237500Y-76275000D02*
X167762500Y-76275000D01*
G75*
G02*
X167525000Y-76037500I0J237500D01*
G01*
X167525000Y-75462500D01*
G75*
G02*
X167762500Y-75225000I237500J0D01*
G01*
X168237500Y-75225000D01*
G75*
G02*
X168475000Y-75462500I0J-237500D01*
G01*
X168475000Y-76037500D01*
G75*
G02*
X168237500Y-76275000I-237500J0D01*
G01*
G37*
%TD*%
%TO.C,R17*%
G36*
G01*
X167762500Y-70475000D02*
X168237500Y-70475000D01*
G75*
G02*
X168475000Y-70712500I0J-237500D01*
G01*
X168475000Y-71287500D01*
G75*
G02*
X168237500Y-71525000I-237500J0D01*
G01*
X167762500Y-71525000D01*
G75*
G02*
X167525000Y-71287500I0J237500D01*
G01*
X167525000Y-70712500D01*
G75*
G02*
X167762500Y-70475000I237500J0D01*
G01*
G37*
G36*
G01*
X167762500Y-68725000D02*
X168237500Y-68725000D01*
G75*
G02*
X168475000Y-68962500I0J-237500D01*
G01*
X168475000Y-69537500D01*
G75*
G02*
X168237500Y-69775000I-237500J0D01*
G01*
X167762500Y-69775000D01*
G75*
G02*
X167525000Y-69537500I0J237500D01*
G01*
X167525000Y-68962500D01*
G75*
G02*
X167762500Y-68725000I237500J0D01*
G01*
G37*
%TD*%
%TO.C,R16*%
G36*
G01*
X165512500Y-75225000D02*
X165987500Y-75225000D01*
G75*
G02*
X166225000Y-75462500I0J-237500D01*
G01*
X166225000Y-76037500D01*
G75*
G02*
X165987500Y-76275000I-237500J0D01*
G01*
X165512500Y-76275000D01*
G75*
G02*
X165275000Y-76037500I0J237500D01*
G01*
X165275000Y-75462500D01*
G75*
G02*
X165512500Y-75225000I237500J0D01*
G01*
G37*
G36*
G01*
X165512500Y-73475000D02*
X165987500Y-73475000D01*
G75*
G02*
X166225000Y-73712500I0J-237500D01*
G01*
X166225000Y-74287500D01*
G75*
G02*
X165987500Y-74525000I-237500J0D01*
G01*
X165512500Y-74525000D01*
G75*
G02*
X165275000Y-74287500I0J237500D01*
G01*
X165275000Y-73712500D01*
G75*
G02*
X165512500Y-73475000I237500J0D01*
G01*
G37*
%TD*%
%TO.C,R15*%
G36*
G01*
X165987500Y-69775000D02*
X165512500Y-69775000D01*
G75*
G02*
X165275000Y-69537500I0J237500D01*
G01*
X165275000Y-68962500D01*
G75*
G02*
X165512500Y-68725000I237500J0D01*
G01*
X165987500Y-68725000D01*
G75*
G02*
X166225000Y-68962500I0J-237500D01*
G01*
X166225000Y-69537500D01*
G75*
G02*
X165987500Y-69775000I-237500J0D01*
G01*
G37*
G36*
G01*
X165987500Y-71525000D02*
X165512500Y-71525000D01*
G75*
G02*
X165275000Y-71287500I0J237500D01*
G01*
X165275000Y-70712500D01*
G75*
G02*
X165512500Y-70475000I237500J0D01*
G01*
X165987500Y-70475000D01*
G75*
G02*
X166225000Y-70712500I0J-237500D01*
G01*
X166225000Y-71287500D01*
G75*
G02*
X165987500Y-71525000I-237500J0D01*
G01*
G37*
%TD*%
%TO.C,R14*%
G36*
G01*
X138162500Y-66825000D02*
X138637500Y-66825000D01*
G75*
G02*
X138875000Y-67062500I0J-237500D01*
G01*
X138875000Y-67637500D01*
G75*
G02*
X138637500Y-67875000I-237500J0D01*
G01*
X138162500Y-67875000D01*
G75*
G02*
X137925000Y-67637500I0J237500D01*
G01*
X137925000Y-67062500D01*
G75*
G02*
X138162500Y-66825000I237500J0D01*
G01*
G37*
G36*
G01*
X138162500Y-65075000D02*
X138637500Y-65075000D01*
G75*
G02*
X138875000Y-65312500I0J-237500D01*
G01*
X138875000Y-65887500D01*
G75*
G02*
X138637500Y-66125000I-237500J0D01*
G01*
X138162500Y-66125000D01*
G75*
G02*
X137925000Y-65887500I0J237500D01*
G01*
X137925000Y-65312500D01*
G75*
G02*
X138162500Y-65075000I237500J0D01*
G01*
G37*
%TD*%
%TO.C,R13*%
G36*
G01*
X125075000Y-62262500D02*
X125075000Y-62737500D01*
G75*
G02*
X124837500Y-62975000I-237500J0D01*
G01*
X124262500Y-62975000D01*
G75*
G02*
X124025000Y-62737500I0J237500D01*
G01*
X124025000Y-62262500D01*
G75*
G02*
X124262500Y-62025000I237500J0D01*
G01*
X124837500Y-62025000D01*
G75*
G02*
X125075000Y-62262500I0J-237500D01*
G01*
G37*
G36*
G01*
X126825000Y-62262500D02*
X126825000Y-62737500D01*
G75*
G02*
X126587500Y-62975000I-237500J0D01*
G01*
X126012500Y-62975000D01*
G75*
G02*
X125775000Y-62737500I0J237500D01*
G01*
X125775000Y-62262500D01*
G75*
G02*
X126012500Y-62025000I237500J0D01*
G01*
X126587500Y-62025000D01*
G75*
G02*
X126825000Y-62262500I0J-237500D01*
G01*
G37*
%TD*%
%TO.C,R12*%
G36*
G01*
X139937500Y-70325000D02*
X139462500Y-70325000D01*
G75*
G02*
X139225000Y-70087500I0J237500D01*
G01*
X139225000Y-69512500D01*
G75*
G02*
X139462500Y-69275000I237500J0D01*
G01*
X139937500Y-69275000D01*
G75*
G02*
X140175000Y-69512500I0J-237500D01*
G01*
X140175000Y-70087500D01*
G75*
G02*
X139937500Y-70325000I-237500J0D01*
G01*
G37*
G36*
G01*
X139937500Y-72075000D02*
X139462500Y-72075000D01*
G75*
G02*
X139225000Y-71837500I0J237500D01*
G01*
X139225000Y-71262500D01*
G75*
G02*
X139462500Y-71025000I237500J0D01*
G01*
X139937500Y-71025000D01*
G75*
G02*
X140175000Y-71262500I0J-237500D01*
G01*
X140175000Y-71837500D01*
G75*
G02*
X139937500Y-72075000I-237500J0D01*
G01*
G37*
%TD*%
%TO.C,R11*%
G36*
G01*
X124175000Y-66637500D02*
X124175000Y-66162500D01*
G75*
G02*
X124412500Y-65925000I237500J0D01*
G01*
X124987500Y-65925000D01*
G75*
G02*
X125225000Y-66162500I0J-237500D01*
G01*
X125225000Y-66637500D01*
G75*
G02*
X124987500Y-66875000I-237500J0D01*
G01*
X124412500Y-66875000D01*
G75*
G02*
X124175000Y-66637500I0J237500D01*
G01*
G37*
G36*
G01*
X122425000Y-66637500D02*
X122425000Y-66162500D01*
G75*
G02*
X122662500Y-65925000I237500J0D01*
G01*
X123237500Y-65925000D01*
G75*
G02*
X123475000Y-66162500I0J-237500D01*
G01*
X123475000Y-66637500D01*
G75*
G02*
X123237500Y-66875000I-237500J0D01*
G01*
X122662500Y-66875000D01*
G75*
G02*
X122425000Y-66637500I0J237500D01*
G01*
G37*
%TD*%
%TO.C,R10*%
G36*
G01*
X115525000Y-69837500D02*
X115525000Y-69362500D01*
G75*
G02*
X115762500Y-69125000I237500J0D01*
G01*
X116337500Y-69125000D01*
G75*
G02*
X116575000Y-69362500I0J-237500D01*
G01*
X116575000Y-69837500D01*
G75*
G02*
X116337500Y-70075000I-237500J0D01*
G01*
X115762500Y-70075000D01*
G75*
G02*
X115525000Y-69837500I0J237500D01*
G01*
G37*
G36*
G01*
X113775000Y-69837500D02*
X113775000Y-69362500D01*
G75*
G02*
X114012500Y-69125000I237500J0D01*
G01*
X114587500Y-69125000D01*
G75*
G02*
X114825000Y-69362500I0J-237500D01*
G01*
X114825000Y-69837500D01*
G75*
G02*
X114587500Y-70075000I-237500J0D01*
G01*
X114012500Y-70075000D01*
G75*
G02*
X113775000Y-69837500I0J237500D01*
G01*
G37*
%TD*%
%TO.C,R9*%
G36*
G01*
X111675000Y-75062500D02*
X111675000Y-75537500D01*
G75*
G02*
X111437500Y-75775000I-237500J0D01*
G01*
X110862500Y-75775000D01*
G75*
G02*
X110625000Y-75537500I0J237500D01*
G01*
X110625000Y-75062500D01*
G75*
G02*
X110862500Y-74825000I237500J0D01*
G01*
X111437500Y-74825000D01*
G75*
G02*
X111675000Y-75062500I0J-237500D01*
G01*
G37*
G36*
G01*
X113425000Y-75062500D02*
X113425000Y-75537500D01*
G75*
G02*
X113187500Y-75775000I-237500J0D01*
G01*
X112612500Y-75775000D01*
G75*
G02*
X112375000Y-75537500I0J237500D01*
G01*
X112375000Y-75062500D01*
G75*
G02*
X112612500Y-74825000I237500J0D01*
G01*
X113187500Y-74825000D01*
G75*
G02*
X113425000Y-75062500I0J-237500D01*
G01*
G37*
%TD*%
%TO.C,R8*%
G36*
G01*
X122687500Y-69275000D02*
X122212500Y-69275000D01*
G75*
G02*
X121975000Y-69037500I0J237500D01*
G01*
X121975000Y-68462500D01*
G75*
G02*
X122212500Y-68225000I237500J0D01*
G01*
X122687500Y-68225000D01*
G75*
G02*
X122925000Y-68462500I0J-237500D01*
G01*
X122925000Y-69037500D01*
G75*
G02*
X122687500Y-69275000I-237500J0D01*
G01*
G37*
G36*
G01*
X122687500Y-71025000D02*
X122212500Y-71025000D01*
G75*
G02*
X121975000Y-70787500I0J237500D01*
G01*
X121975000Y-70212500D01*
G75*
G02*
X122212500Y-69975000I237500J0D01*
G01*
X122687500Y-69975000D01*
G75*
G02*
X122925000Y-70212500I0J-237500D01*
G01*
X122925000Y-70787500D01*
G75*
G02*
X122687500Y-71025000I-237500J0D01*
G01*
G37*
%TD*%
%TO.C,R7*%
G36*
G01*
X154762500Y-67475000D02*
X155237500Y-67475000D01*
G75*
G02*
X155475000Y-67712500I0J-237500D01*
G01*
X155475000Y-68287500D01*
G75*
G02*
X155237500Y-68525000I-237500J0D01*
G01*
X154762500Y-68525000D01*
G75*
G02*
X154525000Y-68287500I0J237500D01*
G01*
X154525000Y-67712500D01*
G75*
G02*
X154762500Y-67475000I237500J0D01*
G01*
G37*
G36*
G01*
X154762500Y-65725000D02*
X155237500Y-65725000D01*
G75*
G02*
X155475000Y-65962500I0J-237500D01*
G01*
X155475000Y-66537500D01*
G75*
G02*
X155237500Y-66775000I-237500J0D01*
G01*
X154762500Y-66775000D01*
G75*
G02*
X154525000Y-66537500I0J237500D01*
G01*
X154525000Y-65962500D01*
G75*
G02*
X154762500Y-65725000I237500J0D01*
G01*
G37*
%TD*%
%TO.C,R6*%
G36*
G01*
X148150000Y-61562500D02*
X148150000Y-62037500D01*
G75*
G02*
X147912500Y-62275000I-237500J0D01*
G01*
X147337500Y-62275000D01*
G75*
G02*
X147100000Y-62037500I0J237500D01*
G01*
X147100000Y-61562500D01*
G75*
G02*
X147337500Y-61325000I237500J0D01*
G01*
X147912500Y-61325000D01*
G75*
G02*
X148150000Y-61562500I0J-237500D01*
G01*
G37*
G36*
G01*
X149900000Y-61562500D02*
X149900000Y-62037500D01*
G75*
G02*
X149662500Y-62275000I-237500J0D01*
G01*
X149087500Y-62275000D01*
G75*
G02*
X148850000Y-62037500I0J237500D01*
G01*
X148850000Y-61562500D01*
G75*
G02*
X149087500Y-61325000I237500J0D01*
G01*
X149662500Y-61325000D01*
G75*
G02*
X149900000Y-61562500I0J-237500D01*
G01*
G37*
%TD*%
%TO.C,R5*%
G36*
G01*
X89087500Y-64150000D02*
X88612500Y-64150000D01*
G75*
G02*
X88375000Y-63912500I0J237500D01*
G01*
X88375000Y-63337500D01*
G75*
G02*
X88612500Y-63100000I237500J0D01*
G01*
X89087500Y-63100000D01*
G75*
G02*
X89325000Y-63337500I0J-237500D01*
G01*
X89325000Y-63912500D01*
G75*
G02*
X89087500Y-64150000I-237500J0D01*
G01*
G37*
G36*
G01*
X89087500Y-65900000D02*
X88612500Y-65900000D01*
G75*
G02*
X88375000Y-65662500I0J237500D01*
G01*
X88375000Y-65087500D01*
G75*
G02*
X88612500Y-64850000I237500J0D01*
G01*
X89087500Y-64850000D01*
G75*
G02*
X89325000Y-65087500I0J-237500D01*
G01*
X89325000Y-65662500D01*
G75*
G02*
X89087500Y-65900000I-237500J0D01*
G01*
G37*
%TD*%
%TO.C,R4*%
G36*
G01*
X95850000Y-63637500D02*
X95850000Y-63162500D01*
G75*
G02*
X96087500Y-62925000I237500J0D01*
G01*
X96662500Y-62925000D01*
G75*
G02*
X96900000Y-63162500I0J-237500D01*
G01*
X96900000Y-63637500D01*
G75*
G02*
X96662500Y-63875000I-237500J0D01*
G01*
X96087500Y-63875000D01*
G75*
G02*
X95850000Y-63637500I0J237500D01*
G01*
G37*
G36*
G01*
X94100000Y-63637500D02*
X94100000Y-63162500D01*
G75*
G02*
X94337500Y-62925000I237500J0D01*
G01*
X94912500Y-62925000D01*
G75*
G02*
X95150000Y-63162500I0J-237500D01*
G01*
X95150000Y-63637500D01*
G75*
G02*
X94912500Y-63875000I-237500J0D01*
G01*
X94337500Y-63875000D01*
G75*
G02*
X94100000Y-63637500I0J237500D01*
G01*
G37*
%TD*%
%TO.C,R3*%
G36*
G01*
X91237500Y-64150000D02*
X90762500Y-64150000D01*
G75*
G02*
X90525000Y-63912500I0J237500D01*
G01*
X90525000Y-63337500D01*
G75*
G02*
X90762500Y-63100000I237500J0D01*
G01*
X91237500Y-63100000D01*
G75*
G02*
X91475000Y-63337500I0J-237500D01*
G01*
X91475000Y-63912500D01*
G75*
G02*
X91237500Y-64150000I-237500J0D01*
G01*
G37*
G36*
G01*
X91237500Y-65900000D02*
X90762500Y-65900000D01*
G75*
G02*
X90525000Y-65662500I0J237500D01*
G01*
X90525000Y-65087500D01*
G75*
G02*
X90762500Y-64850000I237500J0D01*
G01*
X91237500Y-64850000D01*
G75*
G02*
X91475000Y-65087500I0J-237500D01*
G01*
X91475000Y-65662500D01*
G75*
G02*
X91237500Y-65900000I-237500J0D01*
G01*
G37*
%TD*%
D20*
%TO.C,Q3*%
X115900000Y-71600000D03*
X115900000Y-73500000D03*
X112900000Y-72550000D03*
%TD*%
D21*
%TO.C,Q2*%
X144000000Y-73250000D03*
X142100000Y-73250000D03*
X143050000Y-70250000D03*
%TD*%
%TO.C,Q1*%
X148500000Y-73250000D03*
X146600000Y-73250000D03*
X147550000Y-70250000D03*
%TD*%
D22*
%TO.C,L1*%
X132200000Y-78200000D03*
X122200000Y-78200000D03*
%TD*%
D23*
%TO.C,J6*%
X159000000Y-65800000D03*
%TD*%
%TO.C,J5*%
X81900000Y-82300000D03*
%TD*%
%TO.C,J4*%
X157200000Y-76400000D03*
%TD*%
%TO.C,J3*%
X81900000Y-78100000D03*
%TD*%
D24*
%TO.C,J2*%
X162710000Y-65930000D03*
X162710000Y-79070000D03*
D25*
X160000000Y-69000000D03*
X160000000Y-71500000D03*
X160000000Y-73500000D03*
D26*
X160000000Y-76000000D03*
%TD*%
D27*
%TO.C,J1*%
X71500000Y-68300000D03*
X71500000Y-76700000D03*
D28*
X74500000Y-74850000D03*
X74500000Y-70150000D03*
%TD*%
D29*
%TO.C,F1*%
X86250000Y-73800000D03*
X91500000Y-73800000D03*
%TD*%
D30*
%TO.C,D4*%
X78400000Y-65800000D03*
X78400000Y-70000000D03*
%TD*%
D31*
%TO.C,D3*%
X138400000Y-78800000D03*
X145800000Y-78800000D03*
%TD*%
%TO.C,D2*%
X100200000Y-78900000D03*
X107600000Y-78900000D03*
%TD*%
D30*
%TO.C,D1*%
X95500000Y-79500000D03*
X95500000Y-75300000D03*
%TD*%
%TO.C,C10*%
G36*
G01*
X121512500Y-63775000D02*
X121987500Y-63775000D01*
G75*
G02*
X122225000Y-64012500I0J-237500D01*
G01*
X122225000Y-64587500D01*
G75*
G02*
X121987500Y-64825000I-237500J0D01*
G01*
X121512500Y-64825000D01*
G75*
G02*
X121275000Y-64587500I0J237500D01*
G01*
X121275000Y-64012500D01*
G75*
G02*
X121512500Y-63775000I237500J0D01*
G01*
G37*
G36*
G01*
X121512500Y-62025000D02*
X121987500Y-62025000D01*
G75*
G02*
X122225000Y-62262500I0J-237500D01*
G01*
X122225000Y-62837500D01*
G75*
G02*
X121987500Y-63075000I-237500J0D01*
G01*
X121512500Y-63075000D01*
G75*
G02*
X121275000Y-62837500I0J237500D01*
G01*
X121275000Y-62262500D01*
G75*
G02*
X121512500Y-62025000I237500J0D01*
G01*
G37*
%TD*%
%TO.C,C9*%
G36*
G01*
X136962500Y-71025000D02*
X137437500Y-71025000D01*
G75*
G02*
X137675000Y-71262500I0J-237500D01*
G01*
X137675000Y-71837500D01*
G75*
G02*
X137437500Y-72075000I-237500J0D01*
G01*
X136962500Y-72075000D01*
G75*
G02*
X136725000Y-71837500I0J237500D01*
G01*
X136725000Y-71262500D01*
G75*
G02*
X136962500Y-71025000I237500J0D01*
G01*
G37*
G36*
G01*
X136962500Y-69275000D02*
X137437500Y-69275000D01*
G75*
G02*
X137675000Y-69512500I0J-237500D01*
G01*
X137675000Y-70087500D01*
G75*
G02*
X137437500Y-70325000I-237500J0D01*
G01*
X136962500Y-70325000D01*
G75*
G02*
X136725000Y-70087500I0J237500D01*
G01*
X136725000Y-69512500D01*
G75*
G02*
X136962500Y-69275000I237500J0D01*
G01*
G37*
%TD*%
%TO.C,C8*%
G36*
G01*
X125075000Y-64062500D02*
X125075000Y-64537500D01*
G75*
G02*
X124837500Y-64775000I-237500J0D01*
G01*
X124262500Y-64775000D01*
G75*
G02*
X124025000Y-64537500I0J237500D01*
G01*
X124025000Y-64062500D01*
G75*
G02*
X124262500Y-63825000I237500J0D01*
G01*
X124837500Y-63825000D01*
G75*
G02*
X125075000Y-64062500I0J-237500D01*
G01*
G37*
G36*
G01*
X126825000Y-64062500D02*
X126825000Y-64537500D01*
G75*
G02*
X126587500Y-64775000I-237500J0D01*
G01*
X126012500Y-64775000D01*
G75*
G02*
X125775000Y-64537500I0J237500D01*
G01*
X125775000Y-64062500D01*
G75*
G02*
X126012500Y-63825000I237500J0D01*
G01*
X126587500Y-63825000D01*
G75*
G02*
X126825000Y-64062500I0J-237500D01*
G01*
G37*
%TD*%
%TO.C,C7*%
G36*
G01*
X150325000Y-81512500D02*
X152475000Y-81512500D01*
G75*
G02*
X152725000Y-81762500I0J-250000D01*
G01*
X152725000Y-82687500D01*
G75*
G02*
X152475000Y-82937500I-250000J0D01*
G01*
X150325000Y-82937500D01*
G75*
G02*
X150075000Y-82687500I0J250000D01*
G01*
X150075000Y-81762500D01*
G75*
G02*
X150325000Y-81512500I250000J0D01*
G01*
G37*
G36*
G01*
X150325000Y-78537500D02*
X152475000Y-78537500D01*
G75*
G02*
X152725000Y-78787500I0J-250000D01*
G01*
X152725000Y-79712500D01*
G75*
G02*
X152475000Y-79962500I-250000J0D01*
G01*
X150325000Y-79962500D01*
G75*
G02*
X150075000Y-79712500I0J250000D01*
G01*
X150075000Y-78787500D01*
G75*
G02*
X150325000Y-78537500I250000J0D01*
G01*
G37*
%TD*%
%TO.C,C6*%
G36*
G01*
X125287500Y-69300000D02*
X124812500Y-69300000D01*
G75*
G02*
X124575000Y-69062500I0J237500D01*
G01*
X124575000Y-68487500D01*
G75*
G02*
X124812500Y-68250000I237500J0D01*
G01*
X125287500Y-68250000D01*
G75*
G02*
X125525000Y-68487500I0J-237500D01*
G01*
X125525000Y-69062500D01*
G75*
G02*
X125287500Y-69300000I-237500J0D01*
G01*
G37*
G36*
G01*
X125287500Y-71050000D02*
X124812500Y-71050000D01*
G75*
G02*
X124575000Y-70812500I0J237500D01*
G01*
X124575000Y-70237500D01*
G75*
G02*
X124812500Y-70000000I237500J0D01*
G01*
X125287500Y-70000000D01*
G75*
G02*
X125525000Y-70237500I0J-237500D01*
G01*
X125525000Y-70812500D01*
G75*
G02*
X125287500Y-71050000I-237500J0D01*
G01*
G37*
%TD*%
%TO.C,C5*%
G36*
G01*
X116549999Y-78875000D02*
X117450001Y-78875000D01*
G75*
G02*
X117700000Y-79124999I0J-249999D01*
G01*
X117700000Y-79775001D01*
G75*
G02*
X117450001Y-80025000I-249999J0D01*
G01*
X116549999Y-80025000D01*
G75*
G02*
X116300000Y-79775001I0J249999D01*
G01*
X116300000Y-79124999D01*
G75*
G02*
X116549999Y-78875000I249999J0D01*
G01*
G37*
G36*
G01*
X116549999Y-80925000D02*
X117450001Y-80925000D01*
G75*
G02*
X117700000Y-81174999I0J-249999D01*
G01*
X117700000Y-81825001D01*
G75*
G02*
X117450001Y-82075000I-249999J0D01*
G01*
X116549999Y-82075000D01*
G75*
G02*
X116300000Y-81825001I0J249999D01*
G01*
X116300000Y-81174999D01*
G75*
G02*
X116549999Y-80925000I249999J0D01*
G01*
G37*
%TD*%
%TO.C,C4*%
G36*
G01*
X111325000Y-80975000D02*
X113475000Y-80975000D01*
G75*
G02*
X113725000Y-81225000I0J-250000D01*
G01*
X113725000Y-82150000D01*
G75*
G02*
X113475000Y-82400000I-250000J0D01*
G01*
X111325000Y-82400000D01*
G75*
G02*
X111075000Y-82150000I0J250000D01*
G01*
X111075000Y-81225000D01*
G75*
G02*
X111325000Y-80975000I250000J0D01*
G01*
G37*
G36*
G01*
X111325000Y-78000000D02*
X113475000Y-78000000D01*
G75*
G02*
X113725000Y-78250000I0J-250000D01*
G01*
X113725000Y-79175000D01*
G75*
G02*
X113475000Y-79425000I-250000J0D01*
G01*
X111325000Y-79425000D01*
G75*
G02*
X111075000Y-79175000I0J250000D01*
G01*
X111075000Y-78250000D01*
G75*
G02*
X111325000Y-78000000I250000J0D01*
G01*
G37*
%TD*%
%TO.C,C3*%
G36*
G01*
X152625000Y-62037500D02*
X152625000Y-61562500D01*
G75*
G02*
X152862500Y-61325000I237500J0D01*
G01*
X153437500Y-61325000D01*
G75*
G02*
X153675000Y-61562500I0J-237500D01*
G01*
X153675000Y-62037500D01*
G75*
G02*
X153437500Y-62275000I-237500J0D01*
G01*
X152862500Y-62275000D01*
G75*
G02*
X152625000Y-62037500I0J237500D01*
G01*
G37*
G36*
G01*
X150875000Y-62037500D02*
X150875000Y-61562500D01*
G75*
G02*
X151112500Y-61325000I237500J0D01*
G01*
X151687500Y-61325000D01*
G75*
G02*
X151925000Y-61562500I0J-237500D01*
G01*
X151925000Y-62037500D01*
G75*
G02*
X151687500Y-62275000I-237500J0D01*
G01*
X151112500Y-62275000D01*
G75*
G02*
X150875000Y-62037500I0J237500D01*
G01*
G37*
%TD*%
%TO.C,C2*%
G36*
G01*
X99437500Y-71350000D02*
X98962500Y-71350000D01*
G75*
G02*
X98725000Y-71112500I0J237500D01*
G01*
X98725000Y-70537500D01*
G75*
G02*
X98962500Y-70300000I237500J0D01*
G01*
X99437500Y-70300000D01*
G75*
G02*
X99675000Y-70537500I0J-237500D01*
G01*
X99675000Y-71112500D01*
G75*
G02*
X99437500Y-71350000I-237500J0D01*
G01*
G37*
G36*
G01*
X99437500Y-73100000D02*
X98962500Y-73100000D01*
G75*
G02*
X98725000Y-72862500I0J237500D01*
G01*
X98725000Y-72287500D01*
G75*
G02*
X98962500Y-72050000I237500J0D01*
G01*
X99437500Y-72050000D01*
G75*
G02*
X99675000Y-72287500I0J-237500D01*
G01*
X99675000Y-72862500D01*
G75*
G02*
X99437500Y-73100000I-237500J0D01*
G01*
G37*
%TD*%
%TO.C,C1*%
G36*
G01*
X89087500Y-68375000D02*
X88612500Y-68375000D01*
G75*
G02*
X88375000Y-68137500I0J237500D01*
G01*
X88375000Y-67562500D01*
G75*
G02*
X88612500Y-67325000I237500J0D01*
G01*
X89087500Y-67325000D01*
G75*
G02*
X89325000Y-67562500I0J-237500D01*
G01*
X89325000Y-68137500D01*
G75*
G02*
X89087500Y-68375000I-237500J0D01*
G01*
G37*
G36*
G01*
X89087500Y-70125000D02*
X88612500Y-70125000D01*
G75*
G02*
X88375000Y-69887500I0J237500D01*
G01*
X88375000Y-69312500D01*
G75*
G02*
X88612500Y-69075000I237500J0D01*
G01*
X89087500Y-69075000D01*
G75*
G02*
X89325000Y-69312500I0J-237500D01*
G01*
X89325000Y-69887500D01*
G75*
G02*
X89087500Y-70125000I-237500J0D01*
G01*
G37*
%TD*%
M02*
