M48
; DRILL file {KiCad (5.1.6)-1} date 08/13/20 10:57:29
; FORMAT={-:-/ absolute / inch / decimal}
; #@! TF.CreationDate,2020-08-13T10:57:29+03:00
; #@! TF.GenerationSoftware,Kicad,Pcbnew,(5.1.6)-1
FMAT,2
INCH
T1C0.0118
T2C0.0315
T3C0.0394
T4C0.0591
T5C0.0906
T6C0.0945
T7C0.1181
T8C0.1378
%
G90
G05
T1
X2.7874Y-2.748
X2.7874Y-2.9606
X2.8346Y-2.748
X2.8346Y-2.9606
X2.9659Y-3.2465
X3.0217Y-2.8346
X3.0217Y-2.8642
X3.0217Y-2.8937
X3.0217Y-2.9232
X3.0236Y-2.5945
X3.0236Y-2.6378
X3.0315Y-3.1102
X3.0492Y-2.8346
X3.0492Y-2.8642
X3.0492Y-2.8937
X3.0492Y-2.9232
X3.063Y-3.1417
X3.0787Y-2.8346
X3.0787Y-2.8642
X3.0787Y-2.8937
X3.0787Y-2.9232
X3.1024Y-3.1811
X3.1024Y-3.2362
X3.1024Y-3.2835
X3.1417Y-2.5512
X3.1417Y-2.5906
X3.1417Y-2.6378
X3.1417Y-3.1811
X3.1417Y-3.2362
X3.1417Y-3.2835
X3.1969Y-2.6378
X3.2126Y-2.4606
X3.2441Y-2.6378
X3.2913Y-2.6732
X3.3386Y-2.5551
X3.3386Y-2.6142
X3.3386Y-2.6535
X3.3465Y-3.0157
X3.3465Y-3.0709
X3.3465Y-3.126
X3.3465Y-3.1811
X3.3465Y-3.2362
X3.3465Y-3.2835
X3.3937Y-2.5551
X3.3937Y-2.6142
X3.4016Y-2.4331
X3.4252Y-3.0157
X3.4252Y-3.0709
X3.4252Y-3.126
X3.4252Y-3.1811
X3.4252Y-3.2362
X3.4252Y-3.2835
X3.4488Y-2.5079
X3.4488Y-2.5551
X3.4488Y-2.6142
X3.4961Y-2.622
X3.5039Y-3.2835
X3.5433Y-2.5079
X3.5827Y-3.2835
X3.6614Y-3.0984
X3.6614Y-3.1457
X3.6614Y-3.1929
X3.6614Y-3.2362
X3.6614Y-3.2835
X3.6693Y-2.4606
X3.6772Y-2.8189
X3.6772Y-2.8504
X3.6811Y-2.5
X3.685Y-2.5512
X3.685Y-2.5827
X3.685Y-2.6142
X3.7087Y-2.6457
X3.7087Y-2.7559
X3.7087Y-2.7874
X3.7087Y-2.8189
X3.7087Y-2.8504
X3.7165Y-2.5512
X3.7165Y-2.5827
X3.7165Y-2.6142
X3.7402Y-2.6457
X3.7402Y-2.7559
X3.7402Y-2.7874
X3.7402Y-2.8189
X3.7402Y-2.8504
X3.7402Y-3.2362
X3.7402Y-3.2835
X3.748Y-2.5512
X3.748Y-2.5827
X3.748Y-2.6142
X3.7717Y-2.6457
X3.7717Y-2.7559
X3.7717Y-2.7874
X3.7717Y-2.8189
X3.7717Y-2.8504
X3.7795Y-2.5512
X3.7795Y-2.5827
X3.7795Y-2.6142
X3.811Y-2.5512
X3.811Y-2.5827
X3.811Y-2.6142
X3.8189Y-3.2362
X3.8189Y-3.2835
X3.8425Y-2.5827
X3.8425Y-2.6142
X3.8898Y-2.9055
X3.8898Y-2.9803
X3.8976Y-3.2362
X3.8976Y-3.2835
X3.9606Y-2.4567
X3.9685Y-2.9803
X3.9764Y-3.2362
X3.9764Y-3.2835
X3.9921Y-2.9291
X4.0079Y-2.7008
X4.0394Y-2.4567
X4.0394Y-2.5354
X4.0394Y-2.6142
X4.0472Y-2.9803
X4.0551Y-3.2362
X4.0551Y-3.2835
X4.0591Y-2.8346
X4.0591Y-2.9134
X4.1181Y-2.4567
X4.1181Y-2.5354
X4.1181Y-2.6142
X4.1339Y-3.2362
X4.1339Y-3.2835
X4.1378Y-2.8346
X4.1378Y-2.9134
X4.1969Y-2.4567
X4.1969Y-2.5354
X4.1969Y-2.6142
X4.2126Y-3.2362
X4.2126Y-3.2835
X4.2165Y-2.8346
X4.2165Y-2.9134
X4.2756Y-2.4567
X4.2756Y-2.5354
X4.2756Y-2.6142
X4.2913Y-3.2362
X4.2913Y-3.2835
X4.2953Y-2.8346
X4.2953Y-2.9134
X4.3386Y-2.7008
X4.3543Y-2.4567
X4.3543Y-2.5354
X4.3543Y-2.6142
X4.3701Y-3.2835
X4.4331Y-2.4567
X4.4331Y-2.5354
X4.4331Y-2.6142
X4.4409Y-2.7008
X4.4409Y-2.748
X4.4488Y-3.2835
X4.5039Y-2.7008
X4.5118Y-2.4567
X4.5118Y-2.5354
X4.5118Y-2.6142
X4.5276Y-3.2362
X4.5276Y-3.2835
X4.5906Y-2.4567
X4.5906Y-2.5354
X4.5906Y-2.6142
X4.6063Y-3.2835
X4.6378Y-2.7441
X4.6693Y-2.4567
X4.6693Y-2.5354
X4.6693Y-2.6142
X4.6772Y-2.9213
X4.685Y-3.2362
X4.685Y-3.2835
X4.7402Y-2.6929
X4.7402Y-2.7795
X4.7402Y-2.8465
X4.7402Y-2.9213
X4.748Y-2.5354
X4.748Y-2.6142
X4.7638Y-3.2362
X4.7638Y-3.2835
X4.8425Y-3.2362
X4.8425Y-3.2835
X4.9055Y-2.8346
X4.9055Y-2.8819
X4.9213Y-3.2362
X4.9213Y-3.2835
X4.9528Y-2.9449
X4.9528Y-3.0236
X4.9528Y-3.1024
X4.9528Y-3.1811
X4.9685Y-2.8346
X4.9685Y-2.8819
X4.9764Y-2.7835
X5.0Y-3.2362
X5.0Y-3.2835
X5.0039Y-2.748
X5.0157Y-2.9449
X5.0157Y-3.0236
X5.0157Y-3.1024
X5.0157Y-3.1811
X5.0315Y-2.8346
X5.0315Y-2.8819
X5.0709Y-2.7953
X5.0709Y-2.9449
X5.0709Y-3.0236
X5.0709Y-3.1024
X5.0709Y-3.1811
X5.0787Y-3.2362
X5.0787Y-3.2835
X5.0866Y-2.5118
X5.0866Y-2.5433
X5.0945Y-2.8346
X5.0945Y-2.8661
X5.0945Y-2.8976
X5.1181Y-2.4803
X5.1181Y-2.5118
X5.1181Y-2.5433
X5.1339Y-2.7717
X5.1339Y-2.8031
X5.1339Y-2.8346
X5.1339Y-2.8661
X5.1339Y-2.8976
X5.1496Y-2.4803
X5.1496Y-2.5118
X5.1496Y-2.5433
X5.1496Y-2.5748
X5.1575Y-3.2362
X5.1575Y-3.2835
X5.1693Y-2.7717
X5.1693Y-2.8031
X5.1693Y-2.8346
X5.1693Y-2.8661
X5.1693Y-2.8976
X5.1811Y-2.4803
X5.1811Y-2.5118
X5.1811Y-2.5433
X5.1811Y-2.5748
X5.2047Y-2.7717
X5.2047Y-2.8031
X5.2047Y-2.8346
X5.2047Y-2.8661
X5.2047Y-2.8976
X5.2126Y-2.4803
X5.2126Y-2.5118
X5.2126Y-2.5433
X5.2126Y-2.5748
X5.2362Y-3.2362
X5.2362Y-3.2835
X5.2441Y-2.4803
X5.2441Y-2.5118
X5.2441Y-2.5433
X5.2756Y-2.5118
X5.2756Y-2.5433
X5.315Y-3.2362
X5.315Y-3.2835
X5.3228Y-2.4488
X5.3228Y-2.4961
X5.3228Y-2.5433
X5.378Y-2.5118
X5.3858Y-2.4488
X5.3937Y-3.2362
X5.3937Y-3.2835
X5.4232Y-2.8543
X5.4488Y-2.4488
X5.4488Y-2.5118
X5.4488Y-2.7402
X5.4488Y-2.7953
X5.4724Y-3.2362
X5.4724Y-3.2835
X5.5197Y-2.4488
X5.5197Y-2.5118
X5.5197Y-2.5748
X5.5512Y-3.2362
X5.5512Y-3.2835
X5.5807Y-2.9331
X5.5807Y-2.9626
X5.6102Y-2.9331
X5.6102Y-2.9626
X5.6102Y-2.9921
X5.6142Y-2.4488
X5.6142Y-2.5276
X5.6142Y-2.5984
X5.622Y-2.6614
X5.6299Y-3.2362
X5.6299Y-3.2835
X5.6398Y-2.9626
X5.6398Y-2.9921
X5.6693Y-2.9626
X5.6693Y-2.9921
X5.7087Y-3.2362
X5.7087Y-3.2835
X5.7165Y-2.6614
X5.7874Y-3.2362
X5.7874Y-3.2835
X5.8189Y-2.6614
X5.8504Y-2.5118
X5.8504Y-2.5984
X5.8661Y-3.2362
X5.8661Y-3.2835
X5.9449Y-3.2835
X6.0236Y-3.2835
X6.0394Y-2.6772
X6.0394Y-2.748
X6.0472Y-3.2362
X6.1024Y-3.2835
X6.1102Y-2.748
X6.126Y-2.4961
X6.1496Y-2.4173
X6.1732Y-2.8346
X6.1732Y-2.8976
X6.1811Y-3.2835
X6.2047Y-2.4173
X6.2047Y-2.4961
X6.2598Y-3.2362
X6.2598Y-3.2835
X6.2835Y-2.4173
X6.2835Y-2.4961
X6.3386Y-3.2362
X6.3386Y-3.2835
X6.3622Y-2.4173
X6.3622Y-2.4961
X6.4173Y-3.2362
X6.4173Y-3.2835
X6.4409Y-2.4173
X6.4409Y-2.4961
X6.5276Y-2.5866
X6.5276Y-2.6339
X6.5354Y-3.0709
X6.5354Y-3.1339
X6.6142Y-2.5866
X6.6142Y-2.6339
X6.6142Y-2.6732
X6.6142Y-3.0276
X6.6142Y-3.0709
X6.6142Y-3.1339
T3
X6.2992Y-2.7165
X6.2992Y-2.815
X6.2992Y-2.8937
X6.2992Y-2.9921
T4
X3.224Y-2.8543
X6.0673Y-2.8543
T5
X6.4059Y-2.5957
X6.4059Y-3.113
T6
X3.224Y-2.5445
T7
X6.5748Y-2.4803
X6.5748Y-3.2283
X2.874Y-3.2283
X2.874Y-2.4803
T8
X3.5591Y-3.1642
X5.7323Y-2.5445
T2
G00X2.8287Y-2.689
M15
G01X2.8012Y-2.689
M16
G05
G00X2.8287Y-3.0197
M15
G01X2.8012Y-3.0197
M16
G05
G00X2.937Y-2.7618
M15
G01X2.9291Y-2.7618
M16
G05
G00X2.937Y-2.9469
M15
G01X2.9291Y-2.9469
M16
G05
T0
M30
