%TF.GenerationSoftware,KiCad,Pcbnew,(5.1.6)-1*%
%TF.CreationDate,2020-08-13T11:00:50+03:00*%
%TF.ProjectId,Rechargeable 5V power bank REV 0.53,52656368-6172-4676-9561-626c65203556,rev?*%
%TF.SameCoordinates,Original*%
%TF.FileFunction,Copper,L2,Bot*%
%TF.FilePolarity,Positive*%
%FSLAX46Y46*%
G04 Gerber Fmt 4.6, Leading zero omitted, Abs format (unit mm)*
G04 Created by KiCad (PCBNEW (5.1.6)-1) date 2020-08-13 11:00:50*
%MOMM*%
%LPD*%
G01*
G04 APERTURE LIST*
%TA.AperFunction,ComponentPad*%
%ADD10C,2.200000*%
%TD*%
%TA.AperFunction,ComponentPad*%
%ADD11R,2.200000X2.200000*%
%TD*%
%TA.AperFunction,SMDPad,CuDef*%
%ADD12R,1.730000X1.980000*%
%TD*%
%TA.AperFunction,SMDPad,CuDef*%
%ADD13R,2.620000X3.500000*%
%TD*%
%TA.AperFunction,SMDPad,CuDef*%
%ADD14R,1.800000X0.850000*%
%TD*%
%TA.AperFunction,SMDPad,CuDef*%
%ADD15R,0.650000X1.560000*%
%TD*%
%TA.AperFunction,SMDPad,CuDef*%
%ADD16R,1.250000X1.250000*%
%TD*%
%TA.AperFunction,SMDPad,CuDef*%
%ADD17R,1.900000X0.900000*%
%TD*%
%TA.AperFunction,SMDPad,CuDef*%
%ADD18R,0.900000X1.900000*%
%TD*%
%TA.AperFunction,SMDPad,CuDef*%
%ADD19R,4.000000X3.500000*%
%TD*%
%TA.AperFunction,SMDPad,CuDef*%
%ADD20R,3.000000X3.000000*%
%TD*%
%TA.AperFunction,ComponentPad*%
%ADD21C,3.200000*%
%TD*%
%TA.AperFunction,ComponentPad*%
%ADD22C,1.500000*%
%TD*%
%TA.AperFunction,ComponentPad*%
%ADD23R,1.500000X1.500000*%
%TD*%
%TA.AperFunction,ComponentPad*%
%ADD24O,2.000000X1.300000*%
%TD*%
%TA.AperFunction,ComponentPad*%
%ADD25O,1.400000X1.200000*%
%TD*%
%TA.AperFunction,SMDPad,CuDef*%
%ADD26R,2.000000X3.600000*%
%TD*%
%TA.AperFunction,SMDPad,CuDef*%
%ADD27R,1.700000X2.300000*%
%TD*%
%TA.AperFunction,SMDPad,CuDef*%
%ADD28R,2.540000X3.300000*%
%TD*%
%TA.AperFunction,ViaPad*%
%ADD29C,0.600000*%
%TD*%
%TA.AperFunction,Conductor*%
%ADD30C,0.500000*%
%TD*%
%TA.AperFunction,Conductor*%
%ADD31C,0.250000*%
%TD*%
%TA.AperFunction,Conductor*%
%ADD32C,0.300000*%
%TD*%
%TA.AperFunction,Conductor*%
%ADD33C,1.000000*%
%TD*%
%TA.AperFunction,Conductor*%
%ADD34C,0.254000*%
%TD*%
G04 APERTURE END LIST*
%TO.P,C13,1*%
%TO.N,+VBAT_CELL*%
%TA.AperFunction,SMDPad,CuDef*%
G36*
G01*
X100949999Y-70300000D02*
X101850001Y-70300000D01*
G75*
G02*
X102100000Y-70549999I0J-249999D01*
G01*
X102100000Y-71200001D01*
G75*
G02*
X101850001Y-71450000I-249999J0D01*
G01*
X100949999Y-71450000D01*
G75*
G02*
X100700000Y-71200001I0J249999D01*
G01*
X100700000Y-70549999D01*
G75*
G02*
X100949999Y-70300000I249999J0D01*
G01*
G37*
%TD.AperFunction*%
%TO.P,C13,2*%
%TO.N,GND*%
%TA.AperFunction,SMDPad,CuDef*%
G36*
G01*
X100949999Y-72350000D02*
X101850001Y-72350000D01*
G75*
G02*
X102100000Y-72599999I0J-249999D01*
G01*
X102100000Y-73250001D01*
G75*
G02*
X101850001Y-73500000I-249999J0D01*
G01*
X100949999Y-73500000D01*
G75*
G02*
X100700000Y-73250001I0J249999D01*
G01*
X100700000Y-72599999D01*
G75*
G02*
X100949999Y-72350000I249999J0D01*
G01*
G37*
%TD.AperFunction*%
%TD*%
%TO.P,C11,1*%
%TO.N,VBUS*%
%TA.AperFunction,SMDPad,CuDef*%
G36*
G01*
X86750001Y-70200000D02*
X85849999Y-70200000D01*
G75*
G02*
X85600000Y-69950001I0J249999D01*
G01*
X85600000Y-69299999D01*
G75*
G02*
X85849999Y-69050000I249999J0D01*
G01*
X86750001Y-69050000D01*
G75*
G02*
X87000000Y-69299999I0J-249999D01*
G01*
X87000000Y-69950001D01*
G75*
G02*
X86750001Y-70200000I-249999J0D01*
G01*
G37*
%TD.AperFunction*%
%TO.P,C11,2*%
%TO.N,GND*%
%TA.AperFunction,SMDPad,CuDef*%
G36*
G01*
X86750001Y-68150000D02*
X85849999Y-68150000D01*
G75*
G02*
X85600000Y-67900001I0J249999D01*
G01*
X85600000Y-67249999D01*
G75*
G02*
X85849999Y-67000000I249999J0D01*
G01*
X86750001Y-67000000D01*
G75*
G02*
X87000000Y-67249999I0J-249999D01*
G01*
X87000000Y-67900001D01*
G75*
G02*
X86750001Y-68150000I-249999J0D01*
G01*
G37*
%TD.AperFunction*%
%TD*%
D10*
%TO.P,BAT1,-*%
%TO.N,/-VBAT*%
X154110000Y-72500000D03*
D11*
%TO.P,BAT1,+*%
%TO.N,/+VBAT*%
X81890000Y-72500000D03*
%TD*%
%TO.P,U1,1*%
%TO.N,VBUS*%
%TA.AperFunction,SMDPad,CuDef*%
G36*
G01*
X91900000Y-69725000D02*
X91900000Y-69575000D01*
G75*
G02*
X91975000Y-69500000I75000J0D01*
G01*
X93300000Y-69500000D01*
G75*
G02*
X93375000Y-69575000I0J-75000D01*
G01*
X93375000Y-69725000D01*
G75*
G02*
X93300000Y-69800000I-75000J0D01*
G01*
X91975000Y-69800000D01*
G75*
G02*
X91900000Y-69725000I0J75000D01*
G01*
G37*
%TD.AperFunction*%
%TO.P,U1,2*%
%TO.N,/ISET*%
%TA.AperFunction,SMDPad,CuDef*%
G36*
G01*
X91900000Y-69225000D02*
X91900000Y-69075000D01*
G75*
G02*
X91975000Y-69000000I75000J0D01*
G01*
X93300000Y-69000000D01*
G75*
G02*
X93375000Y-69075000I0J-75000D01*
G01*
X93375000Y-69225000D01*
G75*
G02*
X93300000Y-69300000I-75000J0D01*
G01*
X91975000Y-69300000D01*
G75*
G02*
X91900000Y-69225000I0J75000D01*
G01*
G37*
%TD.AperFunction*%
%TO.P,U1,3*%
%TO.N,GND*%
%TA.AperFunction,SMDPad,CuDef*%
G36*
G01*
X91900000Y-68725000D02*
X91900000Y-68575000D01*
G75*
G02*
X91975000Y-68500000I75000J0D01*
G01*
X93300000Y-68500000D01*
G75*
G02*
X93375000Y-68575000I0J-75000D01*
G01*
X93375000Y-68725000D01*
G75*
G02*
X93300000Y-68800000I-75000J0D01*
G01*
X91975000Y-68800000D01*
G75*
G02*
X91900000Y-68725000I0J75000D01*
G01*
G37*
%TD.AperFunction*%
%TO.P,U1,4*%
%TO.N,/PRETERM*%
%TA.AperFunction,SMDPad,CuDef*%
G36*
G01*
X91900000Y-68225000D02*
X91900000Y-68075000D01*
G75*
G02*
X91975000Y-68000000I75000J0D01*
G01*
X93300000Y-68000000D01*
G75*
G02*
X93375000Y-68075000I0J-75000D01*
G01*
X93375000Y-68225000D01*
G75*
G02*
X93300000Y-68300000I-75000J0D01*
G01*
X91975000Y-68300000D01*
G75*
G02*
X91900000Y-68225000I0J75000D01*
G01*
G37*
%TD.AperFunction*%
%TO.P,U1,5*%
%TO.N,/~PG*%
%TA.AperFunction,SMDPad,CuDef*%
G36*
G01*
X91900000Y-67725000D02*
X91900000Y-67575000D01*
G75*
G02*
X91975000Y-67500000I75000J0D01*
G01*
X93300000Y-67500000D01*
G75*
G02*
X93375000Y-67575000I0J-75000D01*
G01*
X93375000Y-67725000D01*
G75*
G02*
X93300000Y-67800000I-75000J0D01*
G01*
X91975000Y-67800000D01*
G75*
G02*
X91900000Y-67725000I0J75000D01*
G01*
G37*
%TD.AperFunction*%
%TO.P,U1,6*%
%TO.N,Net-(U1-Pad6)*%
%TA.AperFunction,SMDPad,CuDef*%
G36*
G01*
X96625000Y-67725000D02*
X96625000Y-67575000D01*
G75*
G02*
X96700000Y-67500000I75000J0D01*
G01*
X98025000Y-67500000D01*
G75*
G02*
X98100000Y-67575000I0J-75000D01*
G01*
X98100000Y-67725000D01*
G75*
G02*
X98025000Y-67800000I-75000J0D01*
G01*
X96700000Y-67800000D01*
G75*
G02*
X96625000Y-67725000I0J75000D01*
G01*
G37*
%TD.AperFunction*%
%TO.P,U1,7*%
%TO.N,/ISET2*%
%TA.AperFunction,SMDPad,CuDef*%
G36*
G01*
X96625000Y-68225000D02*
X96625000Y-68075000D01*
G75*
G02*
X96700000Y-68000000I75000J0D01*
G01*
X98025000Y-68000000D01*
G75*
G02*
X98100000Y-68075000I0J-75000D01*
G01*
X98100000Y-68225000D01*
G75*
G02*
X98025000Y-68300000I-75000J0D01*
G01*
X96700000Y-68300000D01*
G75*
G02*
X96625000Y-68225000I0J75000D01*
G01*
G37*
%TD.AperFunction*%
%TO.P,U1,8*%
%TO.N,/~CHG*%
%TA.AperFunction,SMDPad,CuDef*%
G36*
G01*
X96625000Y-68725000D02*
X96625000Y-68575000D01*
G75*
G02*
X96700000Y-68500000I75000J0D01*
G01*
X98025000Y-68500000D01*
G75*
G02*
X98100000Y-68575000I0J-75000D01*
G01*
X98100000Y-68725000D01*
G75*
G02*
X98025000Y-68800000I-75000J0D01*
G01*
X96700000Y-68800000D01*
G75*
G02*
X96625000Y-68725000I0J75000D01*
G01*
G37*
%TD.AperFunction*%
%TO.P,U1,9*%
%TO.N,/NTC*%
%TA.AperFunction,SMDPad,CuDef*%
G36*
G01*
X96625000Y-69225000D02*
X96625000Y-69075000D01*
G75*
G02*
X96700000Y-69000000I75000J0D01*
G01*
X98025000Y-69000000D01*
G75*
G02*
X98100000Y-69075000I0J-75000D01*
G01*
X98100000Y-69225000D01*
G75*
G02*
X98025000Y-69300000I-75000J0D01*
G01*
X96700000Y-69300000D01*
G75*
G02*
X96625000Y-69225000I0J75000D01*
G01*
G37*
%TD.AperFunction*%
%TO.P,U1,10*%
%TO.N,+VBAT_CELL*%
%TA.AperFunction,SMDPad,CuDef*%
G36*
G01*
X96625000Y-69725000D02*
X96625000Y-69575000D01*
G75*
G02*
X96700000Y-69500000I75000J0D01*
G01*
X98025000Y-69500000D01*
G75*
G02*
X98100000Y-69575000I0J-75000D01*
G01*
X98100000Y-69725000D01*
G75*
G02*
X98025000Y-69800000I-75000J0D01*
G01*
X96700000Y-69800000D01*
G75*
G02*
X96625000Y-69725000I0J75000D01*
G01*
G37*
%TD.AperFunction*%
D12*
%TO.P,U1,11*%
%TO.N,GND*%
X95000000Y-68650000D03*
%TD*%
%TO.P,C12,2*%
%TO.N,GND*%
%TA.AperFunction,SMDPad,CuDef*%
G36*
G01*
X154725000Y-81512500D02*
X156875000Y-81512500D01*
G75*
G02*
X157125000Y-81762500I0J-250000D01*
G01*
X157125000Y-82687500D01*
G75*
G02*
X156875000Y-82937500I-250000J0D01*
G01*
X154725000Y-82937500D01*
G75*
G02*
X154475000Y-82687500I0J250000D01*
G01*
X154475000Y-81762500D01*
G75*
G02*
X154725000Y-81512500I250000J0D01*
G01*
G37*
%TD.AperFunction*%
%TO.P,C12,1*%
%TO.N,VOUT*%
%TA.AperFunction,SMDPad,CuDef*%
G36*
G01*
X154725000Y-78537500D02*
X156875000Y-78537500D01*
G75*
G02*
X157125000Y-78787500I0J-250000D01*
G01*
X157125000Y-79712500D01*
G75*
G02*
X156875000Y-79962500I-250000J0D01*
G01*
X154725000Y-79962500D01*
G75*
G02*
X154475000Y-79712500I0J250000D01*
G01*
X154475000Y-78787500D01*
G75*
G02*
X154725000Y-78537500I250000J0D01*
G01*
G37*
%TD.AperFunction*%
%TD*%
D13*
%TO.P,U3,9*%
%TO.N,GND*%
X131500000Y-68000000D03*
D14*
%TO.P,U3,8*%
%TO.N,/BOOST_SW*%
X134250000Y-69905000D03*
%TO.P,U3,7*%
%TO.N,/BOOST_SS*%
X134250000Y-68635000D03*
%TO.P,U3,6*%
%TO.N,/BOOST_FB*%
X134250000Y-67365000D03*
%TO.P,U3,5*%
%TO.N,GND*%
X134250000Y-66095000D03*
%TO.P,U3,4*%
%TO.N,/BOOST_COMP*%
X128750000Y-66095000D03*
%TO.P,U3,3*%
%TO.N,/BOOST_EN*%
X128750000Y-67365000D03*
%TO.P,U3,2*%
%TO.N,/BOOST_VIN*%
X128750000Y-68635000D03*
%TO.P,U3,1*%
%TO.N,GND*%
X128750000Y-69905000D03*
%TD*%
D15*
%TO.P,U2,1*%
%TO.N,/DO*%
X152000000Y-67400000D03*
%TO.P,U2,2*%
%TO.N,/VM*%
X151050000Y-67400000D03*
%TO.P,U2,3*%
%TO.N,/CO*%
X150100000Y-67400000D03*
%TO.P,U2,4*%
%TO.N,Net-(U2-Pad4)*%
X150100000Y-64500000D03*
%TO.P,U2,6*%
%TO.N,/-VBAT*%
X152000000Y-64500000D03*
%TO.P,U2,5*%
%TO.N,/U2_VDD*%
X151050000Y-64500000D03*
%TD*%
D16*
%TO.P,TP11,1*%
%TO.N,/-VBAT*%
X152000000Y-74400000D03*
%TD*%
%TO.P,TP10,1*%
%TO.N,/+VBAT*%
X84000000Y-74000000D03*
%TD*%
%TO.P,TP9,1*%
%TO.N,/VM*%
X153800000Y-66200000D03*
%TD*%
%TO.P,TP8,1*%
%TO.N,/CO*%
X150000000Y-69600000D03*
%TD*%
%TO.P,TP7,1*%
%TO.N,/DO*%
X152000000Y-69600000D03*
%TD*%
%TO.P,TP6,1*%
%TO.N,/U2_VDD*%
X150400000Y-61800000D03*
%TD*%
%TO.P,TP5,1*%
%TO.N,/BOOST_SW*%
X135400000Y-74800000D03*
%TD*%
%TO.P,TP4,1*%
%TO.N,/BOOST_FB*%
X136600000Y-67200000D03*
%TD*%
%TO.P,TP3,1*%
%TO.N,/BOOST_IND*%
X116200000Y-76600000D03*
%TD*%
%TO.P,TP2,1*%
%TO.N,/BOOST_EN*%
X126400000Y-66800000D03*
%TD*%
%TO.P,TP1,1*%
%TO.N,/BOOST_VIN*%
X123800000Y-68800000D03*
%TD*%
%TO.P,R19,2*%
%TO.N,Net-(J2-Pad2)*%
%TA.AperFunction,SMDPad,CuDef*%
G36*
G01*
X163262500Y-72725000D02*
X163737500Y-72725000D01*
G75*
G02*
X163975000Y-72962500I0J-237500D01*
G01*
X163975000Y-73537500D01*
G75*
G02*
X163737500Y-73775000I-237500J0D01*
G01*
X163262500Y-73775000D01*
G75*
G02*
X163025000Y-73537500I0J237500D01*
G01*
X163025000Y-72962500D01*
G75*
G02*
X163262500Y-72725000I237500J0D01*
G01*
G37*
%TD.AperFunction*%
%TO.P,R19,1*%
%TO.N,Net-(J2-Pad3)*%
%TA.AperFunction,SMDPad,CuDef*%
G36*
G01*
X163262500Y-70975000D02*
X163737500Y-70975000D01*
G75*
G02*
X163975000Y-71212500I0J-237500D01*
G01*
X163975000Y-71787500D01*
G75*
G02*
X163737500Y-72025000I-237500J0D01*
G01*
X163262500Y-72025000D01*
G75*
G02*
X163025000Y-71787500I0J237500D01*
G01*
X163025000Y-71212500D01*
G75*
G02*
X163262500Y-70975000I237500J0D01*
G01*
G37*
%TD.AperFunction*%
%TD*%
%TO.P,R18,2*%
%TO.N,Net-(J2-Pad2)*%
%TA.AperFunction,SMDPad,CuDef*%
G36*
G01*
X168237500Y-74525000D02*
X167762500Y-74525000D01*
G75*
G02*
X167525000Y-74287500I0J237500D01*
G01*
X167525000Y-73712500D01*
G75*
G02*
X167762500Y-73475000I237500J0D01*
G01*
X168237500Y-73475000D01*
G75*
G02*
X168475000Y-73712500I0J-237500D01*
G01*
X168475000Y-74287500D01*
G75*
G02*
X168237500Y-74525000I-237500J0D01*
G01*
G37*
%TD.AperFunction*%
%TO.P,R18,1*%
%TO.N,GND*%
%TA.AperFunction,SMDPad,CuDef*%
G36*
G01*
X168237500Y-76275000D02*
X167762500Y-76275000D01*
G75*
G02*
X167525000Y-76037500I0J237500D01*
G01*
X167525000Y-75462500D01*
G75*
G02*
X167762500Y-75225000I237500J0D01*
G01*
X168237500Y-75225000D01*
G75*
G02*
X168475000Y-75462500I0J-237500D01*
G01*
X168475000Y-76037500D01*
G75*
G02*
X168237500Y-76275000I-237500J0D01*
G01*
G37*
%TD.AperFunction*%
%TD*%
%TO.P,R17,2*%
%TO.N,Net-(J2-Pad3)*%
%TA.AperFunction,SMDPad,CuDef*%
G36*
G01*
X167762500Y-70475000D02*
X168237500Y-70475000D01*
G75*
G02*
X168475000Y-70712500I0J-237500D01*
G01*
X168475000Y-71287500D01*
G75*
G02*
X168237500Y-71525000I-237500J0D01*
G01*
X167762500Y-71525000D01*
G75*
G02*
X167525000Y-71287500I0J237500D01*
G01*
X167525000Y-70712500D01*
G75*
G02*
X167762500Y-70475000I237500J0D01*
G01*
G37*
%TD.AperFunction*%
%TO.P,R17,1*%
%TO.N,GND*%
%TA.AperFunction,SMDPad,CuDef*%
G36*
G01*
X167762500Y-68725000D02*
X168237500Y-68725000D01*
G75*
G02*
X168475000Y-68962500I0J-237500D01*
G01*
X168475000Y-69537500D01*
G75*
G02*
X168237500Y-69775000I-237500J0D01*
G01*
X167762500Y-69775000D01*
G75*
G02*
X167525000Y-69537500I0J237500D01*
G01*
X167525000Y-68962500D01*
G75*
G02*
X167762500Y-68725000I237500J0D01*
G01*
G37*
%TD.AperFunction*%
%TD*%
%TO.P,R16,2*%
%TO.N,VOUT*%
%TA.AperFunction,SMDPad,CuDef*%
G36*
G01*
X165512500Y-75225000D02*
X165987500Y-75225000D01*
G75*
G02*
X166225000Y-75462500I0J-237500D01*
G01*
X166225000Y-76037500D01*
G75*
G02*
X165987500Y-76275000I-237500J0D01*
G01*
X165512500Y-76275000D01*
G75*
G02*
X165275000Y-76037500I0J237500D01*
G01*
X165275000Y-75462500D01*
G75*
G02*
X165512500Y-75225000I237500J0D01*
G01*
G37*
%TD.AperFunction*%
%TO.P,R16,1*%
%TO.N,Net-(J2-Pad2)*%
%TA.AperFunction,SMDPad,CuDef*%
G36*
G01*
X165512500Y-73475000D02*
X165987500Y-73475000D01*
G75*
G02*
X166225000Y-73712500I0J-237500D01*
G01*
X166225000Y-74287500D01*
G75*
G02*
X165987500Y-74525000I-237500J0D01*
G01*
X165512500Y-74525000D01*
G75*
G02*
X165275000Y-74287500I0J237500D01*
G01*
X165275000Y-73712500D01*
G75*
G02*
X165512500Y-73475000I237500J0D01*
G01*
G37*
%TD.AperFunction*%
%TD*%
%TO.P,R15,2*%
%TO.N,VOUT*%
%TA.AperFunction,SMDPad,CuDef*%
G36*
G01*
X165987500Y-69775000D02*
X165512500Y-69775000D01*
G75*
G02*
X165275000Y-69537500I0J237500D01*
G01*
X165275000Y-68962500D01*
G75*
G02*
X165512500Y-68725000I237500J0D01*
G01*
X165987500Y-68725000D01*
G75*
G02*
X166225000Y-68962500I0J-237500D01*
G01*
X166225000Y-69537500D01*
G75*
G02*
X165987500Y-69775000I-237500J0D01*
G01*
G37*
%TD.AperFunction*%
%TO.P,R15,1*%
%TO.N,Net-(J2-Pad3)*%
%TA.AperFunction,SMDPad,CuDef*%
G36*
G01*
X165987500Y-71525000D02*
X165512500Y-71525000D01*
G75*
G02*
X165275000Y-71287500I0J237500D01*
G01*
X165275000Y-70712500D01*
G75*
G02*
X165512500Y-70475000I237500J0D01*
G01*
X165987500Y-70475000D01*
G75*
G02*
X166225000Y-70712500I0J-237500D01*
G01*
X166225000Y-71287500D01*
G75*
G02*
X165987500Y-71525000I-237500J0D01*
G01*
G37*
%TD.AperFunction*%
%TD*%
%TO.P,R14,2*%
%TO.N,/BOOST_FB*%
%TA.AperFunction,SMDPad,CuDef*%
G36*
G01*
X138162500Y-66825000D02*
X138637500Y-66825000D01*
G75*
G02*
X138875000Y-67062500I0J-237500D01*
G01*
X138875000Y-67637500D01*
G75*
G02*
X138637500Y-67875000I-237500J0D01*
G01*
X138162500Y-67875000D01*
G75*
G02*
X137925000Y-67637500I0J237500D01*
G01*
X137925000Y-67062500D01*
G75*
G02*
X138162500Y-66825000I237500J0D01*
G01*
G37*
%TD.AperFunction*%
%TO.P,R14,1*%
%TO.N,GND*%
%TA.AperFunction,SMDPad,CuDef*%
G36*
G01*
X138162500Y-65075000D02*
X138637500Y-65075000D01*
G75*
G02*
X138875000Y-65312500I0J-237500D01*
G01*
X138875000Y-65887500D01*
G75*
G02*
X138637500Y-66125000I-237500J0D01*
G01*
X138162500Y-66125000D01*
G75*
G02*
X137925000Y-65887500I0J237500D01*
G01*
X137925000Y-65312500D01*
G75*
G02*
X138162500Y-65075000I237500J0D01*
G01*
G37*
%TD.AperFunction*%
%TD*%
%TO.P,R13,2*%
%TO.N,Net-(C10-Pad1)*%
%TA.AperFunction,SMDPad,CuDef*%
G36*
G01*
X125075000Y-62262500D02*
X125075000Y-62737500D01*
G75*
G02*
X124837500Y-62975000I-237500J0D01*
G01*
X124262500Y-62975000D01*
G75*
G02*
X124025000Y-62737500I0J237500D01*
G01*
X124025000Y-62262500D01*
G75*
G02*
X124262500Y-62025000I237500J0D01*
G01*
X124837500Y-62025000D01*
G75*
G02*
X125075000Y-62262500I0J-237500D01*
G01*
G37*
%TD.AperFunction*%
%TO.P,R13,1*%
%TO.N,/BOOST_COMP*%
%TA.AperFunction,SMDPad,CuDef*%
G36*
G01*
X126825000Y-62262500D02*
X126825000Y-62737500D01*
G75*
G02*
X126587500Y-62975000I-237500J0D01*
G01*
X126012500Y-62975000D01*
G75*
G02*
X125775000Y-62737500I0J237500D01*
G01*
X125775000Y-62262500D01*
G75*
G02*
X126012500Y-62025000I237500J0D01*
G01*
X126587500Y-62025000D01*
G75*
G02*
X126825000Y-62262500I0J-237500D01*
G01*
G37*
%TD.AperFunction*%
%TD*%
%TO.P,R12,2*%
%TO.N,/BOOST_FB*%
%TA.AperFunction,SMDPad,CuDef*%
G36*
G01*
X139937500Y-70325000D02*
X139462500Y-70325000D01*
G75*
G02*
X139225000Y-70087500I0J237500D01*
G01*
X139225000Y-69512500D01*
G75*
G02*
X139462500Y-69275000I237500J0D01*
G01*
X139937500Y-69275000D01*
G75*
G02*
X140175000Y-69512500I0J-237500D01*
G01*
X140175000Y-70087500D01*
G75*
G02*
X139937500Y-70325000I-237500J0D01*
G01*
G37*
%TD.AperFunction*%
%TO.P,R12,1*%
%TO.N,VOUT*%
%TA.AperFunction,SMDPad,CuDef*%
G36*
G01*
X139937500Y-72075000D02*
X139462500Y-72075000D01*
G75*
G02*
X139225000Y-71837500I0J237500D01*
G01*
X139225000Y-71262500D01*
G75*
G02*
X139462500Y-71025000I237500J0D01*
G01*
X139937500Y-71025000D01*
G75*
G02*
X140175000Y-71262500I0J-237500D01*
G01*
X140175000Y-71837500D01*
G75*
G02*
X139937500Y-72075000I-237500J0D01*
G01*
G37*
%TD.AperFunction*%
%TD*%
%TO.P,R11,2*%
%TO.N,/BOOST_EN*%
%TA.AperFunction,SMDPad,CuDef*%
G36*
G01*
X124175000Y-66637500D02*
X124175000Y-66162500D01*
G75*
G02*
X124412500Y-65925000I237500J0D01*
G01*
X124987500Y-65925000D01*
G75*
G02*
X125225000Y-66162500I0J-237500D01*
G01*
X125225000Y-66637500D01*
G75*
G02*
X124987500Y-66875000I-237500J0D01*
G01*
X124412500Y-66875000D01*
G75*
G02*
X124175000Y-66637500I0J237500D01*
G01*
G37*
%TD.AperFunction*%
%TO.P,R11,1*%
%TO.N,/BOOST_VIN*%
%TA.AperFunction,SMDPad,CuDef*%
G36*
G01*
X122425000Y-66637500D02*
X122425000Y-66162500D01*
G75*
G02*
X122662500Y-65925000I237500J0D01*
G01*
X123237500Y-65925000D01*
G75*
G02*
X123475000Y-66162500I0J-237500D01*
G01*
X123475000Y-66637500D01*
G75*
G02*
X123237500Y-66875000I-237500J0D01*
G01*
X122662500Y-66875000D01*
G75*
G02*
X122425000Y-66637500I0J237500D01*
G01*
G37*
%TD.AperFunction*%
%TD*%
%TO.P,R10,2*%
%TO.N,Net-(Q3-PadG)*%
%TA.AperFunction,SMDPad,CuDef*%
G36*
G01*
X115525000Y-69837500D02*
X115525000Y-69362500D01*
G75*
G02*
X115762500Y-69125000I237500J0D01*
G01*
X116337500Y-69125000D01*
G75*
G02*
X116575000Y-69362500I0J-237500D01*
G01*
X116575000Y-69837500D01*
G75*
G02*
X116337500Y-70075000I-237500J0D01*
G01*
X115762500Y-70075000D01*
G75*
G02*
X115525000Y-69837500I0J237500D01*
G01*
G37*
%TD.AperFunction*%
%TO.P,R10,1*%
%TO.N,GND*%
%TA.AperFunction,SMDPad,CuDef*%
G36*
G01*
X113775000Y-69837500D02*
X113775000Y-69362500D01*
G75*
G02*
X114012500Y-69125000I237500J0D01*
G01*
X114587500Y-69125000D01*
G75*
G02*
X114825000Y-69362500I0J-237500D01*
G01*
X114825000Y-69837500D01*
G75*
G02*
X114587500Y-70075000I-237500J0D01*
G01*
X114012500Y-70075000D01*
G75*
G02*
X113775000Y-69837500I0J237500D01*
G01*
G37*
%TD.AperFunction*%
%TD*%
%TO.P,R9,2*%
%TO.N,VBUS*%
%TA.AperFunction,SMDPad,CuDef*%
G36*
G01*
X111675000Y-75062500D02*
X111675000Y-75537500D01*
G75*
G02*
X111437500Y-75775000I-237500J0D01*
G01*
X110862500Y-75775000D01*
G75*
G02*
X110625000Y-75537500I0J237500D01*
G01*
X110625000Y-75062500D01*
G75*
G02*
X110862500Y-74825000I237500J0D01*
G01*
X111437500Y-74825000D01*
G75*
G02*
X111675000Y-75062500I0J-237500D01*
G01*
G37*
%TD.AperFunction*%
%TO.P,R9,1*%
%TO.N,Net-(Q3-PadG)*%
%TA.AperFunction,SMDPad,CuDef*%
G36*
G01*
X113425000Y-75062500D02*
X113425000Y-75537500D01*
G75*
G02*
X113187500Y-75775000I-237500J0D01*
G01*
X112612500Y-75775000D01*
G75*
G02*
X112375000Y-75537500I0J237500D01*
G01*
X112375000Y-75062500D01*
G75*
G02*
X112612500Y-74825000I237500J0D01*
G01*
X113187500Y-74825000D01*
G75*
G02*
X113425000Y-75062500I0J-237500D01*
G01*
G37*
%TD.AperFunction*%
%TD*%
%TO.P,R8,2*%
%TO.N,/BOOST_VIN*%
%TA.AperFunction,SMDPad,CuDef*%
G36*
G01*
X122687500Y-69275000D02*
X122212500Y-69275000D01*
G75*
G02*
X121975000Y-69037500I0J237500D01*
G01*
X121975000Y-68462500D01*
G75*
G02*
X122212500Y-68225000I237500J0D01*
G01*
X122687500Y-68225000D01*
G75*
G02*
X122925000Y-68462500I0J-237500D01*
G01*
X122925000Y-69037500D01*
G75*
G02*
X122687500Y-69275000I-237500J0D01*
G01*
G37*
%TD.AperFunction*%
%TO.P,R8,1*%
%TO.N,/BOOST_IND*%
%TA.AperFunction,SMDPad,CuDef*%
G36*
G01*
X122687500Y-71025000D02*
X122212500Y-71025000D01*
G75*
G02*
X121975000Y-70787500I0J237500D01*
G01*
X121975000Y-70212500D01*
G75*
G02*
X122212500Y-69975000I237500J0D01*
G01*
X122687500Y-69975000D01*
G75*
G02*
X122925000Y-70212500I0J-237500D01*
G01*
X122925000Y-70787500D01*
G75*
G02*
X122687500Y-71025000I-237500J0D01*
G01*
G37*
%TD.AperFunction*%
%TD*%
%TO.P,R7,2*%
%TO.N,GND*%
%TA.AperFunction,SMDPad,CuDef*%
G36*
G01*
X154762500Y-67475000D02*
X155237500Y-67475000D01*
G75*
G02*
X155475000Y-67712500I0J-237500D01*
G01*
X155475000Y-68287500D01*
G75*
G02*
X155237500Y-68525000I-237500J0D01*
G01*
X154762500Y-68525000D01*
G75*
G02*
X154525000Y-68287500I0J237500D01*
G01*
X154525000Y-67712500D01*
G75*
G02*
X154762500Y-67475000I237500J0D01*
G01*
G37*
%TD.AperFunction*%
%TO.P,R7,1*%
%TO.N,/VM*%
%TA.AperFunction,SMDPad,CuDef*%
G36*
G01*
X154762500Y-65725000D02*
X155237500Y-65725000D01*
G75*
G02*
X155475000Y-65962500I0J-237500D01*
G01*
X155475000Y-66537500D01*
G75*
G02*
X155237500Y-66775000I-237500J0D01*
G01*
X154762500Y-66775000D01*
G75*
G02*
X154525000Y-66537500I0J237500D01*
G01*
X154525000Y-65962500D01*
G75*
G02*
X154762500Y-65725000I237500J0D01*
G01*
G37*
%TD.AperFunction*%
%TD*%
%TO.P,R6,2*%
%TO.N,/+VBAT*%
%TA.AperFunction,SMDPad,CuDef*%
G36*
G01*
X148150000Y-61562500D02*
X148150000Y-62037500D01*
G75*
G02*
X147912500Y-62275000I-237500J0D01*
G01*
X147337500Y-62275000D01*
G75*
G02*
X147100000Y-62037500I0J237500D01*
G01*
X147100000Y-61562500D01*
G75*
G02*
X147337500Y-61325000I237500J0D01*
G01*
X147912500Y-61325000D01*
G75*
G02*
X148150000Y-61562500I0J-237500D01*
G01*
G37*
%TD.AperFunction*%
%TO.P,R6,1*%
%TO.N,/U2_VDD*%
%TA.AperFunction,SMDPad,CuDef*%
G36*
G01*
X149900000Y-61562500D02*
X149900000Y-62037500D01*
G75*
G02*
X149662500Y-62275000I-237500J0D01*
G01*
X149087500Y-62275000D01*
G75*
G02*
X148850000Y-62037500I0J237500D01*
G01*
X148850000Y-61562500D01*
G75*
G02*
X149087500Y-61325000I237500J0D01*
G01*
X149662500Y-61325000D01*
G75*
G02*
X149900000Y-61562500I0J-237500D01*
G01*
G37*
%TD.AperFunction*%
%TD*%
%TO.P,R5,2*%
%TO.N,GND*%
%TA.AperFunction,SMDPad,CuDef*%
G36*
G01*
X89087500Y-64150000D02*
X88612500Y-64150000D01*
G75*
G02*
X88375000Y-63912500I0J237500D01*
G01*
X88375000Y-63337500D01*
G75*
G02*
X88612500Y-63100000I237500J0D01*
G01*
X89087500Y-63100000D01*
G75*
G02*
X89325000Y-63337500I0J-237500D01*
G01*
X89325000Y-63912500D01*
G75*
G02*
X89087500Y-64150000I-237500J0D01*
G01*
G37*
%TD.AperFunction*%
%TO.P,R5,1*%
%TO.N,/ISET*%
%TA.AperFunction,SMDPad,CuDef*%
G36*
G01*
X89087500Y-65900000D02*
X88612500Y-65900000D01*
G75*
G02*
X88375000Y-65662500I0J237500D01*
G01*
X88375000Y-65087500D01*
G75*
G02*
X88612500Y-64850000I237500J0D01*
G01*
X89087500Y-64850000D01*
G75*
G02*
X89325000Y-65087500I0J-237500D01*
G01*
X89325000Y-65662500D01*
G75*
G02*
X89087500Y-65900000I-237500J0D01*
G01*
G37*
%TD.AperFunction*%
%TD*%
%TO.P,R4,2*%
%TO.N,/ISET2*%
%TA.AperFunction,SMDPad,CuDef*%
G36*
G01*
X95850000Y-63637500D02*
X95850000Y-63162500D01*
G75*
G02*
X96087500Y-62925000I237500J0D01*
G01*
X96662500Y-62925000D01*
G75*
G02*
X96900000Y-63162500I0J-237500D01*
G01*
X96900000Y-63637500D01*
G75*
G02*
X96662500Y-63875000I-237500J0D01*
G01*
X96087500Y-63875000D01*
G75*
G02*
X95850000Y-63637500I0J237500D01*
G01*
G37*
%TD.AperFunction*%
%TO.P,R4,1*%
%TO.N,GND*%
%TA.AperFunction,SMDPad,CuDef*%
G36*
G01*
X94100000Y-63637500D02*
X94100000Y-63162500D01*
G75*
G02*
X94337500Y-62925000I237500J0D01*
G01*
X94912500Y-62925000D01*
G75*
G02*
X95150000Y-63162500I0J-237500D01*
G01*
X95150000Y-63637500D01*
G75*
G02*
X94912500Y-63875000I-237500J0D01*
G01*
X94337500Y-63875000D01*
G75*
G02*
X94100000Y-63637500I0J237500D01*
G01*
G37*
%TD.AperFunction*%
%TD*%
%TO.P,R3,2*%
%TO.N,GND*%
%TA.AperFunction,SMDPad,CuDef*%
G36*
G01*
X91237500Y-64150000D02*
X90762500Y-64150000D01*
G75*
G02*
X90525000Y-63912500I0J237500D01*
G01*
X90525000Y-63337500D01*
G75*
G02*
X90762500Y-63100000I237500J0D01*
G01*
X91237500Y-63100000D01*
G75*
G02*
X91475000Y-63337500I0J-237500D01*
G01*
X91475000Y-63912500D01*
G75*
G02*
X91237500Y-64150000I-237500J0D01*
G01*
G37*
%TD.AperFunction*%
%TO.P,R3,1*%
%TO.N,/PRETERM*%
%TA.AperFunction,SMDPad,CuDef*%
G36*
G01*
X91237500Y-65900000D02*
X90762500Y-65900000D01*
G75*
G02*
X90525000Y-65662500I0J237500D01*
G01*
X90525000Y-65087500D01*
G75*
G02*
X90762500Y-64850000I237500J0D01*
G01*
X91237500Y-64850000D01*
G75*
G02*
X91475000Y-65087500I0J-237500D01*
G01*
X91475000Y-65662500D01*
G75*
G02*
X91237500Y-65900000I-237500J0D01*
G01*
G37*
%TD.AperFunction*%
%TD*%
D17*
%TO.P,Q3,G*%
%TO.N,Net-(Q3-PadG)*%
X115900000Y-71600000D03*
%TO.P,Q3,S*%
%TO.N,/BOOST_IND*%
X115900000Y-73500000D03*
%TO.P,Q3,D*%
%TO.N,+VBAT_CELL*%
X112900000Y-72550000D03*
%TD*%
D18*
%TO.P,Q2,G*%
%TO.N,/CO*%
X144000000Y-73250000D03*
%TO.P,Q2,S*%
%TO.N,GND*%
X142100000Y-73250000D03*
%TO.P,Q2,D*%
%TO.N,Net-(Q1-PadD)*%
X143050000Y-70250000D03*
%TD*%
%TO.P,Q1,G*%
%TO.N,/DO*%
X148500000Y-73250000D03*
%TO.P,Q1,S*%
%TO.N,/-VBAT*%
X146600000Y-73250000D03*
%TO.P,Q1,D*%
%TO.N,Net-(Q1-PadD)*%
X147550000Y-70250000D03*
%TD*%
D19*
%TO.P,L1,2*%
%TO.N,/BOOST_SW*%
X132200000Y-78200000D03*
%TO.P,L1,1*%
%TO.N,/BOOST_IND*%
X122200000Y-78200000D03*
%TD*%
D20*
%TO.P,J6,1*%
%TO.N,GND*%
X159000000Y-65800000D03*
%TD*%
%TO.P,J5,1*%
%TO.N,GND*%
X81900000Y-82300000D03*
%TD*%
%TO.P,J4,1*%
%TO.N,VOUT*%
X157200000Y-76400000D03*
%TD*%
%TO.P,J3,1*%
%TO.N,VBUS*%
X81900000Y-78100000D03*
%TD*%
D21*
%TO.P,J2,6*%
%TO.N,GND*%
X162710000Y-65930000D03*
%TO.P,J2,5*%
X162710000Y-79070000D03*
D22*
%TO.P,J2,4*%
X160000000Y-69000000D03*
%TO.P,J2,3*%
%TO.N,Net-(J2-Pad3)*%
X160000000Y-71500000D03*
%TO.P,J2,2*%
%TO.N,Net-(J2-Pad2)*%
X160000000Y-73500000D03*
D23*
%TO.P,J2,1*%
%TO.N,VOUT*%
X160000000Y-76000000D03*
%TD*%
D24*
%TO.P,J1,8*%
%TO.N,GND*%
X71500000Y-68300000D03*
%TO.P,J1,11*%
X71500000Y-76700000D03*
D25*
%TO.P,J1,7*%
X74500000Y-74850000D03*
%TO.P,J1,6*%
X74500000Y-70150000D03*
%TD*%
D26*
%TO.P,F1,1*%
%TO.N,/+VBAT*%
X86250000Y-73800000D03*
%TO.P,F1,2*%
%TO.N,+VBAT_CELL*%
X91500000Y-73800000D03*
%TD*%
D27*
%TO.P,D4,A*%
%TO.N,GND*%
X78400000Y-65800000D03*
%TO.P,D4,K*%
%TO.N,VBUS*%
X78400000Y-70000000D03*
%TD*%
D28*
%TO.P,D3,A*%
%TO.N,/BOOST_SW*%
X138400000Y-78800000D03*
%TO.P,D3,K*%
%TO.N,VOUT*%
X145800000Y-78800000D03*
%TD*%
%TO.P,D2,A*%
%TO.N,VBUS*%
X100200000Y-78900000D03*
%TO.P,D2,K*%
%TO.N,/BOOST_IND*%
X107600000Y-78900000D03*
%TD*%
D27*
%TO.P,D1,A*%
%TO.N,GND*%
X95500000Y-79500000D03*
%TO.P,D1,K*%
%TO.N,+VBAT_CELL*%
X95500000Y-75300000D03*
%TD*%
%TO.P,C10,2*%
%TO.N,GND*%
%TA.AperFunction,SMDPad,CuDef*%
G36*
G01*
X121512500Y-63775000D02*
X121987500Y-63775000D01*
G75*
G02*
X122225000Y-64012500I0J-237500D01*
G01*
X122225000Y-64587500D01*
G75*
G02*
X121987500Y-64825000I-237500J0D01*
G01*
X121512500Y-64825000D01*
G75*
G02*
X121275000Y-64587500I0J237500D01*
G01*
X121275000Y-64012500D01*
G75*
G02*
X121512500Y-63775000I237500J0D01*
G01*
G37*
%TD.AperFunction*%
%TO.P,C10,1*%
%TO.N,Net-(C10-Pad1)*%
%TA.AperFunction,SMDPad,CuDef*%
G36*
G01*
X121512500Y-62025000D02*
X121987500Y-62025000D01*
G75*
G02*
X122225000Y-62262500I0J-237500D01*
G01*
X122225000Y-62837500D01*
G75*
G02*
X121987500Y-63075000I-237500J0D01*
G01*
X121512500Y-63075000D01*
G75*
G02*
X121275000Y-62837500I0J237500D01*
G01*
X121275000Y-62262500D01*
G75*
G02*
X121512500Y-62025000I237500J0D01*
G01*
G37*
%TD.AperFunction*%
%TD*%
%TO.P,C9,2*%
%TO.N,GND*%
%TA.AperFunction,SMDPad,CuDef*%
G36*
G01*
X136962500Y-71025000D02*
X137437500Y-71025000D01*
G75*
G02*
X137675000Y-71262500I0J-237500D01*
G01*
X137675000Y-71837500D01*
G75*
G02*
X137437500Y-72075000I-237500J0D01*
G01*
X136962500Y-72075000D01*
G75*
G02*
X136725000Y-71837500I0J237500D01*
G01*
X136725000Y-71262500D01*
G75*
G02*
X136962500Y-71025000I237500J0D01*
G01*
G37*
%TD.AperFunction*%
%TO.P,C9,1*%
%TO.N,/BOOST_SS*%
%TA.AperFunction,SMDPad,CuDef*%
G36*
G01*
X136962500Y-69275000D02*
X137437500Y-69275000D01*
G75*
G02*
X137675000Y-69512500I0J-237500D01*
G01*
X137675000Y-70087500D01*
G75*
G02*
X137437500Y-70325000I-237500J0D01*
G01*
X136962500Y-70325000D01*
G75*
G02*
X136725000Y-70087500I0J237500D01*
G01*
X136725000Y-69512500D01*
G75*
G02*
X136962500Y-69275000I237500J0D01*
G01*
G37*
%TD.AperFunction*%
%TD*%
%TO.P,C8,2*%
%TO.N,GND*%
%TA.AperFunction,SMDPad,CuDef*%
G36*
G01*
X125075000Y-64062500D02*
X125075000Y-64537500D01*
G75*
G02*
X124837500Y-64775000I-237500J0D01*
G01*
X124262500Y-64775000D01*
G75*
G02*
X124025000Y-64537500I0J237500D01*
G01*
X124025000Y-64062500D01*
G75*
G02*
X124262500Y-63825000I237500J0D01*
G01*
X124837500Y-63825000D01*
G75*
G02*
X125075000Y-64062500I0J-237500D01*
G01*
G37*
%TD.AperFunction*%
%TO.P,C8,1*%
%TO.N,/BOOST_COMP*%
%TA.AperFunction,SMDPad,CuDef*%
G36*
G01*
X126825000Y-64062500D02*
X126825000Y-64537500D01*
G75*
G02*
X126587500Y-64775000I-237500J0D01*
G01*
X126012500Y-64775000D01*
G75*
G02*
X125775000Y-64537500I0J237500D01*
G01*
X125775000Y-64062500D01*
G75*
G02*
X126012500Y-63825000I237500J0D01*
G01*
X126587500Y-63825000D01*
G75*
G02*
X126825000Y-64062500I0J-237500D01*
G01*
G37*
%TD.AperFunction*%
%TD*%
%TO.P,C7,2*%
%TO.N,GND*%
%TA.AperFunction,SMDPad,CuDef*%
G36*
G01*
X150325000Y-81512500D02*
X152475000Y-81512500D01*
G75*
G02*
X152725000Y-81762500I0J-250000D01*
G01*
X152725000Y-82687500D01*
G75*
G02*
X152475000Y-82937500I-250000J0D01*
G01*
X150325000Y-82937500D01*
G75*
G02*
X150075000Y-82687500I0J250000D01*
G01*
X150075000Y-81762500D01*
G75*
G02*
X150325000Y-81512500I250000J0D01*
G01*
G37*
%TD.AperFunction*%
%TO.P,C7,1*%
%TO.N,VOUT*%
%TA.AperFunction,SMDPad,CuDef*%
G36*
G01*
X150325000Y-78537500D02*
X152475000Y-78537500D01*
G75*
G02*
X152725000Y-78787500I0J-250000D01*
G01*
X152725000Y-79712500D01*
G75*
G02*
X152475000Y-79962500I-250000J0D01*
G01*
X150325000Y-79962500D01*
G75*
G02*
X150075000Y-79712500I0J250000D01*
G01*
X150075000Y-78787500D01*
G75*
G02*
X150325000Y-78537500I250000J0D01*
G01*
G37*
%TD.AperFunction*%
%TD*%
%TO.P,C6,2*%
%TO.N,/BOOST_VIN*%
%TA.AperFunction,SMDPad,CuDef*%
G36*
G01*
X125287500Y-69300000D02*
X124812500Y-69300000D01*
G75*
G02*
X124575000Y-69062500I0J237500D01*
G01*
X124575000Y-68487500D01*
G75*
G02*
X124812500Y-68250000I237500J0D01*
G01*
X125287500Y-68250000D01*
G75*
G02*
X125525000Y-68487500I0J-237500D01*
G01*
X125525000Y-69062500D01*
G75*
G02*
X125287500Y-69300000I-237500J0D01*
G01*
G37*
%TD.AperFunction*%
%TO.P,C6,1*%
%TO.N,GND*%
%TA.AperFunction,SMDPad,CuDef*%
G36*
G01*
X125287500Y-71050000D02*
X124812500Y-71050000D01*
G75*
G02*
X124575000Y-70812500I0J237500D01*
G01*
X124575000Y-70237500D01*
G75*
G02*
X124812500Y-70000000I237500J0D01*
G01*
X125287500Y-70000000D01*
G75*
G02*
X125525000Y-70237500I0J-237500D01*
G01*
X125525000Y-70812500D01*
G75*
G02*
X125287500Y-71050000I-237500J0D01*
G01*
G37*
%TD.AperFunction*%
%TD*%
%TO.P,C5,1*%
%TO.N,/BOOST_IND*%
%TA.AperFunction,SMDPad,CuDef*%
G36*
G01*
X116549999Y-78875000D02*
X117450001Y-78875000D01*
G75*
G02*
X117700000Y-79124999I0J-249999D01*
G01*
X117700000Y-79775001D01*
G75*
G02*
X117450001Y-80025000I-249999J0D01*
G01*
X116549999Y-80025000D01*
G75*
G02*
X116300000Y-79775001I0J249999D01*
G01*
X116300000Y-79124999D01*
G75*
G02*
X116549999Y-78875000I249999J0D01*
G01*
G37*
%TD.AperFunction*%
%TO.P,C5,2*%
%TO.N,GND*%
%TA.AperFunction,SMDPad,CuDef*%
G36*
G01*
X116549999Y-80925000D02*
X117450001Y-80925000D01*
G75*
G02*
X117700000Y-81174999I0J-249999D01*
G01*
X117700000Y-81825001D01*
G75*
G02*
X117450001Y-82075000I-249999J0D01*
G01*
X116549999Y-82075000D01*
G75*
G02*
X116300000Y-81825001I0J249999D01*
G01*
X116300000Y-81174999D01*
G75*
G02*
X116549999Y-80925000I249999J0D01*
G01*
G37*
%TD.AperFunction*%
%TD*%
%TO.P,C4,2*%
%TO.N,GND*%
%TA.AperFunction,SMDPad,CuDef*%
G36*
G01*
X111325000Y-80975000D02*
X113475000Y-80975000D01*
G75*
G02*
X113725000Y-81225000I0J-250000D01*
G01*
X113725000Y-82150000D01*
G75*
G02*
X113475000Y-82400000I-250000J0D01*
G01*
X111325000Y-82400000D01*
G75*
G02*
X111075000Y-82150000I0J250000D01*
G01*
X111075000Y-81225000D01*
G75*
G02*
X111325000Y-80975000I250000J0D01*
G01*
G37*
%TD.AperFunction*%
%TO.P,C4,1*%
%TO.N,/BOOST_IND*%
%TA.AperFunction,SMDPad,CuDef*%
G36*
G01*
X111325000Y-78000000D02*
X113475000Y-78000000D01*
G75*
G02*
X113725000Y-78250000I0J-250000D01*
G01*
X113725000Y-79175000D01*
G75*
G02*
X113475000Y-79425000I-250000J0D01*
G01*
X111325000Y-79425000D01*
G75*
G02*
X111075000Y-79175000I0J250000D01*
G01*
X111075000Y-78250000D01*
G75*
G02*
X111325000Y-78000000I250000J0D01*
G01*
G37*
%TD.AperFunction*%
%TD*%
%TO.P,C3,2*%
%TO.N,/-VBAT*%
%TA.AperFunction,SMDPad,CuDef*%
G36*
G01*
X152625000Y-62037500D02*
X152625000Y-61562500D01*
G75*
G02*
X152862500Y-61325000I237500J0D01*
G01*
X153437500Y-61325000D01*
G75*
G02*
X153675000Y-61562500I0J-237500D01*
G01*
X153675000Y-62037500D01*
G75*
G02*
X153437500Y-62275000I-237500J0D01*
G01*
X152862500Y-62275000D01*
G75*
G02*
X152625000Y-62037500I0J237500D01*
G01*
G37*
%TD.AperFunction*%
%TO.P,C3,1*%
%TO.N,/U2_VDD*%
%TA.AperFunction,SMDPad,CuDef*%
G36*
G01*
X150875000Y-62037500D02*
X150875000Y-61562500D01*
G75*
G02*
X151112500Y-61325000I237500J0D01*
G01*
X151687500Y-61325000D01*
G75*
G02*
X151925000Y-61562500I0J-237500D01*
G01*
X151925000Y-62037500D01*
G75*
G02*
X151687500Y-62275000I-237500J0D01*
G01*
X151112500Y-62275000D01*
G75*
G02*
X150875000Y-62037500I0J237500D01*
G01*
G37*
%TD.AperFunction*%
%TD*%
%TO.P,C2,2*%
%TO.N,+VBAT_CELL*%
%TA.AperFunction,SMDPad,CuDef*%
G36*
G01*
X99437500Y-71350000D02*
X98962500Y-71350000D01*
G75*
G02*
X98725000Y-71112500I0J237500D01*
G01*
X98725000Y-70537500D01*
G75*
G02*
X98962500Y-70300000I237500J0D01*
G01*
X99437500Y-70300000D01*
G75*
G02*
X99675000Y-70537500I0J-237500D01*
G01*
X99675000Y-71112500D01*
G75*
G02*
X99437500Y-71350000I-237500J0D01*
G01*
G37*
%TD.AperFunction*%
%TO.P,C2,1*%
%TO.N,GND*%
%TA.AperFunction,SMDPad,CuDef*%
G36*
G01*
X99437500Y-73100000D02*
X98962500Y-73100000D01*
G75*
G02*
X98725000Y-72862500I0J237500D01*
G01*
X98725000Y-72287500D01*
G75*
G02*
X98962500Y-72050000I237500J0D01*
G01*
X99437500Y-72050000D01*
G75*
G02*
X99675000Y-72287500I0J-237500D01*
G01*
X99675000Y-72862500D01*
G75*
G02*
X99437500Y-73100000I-237500J0D01*
G01*
G37*
%TD.AperFunction*%
%TD*%
%TO.P,C1,2*%
%TO.N,GND*%
%TA.AperFunction,SMDPad,CuDef*%
G36*
G01*
X89087500Y-68375000D02*
X88612500Y-68375000D01*
G75*
G02*
X88375000Y-68137500I0J237500D01*
G01*
X88375000Y-67562500D01*
G75*
G02*
X88612500Y-67325000I237500J0D01*
G01*
X89087500Y-67325000D01*
G75*
G02*
X89325000Y-67562500I0J-237500D01*
G01*
X89325000Y-68137500D01*
G75*
G02*
X89087500Y-68375000I-237500J0D01*
G01*
G37*
%TD.AperFunction*%
%TO.P,C1,1*%
%TO.N,VBUS*%
%TA.AperFunction,SMDPad,CuDef*%
G36*
G01*
X89087500Y-70125000D02*
X88612500Y-70125000D01*
G75*
G02*
X88375000Y-69887500I0J237500D01*
G01*
X88375000Y-69312500D01*
G75*
G02*
X88612500Y-69075000I237500J0D01*
G01*
X89087500Y-69075000D01*
G75*
G02*
X89325000Y-69312500I0J-237500D01*
G01*
X89325000Y-69887500D01*
G75*
G02*
X89087500Y-70125000I-237500J0D01*
G01*
G37*
%TD.AperFunction*%
%TD*%
D29*
%TO.N,/+VBAT*%
X83600000Y-67900000D03*
%TO.N,GND*%
X144000000Y-75250000D03*
X143250000Y-75250000D03*
X142500000Y-75250000D03*
X141750000Y-74500000D03*
X142500000Y-74500000D03*
X141750000Y-75250000D03*
X142500000Y-76000000D03*
X143250000Y-76000000D03*
X144000000Y-76000000D03*
X137750000Y-72500000D03*
X95800000Y-70800000D03*
X95000000Y-70800000D03*
X94200000Y-70800000D03*
X94200000Y-71600000D03*
X95000000Y-71600000D03*
X95800000Y-71600000D03*
X95800000Y-72400000D03*
X95000000Y-72400000D03*
X94200000Y-72400000D03*
X93400000Y-71600000D03*
X93400000Y-72400000D03*
X95800000Y-70000000D03*
X95000000Y-70000000D03*
X94200000Y-70000000D03*
X94200000Y-67200000D03*
X95000000Y-67200000D03*
X95800000Y-67200000D03*
X96000000Y-66400000D03*
X95200000Y-66400000D03*
X94400000Y-66400000D03*
X93600000Y-66400000D03*
X96800000Y-66400000D03*
X97600000Y-66400000D03*
X97600000Y-65600000D03*
X96800000Y-65600000D03*
X96000000Y-65600000D03*
X95200000Y-65600000D03*
X94400000Y-65600000D03*
X93600000Y-65600000D03*
X93600000Y-64800000D03*
X94400000Y-64800000D03*
X95200000Y-64800000D03*
X96000000Y-64800000D03*
X96800000Y-64800000D03*
X130400000Y-70400000D03*
X131300000Y-70400000D03*
X132200000Y-70400000D03*
X130400000Y-71200000D03*
X131300000Y-71200000D03*
X132200000Y-71200000D03*
X132200000Y-72000000D03*
X131300000Y-72000000D03*
X130400000Y-72000000D03*
X129400000Y-72000000D03*
X132200000Y-72800000D03*
X131300000Y-72800000D03*
X130400000Y-72800000D03*
X129400000Y-72800000D03*
X129400000Y-73600000D03*
X130400000Y-73600000D03*
X131300000Y-73600000D03*
X132200000Y-73600000D03*
X132400000Y-65400000D03*
X131600000Y-65400000D03*
X130800000Y-65400000D03*
X130800000Y-64600000D03*
X131600000Y-64600000D03*
X132400000Y-64600000D03*
X132400000Y-63800000D03*
X133200000Y-64600000D03*
X130000000Y-64600000D03*
X130800000Y-63800000D03*
X131600000Y-63800000D03*
X130000000Y-63800000D03*
X133200000Y-63800000D03*
X129200000Y-64600000D03*
X134000000Y-64600000D03*
X132400000Y-63000000D03*
X131600000Y-63000000D03*
X130800000Y-63000000D03*
X129200000Y-63800000D03*
X130000000Y-63000000D03*
X134000000Y-63800000D03*
X133200000Y-63000000D03*
X120400000Y-72300000D03*
X153400000Y-68000000D03*
X153400000Y-69800000D03*
X155200000Y-69800000D03*
X112800000Y-69800000D03*
X114400000Y-68600000D03*
X112800000Y-68600000D03*
X110200000Y-68600000D03*
X101800000Y-68600000D03*
X101400000Y-74400000D03*
X88800000Y-66600000D03*
X87600000Y-66400000D03*
X86200000Y-66400000D03*
X84800000Y-66400000D03*
X84800000Y-67400000D03*
X84800000Y-64900000D03*
X86200000Y-64900000D03*
X87600000Y-64900000D03*
X103100000Y-72000000D03*
X98800000Y-73800000D03*
X85000000Y-83400000D03*
X87000000Y-83400000D03*
X89000000Y-83400000D03*
X91000000Y-83400000D03*
X93000000Y-83400000D03*
X95000000Y-83400000D03*
X97000000Y-83400000D03*
X99000000Y-83400000D03*
X101000000Y-83400000D03*
X103000000Y-83400000D03*
X105000000Y-83400000D03*
X107000000Y-83400000D03*
X109000000Y-83400000D03*
X111000000Y-83400000D03*
X113000000Y-83400000D03*
X115000000Y-83400000D03*
X117000000Y-83400000D03*
X119000000Y-83400000D03*
X121000000Y-83400000D03*
X123000000Y-83400000D03*
X125000000Y-83400000D03*
X127000000Y-83400000D03*
X129000000Y-83400000D03*
X131000000Y-83400000D03*
X133000000Y-83400000D03*
X135000000Y-83400000D03*
X137000000Y-83400000D03*
X139000000Y-83400000D03*
X141000000Y-83400000D03*
X143000000Y-83400000D03*
X145000000Y-83400000D03*
X147000000Y-83400000D03*
X149000000Y-83400000D03*
X151000000Y-83400000D03*
X153000000Y-83400000D03*
X155000000Y-83400000D03*
X157000000Y-83400000D03*
X159000000Y-83400000D03*
X161000000Y-83400000D03*
X163000000Y-83400000D03*
X100600000Y-62400000D03*
X102600000Y-62400000D03*
X104600000Y-62400000D03*
X106600000Y-62400000D03*
X108600000Y-62400000D03*
X110600000Y-62400000D03*
X112600000Y-62400000D03*
X114600000Y-62400000D03*
X116600000Y-62400000D03*
X118600000Y-62400000D03*
X102600000Y-64400000D03*
X104600000Y-64400000D03*
X106600000Y-64400000D03*
X108600000Y-64400000D03*
X110600000Y-64400000D03*
X112600000Y-64400000D03*
X114600000Y-64400000D03*
X116600000Y-64400000D03*
X118600000Y-64400000D03*
X120600000Y-64400000D03*
X102600000Y-66400000D03*
X104600000Y-66400000D03*
X106600000Y-66400000D03*
X108600000Y-66400000D03*
X110600000Y-66400000D03*
X112600000Y-66400000D03*
X114600000Y-66400000D03*
X116600000Y-66400000D03*
X118600000Y-66400000D03*
X120600000Y-66400000D03*
X156200000Y-61400000D03*
X157600000Y-61400000D03*
X159600000Y-61400000D03*
X161600000Y-61400000D03*
X163600000Y-61400000D03*
X155600000Y-63400000D03*
X157600000Y-63400000D03*
X159600000Y-63400000D03*
X161600000Y-63400000D03*
X163600000Y-63400000D03*
X93000000Y-82200000D03*
X95000000Y-82200000D03*
X97000000Y-82200000D03*
X99000000Y-82200000D03*
X101000000Y-82200000D03*
X103000000Y-82200000D03*
X105000000Y-82200000D03*
X107000000Y-82200000D03*
X109000000Y-82200000D03*
X115000000Y-82200000D03*
X119000000Y-82200000D03*
X121000000Y-82200000D03*
X123000000Y-82200000D03*
X125000000Y-82200000D03*
X127000000Y-82200000D03*
X129000000Y-82200000D03*
X131000000Y-82200000D03*
X133000000Y-82200000D03*
X135000000Y-82200000D03*
X137000000Y-82200000D03*
X139000000Y-82200000D03*
X141000000Y-82200000D03*
X143000000Y-82200000D03*
X145000000Y-82200000D03*
X147000000Y-82200000D03*
X149000000Y-82200000D03*
X153600000Y-82200000D03*
X159000000Y-82200000D03*
X161000000Y-82200000D03*
X163000000Y-82200000D03*
X87000000Y-82200000D03*
X85000000Y-82200000D03*
X85000000Y-80800000D03*
X87000000Y-80800000D03*
X87000000Y-79400000D03*
X85000000Y-79400000D03*
X85000000Y-78000000D03*
X87000000Y-78000000D03*
X87000000Y-76600000D03*
X85000000Y-76600000D03*
X79800000Y-80800000D03*
X79800000Y-82200000D03*
X79800000Y-83400000D03*
X79800000Y-64800000D03*
X79800000Y-67000000D03*
X76800000Y-67000000D03*
X79800000Y-65800000D03*
X78800000Y-83400000D03*
X78800000Y-82200000D03*
X78800000Y-80800000D03*
X125800000Y-74800000D03*
X127400000Y-74800000D03*
X128800000Y-74800000D03*
X125800000Y-76800000D03*
X125800000Y-78800000D03*
X125800000Y-80800000D03*
X128800000Y-76800000D03*
X128800000Y-78800000D03*
X128800000Y-80800000D03*
X127400000Y-76800000D03*
X127400000Y-78800000D03*
X127400000Y-80800000D03*
X124600000Y-72000000D03*
X126200000Y-72000000D03*
X127800000Y-72000000D03*
X128800000Y-71000000D03*
X127800000Y-73200000D03*
X126200000Y-73200000D03*
X124600000Y-73200000D03*
X138400000Y-63800000D03*
X140200000Y-65400000D03*
X135200000Y-64600000D03*
X136600000Y-63800000D03*
X140200000Y-63800000D03*
X142800000Y-67600000D03*
X145200000Y-67600000D03*
X147800000Y-67600000D03*
X148600000Y-66000000D03*
X148600000Y-63800000D03*
X142600000Y-62200000D03*
X142600000Y-64200000D03*
X142600000Y-66000000D03*
X140200000Y-62200000D03*
X138400000Y-62200000D03*
X136800000Y-62200000D03*
X135200000Y-62200000D03*
X135200000Y-63400000D03*
X156800000Y-73600000D03*
X156800000Y-72000000D03*
X168000000Y-65700000D03*
X165800000Y-65700000D03*
X165800000Y-66900000D03*
X168000000Y-66900000D03*
X168000000Y-78000000D03*
X166000000Y-78000000D03*
X166000000Y-79600000D03*
X168000000Y-79600000D03*
X120400000Y-70600000D03*
X120400000Y-68400000D03*
X120400000Y-74200000D03*
X118800000Y-74200000D03*
X70800000Y-69800000D03*
X72000000Y-69800000D03*
X70800000Y-75200000D03*
X72000000Y-75200000D03*
X77800000Y-79800000D03*
X77000000Y-79000000D03*
X81200000Y-67000000D03*
X82400000Y-67000000D03*
X138400000Y-71000000D03*
X138400000Y-69600000D03*
X93500000Y-63500000D03*
X90000000Y-63700000D03*
X87600000Y-63700000D03*
X126400000Y-70700000D03*
X127100000Y-69800000D03*
X168000000Y-76900000D03*
X168000000Y-67900000D03*
X93000000Y-81100000D03*
X93000000Y-79900000D03*
X93000000Y-78700000D03*
X76800000Y-65900000D03*
X105100000Y-72000000D03*
X107100000Y-72000000D03*
X109100000Y-72000000D03*
X103100000Y-74000000D03*
X105100000Y-74000000D03*
X107100000Y-74000000D03*
X109100000Y-74000000D03*
X98800000Y-75700000D03*
X100800000Y-75700000D03*
X102800000Y-75700000D03*
%TO.N,VBUS*%
X76750000Y-72750000D03*
X76750000Y-74250000D03*
X76750000Y-73500000D03*
X76750000Y-72000000D03*
X78200000Y-73500000D03*
X77450000Y-73500000D03*
X78200000Y-74250000D03*
X77450000Y-74250000D03*
X77450000Y-72000000D03*
X78200000Y-72000000D03*
X78200000Y-72750000D03*
X77450000Y-72750000D03*
%TO.N,/NTC*%
X117800000Y-69700010D03*
%TO.N,/~CHG*%
X81600016Y-62500000D03*
X93200000Y-62500000D03*
X75334000Y-82460000D03*
%TO.N,/~PG*%
X86399998Y-61800000D03*
%TD*%
D30*
%TO.N,/-VBAT*%
X153100000Y-61850000D02*
X153150000Y-61800000D01*
X153100000Y-64500000D02*
X153100000Y-61850000D01*
X152000000Y-64500000D02*
X153100000Y-64500000D01*
X156400000Y-70210000D02*
X154110000Y-72500000D01*
X156400000Y-65400000D02*
X156400000Y-70210000D01*
X153100000Y-64500000D02*
X155500000Y-64500000D01*
X155500000Y-64500000D02*
X156400000Y-65400000D01*
%TO.N,/+VBAT*%
X84500000Y-60900000D02*
X83600000Y-61800000D01*
X147625000Y-61800000D02*
X146725000Y-60900000D01*
X83600000Y-61800000D02*
X83600000Y-67900000D01*
X146725000Y-60900000D02*
X84500000Y-60900000D01*
D31*
%TO.N,GND*%
X137500000Y-72500000D02*
X137750000Y-72500000D01*
X137200000Y-71550000D02*
X137200000Y-72200000D01*
X137200000Y-72200000D02*
X137500000Y-72500000D01*
D32*
X92637500Y-68650000D02*
X95000000Y-68650000D01*
D31*
X94625000Y-63400000D02*
X93600000Y-63400000D01*
X93600000Y-63400000D02*
X93500000Y-63500000D01*
X91000000Y-63625000D02*
X90075000Y-63625000D01*
X90075000Y-63625000D02*
X90000000Y-63700000D01*
X88850000Y-63625000D02*
X87675000Y-63625000D01*
X87675000Y-63625000D02*
X87600000Y-63700000D01*
X86300000Y-66500000D02*
X86200000Y-66400000D01*
X86300000Y-67575000D02*
X86300000Y-66500000D01*
X88850000Y-66650000D02*
X88800000Y-66600000D01*
X88850000Y-67850000D02*
X88850000Y-66650000D01*
X99200000Y-73400000D02*
X98800000Y-73800000D01*
X99200000Y-72575000D02*
X99200000Y-73400000D01*
X101400000Y-72925000D02*
X101400000Y-74400000D01*
X113000000Y-69600000D02*
X112800000Y-69800000D01*
X114300000Y-69600000D02*
X113000000Y-69600000D01*
X125050000Y-70525000D02*
X126225000Y-70525000D01*
X126225000Y-70525000D02*
X126400000Y-70700000D01*
X128750000Y-69905000D02*
X127205000Y-69905000D01*
X127205000Y-69905000D02*
X127100000Y-69800000D01*
X120700000Y-64300000D02*
X120600000Y-64400000D01*
X121750000Y-64300000D02*
X120700000Y-64300000D01*
X138400000Y-65600000D02*
X138400000Y-63800000D01*
X151400000Y-83000000D02*
X151000000Y-83400000D01*
X151400000Y-82225000D02*
X151400000Y-83000000D01*
X155800000Y-82600000D02*
X155000000Y-83400000D01*
X155800000Y-82225000D02*
X155800000Y-82600000D01*
X168000000Y-75750000D02*
X168000000Y-76900000D01*
X168000000Y-69250000D02*
X168000000Y-67900000D01*
X155000000Y-69600000D02*
X155200000Y-69800000D01*
X155000000Y-68000000D02*
X155000000Y-69600000D01*
X117000000Y-81500000D02*
X117000000Y-83400000D01*
X112400000Y-82800000D02*
X113000000Y-83400000D01*
X112400000Y-81687500D02*
X112400000Y-82800000D01*
X95500000Y-81700000D02*
X95000000Y-82200000D01*
X95500000Y-79500000D02*
X95500000Y-81700000D01*
X78400000Y-65800000D02*
X79800000Y-65800000D01*
%TO.N,VBUS*%
X92637500Y-69650000D02*
X90350000Y-69650000D01*
D32*
X111150000Y-75300000D02*
X105900000Y-75300000D01*
X100500000Y-78600000D02*
X100200000Y-78900000D01*
X102600000Y-78600000D02*
X100500000Y-78600000D01*
X105900000Y-75300000D02*
X102600000Y-78600000D01*
D31*
%TO.N,+VBAT_CELL*%
X98025000Y-69650000D02*
X99200000Y-70825000D01*
X97362500Y-69650000D02*
X98025000Y-69650000D01*
D30*
%TO.N,/U2_VDD*%
X151400000Y-61800000D02*
X149375000Y-61800000D01*
X151050000Y-62150000D02*
X151050000Y-64500000D01*
X151400000Y-61800000D02*
X151050000Y-62150000D01*
%TO.N,/BOOST_IND*%
X122450000Y-77950000D02*
X122200000Y-78200000D01*
X122450000Y-70500000D02*
X122450000Y-77950000D01*
D31*
X115900000Y-73500000D02*
X115900000Y-75150000D01*
D30*
%TO.N,/BOOST_VIN*%
X125190000Y-68635000D02*
X125050000Y-68775000D01*
X128750000Y-68635000D02*
X125190000Y-68635000D01*
X122450000Y-66900000D02*
X122950000Y-66400000D01*
X122450000Y-68750000D02*
X122450000Y-66900000D01*
X125025000Y-68750000D02*
X125050000Y-68775000D01*
X122450000Y-68750000D02*
X125025000Y-68750000D01*
D32*
%TO.N,VOUT*%
X160250000Y-75750000D02*
X160000000Y-76000000D01*
X165750000Y-75750000D02*
X160250000Y-75750000D01*
X139700000Y-71550000D02*
X139700000Y-74950000D01*
X143550000Y-78800000D02*
X145800000Y-78800000D01*
X139700000Y-74950000D02*
X143550000Y-78800000D01*
X158400000Y-75400000D02*
X158500000Y-75500000D01*
X162850000Y-69250000D02*
X161900000Y-70200000D01*
X158900000Y-70200000D02*
X158400000Y-70700000D01*
X165750000Y-69250000D02*
X162850000Y-69250000D01*
X158400000Y-70700000D02*
X158400000Y-75400000D01*
X161900000Y-70200000D02*
X158900000Y-70200000D01*
%TO.N,/BOOST_COMP*%
X128095000Y-66095000D02*
X126300000Y-64300000D01*
X128750000Y-66095000D02*
X128095000Y-66095000D01*
X126300000Y-64300000D02*
X126300000Y-62500000D01*
%TO.N,/BOOST_SS*%
X136035000Y-68635000D02*
X134250000Y-68635000D01*
X137200000Y-69800000D02*
X136035000Y-68635000D01*
%TO.N,Net-(C10-Pad1)*%
X121800000Y-62500000D02*
X121750000Y-62550000D01*
X124550000Y-62500000D02*
X121800000Y-62500000D01*
D33*
%TO.N,/BOOST_SW*%
X137800000Y-78200000D02*
X138400000Y-78800000D01*
D32*
%TO.N,Net-(J2-Pad3)*%
X160000000Y-71500000D02*
X163500000Y-71500000D01*
X165250000Y-71500000D02*
X165750000Y-71000000D01*
X163500000Y-71500000D02*
X165250000Y-71500000D01*
X165750000Y-71000000D02*
X168000000Y-71000000D01*
%TO.N,Net-(J2-Pad2)*%
X163250000Y-73500000D02*
X163500000Y-73250000D01*
X160000000Y-73500000D02*
X163250000Y-73500000D01*
X165000000Y-73250000D02*
X165750000Y-74000000D01*
X163500000Y-73250000D02*
X165000000Y-73250000D01*
X165750000Y-74000000D02*
X168000000Y-74000000D01*
%TO.N,/NTC*%
X117800000Y-69100000D02*
X117800000Y-69700010D01*
X116300000Y-67600000D02*
X117800000Y-69100000D01*
X101150000Y-67600000D02*
X116300000Y-67600000D01*
X97362500Y-69150000D02*
X99600000Y-69150000D01*
X99600000Y-69150000D02*
X101150000Y-67600000D01*
%TO.N,/DO*%
X148500000Y-73250000D02*
X149450000Y-73250000D01*
X152000000Y-70700000D02*
X152000000Y-67400000D01*
X149450000Y-73250000D02*
X152000000Y-70700000D01*
%TO.N,/CO*%
X144000000Y-73250000D02*
X144000000Y-73000000D01*
X145550000Y-71700000D02*
X144000000Y-73250000D01*
X150100000Y-67400000D02*
X150100000Y-70050000D01*
X148450000Y-71700000D02*
X145550000Y-71700000D01*
X150100000Y-70050000D02*
X148450000Y-71700000D01*
%TO.N,Net-(Q3-PadG)*%
X116050000Y-71450000D02*
X115900000Y-71600000D01*
X116050000Y-69550000D02*
X116050000Y-71450000D01*
X115400000Y-71600000D02*
X115900000Y-71600000D01*
X114400000Y-72600000D02*
X115400000Y-71600000D01*
X114400000Y-74800000D02*
X114400000Y-72600000D01*
X112900000Y-75300000D02*
X113900000Y-75300000D01*
X113900000Y-75300000D02*
X114400000Y-74800000D01*
%TO.N,/~CHG*%
X100100000Y-67500000D02*
X100100000Y-64800000D01*
X97362500Y-68650000D02*
X98950000Y-68650000D01*
X97800000Y-62500000D02*
X93200000Y-62500000D01*
X100100000Y-64800000D02*
X97800000Y-62500000D01*
X98950000Y-68650000D02*
X100100000Y-67500000D01*
X75334000Y-80428000D02*
X75334000Y-82460000D01*
X72900000Y-68669998D02*
X72900000Y-77994000D01*
X72900000Y-77994000D02*
X75334000Y-80428000D01*
X81600016Y-62500000D02*
X79069998Y-62500000D01*
X79069998Y-62500000D02*
X72900000Y-68669998D01*
%TO.N,/~PG*%
X92637500Y-67650000D02*
X92637500Y-63899502D01*
X92637500Y-63899502D02*
X90537998Y-61800000D01*
X90537998Y-61800000D02*
X86399998Y-61800000D01*
%TO.N,/PRETERM*%
X91000000Y-65375000D02*
X91000000Y-67750000D01*
X91400000Y-68150000D02*
X92637500Y-68150000D01*
X91000000Y-67750000D02*
X91400000Y-68150000D01*
%TO.N,/ISET2*%
X97600000Y-63400000D02*
X96400000Y-63400000D01*
X99300000Y-65100000D02*
X97600000Y-63400000D01*
X99300000Y-67150000D02*
X99300000Y-65100000D01*
X97362500Y-68150000D02*
X98300000Y-68150000D01*
X98300000Y-68150000D02*
X99300000Y-67150000D01*
%TO.N,/ISET*%
X90050000Y-66575000D02*
X88850000Y-65375000D01*
X92637500Y-69150000D02*
X91450000Y-69150000D01*
X90050000Y-67750000D02*
X90050000Y-66575000D01*
X91450000Y-69150000D02*
X90050000Y-67750000D01*
%TO.N,/VM*%
X151300000Y-66100000D02*
X154950000Y-66100000D01*
X151050000Y-67400000D02*
X151050000Y-66350000D01*
X151050000Y-66350000D02*
X151300000Y-66100000D01*
D30*
%TO.N,/BOOST_EN*%
X124700000Y-66400000D02*
X125850000Y-66400000D01*
X126815000Y-67365000D02*
X128750000Y-67365000D01*
X125850000Y-66400000D02*
X126815000Y-67365000D01*
D32*
%TO.N,/BOOST_FB*%
X139700000Y-68650000D02*
X138400000Y-67350000D01*
X139700000Y-69800000D02*
X139700000Y-68650000D01*
X134265000Y-67350000D02*
X134250000Y-67365000D01*
X138400000Y-67350000D02*
X134265000Y-67350000D01*
%TD*%
D34*
%TO.N,VBUS*%
G36*
X90347186Y-68926792D02*
G01*
X91010197Y-69589803D01*
X91029443Y-69605597D01*
X91051399Y-69617333D01*
X91075224Y-69624560D01*
X91100000Y-69627000D01*
X91121696Y-69627000D01*
X91127885Y-69632079D01*
X91228124Y-69685657D01*
X91272782Y-69699204D01*
X91336888Y-69718651D01*
X91394886Y-69724363D01*
X91421664Y-69727000D01*
X91421669Y-69727000D01*
X91450000Y-69729790D01*
X91478331Y-69727000D01*
X91954023Y-69727000D01*
X91975000Y-69729066D01*
X93273000Y-69729066D01*
X93273000Y-70437465D01*
X92706805Y-70873000D01*
X90300000Y-70873000D01*
X90275224Y-70875440D01*
X90251399Y-70882667D01*
X90229443Y-70894403D01*
X90210197Y-70910197D01*
X89710197Y-71410197D01*
X89694403Y-71429443D01*
X89682667Y-71451399D01*
X89675440Y-71475224D01*
X89673000Y-71500000D01*
X89673000Y-75800000D01*
X89675440Y-75824776D01*
X89682667Y-75848601D01*
X89694403Y-75870557D01*
X89710197Y-75889803D01*
X90110197Y-76289803D01*
X90129443Y-76305597D01*
X90151399Y-76317333D01*
X90175224Y-76324560D01*
X90200000Y-76327000D01*
X92363576Y-76327000D01*
X93132690Y-76807696D01*
X93154994Y-76818758D01*
X93179027Y-76825256D01*
X93200000Y-76827000D01*
X94449500Y-76827000D01*
X94485804Y-76846405D01*
X94566293Y-76870822D01*
X94650000Y-76879066D01*
X96350000Y-76879066D01*
X96433707Y-76870822D01*
X96514196Y-76846405D01*
X96550500Y-76827000D01*
X101647394Y-76827000D01*
X102073000Y-77252606D01*
X102073000Y-80747394D01*
X101747394Y-81073000D01*
X98452606Y-81073000D01*
X98127000Y-80747394D01*
X98127000Y-78800000D01*
X98124560Y-78775224D01*
X98117333Y-78751399D01*
X98105597Y-78729443D01*
X98089803Y-78710197D01*
X97289803Y-77910197D01*
X97270557Y-77894403D01*
X97248601Y-77882667D01*
X97224776Y-77875440D01*
X97200000Y-77873000D01*
X89552606Y-77873000D01*
X88127000Y-76447394D01*
X88127000Y-71500000D01*
X88124560Y-71475224D01*
X88117333Y-71451399D01*
X88105597Y-71429443D01*
X88081303Y-71402436D01*
X87481303Y-70902436D01*
X87460707Y-70888449D01*
X87437778Y-70878749D01*
X87413398Y-70873709D01*
X87400000Y-70873000D01*
X79750000Y-70873000D01*
X79725224Y-70875440D01*
X79701399Y-70882667D01*
X79679443Y-70894403D01*
X79660197Y-70910197D01*
X78910197Y-71660197D01*
X78894403Y-71679443D01*
X78882667Y-71701399D01*
X78875440Y-71725224D01*
X78873000Y-71750000D01*
X78873000Y-75500000D01*
X78875440Y-75524776D01*
X78882667Y-75548601D01*
X78894403Y-75570557D01*
X78910197Y-75589803D01*
X78923800Y-75601600D01*
X79923800Y-76351600D01*
X79945085Y-76364514D01*
X79968481Y-76373027D01*
X80000000Y-76377000D01*
X83447394Y-76377000D01*
X83873000Y-76802606D01*
X83873000Y-79447394D01*
X83447394Y-79873000D01*
X80049002Y-79873000D01*
X76377000Y-76543718D01*
X76377000Y-70792333D01*
X77813312Y-68877251D01*
X90347186Y-68926792D01*
G37*
X90347186Y-68926792D02*
X91010197Y-69589803D01*
X91029443Y-69605597D01*
X91051399Y-69617333D01*
X91075224Y-69624560D01*
X91100000Y-69627000D01*
X91121696Y-69627000D01*
X91127885Y-69632079D01*
X91228124Y-69685657D01*
X91272782Y-69699204D01*
X91336888Y-69718651D01*
X91394886Y-69724363D01*
X91421664Y-69727000D01*
X91421669Y-69727000D01*
X91450000Y-69729790D01*
X91478331Y-69727000D01*
X91954023Y-69727000D01*
X91975000Y-69729066D01*
X93273000Y-69729066D01*
X93273000Y-70437465D01*
X92706805Y-70873000D01*
X90300000Y-70873000D01*
X90275224Y-70875440D01*
X90251399Y-70882667D01*
X90229443Y-70894403D01*
X90210197Y-70910197D01*
X89710197Y-71410197D01*
X89694403Y-71429443D01*
X89682667Y-71451399D01*
X89675440Y-71475224D01*
X89673000Y-71500000D01*
X89673000Y-75800000D01*
X89675440Y-75824776D01*
X89682667Y-75848601D01*
X89694403Y-75870557D01*
X89710197Y-75889803D01*
X90110197Y-76289803D01*
X90129443Y-76305597D01*
X90151399Y-76317333D01*
X90175224Y-76324560D01*
X90200000Y-76327000D01*
X92363576Y-76327000D01*
X93132690Y-76807696D01*
X93154994Y-76818758D01*
X93179027Y-76825256D01*
X93200000Y-76827000D01*
X94449500Y-76827000D01*
X94485804Y-76846405D01*
X94566293Y-76870822D01*
X94650000Y-76879066D01*
X96350000Y-76879066D01*
X96433707Y-76870822D01*
X96514196Y-76846405D01*
X96550500Y-76827000D01*
X101647394Y-76827000D01*
X102073000Y-77252606D01*
X102073000Y-80747394D01*
X101747394Y-81073000D01*
X98452606Y-81073000D01*
X98127000Y-80747394D01*
X98127000Y-78800000D01*
X98124560Y-78775224D01*
X98117333Y-78751399D01*
X98105597Y-78729443D01*
X98089803Y-78710197D01*
X97289803Y-77910197D01*
X97270557Y-77894403D01*
X97248601Y-77882667D01*
X97224776Y-77875440D01*
X97200000Y-77873000D01*
X89552606Y-77873000D01*
X88127000Y-76447394D01*
X88127000Y-71500000D01*
X88124560Y-71475224D01*
X88117333Y-71451399D01*
X88105597Y-71429443D01*
X88081303Y-71402436D01*
X87481303Y-70902436D01*
X87460707Y-70888449D01*
X87437778Y-70878749D01*
X87413398Y-70873709D01*
X87400000Y-70873000D01*
X79750000Y-70873000D01*
X79725224Y-70875440D01*
X79701399Y-70882667D01*
X79679443Y-70894403D01*
X79660197Y-70910197D01*
X78910197Y-71660197D01*
X78894403Y-71679443D01*
X78882667Y-71701399D01*
X78875440Y-71725224D01*
X78873000Y-71750000D01*
X78873000Y-75500000D01*
X78875440Y-75524776D01*
X78882667Y-75548601D01*
X78894403Y-75570557D01*
X78910197Y-75589803D01*
X78923800Y-75601600D01*
X79923800Y-76351600D01*
X79945085Y-76364514D01*
X79968481Y-76373027D01*
X80000000Y-76377000D01*
X83447394Y-76377000D01*
X83873000Y-76802606D01*
X83873000Y-79447394D01*
X83447394Y-79873000D01*
X80049002Y-79873000D01*
X76377000Y-76543718D01*
X76377000Y-70792333D01*
X77813312Y-68877251D01*
X90347186Y-68926792D01*
%TO.N,+VBAT_CELL*%
G36*
X113873000Y-71806180D02*
G01*
X113873000Y-72361930D01*
X113864344Y-72378124D01*
X113831349Y-72486889D01*
X113820210Y-72600000D01*
X113823001Y-72628341D01*
X113823001Y-73373000D01*
X111377000Y-73373000D01*
X111377000Y-72250000D01*
X111374560Y-72225224D01*
X111367333Y-72201399D01*
X111355597Y-72179443D01*
X111339803Y-72160197D01*
X111320447Y-72144330D01*
X109820447Y-71144330D01*
X109798478Y-71132617D01*
X109774646Y-71125414D01*
X109750000Y-71123000D01*
X98750000Y-71123000D01*
X98725224Y-71125440D01*
X98701399Y-71132667D01*
X98679443Y-71144403D01*
X98660197Y-71160197D01*
X97910197Y-71910197D01*
X97894403Y-71929443D01*
X97882667Y-71951399D01*
X97875440Y-71975224D01*
X97873000Y-72000000D01*
X97873000Y-74464822D01*
X97178093Y-75623000D01*
X91552606Y-75623000D01*
X91377000Y-75447394D01*
X91377000Y-72377000D01*
X92447394Y-72377000D01*
X92714010Y-72643616D01*
X92755741Y-72744364D01*
X92835302Y-72863436D01*
X92936564Y-72964698D01*
X93055636Y-73044259D01*
X93156384Y-73085990D01*
X93410197Y-73339803D01*
X93429443Y-73355597D01*
X93451399Y-73367333D01*
X93475224Y-73374560D01*
X93500000Y-73377000D01*
X96000000Y-73377000D01*
X96024776Y-73374560D01*
X96048601Y-73367333D01*
X96070447Y-73355670D01*
X96820447Y-72855670D01*
X96839709Y-72839896D01*
X96855523Y-72820668D01*
X96867282Y-72798724D01*
X96874534Y-72774907D01*
X96877000Y-72750000D01*
X96877000Y-70500000D01*
X96874560Y-70475224D01*
X96867333Y-70451399D01*
X96851600Y-70423800D01*
X96727000Y-70257667D01*
X96727000Y-69729066D01*
X98025000Y-69729066D01*
X98045977Y-69727000D01*
X99571669Y-69727000D01*
X99600000Y-69729790D01*
X99628331Y-69727000D01*
X99628336Y-69727000D01*
X99658045Y-69724074D01*
X99713111Y-69718651D01*
X99757770Y-69705103D01*
X99821876Y-69685657D01*
X99922115Y-69632079D01*
X100009974Y-69559974D01*
X100028039Y-69537962D01*
X100180894Y-69385107D01*
X100873737Y-69377000D01*
X111200902Y-69377000D01*
X113873000Y-71806180D01*
G37*
X113873000Y-71806180D02*
X113873000Y-72361930D01*
X113864344Y-72378124D01*
X113831349Y-72486889D01*
X113820210Y-72600000D01*
X113823001Y-72628341D01*
X113823001Y-73373000D01*
X111377000Y-73373000D01*
X111377000Y-72250000D01*
X111374560Y-72225224D01*
X111367333Y-72201399D01*
X111355597Y-72179443D01*
X111339803Y-72160197D01*
X111320447Y-72144330D01*
X109820447Y-71144330D01*
X109798478Y-71132617D01*
X109774646Y-71125414D01*
X109750000Y-71123000D01*
X98750000Y-71123000D01*
X98725224Y-71125440D01*
X98701399Y-71132667D01*
X98679443Y-71144403D01*
X98660197Y-71160197D01*
X97910197Y-71910197D01*
X97894403Y-71929443D01*
X97882667Y-71951399D01*
X97875440Y-71975224D01*
X97873000Y-72000000D01*
X97873000Y-74464822D01*
X97178093Y-75623000D01*
X91552606Y-75623000D01*
X91377000Y-75447394D01*
X91377000Y-72377000D01*
X92447394Y-72377000D01*
X92714010Y-72643616D01*
X92755741Y-72744364D01*
X92835302Y-72863436D01*
X92936564Y-72964698D01*
X93055636Y-73044259D01*
X93156384Y-73085990D01*
X93410197Y-73339803D01*
X93429443Y-73355597D01*
X93451399Y-73367333D01*
X93475224Y-73374560D01*
X93500000Y-73377000D01*
X96000000Y-73377000D01*
X96024776Y-73374560D01*
X96048601Y-73367333D01*
X96070447Y-73355670D01*
X96820447Y-72855670D01*
X96839709Y-72839896D01*
X96855523Y-72820668D01*
X96867282Y-72798724D01*
X96874534Y-72774907D01*
X96877000Y-72750000D01*
X96877000Y-70500000D01*
X96874560Y-70475224D01*
X96867333Y-70451399D01*
X96851600Y-70423800D01*
X96727000Y-70257667D01*
X96727000Y-69729066D01*
X98025000Y-69729066D01*
X98045977Y-69727000D01*
X99571669Y-69727000D01*
X99600000Y-69729790D01*
X99628331Y-69727000D01*
X99628336Y-69727000D01*
X99658045Y-69724074D01*
X99713111Y-69718651D01*
X99757770Y-69705103D01*
X99821876Y-69685657D01*
X99922115Y-69632079D01*
X100009974Y-69559974D01*
X100028039Y-69537962D01*
X100180894Y-69385107D01*
X100873737Y-69377000D01*
X111200902Y-69377000D01*
X113873000Y-71806180D01*
%TO.N,/+VBAT*%
G36*
X87123000Y-75573000D02*
G01*
X80140699Y-75573000D01*
X79527000Y-75134644D01*
X79527000Y-71852606D01*
X79752606Y-71627000D01*
X87123000Y-71627000D01*
X87123000Y-75573000D01*
G37*
X87123000Y-75573000D02*
X80140699Y-75573000D01*
X79527000Y-75134644D01*
X79527000Y-71852606D01*
X79752606Y-71627000D01*
X87123000Y-71627000D01*
X87123000Y-75573000D01*
%TO.N,/BOOST_IND*%
G36*
X117373000Y-74067968D02*
G01*
X117373000Y-75500000D01*
X117375440Y-75524776D01*
X117382667Y-75548601D01*
X117394403Y-75570557D01*
X117410197Y-75589803D01*
X117910197Y-76089803D01*
X117929443Y-76105597D01*
X117951399Y-76117333D01*
X117975224Y-76124560D01*
X118000000Y-76127000D01*
X123697394Y-76127000D01*
X124373000Y-76802606D01*
X124373000Y-79697394D01*
X123947394Y-80123000D01*
X116302606Y-80123000D01*
X115589803Y-79410197D01*
X115570557Y-79394403D01*
X115548601Y-79382667D01*
X115524776Y-79375440D01*
X115500000Y-79373000D01*
X111000000Y-79373000D01*
X110975224Y-79375440D01*
X110951399Y-79382667D01*
X110929443Y-79394403D01*
X110910197Y-79410197D01*
X109447394Y-80873000D01*
X106552606Y-80873000D01*
X106127000Y-80447394D01*
X106127000Y-77302606D01*
X106552606Y-76877000D01*
X113500000Y-76877000D01*
X113524776Y-76874560D01*
X113548601Y-76867333D01*
X113570557Y-76855597D01*
X113589803Y-76839803D01*
X115089803Y-75339803D01*
X115105597Y-75320557D01*
X115117333Y-75298601D01*
X115124560Y-75274776D01*
X115127000Y-75250000D01*
X115127000Y-73627000D01*
X116711548Y-73627000D01*
X117373000Y-74067968D01*
G37*
X117373000Y-74067968D02*
X117373000Y-75500000D01*
X117375440Y-75524776D01*
X117382667Y-75548601D01*
X117394403Y-75570557D01*
X117410197Y-75589803D01*
X117910197Y-76089803D01*
X117929443Y-76105597D01*
X117951399Y-76117333D01*
X117975224Y-76124560D01*
X118000000Y-76127000D01*
X123697394Y-76127000D01*
X124373000Y-76802606D01*
X124373000Y-79697394D01*
X123947394Y-80123000D01*
X116302606Y-80123000D01*
X115589803Y-79410197D01*
X115570557Y-79394403D01*
X115548601Y-79382667D01*
X115524776Y-79375440D01*
X115500000Y-79373000D01*
X111000000Y-79373000D01*
X110975224Y-79375440D01*
X110951399Y-79382667D01*
X110929443Y-79394403D01*
X110910197Y-79410197D01*
X109447394Y-80873000D01*
X106552606Y-80873000D01*
X106127000Y-80447394D01*
X106127000Y-77302606D01*
X106552606Y-76877000D01*
X113500000Y-76877000D01*
X113524776Y-76874560D01*
X113548601Y-76867333D01*
X113570557Y-76855597D01*
X113589803Y-76839803D01*
X115089803Y-75339803D01*
X115105597Y-75320557D01*
X115117333Y-75298601D01*
X115124560Y-75274776D01*
X115127000Y-75250000D01*
X115127000Y-73627000D01*
X116711548Y-73627000D01*
X117373000Y-74067968D01*
%TO.N,/BOOST_SW*%
G36*
X135873000Y-69852606D02*
G01*
X135873000Y-73000000D01*
X135875440Y-73024776D01*
X135882667Y-73048601D01*
X135898400Y-73076200D01*
X136273400Y-73576200D01*
X136290218Y-73594557D01*
X136310294Y-73609280D01*
X136332857Y-73619804D01*
X136357039Y-73625724D01*
X136375000Y-73627000D01*
X138078019Y-73627000D01*
X138873000Y-74308413D01*
X138873000Y-76000000D01*
X138875440Y-76024776D01*
X138882667Y-76048601D01*
X138894403Y-76070557D01*
X138910197Y-76089803D01*
X139410197Y-76589803D01*
X139429443Y-76605597D01*
X139451399Y-76617333D01*
X139475224Y-76624560D01*
X139500000Y-76627000D01*
X139947394Y-76627000D01*
X140373000Y-77052606D01*
X140373000Y-80447394D01*
X139697394Y-81123000D01*
X136052606Y-81123000D01*
X135339803Y-80410197D01*
X135320557Y-80394403D01*
X135298601Y-80382667D01*
X135274776Y-80375440D01*
X135250000Y-80373000D01*
X130802606Y-80373000D01*
X130127000Y-79697394D01*
X130127000Y-76328490D01*
X130529980Y-76127000D01*
X132500000Y-76127000D01*
X132524776Y-76124560D01*
X132548601Y-76117333D01*
X132570557Y-76105597D01*
X132589803Y-76089803D01*
X132601600Y-76076200D01*
X133351600Y-75076200D01*
X133364514Y-75054915D01*
X133373027Y-75031519D01*
X133377000Y-75000000D01*
X133377000Y-69627000D01*
X135647394Y-69627000D01*
X135873000Y-69852606D01*
G37*
X135873000Y-69852606D02*
X135873000Y-73000000D01*
X135875440Y-73024776D01*
X135882667Y-73048601D01*
X135898400Y-73076200D01*
X136273400Y-73576200D01*
X136290218Y-73594557D01*
X136310294Y-73609280D01*
X136332857Y-73619804D01*
X136357039Y-73625724D01*
X136375000Y-73627000D01*
X138078019Y-73627000D01*
X138873000Y-74308413D01*
X138873000Y-76000000D01*
X138875440Y-76024776D01*
X138882667Y-76048601D01*
X138894403Y-76070557D01*
X138910197Y-76089803D01*
X139410197Y-76589803D01*
X139429443Y-76605597D01*
X139451399Y-76617333D01*
X139475224Y-76624560D01*
X139500000Y-76627000D01*
X139947394Y-76627000D01*
X140373000Y-77052606D01*
X140373000Y-80447394D01*
X139697394Y-81123000D01*
X136052606Y-81123000D01*
X135339803Y-80410197D01*
X135320557Y-80394403D01*
X135298601Y-80382667D01*
X135274776Y-80375440D01*
X135250000Y-80373000D01*
X130802606Y-80373000D01*
X130127000Y-79697394D01*
X130127000Y-76328490D01*
X130529980Y-76127000D01*
X132500000Y-76127000D01*
X132524776Y-76124560D01*
X132548601Y-76117333D01*
X132570557Y-76105597D01*
X132589803Y-76089803D01*
X132601600Y-76076200D01*
X133351600Y-75076200D01*
X133364514Y-75054915D01*
X133373027Y-75031519D01*
X133377000Y-75000000D01*
X133377000Y-69627000D01*
X135647394Y-69627000D01*
X135873000Y-69852606D01*
%TO.N,VOUT*%
G36*
X161123000Y-75302606D02*
G01*
X161123000Y-76947394D01*
X160697394Y-77373000D01*
X160000000Y-77373000D01*
X159975224Y-77375440D01*
X159951399Y-77382667D01*
X159929443Y-77394403D01*
X159910197Y-77410197D01*
X157447394Y-79873000D01*
X148250000Y-79873000D01*
X148225224Y-79875440D01*
X148201399Y-79882667D01*
X148179443Y-79894403D01*
X148160197Y-79910197D01*
X147197394Y-80873000D01*
X144552606Y-80873000D01*
X144127000Y-80447394D01*
X144127000Y-77302606D01*
X144552606Y-76877000D01*
X154875000Y-76877000D01*
X154899776Y-76874560D01*
X154923601Y-76867333D01*
X154945557Y-76855597D01*
X154967651Y-76836861D01*
X156805021Y-74877000D01*
X160697394Y-74877000D01*
X161123000Y-75302606D01*
G37*
X161123000Y-75302606D02*
X161123000Y-76947394D01*
X160697394Y-77373000D01*
X160000000Y-77373000D01*
X159975224Y-77375440D01*
X159951399Y-77382667D01*
X159929443Y-77394403D01*
X159910197Y-77410197D01*
X157447394Y-79873000D01*
X148250000Y-79873000D01*
X148225224Y-79875440D01*
X148201399Y-79882667D01*
X148179443Y-79894403D01*
X148160197Y-79910197D01*
X147197394Y-80873000D01*
X144552606Y-80873000D01*
X144127000Y-80447394D01*
X144127000Y-77302606D01*
X144552606Y-76877000D01*
X154875000Y-76877000D01*
X154899776Y-76874560D01*
X154923601Y-76867333D01*
X154945557Y-76855597D01*
X154967651Y-76836861D01*
X156805021Y-74877000D01*
X160697394Y-74877000D01*
X161123000Y-75302606D01*
%TO.N,Net-(Q1-PadD)*%
G36*
X148123000Y-71123000D02*
G01*
X145578330Y-71123000D01*
X145549999Y-71120210D01*
X145521668Y-71123000D01*
X142377000Y-71123000D01*
X142377000Y-69127000D01*
X148123000Y-69127000D01*
X148123000Y-71123000D01*
G37*
X148123000Y-71123000D02*
X145578330Y-71123000D01*
X145549999Y-71120210D01*
X145521668Y-71123000D01*
X142377000Y-71123000D01*
X142377000Y-69127000D01*
X148123000Y-69127000D01*
X148123000Y-71123000D01*
%TO.N,/-VBAT*%
G36*
X155373000Y-71802606D02*
G01*
X155373000Y-73697394D01*
X152947394Y-76123000D01*
X145857031Y-76123000D01*
X145527000Y-75751715D01*
X145527000Y-72657628D01*
X145847718Y-72377000D01*
X147123000Y-72377000D01*
X147123000Y-74500000D01*
X147125440Y-74524776D01*
X147132667Y-74548601D01*
X147144403Y-74570557D01*
X147160197Y-74589803D01*
X147179553Y-74605670D01*
X147329553Y-74705670D01*
X147351522Y-74717383D01*
X147375354Y-74724586D01*
X147400000Y-74727000D01*
X149800000Y-74727000D01*
X149824776Y-74724560D01*
X149848601Y-74717333D01*
X149870557Y-74705597D01*
X149889803Y-74689803D01*
X150089803Y-74489803D01*
X150105597Y-74470557D01*
X150117333Y-74448601D01*
X150124560Y-74424776D01*
X150127000Y-74400000D01*
X150127000Y-73858217D01*
X153297163Y-71127000D01*
X154697394Y-71127000D01*
X155373000Y-71802606D01*
G37*
X155373000Y-71802606D02*
X155373000Y-73697394D01*
X152947394Y-76123000D01*
X145857031Y-76123000D01*
X145527000Y-75751715D01*
X145527000Y-72657628D01*
X145847718Y-72377000D01*
X147123000Y-72377000D01*
X147123000Y-74500000D01*
X147125440Y-74524776D01*
X147132667Y-74548601D01*
X147144403Y-74570557D01*
X147160197Y-74589803D01*
X147179553Y-74605670D01*
X147329553Y-74705670D01*
X147351522Y-74717383D01*
X147375354Y-74724586D01*
X147400000Y-74727000D01*
X149800000Y-74727000D01*
X149824776Y-74724560D01*
X149848601Y-74717333D01*
X149870557Y-74705597D01*
X149889803Y-74689803D01*
X150089803Y-74489803D01*
X150105597Y-74470557D01*
X150117333Y-74448601D01*
X150124560Y-74424776D01*
X150127000Y-74400000D01*
X150127000Y-73858217D01*
X153297163Y-71127000D01*
X154697394Y-71127000D01*
X155373000Y-71802606D01*
%TO.N,GND*%
G36*
X83144802Y-61297776D02*
G01*
X83118973Y-61318974D01*
X83097778Y-61344800D01*
X83097776Y-61344802D01*
X83075486Y-61371963D01*
X83034372Y-61422060D01*
X82971508Y-61539671D01*
X82932796Y-61667286D01*
X82923000Y-61766749D01*
X82923000Y-61766755D01*
X82919726Y-61800000D01*
X82923000Y-61833245D01*
X82923000Y-63363453D01*
X82660673Y-63188172D01*
X82364578Y-63065525D01*
X82112722Y-63015428D01*
X82164714Y-62963436D01*
X82244275Y-62844364D01*
X82299078Y-62712058D01*
X82327016Y-62571603D01*
X82327016Y-62428397D01*
X82299078Y-62287942D01*
X82244275Y-62155636D01*
X82164714Y-62036564D01*
X82063452Y-61935302D01*
X81944380Y-61855741D01*
X81812074Y-61800938D01*
X81671619Y-61773000D01*
X81528413Y-61773000D01*
X81387958Y-61800938D01*
X81255652Y-61855741D01*
X81154991Y-61923000D01*
X79098329Y-61923000D01*
X79069998Y-61920210D01*
X79041667Y-61923000D01*
X79041662Y-61923000D01*
X79014884Y-61925637D01*
X78956886Y-61931349D01*
X78892780Y-61950796D01*
X78848122Y-61964343D01*
X78747883Y-62017921D01*
X78660024Y-62090026D01*
X78641959Y-62112038D01*
X72512038Y-68241959D01*
X72490026Y-68260024D01*
X72417921Y-68347884D01*
X72364343Y-68448123D01*
X72352398Y-68487500D01*
X72331349Y-68556887D01*
X72326187Y-68609304D01*
X72323657Y-68635000D01*
X72320210Y-68669998D01*
X72323000Y-68698329D01*
X72323001Y-77965659D01*
X72320210Y-77994000D01*
X72331349Y-78107111D01*
X72359528Y-78200000D01*
X72364344Y-78215876D01*
X72417922Y-78316115D01*
X72428551Y-78329066D01*
X72471963Y-78381964D01*
X72471966Y-78381967D01*
X72490027Y-78403974D01*
X72512034Y-78422035D01*
X74757000Y-80667001D01*
X74757000Y-81206280D01*
X74707685Y-81087223D01*
X74496799Y-80771609D01*
X74228391Y-80503201D01*
X73912777Y-80292315D01*
X73562085Y-80147053D01*
X73189793Y-80073000D01*
X72810207Y-80073000D01*
X72437915Y-80147053D01*
X72087223Y-80292315D01*
X71771609Y-80503201D01*
X71503201Y-80771609D01*
X71292315Y-81087223D01*
X71147053Y-81437915D01*
X71073000Y-81810207D01*
X71073000Y-82189793D01*
X71147053Y-82562085D01*
X71292315Y-82912777D01*
X71503201Y-83228391D01*
X71771609Y-83496799D01*
X72087223Y-83707685D01*
X72437915Y-83852947D01*
X72810207Y-83927000D01*
X73189793Y-83927000D01*
X73562085Y-83852947D01*
X73912777Y-83707685D01*
X74228391Y-83496799D01*
X74496799Y-83228391D01*
X74707685Y-82912777D01*
X74728539Y-82862430D01*
X74769302Y-82923436D01*
X74870564Y-83024698D01*
X74989636Y-83104259D01*
X75121942Y-83159062D01*
X75262397Y-83187000D01*
X75405603Y-83187000D01*
X75546058Y-83159062D01*
X75678364Y-83104259D01*
X75797436Y-83024698D01*
X75898698Y-82923436D01*
X75978259Y-82804364D01*
X76033062Y-82672058D01*
X76061000Y-82531603D01*
X76061000Y-82388397D01*
X76033062Y-82247942D01*
X75978259Y-82115636D01*
X75911000Y-82014975D01*
X75911000Y-80456331D01*
X75913790Y-80428000D01*
X75902651Y-80314888D01*
X75869657Y-80206125D01*
X75869657Y-80206124D01*
X75816079Y-80105885D01*
X75743974Y-80018026D01*
X75721963Y-79999962D01*
X73477000Y-77754999D01*
X73477000Y-68908999D01*
X79308999Y-63077000D01*
X81154991Y-63077000D01*
X81244053Y-63136509D01*
X81119327Y-63188172D01*
X80852848Y-63366227D01*
X80626227Y-63592848D01*
X80448172Y-63859327D01*
X80325525Y-64155422D01*
X80263000Y-64469755D01*
X80263000Y-64790245D01*
X80325525Y-65104578D01*
X80448172Y-65400673D01*
X80626227Y-65667152D01*
X80852848Y-65893773D01*
X81119327Y-66071828D01*
X81415422Y-66194475D01*
X81729755Y-66257000D01*
X82050245Y-66257000D01*
X82364578Y-66194475D01*
X82660673Y-66071828D01*
X82923001Y-65896547D01*
X82923001Y-67634677D01*
X82900938Y-67687942D01*
X82873000Y-67828397D01*
X82873000Y-67971603D01*
X82900938Y-68112058D01*
X82955741Y-68244364D01*
X83022205Y-68343835D01*
X77751688Y-68323003D01*
X77689613Y-68327292D01*
X77608307Y-68347195D01*
X77532446Y-68382577D01*
X77469308Y-68428881D01*
X77466293Y-68429178D01*
X77385804Y-68453595D01*
X77311624Y-68493245D01*
X77246605Y-68546605D01*
X77193245Y-68611624D01*
X77153595Y-68685804D01*
X77129178Y-68766293D01*
X77120934Y-68850000D01*
X77120934Y-68877088D01*
X75908400Y-70493800D01*
X75855503Y-70586594D01*
X75831205Y-70666696D01*
X75823000Y-70750000D01*
X75823000Y-76600000D01*
X75835778Y-76703680D01*
X75863965Y-76782498D01*
X75906986Y-76854303D01*
X75963189Y-76916336D01*
X79713189Y-80316336D01*
X79762772Y-80355038D01*
X79836594Y-80394497D01*
X79916696Y-80418795D01*
X80000000Y-80427000D01*
X83500000Y-80427000D01*
X83583304Y-80418795D01*
X83663406Y-80394497D01*
X83737228Y-80355038D01*
X83801935Y-80301935D01*
X84301935Y-79801935D01*
X84355038Y-79737228D01*
X84394497Y-79663406D01*
X84418795Y-79583304D01*
X84427000Y-79500000D01*
X84427000Y-76750000D01*
X84418795Y-76666696D01*
X84394497Y-76586594D01*
X84355038Y-76512772D01*
X84301935Y-76448065D01*
X83980870Y-76127000D01*
X87250000Y-76127000D01*
X87333304Y-76118795D01*
X87413406Y-76094497D01*
X87487228Y-76055038D01*
X87551935Y-76001935D01*
X87573000Y-75976267D01*
X87573000Y-76500000D01*
X87581205Y-76583304D01*
X87605503Y-76663406D01*
X87644962Y-76737228D01*
X87698065Y-76801935D01*
X89198065Y-78301935D01*
X89262772Y-78355038D01*
X89336594Y-78394497D01*
X89416696Y-78418795D01*
X89420859Y-78419205D01*
X89368804Y-78440767D01*
X89012243Y-78679013D01*
X88709013Y-78982243D01*
X88470767Y-79338804D01*
X88306660Y-79734992D01*
X88223000Y-80155584D01*
X88223000Y-80584416D01*
X88306660Y-81005008D01*
X88470767Y-81401196D01*
X88709013Y-81757757D01*
X89012243Y-82060987D01*
X89368804Y-82299233D01*
X89764992Y-82463340D01*
X90185584Y-82547000D01*
X90614416Y-82547000D01*
X91035008Y-82463340D01*
X91431196Y-82299233D01*
X91787757Y-82060987D01*
X92038537Y-81810207D01*
X165073000Y-81810207D01*
X165073000Y-82189793D01*
X165147053Y-82562085D01*
X165292315Y-82912777D01*
X165503201Y-83228391D01*
X165771609Y-83496799D01*
X166087223Y-83707685D01*
X166437915Y-83852947D01*
X166810207Y-83927000D01*
X167189793Y-83927000D01*
X167562085Y-83852947D01*
X167912777Y-83707685D01*
X168228391Y-83496799D01*
X168496799Y-83228391D01*
X168707685Y-82912777D01*
X168852947Y-82562085D01*
X168927000Y-82189793D01*
X168927000Y-81810207D01*
X168852947Y-81437915D01*
X168707685Y-81087223D01*
X168496799Y-80771609D01*
X168228391Y-80503201D01*
X167912777Y-80292315D01*
X167562085Y-80147053D01*
X167189793Y-80073000D01*
X166810207Y-80073000D01*
X166437915Y-80147053D01*
X166087223Y-80292315D01*
X165771609Y-80503201D01*
X165503201Y-80771609D01*
X165292315Y-81087223D01*
X165147053Y-81437915D01*
X165073000Y-81810207D01*
X92038537Y-81810207D01*
X92090987Y-81757757D01*
X92329233Y-81401196D01*
X92493340Y-81005008D01*
X92577000Y-80584416D01*
X92577000Y-80155584D01*
X92493340Y-79734992D01*
X92329233Y-79338804D01*
X92090987Y-78982243D01*
X91787757Y-78679013D01*
X91431196Y-78440767D01*
X91397960Y-78427000D01*
X97023130Y-78427000D01*
X97573000Y-78976870D01*
X97573000Y-80800000D01*
X97581205Y-80883304D01*
X97605503Y-80963406D01*
X97644962Y-81037228D01*
X97698065Y-81101935D01*
X98098065Y-81501935D01*
X98162772Y-81555038D01*
X98236594Y-81594497D01*
X98316696Y-81618795D01*
X98400000Y-81627000D01*
X101800000Y-81627000D01*
X101883304Y-81618795D01*
X101963406Y-81594497D01*
X102037228Y-81555038D01*
X102101935Y-81501935D01*
X102501935Y-81101935D01*
X102555038Y-81037228D01*
X102594497Y-80963406D01*
X102618795Y-80883304D01*
X102627000Y-80800000D01*
X102627000Y-79177131D01*
X102628331Y-79177000D01*
X102628336Y-79177000D01*
X102658045Y-79174074D01*
X102713111Y-79168651D01*
X102757770Y-79155103D01*
X102821876Y-79135657D01*
X102922115Y-79082079D01*
X103009974Y-79009974D01*
X103028039Y-78987962D01*
X106139001Y-75877000D01*
X110291795Y-75877000D01*
X110308271Y-75907824D01*
X110391167Y-76008833D01*
X110492176Y-76091729D01*
X110607416Y-76153327D01*
X110732459Y-76191258D01*
X110862500Y-76204066D01*
X111437500Y-76204066D01*
X111567541Y-76191258D01*
X111692584Y-76153327D01*
X111807824Y-76091729D01*
X111908833Y-76008833D01*
X111991729Y-75907824D01*
X112025000Y-75845579D01*
X112058271Y-75907824D01*
X112141167Y-76008833D01*
X112242176Y-76091729D01*
X112357416Y-76153327D01*
X112482459Y-76191258D01*
X112612500Y-76204066D01*
X113187500Y-76204066D01*
X113317541Y-76191258D01*
X113442584Y-76153327D01*
X113550470Y-76095660D01*
X113323130Y-76323000D01*
X106500000Y-76323000D01*
X106416696Y-76331205D01*
X106336594Y-76355503D01*
X106262772Y-76394962D01*
X106198065Y-76448065D01*
X105698065Y-76948065D01*
X105644962Y-77012772D01*
X105605503Y-77086594D01*
X105581205Y-77166696D01*
X105573000Y-77250000D01*
X105573000Y-80500000D01*
X105581205Y-80583304D01*
X105605503Y-80663406D01*
X105644962Y-80737228D01*
X105698065Y-80801935D01*
X106198065Y-81301935D01*
X106262772Y-81355038D01*
X106336594Y-81394497D01*
X106416696Y-81418795D01*
X106500000Y-81427000D01*
X109500000Y-81427000D01*
X109583304Y-81418795D01*
X109663406Y-81394497D01*
X109737228Y-81355038D01*
X109801935Y-81301935D01*
X111176870Y-79927000D01*
X115323130Y-79927000D01*
X115948065Y-80551935D01*
X116012772Y-80605038D01*
X116086594Y-80644497D01*
X116166696Y-80668795D01*
X116250000Y-80677000D01*
X124000000Y-80677000D01*
X124083304Y-80668795D01*
X124163406Y-80644497D01*
X124237228Y-80605038D01*
X124301935Y-80551935D01*
X124801935Y-80051935D01*
X124855038Y-79987228D01*
X124894497Y-79913406D01*
X124918795Y-79833304D01*
X124927000Y-79750000D01*
X124927000Y-76750000D01*
X124918795Y-76666696D01*
X124894497Y-76586594D01*
X124855038Y-76512772D01*
X124801935Y-76448065D01*
X124516759Y-76162889D01*
X124503395Y-76146605D01*
X124487111Y-76133241D01*
X124051935Y-75698065D01*
X123987228Y-75644962D01*
X123913406Y-75605503D01*
X123833304Y-75581205D01*
X123750000Y-75573000D01*
X123127000Y-75573000D01*
X123127000Y-71284958D01*
X123158833Y-71258833D01*
X123241729Y-71157824D01*
X123303327Y-71042584D01*
X123341258Y-70917541D01*
X123354066Y-70787500D01*
X123354066Y-70212500D01*
X123341258Y-70082459D01*
X123303327Y-69957416D01*
X123248084Y-69854066D01*
X124425000Y-69854066D01*
X124508707Y-69845822D01*
X124589196Y-69821405D01*
X124663376Y-69781755D01*
X124728395Y-69728395D01*
X124734175Y-69721352D01*
X124812500Y-69729066D01*
X125287500Y-69729066D01*
X125417541Y-69716258D01*
X125542584Y-69678327D01*
X125657824Y-69616729D01*
X125758833Y-69533833D01*
X125841729Y-69432824D01*
X125903327Y-69317584D01*
X125905021Y-69312000D01*
X127504426Y-69312000D01*
X127546605Y-69363395D01*
X127611624Y-69416755D01*
X127685804Y-69456405D01*
X127766293Y-69480822D01*
X127850000Y-69489066D01*
X129650000Y-69489066D01*
X129733707Y-69480822D01*
X129814196Y-69456405D01*
X129888376Y-69416755D01*
X129953395Y-69363395D01*
X130006755Y-69298376D01*
X130046405Y-69224196D01*
X130070822Y-69143707D01*
X130079066Y-69060000D01*
X130079066Y-68210000D01*
X130070822Y-68126293D01*
X130046405Y-68045804D01*
X130021922Y-68000000D01*
X130046405Y-67954196D01*
X130070822Y-67873707D01*
X130079066Y-67790000D01*
X130079066Y-66940000D01*
X130070822Y-66856293D01*
X130046405Y-66775804D01*
X130021922Y-66730000D01*
X130046405Y-66684196D01*
X130070822Y-66603707D01*
X130079066Y-66520000D01*
X130079066Y-65670000D01*
X130070822Y-65586293D01*
X130046405Y-65505804D01*
X130006755Y-65431624D01*
X129953395Y-65366605D01*
X129888376Y-65313245D01*
X129814196Y-65273595D01*
X129733707Y-65249178D01*
X129650000Y-65240934D01*
X128056935Y-65240934D01*
X127254066Y-64438065D01*
X127254066Y-64415584D01*
X143423000Y-64415584D01*
X143423000Y-64844416D01*
X143506660Y-65265008D01*
X143670767Y-65661196D01*
X143909013Y-66017757D01*
X144212243Y-66320987D01*
X144568804Y-66559233D01*
X144964992Y-66723340D01*
X145385584Y-66807000D01*
X145814416Y-66807000D01*
X146235008Y-66723340D01*
X146631196Y-66559233D01*
X146987757Y-66320987D01*
X147290987Y-66017757D01*
X147529233Y-65661196D01*
X147693340Y-65265008D01*
X147777000Y-64844416D01*
X147777000Y-64415584D01*
X147693340Y-63994992D01*
X147529233Y-63598804D01*
X147290987Y-63242243D01*
X146987757Y-62939013D01*
X146631196Y-62700767D01*
X146235008Y-62536660D01*
X145814416Y-62453000D01*
X145385584Y-62453000D01*
X144964992Y-62536660D01*
X144568804Y-62700767D01*
X144212243Y-62939013D01*
X143909013Y-63242243D01*
X143670767Y-63598804D01*
X143506660Y-63994992D01*
X143423000Y-64415584D01*
X127254066Y-64415584D01*
X127254066Y-64062500D01*
X127241258Y-63932459D01*
X127203327Y-63807416D01*
X127141729Y-63692176D01*
X127058833Y-63591167D01*
X126957824Y-63508271D01*
X126877000Y-63465069D01*
X126877000Y-63334931D01*
X126957824Y-63291729D01*
X127058833Y-63208833D01*
X127141729Y-63107824D01*
X127203327Y-62992584D01*
X127241258Y-62867541D01*
X127254066Y-62737500D01*
X127254066Y-62262500D01*
X127241258Y-62132459D01*
X127203327Y-62007416D01*
X127141729Y-61892176D01*
X127058833Y-61791167D01*
X126957824Y-61708271D01*
X126842584Y-61646673D01*
X126717541Y-61608742D01*
X126587500Y-61595934D01*
X126012500Y-61595934D01*
X125882459Y-61608742D01*
X125757416Y-61646673D01*
X125642176Y-61708271D01*
X125541167Y-61791167D01*
X125458271Y-61892176D01*
X125425000Y-61954421D01*
X125391729Y-61892176D01*
X125308833Y-61791167D01*
X125207824Y-61708271D01*
X125092584Y-61646673D01*
X124967541Y-61608742D01*
X124837500Y-61595934D01*
X124262500Y-61595934D01*
X124132459Y-61608742D01*
X124007416Y-61646673D01*
X123892176Y-61708271D01*
X123791167Y-61791167D01*
X123708271Y-61892176D01*
X123691795Y-61923000D01*
X122558205Y-61923000D01*
X122541729Y-61892176D01*
X122458833Y-61791167D01*
X122357824Y-61708271D01*
X122242584Y-61646673D01*
X122117541Y-61608742D01*
X121987500Y-61595934D01*
X121512500Y-61595934D01*
X121382459Y-61608742D01*
X121257416Y-61646673D01*
X121142176Y-61708271D01*
X121041167Y-61791167D01*
X120958271Y-61892176D01*
X120896673Y-62007416D01*
X120858742Y-62132459D01*
X120845934Y-62262500D01*
X120845934Y-62837500D01*
X120858742Y-62967541D01*
X120896673Y-63092584D01*
X120958271Y-63207824D01*
X121041167Y-63308833D01*
X121142176Y-63391729D01*
X121257416Y-63453327D01*
X121382459Y-63491258D01*
X121512500Y-63504066D01*
X121987500Y-63504066D01*
X122117541Y-63491258D01*
X122242584Y-63453327D01*
X122357824Y-63391729D01*
X122458833Y-63308833D01*
X122541729Y-63207824D01*
X122603327Y-63092584D01*
X122608054Y-63077000D01*
X123691795Y-63077000D01*
X123708271Y-63107824D01*
X123791167Y-63208833D01*
X123892176Y-63291729D01*
X124007416Y-63353327D01*
X124132459Y-63391258D01*
X124262500Y-63404066D01*
X124837500Y-63404066D01*
X124967541Y-63391258D01*
X125092584Y-63353327D01*
X125207824Y-63291729D01*
X125308833Y-63208833D01*
X125391729Y-63107824D01*
X125425000Y-63045579D01*
X125458271Y-63107824D01*
X125541167Y-63208833D01*
X125642176Y-63291729D01*
X125723001Y-63334931D01*
X125723000Y-63465069D01*
X125642176Y-63508271D01*
X125541167Y-63591167D01*
X125458271Y-63692176D01*
X125396673Y-63807416D01*
X125358742Y-63932459D01*
X125345934Y-64062500D01*
X125345934Y-64537500D01*
X125358742Y-64667541D01*
X125396673Y-64792584D01*
X125458271Y-64907824D01*
X125541167Y-65008833D01*
X125642176Y-65091729D01*
X125757416Y-65153327D01*
X125882459Y-65191258D01*
X126012500Y-65204066D01*
X126388065Y-65204066D01*
X126929933Y-65745934D01*
X126026025Y-65745934D01*
X125982715Y-65732796D01*
X125883252Y-65723000D01*
X125883245Y-65723000D01*
X125850000Y-65719726D01*
X125816755Y-65723000D01*
X125484958Y-65723000D01*
X125458833Y-65691167D01*
X125357824Y-65608271D01*
X125242584Y-65546673D01*
X125117541Y-65508742D01*
X124987500Y-65495934D01*
X124412500Y-65495934D01*
X124282459Y-65508742D01*
X124157416Y-65546673D01*
X124042176Y-65608271D01*
X123941167Y-65691167D01*
X123858271Y-65792176D01*
X123825000Y-65854421D01*
X123791729Y-65792176D01*
X123708833Y-65691167D01*
X123607824Y-65608271D01*
X123492584Y-65546673D01*
X123367541Y-65508742D01*
X123237500Y-65495934D01*
X122662500Y-65495934D01*
X122532459Y-65508742D01*
X122407416Y-65546673D01*
X122292176Y-65608271D01*
X122191167Y-65691167D01*
X122108271Y-65792176D01*
X122046673Y-65907416D01*
X122008742Y-66032459D01*
X121995934Y-66162500D01*
X121995934Y-66396644D01*
X121994799Y-66397779D01*
X121968974Y-66418973D01*
X121947779Y-66444799D01*
X121947776Y-66444802D01*
X121884372Y-66522060D01*
X121821508Y-66639671D01*
X121782796Y-66767286D01*
X121769726Y-66900000D01*
X121773001Y-66933254D01*
X121773000Y-67965042D01*
X121741167Y-67991167D01*
X121658271Y-68092176D01*
X121596673Y-68207416D01*
X121558742Y-68332459D01*
X121545934Y-68462500D01*
X121545934Y-69037500D01*
X121558742Y-69167541D01*
X121596673Y-69292584D01*
X121658271Y-69407824D01*
X121741167Y-69508833D01*
X121842176Y-69591729D01*
X121904421Y-69625000D01*
X121842176Y-69658271D01*
X121741167Y-69741167D01*
X121658271Y-69842176D01*
X121596673Y-69957416D01*
X121558742Y-70082459D01*
X121545934Y-70212500D01*
X121545934Y-70787500D01*
X121558742Y-70917541D01*
X121596673Y-71042584D01*
X121658271Y-71157824D01*
X121741167Y-71258833D01*
X121773000Y-71284958D01*
X121773001Y-75573000D01*
X118176870Y-75573000D01*
X117927000Y-75323130D01*
X117927000Y-74000000D01*
X117918708Y-73916258D01*
X117894325Y-73836182D01*
X117854789Y-73762400D01*
X117801619Y-73697750D01*
X117736857Y-73644715D01*
X117279066Y-73339521D01*
X117279066Y-73050000D01*
X117270822Y-72966293D01*
X117246405Y-72885804D01*
X117206755Y-72811624D01*
X117153395Y-72746605D01*
X117088376Y-72693245D01*
X117014196Y-72653595D01*
X116933707Y-72629178D01*
X116850000Y-72620934D01*
X115195067Y-72620934D01*
X115336935Y-72479066D01*
X116850000Y-72479066D01*
X116933707Y-72470822D01*
X117014196Y-72446405D01*
X117088376Y-72406755D01*
X117153395Y-72353395D01*
X117206755Y-72288376D01*
X117246405Y-72214196D01*
X117270822Y-72133707D01*
X117279066Y-72050000D01*
X117279066Y-71150000D01*
X117270822Y-71066293D01*
X117246405Y-70985804D01*
X117206755Y-70911624D01*
X117153395Y-70846605D01*
X117088376Y-70793245D01*
X117014196Y-70753595D01*
X116933707Y-70729178D01*
X116850000Y-70720934D01*
X116627000Y-70720934D01*
X116627000Y-70434931D01*
X116707824Y-70391729D01*
X116808833Y-70308833D01*
X116891729Y-70207824D01*
X116953327Y-70092584D01*
X116991258Y-69967541D01*
X117004066Y-69837500D01*
X117004066Y-69362500D01*
X116991258Y-69232459D01*
X116953327Y-69107416D01*
X116909590Y-69025591D01*
X117189348Y-69305349D01*
X117155741Y-69355646D01*
X117100938Y-69487952D01*
X117073000Y-69628407D01*
X117073000Y-69771613D01*
X117100938Y-69912068D01*
X117155741Y-70044374D01*
X117235302Y-70163446D01*
X117336564Y-70264708D01*
X117455636Y-70344269D01*
X117587942Y-70399072D01*
X117728397Y-70427010D01*
X117871603Y-70427010D01*
X118012058Y-70399072D01*
X118144364Y-70344269D01*
X118263436Y-70264708D01*
X118364698Y-70163446D01*
X118444259Y-70044374D01*
X118499062Y-69912068D01*
X118527000Y-69771613D01*
X118527000Y-69628407D01*
X118499062Y-69487952D01*
X118444259Y-69355646D01*
X118377000Y-69254985D01*
X118377000Y-69128328D01*
X118379790Y-69099999D01*
X118377000Y-69071670D01*
X118377000Y-69071664D01*
X118368650Y-68986888D01*
X118335657Y-68878124D01*
X118282079Y-68777885D01*
X118209974Y-68690026D01*
X118187963Y-68671962D01*
X116728039Y-67212038D01*
X116709974Y-67190026D01*
X116622115Y-67117921D01*
X116521876Y-67064343D01*
X116457770Y-67044897D01*
X116413111Y-67031349D01*
X116358045Y-67025926D01*
X116328336Y-67023000D01*
X116328331Y-67023000D01*
X116300000Y-67020210D01*
X116271669Y-67023000D01*
X101178330Y-67023000D01*
X101149999Y-67020210D01*
X101121668Y-67023000D01*
X101121664Y-67023000D01*
X101097971Y-67025334D01*
X101036888Y-67031349D01*
X100972782Y-67050796D01*
X100928124Y-67064343D01*
X100827885Y-67117921D01*
X100796535Y-67143650D01*
X100762035Y-67171963D01*
X100762033Y-67171965D01*
X100740026Y-67190026D01*
X100721965Y-67212033D01*
X100677000Y-67256998D01*
X100677000Y-64828328D01*
X100679790Y-64799999D01*
X100677000Y-64771670D01*
X100677000Y-64771664D01*
X100668650Y-64686888D01*
X100635657Y-64578124D01*
X100582079Y-64477885D01*
X100535340Y-64420934D01*
X100528037Y-64412035D01*
X100528035Y-64412033D01*
X100509974Y-64390026D01*
X100487967Y-64371965D01*
X98228039Y-62112038D01*
X98209974Y-62090026D01*
X98122115Y-62017921D01*
X98021876Y-61964343D01*
X97957770Y-61944897D01*
X97913111Y-61931349D01*
X97858045Y-61925926D01*
X97828336Y-61923000D01*
X97828331Y-61923000D01*
X97800000Y-61920210D01*
X97771669Y-61923000D01*
X93645025Y-61923000D01*
X93544364Y-61855741D01*
X93412058Y-61800938D01*
X93271603Y-61773000D01*
X93128397Y-61773000D01*
X92987942Y-61800938D01*
X92855636Y-61855741D01*
X92736564Y-61935302D01*
X92635302Y-62036564D01*
X92555741Y-62155636D01*
X92500938Y-62287942D01*
X92473000Y-62428397D01*
X92473000Y-62571603D01*
X92500938Y-62712058D01*
X92555741Y-62844364D01*
X92635302Y-62963436D01*
X92736564Y-63064698D01*
X92855636Y-63144259D01*
X92987942Y-63199062D01*
X93128397Y-63227000D01*
X93271603Y-63227000D01*
X93412058Y-63199062D01*
X93544364Y-63144259D01*
X93645025Y-63077000D01*
X95429355Y-63077000D01*
X95420934Y-63162500D01*
X95420934Y-63637500D01*
X95433742Y-63767541D01*
X95471673Y-63892584D01*
X95533271Y-64007824D01*
X95616167Y-64108833D01*
X95717176Y-64191729D01*
X95832416Y-64253327D01*
X95957459Y-64291258D01*
X96087500Y-64304066D01*
X96662500Y-64304066D01*
X96792541Y-64291258D01*
X96917584Y-64253327D01*
X97032824Y-64191729D01*
X97133833Y-64108833D01*
X97216729Y-64007824D01*
X97233205Y-63977000D01*
X97360999Y-63977000D01*
X98723001Y-65339003D01*
X98723000Y-66910999D01*
X98396753Y-67237246D01*
X98381428Y-67218572D01*
X98305044Y-67155884D01*
X98217898Y-67109304D01*
X98123338Y-67080619D01*
X98025000Y-67070934D01*
X96700000Y-67070934D01*
X96601662Y-67080619D01*
X96507102Y-67109304D01*
X96419956Y-67155884D01*
X96343572Y-67218572D01*
X96280884Y-67294956D01*
X96234304Y-67382102D01*
X96205619Y-67476662D01*
X96195934Y-67575000D01*
X96195934Y-67725000D01*
X96205619Y-67823338D01*
X96228875Y-67900000D01*
X96205619Y-67976662D01*
X96195934Y-68075000D01*
X96195934Y-68225000D01*
X96205619Y-68323338D01*
X96228875Y-68400000D01*
X96205619Y-68476662D01*
X96195934Y-68575000D01*
X96195934Y-68725000D01*
X96205619Y-68823338D01*
X96228875Y-68900000D01*
X96205619Y-68976662D01*
X96195934Y-69075000D01*
X96195934Y-69168140D01*
X96181205Y-69216696D01*
X96173000Y-69300000D01*
X96173000Y-70300000D01*
X96186359Y-70405973D01*
X96214982Y-70484634D01*
X96258400Y-70556200D01*
X96323000Y-70642333D01*
X96323000Y-72521477D01*
X95870716Y-72823000D01*
X93676870Y-72823000D01*
X92929066Y-72075196D01*
X92929066Y-72000000D01*
X92920822Y-71916293D01*
X92896405Y-71835804D01*
X92856755Y-71761624D01*
X92803395Y-71696605D01*
X92738376Y-71643245D01*
X92664196Y-71603595D01*
X92583707Y-71579178D01*
X92500000Y-71570934D01*
X90500000Y-71570934D01*
X90416293Y-71579178D01*
X90335804Y-71603595D01*
X90261624Y-71643245D01*
X90256053Y-71647817D01*
X90476870Y-71427000D01*
X92750000Y-71427000D01*
X92861009Y-71412318D01*
X92939316Y-71382738D01*
X93010346Y-71338450D01*
X93660346Y-70838450D01*
X93701935Y-70801935D01*
X93755038Y-70737228D01*
X93794497Y-70663406D01*
X93818795Y-70583304D01*
X93827000Y-70500000D01*
X93827000Y-69500000D01*
X93818795Y-69416696D01*
X93794497Y-69336594D01*
X93791858Y-69331656D01*
X93794381Y-69323338D01*
X93804066Y-69225000D01*
X93804066Y-69075000D01*
X93794381Y-68976662D01*
X93765696Y-68882102D01*
X93719116Y-68794956D01*
X93656428Y-68718572D01*
X93580044Y-68655884D01*
X93569036Y-68650000D01*
X93580044Y-68644116D01*
X93656428Y-68581428D01*
X93719116Y-68505044D01*
X93765696Y-68417898D01*
X93794381Y-68323338D01*
X93804066Y-68225000D01*
X93804066Y-68075000D01*
X93794381Y-67976662D01*
X93771125Y-67900000D01*
X93794381Y-67823338D01*
X93804066Y-67725000D01*
X93804066Y-67575000D01*
X93794381Y-67476662D01*
X93765696Y-67382102D01*
X93719116Y-67294956D01*
X93656428Y-67218572D01*
X93580044Y-67155884D01*
X93492898Y-67109304D01*
X93398338Y-67080619D01*
X93300000Y-67070934D01*
X93214500Y-67070934D01*
X93214500Y-63927830D01*
X93217290Y-63899501D01*
X93214500Y-63871172D01*
X93214500Y-63871166D01*
X93206150Y-63786390D01*
X93173157Y-63677626D01*
X93119579Y-63577387D01*
X93081905Y-63531482D01*
X93065537Y-63511537D01*
X93065535Y-63511535D01*
X93047474Y-63489528D01*
X93025467Y-63471467D01*
X91130999Y-61577000D01*
X146444578Y-61577000D01*
X146670934Y-61803356D01*
X146670934Y-62037500D01*
X146683742Y-62167541D01*
X146721673Y-62292584D01*
X146783271Y-62407824D01*
X146866167Y-62508833D01*
X146967176Y-62591729D01*
X147082416Y-62653327D01*
X147207459Y-62691258D01*
X147337500Y-62704066D01*
X147912500Y-62704066D01*
X148042541Y-62691258D01*
X148167584Y-62653327D01*
X148282824Y-62591729D01*
X148383833Y-62508833D01*
X148466729Y-62407824D01*
X148500000Y-62345579D01*
X148533271Y-62407824D01*
X148616167Y-62508833D01*
X148717176Y-62591729D01*
X148832416Y-62653327D01*
X148957459Y-62691258D01*
X149087500Y-62704066D01*
X149451639Y-62704066D01*
X149471605Y-62728395D01*
X149536624Y-62781755D01*
X149610804Y-62821405D01*
X149691293Y-62845822D01*
X149775000Y-62854066D01*
X150373000Y-62854066D01*
X150373000Y-63290934D01*
X149775000Y-63290934D01*
X149691293Y-63299178D01*
X149610804Y-63323595D01*
X149536624Y-63363245D01*
X149471605Y-63416605D01*
X149418245Y-63481624D01*
X149378595Y-63555804D01*
X149354178Y-63636293D01*
X149345934Y-63720000D01*
X149345934Y-65280000D01*
X149354178Y-65363707D01*
X149378595Y-65444196D01*
X149418245Y-65518376D01*
X149471605Y-65583395D01*
X149536624Y-65636755D01*
X149610804Y-65676405D01*
X149691293Y-65700822D01*
X149775000Y-65709066D01*
X150425000Y-65709066D01*
X150508707Y-65700822D01*
X150575000Y-65680711D01*
X150641293Y-65700822D01*
X150725000Y-65709066D01*
X150874400Y-65709066D01*
X150871957Y-65712043D01*
X150662034Y-65921965D01*
X150640027Y-65940026D01*
X150621966Y-65962033D01*
X150621963Y-65962036D01*
X150605671Y-65981888D01*
X150567922Y-66027885D01*
X150532049Y-66095000D01*
X150514344Y-66128124D01*
X150493251Y-66197656D01*
X150425000Y-66190934D01*
X149775000Y-66190934D01*
X149691293Y-66199178D01*
X149610804Y-66223595D01*
X149536624Y-66263245D01*
X149471605Y-66316605D01*
X149418245Y-66381624D01*
X149378595Y-66455804D01*
X149354178Y-66536293D01*
X149345934Y-66620000D01*
X149345934Y-68180000D01*
X149354178Y-68263707D01*
X149378595Y-68344196D01*
X149418245Y-68418376D01*
X149471605Y-68483395D01*
X149523000Y-68525574D01*
X149523000Y-68545934D01*
X149375000Y-68545934D01*
X149291293Y-68554178D01*
X149210804Y-68578595D01*
X149136624Y-68618245D01*
X149071605Y-68671605D01*
X149018245Y-68736624D01*
X148978595Y-68810804D01*
X148954178Y-68891293D01*
X148945934Y-68975000D01*
X148945934Y-70225000D01*
X148954178Y-70308707D01*
X148970730Y-70363269D01*
X148677000Y-70656999D01*
X148677000Y-69000000D01*
X148668795Y-68916696D01*
X148644497Y-68836594D01*
X148605038Y-68762772D01*
X148551935Y-68698065D01*
X148487228Y-68644962D01*
X148413406Y-68605503D01*
X148333304Y-68581205D01*
X148250000Y-68573000D01*
X142250000Y-68573000D01*
X142166696Y-68581205D01*
X142086594Y-68605503D01*
X142012772Y-68644962D01*
X141948065Y-68698065D01*
X141894962Y-68762772D01*
X141855503Y-68836594D01*
X141831205Y-68916696D01*
X141823000Y-69000000D01*
X141823000Y-71250000D01*
X141831205Y-71333304D01*
X141855503Y-71413406D01*
X141894962Y-71487228D01*
X141948065Y-71551935D01*
X142012772Y-71605038D01*
X142086594Y-71644497D01*
X142166696Y-71668795D01*
X142250000Y-71677000D01*
X144756998Y-71677000D01*
X144549906Y-71884092D01*
X144533707Y-71879178D01*
X144450000Y-71870934D01*
X143550000Y-71870934D01*
X143466293Y-71879178D01*
X143385804Y-71903595D01*
X143311624Y-71943245D01*
X143246605Y-71996605D01*
X143193245Y-72061624D01*
X143153595Y-72135804D01*
X143129178Y-72216293D01*
X143120934Y-72300000D01*
X143120934Y-74200000D01*
X143129178Y-74283707D01*
X143153595Y-74364196D01*
X143193245Y-74438376D01*
X143246605Y-74503395D01*
X143311624Y-74556755D01*
X143385804Y-74596405D01*
X143466293Y-74620822D01*
X143550000Y-74629066D01*
X144450000Y-74629066D01*
X144533707Y-74620822D01*
X144614196Y-74596405D01*
X144688376Y-74556755D01*
X144753395Y-74503395D01*
X144806755Y-74438376D01*
X144846405Y-74364196D01*
X144870822Y-74283707D01*
X144879066Y-74200000D01*
X144879066Y-73186935D01*
X144973000Y-73093001D01*
X144973000Y-75800000D01*
X144977036Y-75858567D01*
X144996589Y-75939958D01*
X145031645Y-76015971D01*
X145080856Y-76083683D01*
X145293582Y-76323000D01*
X144500000Y-76323000D01*
X144416696Y-76331205D01*
X144336594Y-76355503D01*
X144262772Y-76394962D01*
X144198065Y-76448065D01*
X143698065Y-76948065D01*
X143644962Y-77012772D01*
X143605503Y-77086594D01*
X143581205Y-77166696D01*
X143573000Y-77250000D01*
X143573000Y-78006998D01*
X140277000Y-74710999D01*
X140277000Y-72408205D01*
X140307824Y-72391729D01*
X140408833Y-72308833D01*
X140491729Y-72207824D01*
X140553327Y-72092584D01*
X140591258Y-71967541D01*
X140604066Y-71837500D01*
X140604066Y-71262500D01*
X140591258Y-71132459D01*
X140553327Y-71007416D01*
X140491729Y-70892176D01*
X140408833Y-70791167D01*
X140307824Y-70708271D01*
X140245579Y-70675000D01*
X140307824Y-70641729D01*
X140408833Y-70558833D01*
X140491729Y-70457824D01*
X140553327Y-70342584D01*
X140591258Y-70217541D01*
X140604066Y-70087500D01*
X140604066Y-69512500D01*
X140591258Y-69382459D01*
X140553327Y-69257416D01*
X140491729Y-69142176D01*
X140408833Y-69041167D01*
X140307824Y-68958271D01*
X140277000Y-68941795D01*
X140277000Y-68678339D01*
X140279791Y-68650000D01*
X140268651Y-68536888D01*
X140247034Y-68465628D01*
X140235657Y-68428124D01*
X140182079Y-68327885D01*
X140109974Y-68240026D01*
X140087962Y-68221961D01*
X139304066Y-67438065D01*
X139304066Y-67062500D01*
X139291258Y-66932459D01*
X139253327Y-66807416D01*
X139191729Y-66692176D01*
X139108833Y-66591167D01*
X139007824Y-66508271D01*
X138892584Y-66446673D01*
X138767541Y-66408742D01*
X138637500Y-66395934D01*
X138162500Y-66395934D01*
X138032459Y-66408742D01*
X137907416Y-66446673D01*
X137792176Y-66508271D01*
X137691167Y-66591167D01*
X137654066Y-66636375D01*
X137654066Y-66575000D01*
X137645822Y-66491293D01*
X137621405Y-66410804D01*
X137581755Y-66336624D01*
X137528395Y-66271605D01*
X137463376Y-66218245D01*
X137389196Y-66178595D01*
X137308707Y-66154178D01*
X137225000Y-66145934D01*
X135975000Y-66145934D01*
X135891293Y-66154178D01*
X135810804Y-66178595D01*
X135736624Y-66218245D01*
X135671605Y-66271605D01*
X135618245Y-66336624D01*
X135578595Y-66410804D01*
X135554178Y-66491293D01*
X135545934Y-66575000D01*
X135545934Y-66773000D01*
X135544906Y-66773000D01*
X135506755Y-66701624D01*
X135453395Y-66636605D01*
X135388376Y-66583245D01*
X135314196Y-66543595D01*
X135233707Y-66519178D01*
X135150000Y-66510934D01*
X133350000Y-66510934D01*
X133266293Y-66519178D01*
X133185804Y-66543595D01*
X133111624Y-66583245D01*
X133046605Y-66636605D01*
X132993245Y-66701624D01*
X132953595Y-66775804D01*
X132929178Y-66856293D01*
X132920934Y-66940000D01*
X132920934Y-67790000D01*
X132929178Y-67873707D01*
X132953595Y-67954196D01*
X132978078Y-68000000D01*
X132953595Y-68045804D01*
X132929178Y-68126293D01*
X132920934Y-68210000D01*
X132920934Y-69060000D01*
X132929178Y-69143707D01*
X132946315Y-69200198D01*
X132894962Y-69262772D01*
X132855503Y-69336594D01*
X132831205Y-69416696D01*
X132823000Y-69500000D01*
X132823000Y-74857667D01*
X132286500Y-75573000D01*
X130500000Y-75573000D01*
X130387218Y-75588164D01*
X130309040Y-75618080D01*
X129809040Y-75868080D01*
X129762772Y-75894962D01*
X129698065Y-75948065D01*
X129644962Y-76012772D01*
X129605503Y-76086594D01*
X129581205Y-76166696D01*
X129573000Y-76250000D01*
X129573000Y-79750000D01*
X129581205Y-79833304D01*
X129605503Y-79913406D01*
X129644962Y-79987228D01*
X129698065Y-80051935D01*
X129883241Y-80237111D01*
X129896605Y-80253395D01*
X129912889Y-80266759D01*
X130448065Y-80801935D01*
X130512772Y-80855038D01*
X130586594Y-80894497D01*
X130666696Y-80918795D01*
X130750000Y-80927000D01*
X135073130Y-80927000D01*
X135698065Y-81551935D01*
X135762772Y-81605038D01*
X135836594Y-81644497D01*
X135916696Y-81668795D01*
X136000000Y-81677000D01*
X139750000Y-81677000D01*
X139833304Y-81668795D01*
X139913406Y-81644497D01*
X139987228Y-81605038D01*
X140051935Y-81551935D01*
X140801935Y-80801935D01*
X140855038Y-80737228D01*
X140894497Y-80663406D01*
X140918795Y-80583304D01*
X140927000Y-80500000D01*
X140927000Y-77000000D01*
X140926235Y-76992237D01*
X143121965Y-79187967D01*
X143140026Y-79209974D01*
X143162033Y-79228035D01*
X143162035Y-79228037D01*
X143181980Y-79244405D01*
X143227885Y-79282079D01*
X143328124Y-79335657D01*
X143436888Y-79368650D01*
X143521664Y-79377000D01*
X143521670Y-79377000D01*
X143549999Y-79379790D01*
X143573000Y-79377525D01*
X143573000Y-80500000D01*
X143581205Y-80583304D01*
X143605503Y-80663406D01*
X143644962Y-80737228D01*
X143698065Y-80801935D01*
X144198065Y-81301935D01*
X144262772Y-81355038D01*
X144336594Y-81394497D01*
X144416696Y-81418795D01*
X144500000Y-81427000D01*
X147250000Y-81427000D01*
X147333304Y-81418795D01*
X147413406Y-81394497D01*
X147487228Y-81355038D01*
X147551935Y-81301935D01*
X148426870Y-80427000D01*
X157500000Y-80427000D01*
X157583304Y-80418795D01*
X157663406Y-80394497D01*
X157737228Y-80355038D01*
X157801935Y-80301935D01*
X160176870Y-77927000D01*
X160750000Y-77927000D01*
X160833304Y-77918795D01*
X160913406Y-77894497D01*
X160987228Y-77855038D01*
X161051935Y-77801935D01*
X161551935Y-77301935D01*
X161605038Y-77237228D01*
X161644497Y-77163406D01*
X161668795Y-77083304D01*
X161677000Y-77000000D01*
X161677000Y-76327000D01*
X164915069Y-76327000D01*
X164958271Y-76407824D01*
X165041167Y-76508833D01*
X165142176Y-76591729D01*
X165257416Y-76653327D01*
X165382459Y-76691258D01*
X165512500Y-76704066D01*
X165987500Y-76704066D01*
X166117541Y-76691258D01*
X166242584Y-76653327D01*
X166357824Y-76591729D01*
X166458833Y-76508833D01*
X166541729Y-76407824D01*
X166603327Y-76292584D01*
X166641258Y-76167541D01*
X166654066Y-76037500D01*
X166654066Y-75462500D01*
X166641258Y-75332459D01*
X166603327Y-75207416D01*
X166541729Y-75092176D01*
X166458833Y-74991167D01*
X166357824Y-74908271D01*
X166295579Y-74875000D01*
X166357824Y-74841729D01*
X166458833Y-74758833D01*
X166541729Y-74657824D01*
X166584931Y-74577000D01*
X167165069Y-74577000D01*
X167208271Y-74657824D01*
X167291167Y-74758833D01*
X167392176Y-74841729D01*
X167507416Y-74903327D01*
X167632459Y-74941258D01*
X167762500Y-74954066D01*
X168237500Y-74954066D01*
X168367541Y-74941258D01*
X168492584Y-74903327D01*
X168607824Y-74841729D01*
X168708833Y-74758833D01*
X168791729Y-74657824D01*
X168853327Y-74542584D01*
X168891258Y-74417541D01*
X168904066Y-74287500D01*
X168904066Y-73712500D01*
X168891258Y-73582459D01*
X168853327Y-73457416D01*
X168791729Y-73342176D01*
X168708833Y-73241167D01*
X168607824Y-73158271D01*
X168492584Y-73096673D01*
X168367541Y-73058742D01*
X168237500Y-73045934D01*
X167762500Y-73045934D01*
X167632459Y-73058742D01*
X167507416Y-73096673D01*
X167392176Y-73158271D01*
X167291167Y-73241167D01*
X167208271Y-73342176D01*
X167165069Y-73423000D01*
X166584931Y-73423000D01*
X166541729Y-73342176D01*
X166458833Y-73241167D01*
X166357824Y-73158271D01*
X166242584Y-73096673D01*
X166117541Y-73058742D01*
X165987500Y-73045934D01*
X165611935Y-73045934D01*
X165428037Y-72862036D01*
X165409974Y-72840026D01*
X165322115Y-72767921D01*
X165221876Y-72714343D01*
X165152325Y-72693245D01*
X165113111Y-72681349D01*
X165058045Y-72675926D01*
X165028336Y-72673000D01*
X165028331Y-72673000D01*
X165000000Y-72670210D01*
X164971669Y-72673000D01*
X164334931Y-72673000D01*
X164291729Y-72592176D01*
X164208833Y-72491167D01*
X164107824Y-72408271D01*
X164045579Y-72375000D01*
X164107824Y-72341729D01*
X164208833Y-72258833D01*
X164291729Y-72157824D01*
X164334931Y-72077000D01*
X165221669Y-72077000D01*
X165250000Y-72079790D01*
X165278331Y-72077000D01*
X165278336Y-72077000D01*
X165308045Y-72074074D01*
X165363111Y-72068651D01*
X165409462Y-72054590D01*
X165471876Y-72035657D01*
X165572115Y-71982079D01*
X165606248Y-71954066D01*
X165987500Y-71954066D01*
X166117541Y-71941258D01*
X166242584Y-71903327D01*
X166357824Y-71841729D01*
X166458833Y-71758833D01*
X166541729Y-71657824D01*
X166584931Y-71577000D01*
X167165069Y-71577000D01*
X167208271Y-71657824D01*
X167291167Y-71758833D01*
X167392176Y-71841729D01*
X167507416Y-71903327D01*
X167632459Y-71941258D01*
X167762500Y-71954066D01*
X168237500Y-71954066D01*
X168367541Y-71941258D01*
X168492584Y-71903327D01*
X168607824Y-71841729D01*
X168708833Y-71758833D01*
X168791729Y-71657824D01*
X168853327Y-71542584D01*
X168891258Y-71417541D01*
X168904066Y-71287500D01*
X168904066Y-70712500D01*
X168891258Y-70582459D01*
X168853327Y-70457416D01*
X168791729Y-70342176D01*
X168708833Y-70241167D01*
X168607824Y-70158271D01*
X168492584Y-70096673D01*
X168367541Y-70058742D01*
X168237500Y-70045934D01*
X167762500Y-70045934D01*
X167632459Y-70058742D01*
X167507416Y-70096673D01*
X167392176Y-70158271D01*
X167291167Y-70241167D01*
X167208271Y-70342176D01*
X167165069Y-70423000D01*
X166584931Y-70423000D01*
X166541729Y-70342176D01*
X166458833Y-70241167D01*
X166357824Y-70158271D01*
X166295579Y-70125000D01*
X166357824Y-70091729D01*
X166458833Y-70008833D01*
X166541729Y-69907824D01*
X166603327Y-69792584D01*
X166641258Y-69667541D01*
X166654066Y-69537500D01*
X166654066Y-68962500D01*
X166641258Y-68832459D01*
X166603327Y-68707416D01*
X166541729Y-68592176D01*
X166458833Y-68491167D01*
X166357824Y-68408271D01*
X166242584Y-68346673D01*
X166117541Y-68308742D01*
X165987500Y-68295934D01*
X165512500Y-68295934D01*
X165382459Y-68308742D01*
X165257416Y-68346673D01*
X165142176Y-68408271D01*
X165041167Y-68491167D01*
X164958271Y-68592176D01*
X164915069Y-68673000D01*
X162878331Y-68673000D01*
X162850000Y-68670210D01*
X162821669Y-68673000D01*
X162821664Y-68673000D01*
X162794886Y-68675637D01*
X162736888Y-68681349D01*
X162672782Y-68700796D01*
X162628124Y-68714343D01*
X162527885Y-68767921D01*
X162440026Y-68840026D01*
X162421961Y-68862038D01*
X161660999Y-69623000D01*
X158928331Y-69623000D01*
X158900000Y-69620210D01*
X158871669Y-69623000D01*
X158871664Y-69623000D01*
X158844886Y-69625637D01*
X158786888Y-69631349D01*
X158725407Y-69650000D01*
X158678124Y-69664343D01*
X158577885Y-69717921D01*
X158490026Y-69790026D01*
X158471963Y-69812036D01*
X158012038Y-70271961D01*
X157990026Y-70290026D01*
X157917921Y-70377886D01*
X157864343Y-70478125D01*
X157856698Y-70503327D01*
X157831349Y-70586889D01*
X157825889Y-70642333D01*
X157823490Y-70666696D01*
X157820210Y-70700000D01*
X157823000Y-70728331D01*
X157823001Y-74323000D01*
X156750000Y-74323000D01*
X156653237Y-74334108D01*
X156573960Y-74360977D01*
X156501448Y-74402796D01*
X156438488Y-74457957D01*
X156426322Y-74470934D01*
X155700000Y-74470934D01*
X155616293Y-74479178D01*
X155535804Y-74503595D01*
X155461624Y-74543245D01*
X155396605Y-74596605D01*
X155343245Y-74661624D01*
X155303595Y-74735804D01*
X155279178Y-74816293D01*
X155270934Y-74900000D01*
X155270934Y-75703348D01*
X154690010Y-76323000D01*
X153530870Y-76323000D01*
X155801935Y-74051935D01*
X155855038Y-73987228D01*
X155894497Y-73913406D01*
X155918795Y-73833304D01*
X155927000Y-73750000D01*
X155927000Y-71750000D01*
X155918795Y-71666696D01*
X155914590Y-71652832D01*
X156855196Y-70712226D01*
X156881027Y-70691027D01*
X156965628Y-70587941D01*
X157028492Y-70470330D01*
X157067204Y-70342715D01*
X157077000Y-70243252D01*
X157077000Y-70243243D01*
X157080274Y-70210001D01*
X157077000Y-70176759D01*
X157077000Y-65433241D01*
X157080274Y-65399999D01*
X157077000Y-65366757D01*
X157077000Y-65366748D01*
X157067204Y-65267285D01*
X157028492Y-65139670D01*
X156965628Y-65022059D01*
X156931953Y-64981027D01*
X156902223Y-64944801D01*
X156902222Y-64944800D01*
X156881026Y-64918973D01*
X156855200Y-64897778D01*
X156002226Y-64044804D01*
X155981027Y-64018973D01*
X155877941Y-63934372D01*
X155760330Y-63871508D01*
X155632715Y-63832796D01*
X155533252Y-63823000D01*
X155533245Y-63823000D01*
X155500000Y-63819726D01*
X155466755Y-63823000D01*
X153777000Y-63823000D01*
X153777000Y-62810207D01*
X165073000Y-62810207D01*
X165073000Y-63189793D01*
X165147053Y-63562085D01*
X165292315Y-63912777D01*
X165503201Y-64228391D01*
X165771609Y-64496799D01*
X166087223Y-64707685D01*
X166437915Y-64852947D01*
X166810207Y-64927000D01*
X167189793Y-64927000D01*
X167562085Y-64852947D01*
X167912777Y-64707685D01*
X168228391Y-64496799D01*
X168496799Y-64228391D01*
X168707685Y-63912777D01*
X168852947Y-63562085D01*
X168927000Y-63189793D01*
X168927000Y-62810207D01*
X168852947Y-62437915D01*
X168707685Y-62087223D01*
X168496799Y-61771609D01*
X168228391Y-61503201D01*
X167912777Y-61292315D01*
X167562085Y-61147053D01*
X167189793Y-61073000D01*
X166810207Y-61073000D01*
X166437915Y-61147053D01*
X166087223Y-61292315D01*
X165771609Y-61503201D01*
X165503201Y-61771609D01*
X165292315Y-62087223D01*
X165147053Y-62437915D01*
X165073000Y-62810207D01*
X153777000Y-62810207D01*
X153777000Y-62608205D01*
X153807824Y-62591729D01*
X153908833Y-62508833D01*
X153991729Y-62407824D01*
X154053327Y-62292584D01*
X154091258Y-62167541D01*
X154104066Y-62037500D01*
X154104066Y-61562500D01*
X154091258Y-61432459D01*
X154053327Y-61307416D01*
X153991729Y-61192176D01*
X153908833Y-61091167D01*
X153807824Y-61008271D01*
X153692584Y-60946673D01*
X153567541Y-60908742D01*
X153437500Y-60895934D01*
X152862500Y-60895934D01*
X152732459Y-60908742D01*
X152607416Y-60946673D01*
X152492176Y-61008271D01*
X152391167Y-61091167D01*
X152308271Y-61192176D01*
X152275000Y-61254421D01*
X152241729Y-61192176D01*
X152158833Y-61091167D01*
X152057824Y-61008271D01*
X151942584Y-60946673D01*
X151817541Y-60908742D01*
X151687500Y-60895934D01*
X151348361Y-60895934D01*
X151328395Y-60871605D01*
X151263376Y-60818245D01*
X151189196Y-60778595D01*
X151108707Y-60754178D01*
X151025000Y-60745934D01*
X149775000Y-60745934D01*
X149691293Y-60754178D01*
X149610804Y-60778595D01*
X149536624Y-60818245D01*
X149471605Y-60871605D01*
X149451639Y-60895934D01*
X149087500Y-60895934D01*
X148957459Y-60908742D01*
X148832416Y-60946673D01*
X148717176Y-61008271D01*
X148616167Y-61091167D01*
X148533271Y-61192176D01*
X148500000Y-61254421D01*
X148466729Y-61192176D01*
X148383833Y-61091167D01*
X148282824Y-61008271D01*
X148167584Y-60946673D01*
X148042541Y-60908742D01*
X147912500Y-60895934D01*
X147678356Y-60895934D01*
X147259422Y-60477000D01*
X169523000Y-60477000D01*
X169523001Y-84523000D01*
X70477000Y-84523000D01*
X70477000Y-62810207D01*
X71073000Y-62810207D01*
X71073000Y-63189793D01*
X71147053Y-63562085D01*
X71292315Y-63912777D01*
X71503201Y-64228391D01*
X71771609Y-64496799D01*
X72087223Y-64707685D01*
X72437915Y-64852947D01*
X72810207Y-64927000D01*
X73189793Y-64927000D01*
X73562085Y-64852947D01*
X73912777Y-64707685D01*
X74228391Y-64496799D01*
X74496799Y-64228391D01*
X74707685Y-63912777D01*
X74852947Y-63562085D01*
X74927000Y-63189793D01*
X74927000Y-62810207D01*
X74852947Y-62437915D01*
X74707685Y-62087223D01*
X74496799Y-61771609D01*
X74228391Y-61503201D01*
X73912777Y-61292315D01*
X73562085Y-61147053D01*
X73189793Y-61073000D01*
X72810207Y-61073000D01*
X72437915Y-61147053D01*
X72087223Y-61292315D01*
X71771609Y-61503201D01*
X71503201Y-61771609D01*
X71292315Y-62087223D01*
X71147053Y-62437915D01*
X71073000Y-62810207D01*
X70477000Y-62810207D01*
X70477000Y-60477000D01*
X83965578Y-60477000D01*
X83144802Y-61297776D01*
G37*
X83144802Y-61297776D02*
X83118973Y-61318974D01*
X83097778Y-61344800D01*
X83097776Y-61344802D01*
X83075486Y-61371963D01*
X83034372Y-61422060D01*
X82971508Y-61539671D01*
X82932796Y-61667286D01*
X82923000Y-61766749D01*
X82923000Y-61766755D01*
X82919726Y-61800000D01*
X82923000Y-61833245D01*
X82923000Y-63363453D01*
X82660673Y-63188172D01*
X82364578Y-63065525D01*
X82112722Y-63015428D01*
X82164714Y-62963436D01*
X82244275Y-62844364D01*
X82299078Y-62712058D01*
X82327016Y-62571603D01*
X82327016Y-62428397D01*
X82299078Y-62287942D01*
X82244275Y-62155636D01*
X82164714Y-62036564D01*
X82063452Y-61935302D01*
X81944380Y-61855741D01*
X81812074Y-61800938D01*
X81671619Y-61773000D01*
X81528413Y-61773000D01*
X81387958Y-61800938D01*
X81255652Y-61855741D01*
X81154991Y-61923000D01*
X79098329Y-61923000D01*
X79069998Y-61920210D01*
X79041667Y-61923000D01*
X79041662Y-61923000D01*
X79014884Y-61925637D01*
X78956886Y-61931349D01*
X78892780Y-61950796D01*
X78848122Y-61964343D01*
X78747883Y-62017921D01*
X78660024Y-62090026D01*
X78641959Y-62112038D01*
X72512038Y-68241959D01*
X72490026Y-68260024D01*
X72417921Y-68347884D01*
X72364343Y-68448123D01*
X72352398Y-68487500D01*
X72331349Y-68556887D01*
X72326187Y-68609304D01*
X72323657Y-68635000D01*
X72320210Y-68669998D01*
X72323000Y-68698329D01*
X72323001Y-77965659D01*
X72320210Y-77994000D01*
X72331349Y-78107111D01*
X72359528Y-78200000D01*
X72364344Y-78215876D01*
X72417922Y-78316115D01*
X72428551Y-78329066D01*
X72471963Y-78381964D01*
X72471966Y-78381967D01*
X72490027Y-78403974D01*
X72512034Y-78422035D01*
X74757000Y-80667001D01*
X74757000Y-81206280D01*
X74707685Y-81087223D01*
X74496799Y-80771609D01*
X74228391Y-80503201D01*
X73912777Y-80292315D01*
X73562085Y-80147053D01*
X73189793Y-80073000D01*
X72810207Y-80073000D01*
X72437915Y-80147053D01*
X72087223Y-80292315D01*
X71771609Y-80503201D01*
X71503201Y-80771609D01*
X71292315Y-81087223D01*
X71147053Y-81437915D01*
X71073000Y-81810207D01*
X71073000Y-82189793D01*
X71147053Y-82562085D01*
X71292315Y-82912777D01*
X71503201Y-83228391D01*
X71771609Y-83496799D01*
X72087223Y-83707685D01*
X72437915Y-83852947D01*
X72810207Y-83927000D01*
X73189793Y-83927000D01*
X73562085Y-83852947D01*
X73912777Y-83707685D01*
X74228391Y-83496799D01*
X74496799Y-83228391D01*
X74707685Y-82912777D01*
X74728539Y-82862430D01*
X74769302Y-82923436D01*
X74870564Y-83024698D01*
X74989636Y-83104259D01*
X75121942Y-83159062D01*
X75262397Y-83187000D01*
X75405603Y-83187000D01*
X75546058Y-83159062D01*
X75678364Y-83104259D01*
X75797436Y-83024698D01*
X75898698Y-82923436D01*
X75978259Y-82804364D01*
X76033062Y-82672058D01*
X76061000Y-82531603D01*
X76061000Y-82388397D01*
X76033062Y-82247942D01*
X75978259Y-82115636D01*
X75911000Y-82014975D01*
X75911000Y-80456331D01*
X75913790Y-80428000D01*
X75902651Y-80314888D01*
X75869657Y-80206125D01*
X75869657Y-80206124D01*
X75816079Y-80105885D01*
X75743974Y-80018026D01*
X75721963Y-79999962D01*
X73477000Y-77754999D01*
X73477000Y-68908999D01*
X79308999Y-63077000D01*
X81154991Y-63077000D01*
X81244053Y-63136509D01*
X81119327Y-63188172D01*
X80852848Y-63366227D01*
X80626227Y-63592848D01*
X80448172Y-63859327D01*
X80325525Y-64155422D01*
X80263000Y-64469755D01*
X80263000Y-64790245D01*
X80325525Y-65104578D01*
X80448172Y-65400673D01*
X80626227Y-65667152D01*
X80852848Y-65893773D01*
X81119327Y-66071828D01*
X81415422Y-66194475D01*
X81729755Y-66257000D01*
X82050245Y-66257000D01*
X82364578Y-66194475D01*
X82660673Y-66071828D01*
X82923001Y-65896547D01*
X82923001Y-67634677D01*
X82900938Y-67687942D01*
X82873000Y-67828397D01*
X82873000Y-67971603D01*
X82900938Y-68112058D01*
X82955741Y-68244364D01*
X83022205Y-68343835D01*
X77751688Y-68323003D01*
X77689613Y-68327292D01*
X77608307Y-68347195D01*
X77532446Y-68382577D01*
X77469308Y-68428881D01*
X77466293Y-68429178D01*
X77385804Y-68453595D01*
X77311624Y-68493245D01*
X77246605Y-68546605D01*
X77193245Y-68611624D01*
X77153595Y-68685804D01*
X77129178Y-68766293D01*
X77120934Y-68850000D01*
X77120934Y-68877088D01*
X75908400Y-70493800D01*
X75855503Y-70586594D01*
X75831205Y-70666696D01*
X75823000Y-70750000D01*
X75823000Y-76600000D01*
X75835778Y-76703680D01*
X75863965Y-76782498D01*
X75906986Y-76854303D01*
X75963189Y-76916336D01*
X79713189Y-80316336D01*
X79762772Y-80355038D01*
X79836594Y-80394497D01*
X79916696Y-80418795D01*
X80000000Y-80427000D01*
X83500000Y-80427000D01*
X83583304Y-80418795D01*
X83663406Y-80394497D01*
X83737228Y-80355038D01*
X83801935Y-80301935D01*
X84301935Y-79801935D01*
X84355038Y-79737228D01*
X84394497Y-79663406D01*
X84418795Y-79583304D01*
X84427000Y-79500000D01*
X84427000Y-76750000D01*
X84418795Y-76666696D01*
X84394497Y-76586594D01*
X84355038Y-76512772D01*
X84301935Y-76448065D01*
X83980870Y-76127000D01*
X87250000Y-76127000D01*
X87333304Y-76118795D01*
X87413406Y-76094497D01*
X87487228Y-76055038D01*
X87551935Y-76001935D01*
X87573000Y-75976267D01*
X87573000Y-76500000D01*
X87581205Y-76583304D01*
X87605503Y-76663406D01*
X87644962Y-76737228D01*
X87698065Y-76801935D01*
X89198065Y-78301935D01*
X89262772Y-78355038D01*
X89336594Y-78394497D01*
X89416696Y-78418795D01*
X89420859Y-78419205D01*
X89368804Y-78440767D01*
X89012243Y-78679013D01*
X88709013Y-78982243D01*
X88470767Y-79338804D01*
X88306660Y-79734992D01*
X88223000Y-80155584D01*
X88223000Y-80584416D01*
X88306660Y-81005008D01*
X88470767Y-81401196D01*
X88709013Y-81757757D01*
X89012243Y-82060987D01*
X89368804Y-82299233D01*
X89764992Y-82463340D01*
X90185584Y-82547000D01*
X90614416Y-82547000D01*
X91035008Y-82463340D01*
X91431196Y-82299233D01*
X91787757Y-82060987D01*
X92038537Y-81810207D01*
X165073000Y-81810207D01*
X165073000Y-82189793D01*
X165147053Y-82562085D01*
X165292315Y-82912777D01*
X165503201Y-83228391D01*
X165771609Y-83496799D01*
X166087223Y-83707685D01*
X166437915Y-83852947D01*
X166810207Y-83927000D01*
X167189793Y-83927000D01*
X167562085Y-83852947D01*
X167912777Y-83707685D01*
X168228391Y-83496799D01*
X168496799Y-83228391D01*
X168707685Y-82912777D01*
X168852947Y-82562085D01*
X168927000Y-82189793D01*
X168927000Y-81810207D01*
X168852947Y-81437915D01*
X168707685Y-81087223D01*
X168496799Y-80771609D01*
X168228391Y-80503201D01*
X167912777Y-80292315D01*
X167562085Y-80147053D01*
X167189793Y-80073000D01*
X166810207Y-80073000D01*
X166437915Y-80147053D01*
X166087223Y-80292315D01*
X165771609Y-80503201D01*
X165503201Y-80771609D01*
X165292315Y-81087223D01*
X165147053Y-81437915D01*
X165073000Y-81810207D01*
X92038537Y-81810207D01*
X92090987Y-81757757D01*
X92329233Y-81401196D01*
X92493340Y-81005008D01*
X92577000Y-80584416D01*
X92577000Y-80155584D01*
X92493340Y-79734992D01*
X92329233Y-79338804D01*
X92090987Y-78982243D01*
X91787757Y-78679013D01*
X91431196Y-78440767D01*
X91397960Y-78427000D01*
X97023130Y-78427000D01*
X97573000Y-78976870D01*
X97573000Y-80800000D01*
X97581205Y-80883304D01*
X97605503Y-80963406D01*
X97644962Y-81037228D01*
X97698065Y-81101935D01*
X98098065Y-81501935D01*
X98162772Y-81555038D01*
X98236594Y-81594497D01*
X98316696Y-81618795D01*
X98400000Y-81627000D01*
X101800000Y-81627000D01*
X101883304Y-81618795D01*
X101963406Y-81594497D01*
X102037228Y-81555038D01*
X102101935Y-81501935D01*
X102501935Y-81101935D01*
X102555038Y-81037228D01*
X102594497Y-80963406D01*
X102618795Y-80883304D01*
X102627000Y-80800000D01*
X102627000Y-79177131D01*
X102628331Y-79177000D01*
X102628336Y-79177000D01*
X102658045Y-79174074D01*
X102713111Y-79168651D01*
X102757770Y-79155103D01*
X102821876Y-79135657D01*
X102922115Y-79082079D01*
X103009974Y-79009974D01*
X103028039Y-78987962D01*
X106139001Y-75877000D01*
X110291795Y-75877000D01*
X110308271Y-75907824D01*
X110391167Y-76008833D01*
X110492176Y-76091729D01*
X110607416Y-76153327D01*
X110732459Y-76191258D01*
X110862500Y-76204066D01*
X111437500Y-76204066D01*
X111567541Y-76191258D01*
X111692584Y-76153327D01*
X111807824Y-76091729D01*
X111908833Y-76008833D01*
X111991729Y-75907824D01*
X112025000Y-75845579D01*
X112058271Y-75907824D01*
X112141167Y-76008833D01*
X112242176Y-76091729D01*
X112357416Y-76153327D01*
X112482459Y-76191258D01*
X112612500Y-76204066D01*
X113187500Y-76204066D01*
X113317541Y-76191258D01*
X113442584Y-76153327D01*
X113550470Y-76095660D01*
X113323130Y-76323000D01*
X106500000Y-76323000D01*
X106416696Y-76331205D01*
X106336594Y-76355503D01*
X106262772Y-76394962D01*
X106198065Y-76448065D01*
X105698065Y-76948065D01*
X105644962Y-77012772D01*
X105605503Y-77086594D01*
X105581205Y-77166696D01*
X105573000Y-77250000D01*
X105573000Y-80500000D01*
X105581205Y-80583304D01*
X105605503Y-80663406D01*
X105644962Y-80737228D01*
X105698065Y-80801935D01*
X106198065Y-81301935D01*
X106262772Y-81355038D01*
X106336594Y-81394497D01*
X106416696Y-81418795D01*
X106500000Y-81427000D01*
X109500000Y-81427000D01*
X109583304Y-81418795D01*
X109663406Y-81394497D01*
X109737228Y-81355038D01*
X109801935Y-81301935D01*
X111176870Y-79927000D01*
X115323130Y-79927000D01*
X115948065Y-80551935D01*
X116012772Y-80605038D01*
X116086594Y-80644497D01*
X116166696Y-80668795D01*
X116250000Y-80677000D01*
X124000000Y-80677000D01*
X124083304Y-80668795D01*
X124163406Y-80644497D01*
X124237228Y-80605038D01*
X124301935Y-80551935D01*
X124801935Y-80051935D01*
X124855038Y-79987228D01*
X124894497Y-79913406D01*
X124918795Y-79833304D01*
X124927000Y-79750000D01*
X124927000Y-76750000D01*
X124918795Y-76666696D01*
X124894497Y-76586594D01*
X124855038Y-76512772D01*
X124801935Y-76448065D01*
X124516759Y-76162889D01*
X124503395Y-76146605D01*
X124487111Y-76133241D01*
X124051935Y-75698065D01*
X123987228Y-75644962D01*
X123913406Y-75605503D01*
X123833304Y-75581205D01*
X123750000Y-75573000D01*
X123127000Y-75573000D01*
X123127000Y-71284958D01*
X123158833Y-71258833D01*
X123241729Y-71157824D01*
X123303327Y-71042584D01*
X123341258Y-70917541D01*
X123354066Y-70787500D01*
X123354066Y-70212500D01*
X123341258Y-70082459D01*
X123303327Y-69957416D01*
X123248084Y-69854066D01*
X124425000Y-69854066D01*
X124508707Y-69845822D01*
X124589196Y-69821405D01*
X124663376Y-69781755D01*
X124728395Y-69728395D01*
X124734175Y-69721352D01*
X124812500Y-69729066D01*
X125287500Y-69729066D01*
X125417541Y-69716258D01*
X125542584Y-69678327D01*
X125657824Y-69616729D01*
X125758833Y-69533833D01*
X125841729Y-69432824D01*
X125903327Y-69317584D01*
X125905021Y-69312000D01*
X127504426Y-69312000D01*
X127546605Y-69363395D01*
X127611624Y-69416755D01*
X127685804Y-69456405D01*
X127766293Y-69480822D01*
X127850000Y-69489066D01*
X129650000Y-69489066D01*
X129733707Y-69480822D01*
X129814196Y-69456405D01*
X129888376Y-69416755D01*
X129953395Y-69363395D01*
X130006755Y-69298376D01*
X130046405Y-69224196D01*
X130070822Y-69143707D01*
X130079066Y-69060000D01*
X130079066Y-68210000D01*
X130070822Y-68126293D01*
X130046405Y-68045804D01*
X130021922Y-68000000D01*
X130046405Y-67954196D01*
X130070822Y-67873707D01*
X130079066Y-67790000D01*
X130079066Y-66940000D01*
X130070822Y-66856293D01*
X130046405Y-66775804D01*
X130021922Y-66730000D01*
X130046405Y-66684196D01*
X130070822Y-66603707D01*
X130079066Y-66520000D01*
X130079066Y-65670000D01*
X130070822Y-65586293D01*
X130046405Y-65505804D01*
X130006755Y-65431624D01*
X129953395Y-65366605D01*
X129888376Y-65313245D01*
X129814196Y-65273595D01*
X129733707Y-65249178D01*
X129650000Y-65240934D01*
X128056935Y-65240934D01*
X127254066Y-64438065D01*
X127254066Y-64415584D01*
X143423000Y-64415584D01*
X143423000Y-64844416D01*
X143506660Y-65265008D01*
X143670767Y-65661196D01*
X143909013Y-66017757D01*
X144212243Y-66320987D01*
X144568804Y-66559233D01*
X144964992Y-66723340D01*
X145385584Y-66807000D01*
X145814416Y-66807000D01*
X146235008Y-66723340D01*
X146631196Y-66559233D01*
X146987757Y-66320987D01*
X147290987Y-66017757D01*
X147529233Y-65661196D01*
X147693340Y-65265008D01*
X147777000Y-64844416D01*
X147777000Y-64415584D01*
X147693340Y-63994992D01*
X147529233Y-63598804D01*
X147290987Y-63242243D01*
X146987757Y-62939013D01*
X146631196Y-62700767D01*
X146235008Y-62536660D01*
X145814416Y-62453000D01*
X145385584Y-62453000D01*
X144964992Y-62536660D01*
X144568804Y-62700767D01*
X144212243Y-62939013D01*
X143909013Y-63242243D01*
X143670767Y-63598804D01*
X143506660Y-63994992D01*
X143423000Y-64415584D01*
X127254066Y-64415584D01*
X127254066Y-64062500D01*
X127241258Y-63932459D01*
X127203327Y-63807416D01*
X127141729Y-63692176D01*
X127058833Y-63591167D01*
X126957824Y-63508271D01*
X126877000Y-63465069D01*
X126877000Y-63334931D01*
X126957824Y-63291729D01*
X127058833Y-63208833D01*
X127141729Y-63107824D01*
X127203327Y-62992584D01*
X127241258Y-62867541D01*
X127254066Y-62737500D01*
X127254066Y-62262500D01*
X127241258Y-62132459D01*
X127203327Y-62007416D01*
X127141729Y-61892176D01*
X127058833Y-61791167D01*
X126957824Y-61708271D01*
X126842584Y-61646673D01*
X126717541Y-61608742D01*
X126587500Y-61595934D01*
X126012500Y-61595934D01*
X125882459Y-61608742D01*
X125757416Y-61646673D01*
X125642176Y-61708271D01*
X125541167Y-61791167D01*
X125458271Y-61892176D01*
X125425000Y-61954421D01*
X125391729Y-61892176D01*
X125308833Y-61791167D01*
X125207824Y-61708271D01*
X125092584Y-61646673D01*
X124967541Y-61608742D01*
X124837500Y-61595934D01*
X124262500Y-61595934D01*
X124132459Y-61608742D01*
X124007416Y-61646673D01*
X123892176Y-61708271D01*
X123791167Y-61791167D01*
X123708271Y-61892176D01*
X123691795Y-61923000D01*
X122558205Y-61923000D01*
X122541729Y-61892176D01*
X122458833Y-61791167D01*
X122357824Y-61708271D01*
X122242584Y-61646673D01*
X122117541Y-61608742D01*
X121987500Y-61595934D01*
X121512500Y-61595934D01*
X121382459Y-61608742D01*
X121257416Y-61646673D01*
X121142176Y-61708271D01*
X121041167Y-61791167D01*
X120958271Y-61892176D01*
X120896673Y-62007416D01*
X120858742Y-62132459D01*
X120845934Y-62262500D01*
X120845934Y-62837500D01*
X120858742Y-62967541D01*
X120896673Y-63092584D01*
X120958271Y-63207824D01*
X121041167Y-63308833D01*
X121142176Y-63391729D01*
X121257416Y-63453327D01*
X121382459Y-63491258D01*
X121512500Y-63504066D01*
X121987500Y-63504066D01*
X122117541Y-63491258D01*
X122242584Y-63453327D01*
X122357824Y-63391729D01*
X122458833Y-63308833D01*
X122541729Y-63207824D01*
X122603327Y-63092584D01*
X122608054Y-63077000D01*
X123691795Y-63077000D01*
X123708271Y-63107824D01*
X123791167Y-63208833D01*
X123892176Y-63291729D01*
X124007416Y-63353327D01*
X124132459Y-63391258D01*
X124262500Y-63404066D01*
X124837500Y-63404066D01*
X124967541Y-63391258D01*
X125092584Y-63353327D01*
X125207824Y-63291729D01*
X125308833Y-63208833D01*
X125391729Y-63107824D01*
X125425000Y-63045579D01*
X125458271Y-63107824D01*
X125541167Y-63208833D01*
X125642176Y-63291729D01*
X125723001Y-63334931D01*
X125723000Y-63465069D01*
X125642176Y-63508271D01*
X125541167Y-63591167D01*
X125458271Y-63692176D01*
X125396673Y-63807416D01*
X125358742Y-63932459D01*
X125345934Y-64062500D01*
X125345934Y-64537500D01*
X125358742Y-64667541D01*
X125396673Y-64792584D01*
X125458271Y-64907824D01*
X125541167Y-65008833D01*
X125642176Y-65091729D01*
X125757416Y-65153327D01*
X125882459Y-65191258D01*
X126012500Y-65204066D01*
X126388065Y-65204066D01*
X126929933Y-65745934D01*
X126026025Y-65745934D01*
X125982715Y-65732796D01*
X125883252Y-65723000D01*
X125883245Y-65723000D01*
X125850000Y-65719726D01*
X125816755Y-65723000D01*
X125484958Y-65723000D01*
X125458833Y-65691167D01*
X125357824Y-65608271D01*
X125242584Y-65546673D01*
X125117541Y-65508742D01*
X124987500Y-65495934D01*
X124412500Y-65495934D01*
X124282459Y-65508742D01*
X124157416Y-65546673D01*
X124042176Y-65608271D01*
X123941167Y-65691167D01*
X123858271Y-65792176D01*
X123825000Y-65854421D01*
X123791729Y-65792176D01*
X123708833Y-65691167D01*
X123607824Y-65608271D01*
X123492584Y-65546673D01*
X123367541Y-65508742D01*
X123237500Y-65495934D01*
X122662500Y-65495934D01*
X122532459Y-65508742D01*
X122407416Y-65546673D01*
X122292176Y-65608271D01*
X122191167Y-65691167D01*
X122108271Y-65792176D01*
X122046673Y-65907416D01*
X122008742Y-66032459D01*
X121995934Y-66162500D01*
X121995934Y-66396644D01*
X121994799Y-66397779D01*
X121968974Y-66418973D01*
X121947779Y-66444799D01*
X121947776Y-66444802D01*
X121884372Y-66522060D01*
X121821508Y-66639671D01*
X121782796Y-66767286D01*
X121769726Y-66900000D01*
X121773001Y-66933254D01*
X121773000Y-67965042D01*
X121741167Y-67991167D01*
X121658271Y-68092176D01*
X121596673Y-68207416D01*
X121558742Y-68332459D01*
X121545934Y-68462500D01*
X121545934Y-69037500D01*
X121558742Y-69167541D01*
X121596673Y-69292584D01*
X121658271Y-69407824D01*
X121741167Y-69508833D01*
X121842176Y-69591729D01*
X121904421Y-69625000D01*
X121842176Y-69658271D01*
X121741167Y-69741167D01*
X121658271Y-69842176D01*
X121596673Y-69957416D01*
X121558742Y-70082459D01*
X121545934Y-70212500D01*
X121545934Y-70787500D01*
X121558742Y-70917541D01*
X121596673Y-71042584D01*
X121658271Y-71157824D01*
X121741167Y-71258833D01*
X121773000Y-71284958D01*
X121773001Y-75573000D01*
X118176870Y-75573000D01*
X117927000Y-75323130D01*
X117927000Y-74000000D01*
X117918708Y-73916258D01*
X117894325Y-73836182D01*
X117854789Y-73762400D01*
X117801619Y-73697750D01*
X117736857Y-73644715D01*
X117279066Y-73339521D01*
X117279066Y-73050000D01*
X117270822Y-72966293D01*
X117246405Y-72885804D01*
X117206755Y-72811624D01*
X117153395Y-72746605D01*
X117088376Y-72693245D01*
X117014196Y-72653595D01*
X116933707Y-72629178D01*
X116850000Y-72620934D01*
X115195067Y-72620934D01*
X115336935Y-72479066D01*
X116850000Y-72479066D01*
X116933707Y-72470822D01*
X117014196Y-72446405D01*
X117088376Y-72406755D01*
X117153395Y-72353395D01*
X117206755Y-72288376D01*
X117246405Y-72214196D01*
X117270822Y-72133707D01*
X117279066Y-72050000D01*
X117279066Y-71150000D01*
X117270822Y-71066293D01*
X117246405Y-70985804D01*
X117206755Y-70911624D01*
X117153395Y-70846605D01*
X117088376Y-70793245D01*
X117014196Y-70753595D01*
X116933707Y-70729178D01*
X116850000Y-70720934D01*
X116627000Y-70720934D01*
X116627000Y-70434931D01*
X116707824Y-70391729D01*
X116808833Y-70308833D01*
X116891729Y-70207824D01*
X116953327Y-70092584D01*
X116991258Y-69967541D01*
X117004066Y-69837500D01*
X117004066Y-69362500D01*
X116991258Y-69232459D01*
X116953327Y-69107416D01*
X116909590Y-69025591D01*
X117189348Y-69305349D01*
X117155741Y-69355646D01*
X117100938Y-69487952D01*
X117073000Y-69628407D01*
X117073000Y-69771613D01*
X117100938Y-69912068D01*
X117155741Y-70044374D01*
X117235302Y-70163446D01*
X117336564Y-70264708D01*
X117455636Y-70344269D01*
X117587942Y-70399072D01*
X117728397Y-70427010D01*
X117871603Y-70427010D01*
X118012058Y-70399072D01*
X118144364Y-70344269D01*
X118263436Y-70264708D01*
X118364698Y-70163446D01*
X118444259Y-70044374D01*
X118499062Y-69912068D01*
X118527000Y-69771613D01*
X118527000Y-69628407D01*
X118499062Y-69487952D01*
X118444259Y-69355646D01*
X118377000Y-69254985D01*
X118377000Y-69128328D01*
X118379790Y-69099999D01*
X118377000Y-69071670D01*
X118377000Y-69071664D01*
X118368650Y-68986888D01*
X118335657Y-68878124D01*
X118282079Y-68777885D01*
X118209974Y-68690026D01*
X118187963Y-68671962D01*
X116728039Y-67212038D01*
X116709974Y-67190026D01*
X116622115Y-67117921D01*
X116521876Y-67064343D01*
X116457770Y-67044897D01*
X116413111Y-67031349D01*
X116358045Y-67025926D01*
X116328336Y-67023000D01*
X116328331Y-67023000D01*
X116300000Y-67020210D01*
X116271669Y-67023000D01*
X101178330Y-67023000D01*
X101149999Y-67020210D01*
X101121668Y-67023000D01*
X101121664Y-67023000D01*
X101097971Y-67025334D01*
X101036888Y-67031349D01*
X100972782Y-67050796D01*
X100928124Y-67064343D01*
X100827885Y-67117921D01*
X100796535Y-67143650D01*
X100762035Y-67171963D01*
X100762033Y-67171965D01*
X100740026Y-67190026D01*
X100721965Y-67212033D01*
X100677000Y-67256998D01*
X100677000Y-64828328D01*
X100679790Y-64799999D01*
X100677000Y-64771670D01*
X100677000Y-64771664D01*
X100668650Y-64686888D01*
X100635657Y-64578124D01*
X100582079Y-64477885D01*
X100535340Y-64420934D01*
X100528037Y-64412035D01*
X100528035Y-64412033D01*
X100509974Y-64390026D01*
X100487967Y-64371965D01*
X98228039Y-62112038D01*
X98209974Y-62090026D01*
X98122115Y-62017921D01*
X98021876Y-61964343D01*
X97957770Y-61944897D01*
X97913111Y-61931349D01*
X97858045Y-61925926D01*
X97828336Y-61923000D01*
X97828331Y-61923000D01*
X97800000Y-61920210D01*
X97771669Y-61923000D01*
X93645025Y-61923000D01*
X93544364Y-61855741D01*
X93412058Y-61800938D01*
X93271603Y-61773000D01*
X93128397Y-61773000D01*
X92987942Y-61800938D01*
X92855636Y-61855741D01*
X92736564Y-61935302D01*
X92635302Y-62036564D01*
X92555741Y-62155636D01*
X92500938Y-62287942D01*
X92473000Y-62428397D01*
X92473000Y-62571603D01*
X92500938Y-62712058D01*
X92555741Y-62844364D01*
X92635302Y-62963436D01*
X92736564Y-63064698D01*
X92855636Y-63144259D01*
X92987942Y-63199062D01*
X93128397Y-63227000D01*
X93271603Y-63227000D01*
X93412058Y-63199062D01*
X93544364Y-63144259D01*
X93645025Y-63077000D01*
X95429355Y-63077000D01*
X95420934Y-63162500D01*
X95420934Y-63637500D01*
X95433742Y-63767541D01*
X95471673Y-63892584D01*
X95533271Y-64007824D01*
X95616167Y-64108833D01*
X95717176Y-64191729D01*
X95832416Y-64253327D01*
X95957459Y-64291258D01*
X96087500Y-64304066D01*
X96662500Y-64304066D01*
X96792541Y-64291258D01*
X96917584Y-64253327D01*
X97032824Y-64191729D01*
X97133833Y-64108833D01*
X97216729Y-64007824D01*
X97233205Y-63977000D01*
X97360999Y-63977000D01*
X98723001Y-65339003D01*
X98723000Y-66910999D01*
X98396753Y-67237246D01*
X98381428Y-67218572D01*
X98305044Y-67155884D01*
X98217898Y-67109304D01*
X98123338Y-67080619D01*
X98025000Y-67070934D01*
X96700000Y-67070934D01*
X96601662Y-67080619D01*
X96507102Y-67109304D01*
X96419956Y-67155884D01*
X96343572Y-67218572D01*
X96280884Y-67294956D01*
X96234304Y-67382102D01*
X96205619Y-67476662D01*
X96195934Y-67575000D01*
X96195934Y-67725000D01*
X96205619Y-67823338D01*
X96228875Y-67900000D01*
X96205619Y-67976662D01*
X96195934Y-68075000D01*
X96195934Y-68225000D01*
X96205619Y-68323338D01*
X96228875Y-68400000D01*
X96205619Y-68476662D01*
X96195934Y-68575000D01*
X96195934Y-68725000D01*
X96205619Y-68823338D01*
X96228875Y-68900000D01*
X96205619Y-68976662D01*
X96195934Y-69075000D01*
X96195934Y-69168140D01*
X96181205Y-69216696D01*
X96173000Y-69300000D01*
X96173000Y-70300000D01*
X96186359Y-70405973D01*
X96214982Y-70484634D01*
X96258400Y-70556200D01*
X96323000Y-70642333D01*
X96323000Y-72521477D01*
X95870716Y-72823000D01*
X93676870Y-72823000D01*
X92929066Y-72075196D01*
X92929066Y-72000000D01*
X92920822Y-71916293D01*
X92896405Y-71835804D01*
X92856755Y-71761624D01*
X92803395Y-71696605D01*
X92738376Y-71643245D01*
X92664196Y-71603595D01*
X92583707Y-71579178D01*
X92500000Y-71570934D01*
X90500000Y-71570934D01*
X90416293Y-71579178D01*
X90335804Y-71603595D01*
X90261624Y-71643245D01*
X90256053Y-71647817D01*
X90476870Y-71427000D01*
X92750000Y-71427000D01*
X92861009Y-71412318D01*
X92939316Y-71382738D01*
X93010346Y-71338450D01*
X93660346Y-70838450D01*
X93701935Y-70801935D01*
X93755038Y-70737228D01*
X93794497Y-70663406D01*
X93818795Y-70583304D01*
X93827000Y-70500000D01*
X93827000Y-69500000D01*
X93818795Y-69416696D01*
X93794497Y-69336594D01*
X93791858Y-69331656D01*
X93794381Y-69323338D01*
X93804066Y-69225000D01*
X93804066Y-69075000D01*
X93794381Y-68976662D01*
X93765696Y-68882102D01*
X93719116Y-68794956D01*
X93656428Y-68718572D01*
X93580044Y-68655884D01*
X93569036Y-68650000D01*
X93580044Y-68644116D01*
X93656428Y-68581428D01*
X93719116Y-68505044D01*
X93765696Y-68417898D01*
X93794381Y-68323338D01*
X93804066Y-68225000D01*
X93804066Y-68075000D01*
X93794381Y-67976662D01*
X93771125Y-67900000D01*
X93794381Y-67823338D01*
X93804066Y-67725000D01*
X93804066Y-67575000D01*
X93794381Y-67476662D01*
X93765696Y-67382102D01*
X93719116Y-67294956D01*
X93656428Y-67218572D01*
X93580044Y-67155884D01*
X93492898Y-67109304D01*
X93398338Y-67080619D01*
X93300000Y-67070934D01*
X93214500Y-67070934D01*
X93214500Y-63927830D01*
X93217290Y-63899501D01*
X93214500Y-63871172D01*
X93214500Y-63871166D01*
X93206150Y-63786390D01*
X93173157Y-63677626D01*
X93119579Y-63577387D01*
X93081905Y-63531482D01*
X93065537Y-63511537D01*
X93065535Y-63511535D01*
X93047474Y-63489528D01*
X93025467Y-63471467D01*
X91130999Y-61577000D01*
X146444578Y-61577000D01*
X146670934Y-61803356D01*
X146670934Y-62037500D01*
X146683742Y-62167541D01*
X146721673Y-62292584D01*
X146783271Y-62407824D01*
X146866167Y-62508833D01*
X146967176Y-62591729D01*
X147082416Y-62653327D01*
X147207459Y-62691258D01*
X147337500Y-62704066D01*
X147912500Y-62704066D01*
X148042541Y-62691258D01*
X148167584Y-62653327D01*
X148282824Y-62591729D01*
X148383833Y-62508833D01*
X148466729Y-62407824D01*
X148500000Y-62345579D01*
X148533271Y-62407824D01*
X148616167Y-62508833D01*
X148717176Y-62591729D01*
X148832416Y-62653327D01*
X148957459Y-62691258D01*
X149087500Y-62704066D01*
X149451639Y-62704066D01*
X149471605Y-62728395D01*
X149536624Y-62781755D01*
X149610804Y-62821405D01*
X149691293Y-62845822D01*
X149775000Y-62854066D01*
X150373000Y-62854066D01*
X150373000Y-63290934D01*
X149775000Y-63290934D01*
X149691293Y-63299178D01*
X149610804Y-63323595D01*
X149536624Y-63363245D01*
X149471605Y-63416605D01*
X149418245Y-63481624D01*
X149378595Y-63555804D01*
X149354178Y-63636293D01*
X149345934Y-63720000D01*
X149345934Y-65280000D01*
X149354178Y-65363707D01*
X149378595Y-65444196D01*
X149418245Y-65518376D01*
X149471605Y-65583395D01*
X149536624Y-65636755D01*
X149610804Y-65676405D01*
X149691293Y-65700822D01*
X149775000Y-65709066D01*
X150425000Y-65709066D01*
X150508707Y-65700822D01*
X150575000Y-65680711D01*
X150641293Y-65700822D01*
X150725000Y-65709066D01*
X150874400Y-65709066D01*
X150871957Y-65712043D01*
X150662034Y-65921965D01*
X150640027Y-65940026D01*
X150621966Y-65962033D01*
X150621963Y-65962036D01*
X150605671Y-65981888D01*
X150567922Y-66027885D01*
X150532049Y-66095000D01*
X150514344Y-66128124D01*
X150493251Y-66197656D01*
X150425000Y-66190934D01*
X149775000Y-66190934D01*
X149691293Y-66199178D01*
X149610804Y-66223595D01*
X149536624Y-66263245D01*
X149471605Y-66316605D01*
X149418245Y-66381624D01*
X149378595Y-66455804D01*
X149354178Y-66536293D01*
X149345934Y-66620000D01*
X149345934Y-68180000D01*
X149354178Y-68263707D01*
X149378595Y-68344196D01*
X149418245Y-68418376D01*
X149471605Y-68483395D01*
X149523000Y-68525574D01*
X149523000Y-68545934D01*
X149375000Y-68545934D01*
X149291293Y-68554178D01*
X149210804Y-68578595D01*
X149136624Y-68618245D01*
X149071605Y-68671605D01*
X149018245Y-68736624D01*
X148978595Y-68810804D01*
X148954178Y-68891293D01*
X148945934Y-68975000D01*
X148945934Y-70225000D01*
X148954178Y-70308707D01*
X148970730Y-70363269D01*
X148677000Y-70656999D01*
X148677000Y-69000000D01*
X148668795Y-68916696D01*
X148644497Y-68836594D01*
X148605038Y-68762772D01*
X148551935Y-68698065D01*
X148487228Y-68644962D01*
X148413406Y-68605503D01*
X148333304Y-68581205D01*
X148250000Y-68573000D01*
X142250000Y-68573000D01*
X142166696Y-68581205D01*
X142086594Y-68605503D01*
X142012772Y-68644962D01*
X141948065Y-68698065D01*
X141894962Y-68762772D01*
X141855503Y-68836594D01*
X141831205Y-68916696D01*
X141823000Y-69000000D01*
X141823000Y-71250000D01*
X141831205Y-71333304D01*
X141855503Y-71413406D01*
X141894962Y-71487228D01*
X141948065Y-71551935D01*
X142012772Y-71605038D01*
X142086594Y-71644497D01*
X142166696Y-71668795D01*
X142250000Y-71677000D01*
X144756998Y-71677000D01*
X144549906Y-71884092D01*
X144533707Y-71879178D01*
X144450000Y-71870934D01*
X143550000Y-71870934D01*
X143466293Y-71879178D01*
X143385804Y-71903595D01*
X143311624Y-71943245D01*
X143246605Y-71996605D01*
X143193245Y-72061624D01*
X143153595Y-72135804D01*
X143129178Y-72216293D01*
X143120934Y-72300000D01*
X143120934Y-74200000D01*
X143129178Y-74283707D01*
X143153595Y-74364196D01*
X143193245Y-74438376D01*
X143246605Y-74503395D01*
X143311624Y-74556755D01*
X143385804Y-74596405D01*
X143466293Y-74620822D01*
X143550000Y-74629066D01*
X144450000Y-74629066D01*
X144533707Y-74620822D01*
X144614196Y-74596405D01*
X144688376Y-74556755D01*
X144753395Y-74503395D01*
X144806755Y-74438376D01*
X144846405Y-74364196D01*
X144870822Y-74283707D01*
X144879066Y-74200000D01*
X144879066Y-73186935D01*
X144973000Y-73093001D01*
X144973000Y-75800000D01*
X144977036Y-75858567D01*
X144996589Y-75939958D01*
X145031645Y-76015971D01*
X145080856Y-76083683D01*
X145293582Y-76323000D01*
X144500000Y-76323000D01*
X144416696Y-76331205D01*
X144336594Y-76355503D01*
X144262772Y-76394962D01*
X144198065Y-76448065D01*
X143698065Y-76948065D01*
X143644962Y-77012772D01*
X143605503Y-77086594D01*
X143581205Y-77166696D01*
X143573000Y-77250000D01*
X143573000Y-78006998D01*
X140277000Y-74710999D01*
X140277000Y-72408205D01*
X140307824Y-72391729D01*
X140408833Y-72308833D01*
X140491729Y-72207824D01*
X140553327Y-72092584D01*
X140591258Y-71967541D01*
X140604066Y-71837500D01*
X140604066Y-71262500D01*
X140591258Y-71132459D01*
X140553327Y-71007416D01*
X140491729Y-70892176D01*
X140408833Y-70791167D01*
X140307824Y-70708271D01*
X140245579Y-70675000D01*
X140307824Y-70641729D01*
X140408833Y-70558833D01*
X140491729Y-70457824D01*
X140553327Y-70342584D01*
X140591258Y-70217541D01*
X140604066Y-70087500D01*
X140604066Y-69512500D01*
X140591258Y-69382459D01*
X140553327Y-69257416D01*
X140491729Y-69142176D01*
X140408833Y-69041167D01*
X140307824Y-68958271D01*
X140277000Y-68941795D01*
X140277000Y-68678339D01*
X140279791Y-68650000D01*
X140268651Y-68536888D01*
X140247034Y-68465628D01*
X140235657Y-68428124D01*
X140182079Y-68327885D01*
X140109974Y-68240026D01*
X140087962Y-68221961D01*
X139304066Y-67438065D01*
X139304066Y-67062500D01*
X139291258Y-66932459D01*
X139253327Y-66807416D01*
X139191729Y-66692176D01*
X139108833Y-66591167D01*
X139007824Y-66508271D01*
X138892584Y-66446673D01*
X138767541Y-66408742D01*
X138637500Y-66395934D01*
X138162500Y-66395934D01*
X138032459Y-66408742D01*
X137907416Y-66446673D01*
X137792176Y-66508271D01*
X137691167Y-66591167D01*
X137654066Y-66636375D01*
X137654066Y-66575000D01*
X137645822Y-66491293D01*
X137621405Y-66410804D01*
X137581755Y-66336624D01*
X137528395Y-66271605D01*
X137463376Y-66218245D01*
X137389196Y-66178595D01*
X137308707Y-66154178D01*
X137225000Y-66145934D01*
X135975000Y-66145934D01*
X135891293Y-66154178D01*
X135810804Y-66178595D01*
X135736624Y-66218245D01*
X135671605Y-66271605D01*
X135618245Y-66336624D01*
X135578595Y-66410804D01*
X135554178Y-66491293D01*
X135545934Y-66575000D01*
X135545934Y-66773000D01*
X135544906Y-66773000D01*
X135506755Y-66701624D01*
X135453395Y-66636605D01*
X135388376Y-66583245D01*
X135314196Y-66543595D01*
X135233707Y-66519178D01*
X135150000Y-66510934D01*
X133350000Y-66510934D01*
X133266293Y-66519178D01*
X133185804Y-66543595D01*
X133111624Y-66583245D01*
X133046605Y-66636605D01*
X132993245Y-66701624D01*
X132953595Y-66775804D01*
X132929178Y-66856293D01*
X132920934Y-66940000D01*
X132920934Y-67790000D01*
X132929178Y-67873707D01*
X132953595Y-67954196D01*
X132978078Y-68000000D01*
X132953595Y-68045804D01*
X132929178Y-68126293D01*
X132920934Y-68210000D01*
X132920934Y-69060000D01*
X132929178Y-69143707D01*
X132946315Y-69200198D01*
X132894962Y-69262772D01*
X132855503Y-69336594D01*
X132831205Y-69416696D01*
X132823000Y-69500000D01*
X132823000Y-74857667D01*
X132286500Y-75573000D01*
X130500000Y-75573000D01*
X130387218Y-75588164D01*
X130309040Y-75618080D01*
X129809040Y-75868080D01*
X129762772Y-75894962D01*
X129698065Y-75948065D01*
X129644962Y-76012772D01*
X129605503Y-76086594D01*
X129581205Y-76166696D01*
X129573000Y-76250000D01*
X129573000Y-79750000D01*
X129581205Y-79833304D01*
X129605503Y-79913406D01*
X129644962Y-79987228D01*
X129698065Y-80051935D01*
X129883241Y-80237111D01*
X129896605Y-80253395D01*
X129912889Y-80266759D01*
X130448065Y-80801935D01*
X130512772Y-80855038D01*
X130586594Y-80894497D01*
X130666696Y-80918795D01*
X130750000Y-80927000D01*
X135073130Y-80927000D01*
X135698065Y-81551935D01*
X135762772Y-81605038D01*
X135836594Y-81644497D01*
X135916696Y-81668795D01*
X136000000Y-81677000D01*
X139750000Y-81677000D01*
X139833304Y-81668795D01*
X139913406Y-81644497D01*
X139987228Y-81605038D01*
X140051935Y-81551935D01*
X140801935Y-80801935D01*
X140855038Y-80737228D01*
X140894497Y-80663406D01*
X140918795Y-80583304D01*
X140927000Y-80500000D01*
X140927000Y-77000000D01*
X140926235Y-76992237D01*
X143121965Y-79187967D01*
X143140026Y-79209974D01*
X143162033Y-79228035D01*
X143162035Y-79228037D01*
X143181980Y-79244405D01*
X143227885Y-79282079D01*
X143328124Y-79335657D01*
X143436888Y-79368650D01*
X143521664Y-79377000D01*
X143521670Y-79377000D01*
X143549999Y-79379790D01*
X143573000Y-79377525D01*
X143573000Y-80500000D01*
X143581205Y-80583304D01*
X143605503Y-80663406D01*
X143644962Y-80737228D01*
X143698065Y-80801935D01*
X144198065Y-81301935D01*
X144262772Y-81355038D01*
X144336594Y-81394497D01*
X144416696Y-81418795D01*
X144500000Y-81427000D01*
X147250000Y-81427000D01*
X147333304Y-81418795D01*
X147413406Y-81394497D01*
X147487228Y-81355038D01*
X147551935Y-81301935D01*
X148426870Y-80427000D01*
X157500000Y-80427000D01*
X157583304Y-80418795D01*
X157663406Y-80394497D01*
X157737228Y-80355038D01*
X157801935Y-80301935D01*
X160176870Y-77927000D01*
X160750000Y-77927000D01*
X160833304Y-77918795D01*
X160913406Y-77894497D01*
X160987228Y-77855038D01*
X161051935Y-77801935D01*
X161551935Y-77301935D01*
X161605038Y-77237228D01*
X161644497Y-77163406D01*
X161668795Y-77083304D01*
X161677000Y-77000000D01*
X161677000Y-76327000D01*
X164915069Y-76327000D01*
X164958271Y-76407824D01*
X165041167Y-76508833D01*
X165142176Y-76591729D01*
X165257416Y-76653327D01*
X165382459Y-76691258D01*
X165512500Y-76704066D01*
X165987500Y-76704066D01*
X166117541Y-76691258D01*
X166242584Y-76653327D01*
X166357824Y-76591729D01*
X166458833Y-76508833D01*
X166541729Y-76407824D01*
X166603327Y-76292584D01*
X166641258Y-76167541D01*
X166654066Y-76037500D01*
X166654066Y-75462500D01*
X166641258Y-75332459D01*
X166603327Y-75207416D01*
X166541729Y-75092176D01*
X166458833Y-74991167D01*
X166357824Y-74908271D01*
X166295579Y-74875000D01*
X166357824Y-74841729D01*
X166458833Y-74758833D01*
X166541729Y-74657824D01*
X166584931Y-74577000D01*
X167165069Y-74577000D01*
X167208271Y-74657824D01*
X167291167Y-74758833D01*
X167392176Y-74841729D01*
X167507416Y-74903327D01*
X167632459Y-74941258D01*
X167762500Y-74954066D01*
X168237500Y-74954066D01*
X168367541Y-74941258D01*
X168492584Y-74903327D01*
X168607824Y-74841729D01*
X168708833Y-74758833D01*
X168791729Y-74657824D01*
X168853327Y-74542584D01*
X168891258Y-74417541D01*
X168904066Y-74287500D01*
X168904066Y-73712500D01*
X168891258Y-73582459D01*
X168853327Y-73457416D01*
X168791729Y-73342176D01*
X168708833Y-73241167D01*
X168607824Y-73158271D01*
X168492584Y-73096673D01*
X168367541Y-73058742D01*
X168237500Y-73045934D01*
X167762500Y-73045934D01*
X167632459Y-73058742D01*
X167507416Y-73096673D01*
X167392176Y-73158271D01*
X167291167Y-73241167D01*
X167208271Y-73342176D01*
X167165069Y-73423000D01*
X166584931Y-73423000D01*
X166541729Y-73342176D01*
X166458833Y-73241167D01*
X166357824Y-73158271D01*
X166242584Y-73096673D01*
X166117541Y-73058742D01*
X165987500Y-73045934D01*
X165611935Y-73045934D01*
X165428037Y-72862036D01*
X165409974Y-72840026D01*
X165322115Y-72767921D01*
X165221876Y-72714343D01*
X165152325Y-72693245D01*
X165113111Y-72681349D01*
X165058045Y-72675926D01*
X165028336Y-72673000D01*
X165028331Y-72673000D01*
X165000000Y-72670210D01*
X164971669Y-72673000D01*
X164334931Y-72673000D01*
X164291729Y-72592176D01*
X164208833Y-72491167D01*
X164107824Y-72408271D01*
X164045579Y-72375000D01*
X164107824Y-72341729D01*
X164208833Y-72258833D01*
X164291729Y-72157824D01*
X164334931Y-72077000D01*
X165221669Y-72077000D01*
X165250000Y-72079790D01*
X165278331Y-72077000D01*
X165278336Y-72077000D01*
X165308045Y-72074074D01*
X165363111Y-72068651D01*
X165409462Y-72054590D01*
X165471876Y-72035657D01*
X165572115Y-71982079D01*
X165606248Y-71954066D01*
X165987500Y-71954066D01*
X166117541Y-71941258D01*
X166242584Y-71903327D01*
X166357824Y-71841729D01*
X166458833Y-71758833D01*
X166541729Y-71657824D01*
X166584931Y-71577000D01*
X167165069Y-71577000D01*
X167208271Y-71657824D01*
X167291167Y-71758833D01*
X167392176Y-71841729D01*
X167507416Y-71903327D01*
X167632459Y-71941258D01*
X167762500Y-71954066D01*
X168237500Y-71954066D01*
X168367541Y-71941258D01*
X168492584Y-71903327D01*
X168607824Y-71841729D01*
X168708833Y-71758833D01*
X168791729Y-71657824D01*
X168853327Y-71542584D01*
X168891258Y-71417541D01*
X168904066Y-71287500D01*
X168904066Y-70712500D01*
X168891258Y-70582459D01*
X168853327Y-70457416D01*
X168791729Y-70342176D01*
X168708833Y-70241167D01*
X168607824Y-70158271D01*
X168492584Y-70096673D01*
X168367541Y-70058742D01*
X168237500Y-70045934D01*
X167762500Y-70045934D01*
X167632459Y-70058742D01*
X167507416Y-70096673D01*
X167392176Y-70158271D01*
X167291167Y-70241167D01*
X167208271Y-70342176D01*
X167165069Y-70423000D01*
X166584931Y-70423000D01*
X166541729Y-70342176D01*
X166458833Y-70241167D01*
X166357824Y-70158271D01*
X166295579Y-70125000D01*
X166357824Y-70091729D01*
X166458833Y-70008833D01*
X166541729Y-69907824D01*
X166603327Y-69792584D01*
X166641258Y-69667541D01*
X166654066Y-69537500D01*
X166654066Y-68962500D01*
X166641258Y-68832459D01*
X166603327Y-68707416D01*
X166541729Y-68592176D01*
X166458833Y-68491167D01*
X166357824Y-68408271D01*
X166242584Y-68346673D01*
X166117541Y-68308742D01*
X165987500Y-68295934D01*
X165512500Y-68295934D01*
X165382459Y-68308742D01*
X165257416Y-68346673D01*
X165142176Y-68408271D01*
X165041167Y-68491167D01*
X164958271Y-68592176D01*
X164915069Y-68673000D01*
X162878331Y-68673000D01*
X162850000Y-68670210D01*
X162821669Y-68673000D01*
X162821664Y-68673000D01*
X162794886Y-68675637D01*
X162736888Y-68681349D01*
X162672782Y-68700796D01*
X162628124Y-68714343D01*
X162527885Y-68767921D01*
X162440026Y-68840026D01*
X162421961Y-68862038D01*
X161660999Y-69623000D01*
X158928331Y-69623000D01*
X158900000Y-69620210D01*
X158871669Y-69623000D01*
X158871664Y-69623000D01*
X158844886Y-69625637D01*
X158786888Y-69631349D01*
X158725407Y-69650000D01*
X158678124Y-69664343D01*
X158577885Y-69717921D01*
X158490026Y-69790026D01*
X158471963Y-69812036D01*
X158012038Y-70271961D01*
X157990026Y-70290026D01*
X157917921Y-70377886D01*
X157864343Y-70478125D01*
X157856698Y-70503327D01*
X157831349Y-70586889D01*
X157825889Y-70642333D01*
X157823490Y-70666696D01*
X157820210Y-70700000D01*
X157823000Y-70728331D01*
X157823001Y-74323000D01*
X156750000Y-74323000D01*
X156653237Y-74334108D01*
X156573960Y-74360977D01*
X156501448Y-74402796D01*
X156438488Y-74457957D01*
X156426322Y-74470934D01*
X155700000Y-74470934D01*
X155616293Y-74479178D01*
X155535804Y-74503595D01*
X155461624Y-74543245D01*
X155396605Y-74596605D01*
X155343245Y-74661624D01*
X155303595Y-74735804D01*
X155279178Y-74816293D01*
X155270934Y-74900000D01*
X155270934Y-75703348D01*
X154690010Y-76323000D01*
X153530870Y-76323000D01*
X155801935Y-74051935D01*
X155855038Y-73987228D01*
X155894497Y-73913406D01*
X155918795Y-73833304D01*
X155927000Y-73750000D01*
X155927000Y-71750000D01*
X155918795Y-71666696D01*
X155914590Y-71652832D01*
X156855196Y-70712226D01*
X156881027Y-70691027D01*
X156965628Y-70587941D01*
X157028492Y-70470330D01*
X157067204Y-70342715D01*
X157077000Y-70243252D01*
X157077000Y-70243243D01*
X157080274Y-70210001D01*
X157077000Y-70176759D01*
X157077000Y-65433241D01*
X157080274Y-65399999D01*
X157077000Y-65366757D01*
X157077000Y-65366748D01*
X157067204Y-65267285D01*
X157028492Y-65139670D01*
X156965628Y-65022059D01*
X156931953Y-64981027D01*
X156902223Y-64944801D01*
X156902222Y-64944800D01*
X156881026Y-64918973D01*
X156855200Y-64897778D01*
X156002226Y-64044804D01*
X155981027Y-64018973D01*
X155877941Y-63934372D01*
X155760330Y-63871508D01*
X155632715Y-63832796D01*
X155533252Y-63823000D01*
X155533245Y-63823000D01*
X155500000Y-63819726D01*
X155466755Y-63823000D01*
X153777000Y-63823000D01*
X153777000Y-62810207D01*
X165073000Y-62810207D01*
X165073000Y-63189793D01*
X165147053Y-63562085D01*
X165292315Y-63912777D01*
X165503201Y-64228391D01*
X165771609Y-64496799D01*
X166087223Y-64707685D01*
X166437915Y-64852947D01*
X166810207Y-64927000D01*
X167189793Y-64927000D01*
X167562085Y-64852947D01*
X167912777Y-64707685D01*
X168228391Y-64496799D01*
X168496799Y-64228391D01*
X168707685Y-63912777D01*
X168852947Y-63562085D01*
X168927000Y-63189793D01*
X168927000Y-62810207D01*
X168852947Y-62437915D01*
X168707685Y-62087223D01*
X168496799Y-61771609D01*
X168228391Y-61503201D01*
X167912777Y-61292315D01*
X167562085Y-61147053D01*
X167189793Y-61073000D01*
X166810207Y-61073000D01*
X166437915Y-61147053D01*
X166087223Y-61292315D01*
X165771609Y-61503201D01*
X165503201Y-61771609D01*
X165292315Y-62087223D01*
X165147053Y-62437915D01*
X165073000Y-62810207D01*
X153777000Y-62810207D01*
X153777000Y-62608205D01*
X153807824Y-62591729D01*
X153908833Y-62508833D01*
X153991729Y-62407824D01*
X154053327Y-62292584D01*
X154091258Y-62167541D01*
X154104066Y-62037500D01*
X154104066Y-61562500D01*
X154091258Y-61432459D01*
X154053327Y-61307416D01*
X153991729Y-61192176D01*
X153908833Y-61091167D01*
X153807824Y-61008271D01*
X153692584Y-60946673D01*
X153567541Y-60908742D01*
X153437500Y-60895934D01*
X152862500Y-60895934D01*
X152732459Y-60908742D01*
X152607416Y-60946673D01*
X152492176Y-61008271D01*
X152391167Y-61091167D01*
X152308271Y-61192176D01*
X152275000Y-61254421D01*
X152241729Y-61192176D01*
X152158833Y-61091167D01*
X152057824Y-61008271D01*
X151942584Y-60946673D01*
X151817541Y-60908742D01*
X151687500Y-60895934D01*
X151348361Y-60895934D01*
X151328395Y-60871605D01*
X151263376Y-60818245D01*
X151189196Y-60778595D01*
X151108707Y-60754178D01*
X151025000Y-60745934D01*
X149775000Y-60745934D01*
X149691293Y-60754178D01*
X149610804Y-60778595D01*
X149536624Y-60818245D01*
X149471605Y-60871605D01*
X149451639Y-60895934D01*
X149087500Y-60895934D01*
X148957459Y-60908742D01*
X148832416Y-60946673D01*
X148717176Y-61008271D01*
X148616167Y-61091167D01*
X148533271Y-61192176D01*
X148500000Y-61254421D01*
X148466729Y-61192176D01*
X148383833Y-61091167D01*
X148282824Y-61008271D01*
X148167584Y-60946673D01*
X148042541Y-60908742D01*
X147912500Y-60895934D01*
X147678356Y-60895934D01*
X147259422Y-60477000D01*
X169523000Y-60477000D01*
X169523001Y-84523000D01*
X70477000Y-84523000D01*
X70477000Y-62810207D01*
X71073000Y-62810207D01*
X71073000Y-63189793D01*
X71147053Y-63562085D01*
X71292315Y-63912777D01*
X71503201Y-64228391D01*
X71771609Y-64496799D01*
X72087223Y-64707685D01*
X72437915Y-64852947D01*
X72810207Y-64927000D01*
X73189793Y-64927000D01*
X73562085Y-64852947D01*
X73912777Y-64707685D01*
X74228391Y-64496799D01*
X74496799Y-64228391D01*
X74707685Y-63912777D01*
X74852947Y-63562085D01*
X74927000Y-63189793D01*
X74927000Y-62810207D01*
X74852947Y-62437915D01*
X74707685Y-62087223D01*
X74496799Y-61771609D01*
X74228391Y-61503201D01*
X73912777Y-61292315D01*
X73562085Y-61147053D01*
X73189793Y-61073000D01*
X72810207Y-61073000D01*
X72437915Y-61147053D01*
X72087223Y-61292315D01*
X71771609Y-61503201D01*
X71503201Y-61771609D01*
X71292315Y-62087223D01*
X71147053Y-62437915D01*
X71073000Y-62810207D01*
X70477000Y-62810207D01*
X70477000Y-60477000D01*
X83965578Y-60477000D01*
X83144802Y-61297776D01*
G36*
X100469828Y-71680172D02*
G01*
X100572731Y-71764623D01*
X100690132Y-71827375D01*
X100817520Y-71866018D01*
X100949999Y-71879066D01*
X101850001Y-71879066D01*
X101982480Y-71866018D01*
X102109868Y-71827375D01*
X102227269Y-71764623D01*
X102330172Y-71680172D01*
X102332775Y-71677000D01*
X109620715Y-71677000D01*
X110823000Y-72478523D01*
X110823000Y-73500000D01*
X110831205Y-73583304D01*
X110855503Y-73663406D01*
X110894962Y-73737228D01*
X110948065Y-73801935D01*
X111012772Y-73855038D01*
X111086594Y-73894497D01*
X111166696Y-73918795D01*
X111250000Y-73927000D01*
X113823000Y-73927000D01*
X113823000Y-74560999D01*
X113719234Y-74664765D01*
X113658833Y-74591167D01*
X113557824Y-74508271D01*
X113442584Y-74446673D01*
X113317541Y-74408742D01*
X113187500Y-74395934D01*
X112612500Y-74395934D01*
X112482459Y-74408742D01*
X112357416Y-74446673D01*
X112242176Y-74508271D01*
X112141167Y-74591167D01*
X112058271Y-74692176D01*
X112025000Y-74754421D01*
X111991729Y-74692176D01*
X111908833Y-74591167D01*
X111807824Y-74508271D01*
X111692584Y-74446673D01*
X111567541Y-74408742D01*
X111437500Y-74395934D01*
X110862500Y-74395934D01*
X110732459Y-74408742D01*
X110607416Y-74446673D01*
X110492176Y-74508271D01*
X110391167Y-74591167D01*
X110308271Y-74692176D01*
X110291795Y-74723000D01*
X105928331Y-74723000D01*
X105900000Y-74720210D01*
X105871669Y-74723000D01*
X105871664Y-74723000D01*
X105844886Y-74725637D01*
X105786888Y-74731349D01*
X105722782Y-74750796D01*
X105678124Y-74764343D01*
X105577885Y-74817921D01*
X105490026Y-74890026D01*
X105471963Y-74912036D01*
X102627000Y-77756999D01*
X102627000Y-77200000D01*
X102618795Y-77116696D01*
X102594497Y-77036594D01*
X102555038Y-76962772D01*
X102501935Y-76898065D01*
X102001935Y-76398065D01*
X101937228Y-76344962D01*
X101863406Y-76305503D01*
X101783304Y-76281205D01*
X101700000Y-76273000D01*
X96779066Y-76273000D01*
X96779066Y-76177000D01*
X97250000Y-76177000D01*
X97353563Y-76164251D01*
X97432389Y-76136087D01*
X97504206Y-76093086D01*
X97566255Y-76036901D01*
X97616149Y-75969690D01*
X98366149Y-74719690D01*
X98394497Y-74663406D01*
X98418795Y-74583304D01*
X98427000Y-74500000D01*
X98427000Y-72176870D01*
X98837150Y-71766720D01*
X98962500Y-71779066D01*
X99437500Y-71779066D01*
X99567541Y-71766258D01*
X99692584Y-71728327D01*
X99788609Y-71677000D01*
X100467225Y-71677000D01*
X100469828Y-71680172D01*
G37*
X100469828Y-71680172D02*
X100572731Y-71764623D01*
X100690132Y-71827375D01*
X100817520Y-71866018D01*
X100949999Y-71879066D01*
X101850001Y-71879066D01*
X101982480Y-71866018D01*
X102109868Y-71827375D01*
X102227269Y-71764623D01*
X102330172Y-71680172D01*
X102332775Y-71677000D01*
X109620715Y-71677000D01*
X110823000Y-72478523D01*
X110823000Y-73500000D01*
X110831205Y-73583304D01*
X110855503Y-73663406D01*
X110894962Y-73737228D01*
X110948065Y-73801935D01*
X111012772Y-73855038D01*
X111086594Y-73894497D01*
X111166696Y-73918795D01*
X111250000Y-73927000D01*
X113823000Y-73927000D01*
X113823000Y-74560999D01*
X113719234Y-74664765D01*
X113658833Y-74591167D01*
X113557824Y-74508271D01*
X113442584Y-74446673D01*
X113317541Y-74408742D01*
X113187500Y-74395934D01*
X112612500Y-74395934D01*
X112482459Y-74408742D01*
X112357416Y-74446673D01*
X112242176Y-74508271D01*
X112141167Y-74591167D01*
X112058271Y-74692176D01*
X112025000Y-74754421D01*
X111991729Y-74692176D01*
X111908833Y-74591167D01*
X111807824Y-74508271D01*
X111692584Y-74446673D01*
X111567541Y-74408742D01*
X111437500Y-74395934D01*
X110862500Y-74395934D01*
X110732459Y-74408742D01*
X110607416Y-74446673D01*
X110492176Y-74508271D01*
X110391167Y-74591167D01*
X110308271Y-74692176D01*
X110291795Y-74723000D01*
X105928331Y-74723000D01*
X105900000Y-74720210D01*
X105871669Y-74723000D01*
X105871664Y-74723000D01*
X105844886Y-74725637D01*
X105786888Y-74731349D01*
X105722782Y-74750796D01*
X105678124Y-74764343D01*
X105577885Y-74817921D01*
X105490026Y-74890026D01*
X105471963Y-74912036D01*
X102627000Y-77756999D01*
X102627000Y-77200000D01*
X102618795Y-77116696D01*
X102594497Y-77036594D01*
X102555038Y-76962772D01*
X102501935Y-76898065D01*
X102001935Y-76398065D01*
X101937228Y-76344962D01*
X101863406Y-76305503D01*
X101783304Y-76281205D01*
X101700000Y-76273000D01*
X96779066Y-76273000D01*
X96779066Y-76177000D01*
X97250000Y-76177000D01*
X97353563Y-76164251D01*
X97432389Y-76136087D01*
X97504206Y-76093086D01*
X97566255Y-76036901D01*
X97616149Y-75969690D01*
X98366149Y-74719690D01*
X98394497Y-74663406D01*
X98418795Y-74583304D01*
X98427000Y-74500000D01*
X98427000Y-72176870D01*
X98837150Y-71766720D01*
X98962500Y-71779066D01*
X99437500Y-71779066D01*
X99567541Y-71766258D01*
X99692584Y-71728327D01*
X99788609Y-71677000D01*
X100467225Y-71677000D01*
X100469828Y-71680172D01*
G36*
X137691167Y-68108833D02*
G01*
X137792176Y-68191729D01*
X137907416Y-68253327D01*
X138032459Y-68291258D01*
X138162500Y-68304066D01*
X138538065Y-68304066D01*
X139123001Y-68889002D01*
X139123001Y-68941795D01*
X139092176Y-68958271D01*
X138991167Y-69041167D01*
X138908271Y-69142176D01*
X138846673Y-69257416D01*
X138808742Y-69382459D01*
X138795934Y-69512500D01*
X138795934Y-70087500D01*
X138808742Y-70217541D01*
X138846673Y-70342584D01*
X138908271Y-70457824D01*
X138991167Y-70558833D01*
X139092176Y-70641729D01*
X139154421Y-70675000D01*
X139092176Y-70708271D01*
X138991167Y-70791167D01*
X138908271Y-70892176D01*
X138846673Y-71007416D01*
X138808742Y-71132459D01*
X138795934Y-71262500D01*
X138795934Y-71837500D01*
X138808742Y-71967541D01*
X138846673Y-72092584D01*
X138908271Y-72207824D01*
X138991167Y-72308833D01*
X139092176Y-72391729D01*
X139123000Y-72408205D01*
X139123001Y-73793036D01*
X138402888Y-73175797D01*
X138362228Y-73144962D01*
X138288406Y-73105503D01*
X138208304Y-73081205D01*
X138125000Y-73073000D01*
X136588500Y-73073000D01*
X136427000Y-72857667D01*
X136427000Y-70480645D01*
X136491167Y-70558833D01*
X136592176Y-70641729D01*
X136707416Y-70703327D01*
X136832459Y-70741258D01*
X136962500Y-70754066D01*
X137437500Y-70754066D01*
X137567541Y-70741258D01*
X137692584Y-70703327D01*
X137807824Y-70641729D01*
X137908833Y-70558833D01*
X137991729Y-70457824D01*
X138053327Y-70342584D01*
X138091258Y-70217541D01*
X138104066Y-70087500D01*
X138104066Y-69512500D01*
X138091258Y-69382459D01*
X138053327Y-69257416D01*
X137991729Y-69142176D01*
X137908833Y-69041167D01*
X137807824Y-68958271D01*
X137692584Y-68896673D01*
X137567541Y-68858742D01*
X137437500Y-68845934D01*
X137061935Y-68845934D01*
X136470067Y-68254066D01*
X137225000Y-68254066D01*
X137308707Y-68245822D01*
X137389196Y-68221405D01*
X137463376Y-68181755D01*
X137528395Y-68128395D01*
X137581755Y-68063376D01*
X137610195Y-68010168D01*
X137691167Y-68108833D01*
G37*
X137691167Y-68108833D02*
X137792176Y-68191729D01*
X137907416Y-68253327D01*
X138032459Y-68291258D01*
X138162500Y-68304066D01*
X138538065Y-68304066D01*
X139123001Y-68889002D01*
X139123001Y-68941795D01*
X139092176Y-68958271D01*
X138991167Y-69041167D01*
X138908271Y-69142176D01*
X138846673Y-69257416D01*
X138808742Y-69382459D01*
X138795934Y-69512500D01*
X138795934Y-70087500D01*
X138808742Y-70217541D01*
X138846673Y-70342584D01*
X138908271Y-70457824D01*
X138991167Y-70558833D01*
X139092176Y-70641729D01*
X139154421Y-70675000D01*
X139092176Y-70708271D01*
X138991167Y-70791167D01*
X138908271Y-70892176D01*
X138846673Y-71007416D01*
X138808742Y-71132459D01*
X138795934Y-71262500D01*
X138795934Y-71837500D01*
X138808742Y-71967541D01*
X138846673Y-72092584D01*
X138908271Y-72207824D01*
X138991167Y-72308833D01*
X139092176Y-72391729D01*
X139123000Y-72408205D01*
X139123001Y-73793036D01*
X138402888Y-73175797D01*
X138362228Y-73144962D01*
X138288406Y-73105503D01*
X138208304Y-73081205D01*
X138125000Y-73073000D01*
X136588500Y-73073000D01*
X136427000Y-72857667D01*
X136427000Y-70480645D01*
X136491167Y-70558833D01*
X136592176Y-70641729D01*
X136707416Y-70703327D01*
X136832459Y-70741258D01*
X136962500Y-70754066D01*
X137437500Y-70754066D01*
X137567541Y-70741258D01*
X137692584Y-70703327D01*
X137807824Y-70641729D01*
X137908833Y-70558833D01*
X137991729Y-70457824D01*
X138053327Y-70342584D01*
X138091258Y-70217541D01*
X138104066Y-70087500D01*
X138104066Y-69512500D01*
X138091258Y-69382459D01*
X138053327Y-69257416D01*
X137991729Y-69142176D01*
X137908833Y-69041167D01*
X137807824Y-68958271D01*
X137692584Y-68896673D01*
X137567541Y-68858742D01*
X137437500Y-68845934D01*
X137061935Y-68845934D01*
X136470067Y-68254066D01*
X137225000Y-68254066D01*
X137308707Y-68245822D01*
X137389196Y-68221405D01*
X137463376Y-68181755D01*
X137528395Y-68128395D01*
X137581755Y-68063376D01*
X137610195Y-68010168D01*
X137691167Y-68108833D01*
G36*
X116674409Y-68790410D02*
G01*
X116592584Y-68746673D01*
X116467541Y-68708742D01*
X116337500Y-68695934D01*
X115762500Y-68695934D01*
X115632459Y-68708742D01*
X115507416Y-68746673D01*
X115392176Y-68808271D01*
X115291167Y-68891167D01*
X115208271Y-68992176D01*
X115146673Y-69107416D01*
X115108742Y-69232459D01*
X115095934Y-69362500D01*
X115095934Y-69837500D01*
X115108742Y-69967541D01*
X115146673Y-70092584D01*
X115208271Y-70207824D01*
X115291167Y-70308833D01*
X115392176Y-70391729D01*
X115473000Y-70434931D01*
X115473001Y-70720934D01*
X114950000Y-70720934D01*
X114866293Y-70729178D01*
X114785804Y-70753595D01*
X114711624Y-70793245D01*
X114646605Y-70846605D01*
X114593245Y-70911624D01*
X114553595Y-70985804D01*
X114529178Y-71066293D01*
X114520934Y-71150000D01*
X114520934Y-71663065D01*
X114427000Y-71756999D01*
X114427000Y-71750000D01*
X114414359Y-71646871D01*
X114386278Y-71568015D01*
X114343352Y-71496153D01*
X114287231Y-71434046D01*
X111537231Y-68934046D01*
X111487228Y-68894962D01*
X111413406Y-68855503D01*
X111333304Y-68831205D01*
X111250000Y-68823000D01*
X100873020Y-68823000D01*
X100868024Y-68823029D01*
X100741492Y-68824510D01*
X101389002Y-68177000D01*
X116060999Y-68177000D01*
X116674409Y-68790410D01*
G37*
X116674409Y-68790410D02*
X116592584Y-68746673D01*
X116467541Y-68708742D01*
X116337500Y-68695934D01*
X115762500Y-68695934D01*
X115632459Y-68708742D01*
X115507416Y-68746673D01*
X115392176Y-68808271D01*
X115291167Y-68891167D01*
X115208271Y-68992176D01*
X115146673Y-69107416D01*
X115108742Y-69232459D01*
X115095934Y-69362500D01*
X115095934Y-69837500D01*
X115108742Y-69967541D01*
X115146673Y-70092584D01*
X115208271Y-70207824D01*
X115291167Y-70308833D01*
X115392176Y-70391729D01*
X115473000Y-70434931D01*
X115473001Y-70720934D01*
X114950000Y-70720934D01*
X114866293Y-70729178D01*
X114785804Y-70753595D01*
X114711624Y-70793245D01*
X114646605Y-70846605D01*
X114593245Y-70911624D01*
X114553595Y-70985804D01*
X114529178Y-71066293D01*
X114520934Y-71150000D01*
X114520934Y-71663065D01*
X114427000Y-71756999D01*
X114427000Y-71750000D01*
X114414359Y-71646871D01*
X114386278Y-71568015D01*
X114343352Y-71496153D01*
X114287231Y-71434046D01*
X111537231Y-68934046D01*
X111487228Y-68894962D01*
X111413406Y-68855503D01*
X111333304Y-68831205D01*
X111250000Y-68823000D01*
X100873020Y-68823000D01*
X100868024Y-68823029D01*
X100741492Y-68824510D01*
X101389002Y-68177000D01*
X116060999Y-68177000D01*
X116674409Y-68790410D01*
G36*
X152754178Y-66908707D02*
G01*
X152778595Y-66989196D01*
X152818245Y-67063376D01*
X152871605Y-67128395D01*
X152936624Y-67181755D01*
X153010804Y-67221405D01*
X153091293Y-67245822D01*
X153175000Y-67254066D01*
X154425000Y-67254066D01*
X154508707Y-67245822D01*
X154589196Y-67221405D01*
X154643553Y-67192351D01*
X154762500Y-67204066D01*
X155237500Y-67204066D01*
X155367541Y-67191258D01*
X155492584Y-67153327D01*
X155607824Y-67091729D01*
X155708833Y-67008833D01*
X155723000Y-66991570D01*
X155723001Y-69929577D01*
X154998426Y-70654152D01*
X154987228Y-70644962D01*
X154913406Y-70605503D01*
X154833304Y-70581205D01*
X154750000Y-70573000D01*
X153250000Y-70573000D01*
X153197990Y-70576179D01*
X153116306Y-70594470D01*
X153039760Y-70628344D01*
X152971293Y-70676501D01*
X152019455Y-71496546D01*
X152387964Y-71128037D01*
X152409974Y-71109974D01*
X152482079Y-71022115D01*
X152530593Y-70931350D01*
X152535657Y-70921877D01*
X152568651Y-70813112D01*
X152579791Y-70700000D01*
X152577000Y-70671661D01*
X152577000Y-70654066D01*
X152625000Y-70654066D01*
X152708707Y-70645822D01*
X152789196Y-70621405D01*
X152863376Y-70581755D01*
X152928395Y-70528395D01*
X152981755Y-70463376D01*
X153021405Y-70389196D01*
X153045822Y-70308707D01*
X153054066Y-70225000D01*
X153054066Y-68975000D01*
X153045822Y-68891293D01*
X153021405Y-68810804D01*
X152981755Y-68736624D01*
X152928395Y-68671605D01*
X152863376Y-68618245D01*
X152789196Y-68578595D01*
X152708707Y-68554178D01*
X152625000Y-68545934D01*
X152577000Y-68545934D01*
X152577000Y-68525574D01*
X152628395Y-68483395D01*
X152681755Y-68418376D01*
X152721405Y-68344196D01*
X152745822Y-68263707D01*
X152754066Y-68180000D01*
X152754066Y-66907570D01*
X152754178Y-66908707D01*
G37*
X152754178Y-66908707D02*
X152778595Y-66989196D01*
X152818245Y-67063376D01*
X152871605Y-67128395D01*
X152936624Y-67181755D01*
X153010804Y-67221405D01*
X153091293Y-67245822D01*
X153175000Y-67254066D01*
X154425000Y-67254066D01*
X154508707Y-67245822D01*
X154589196Y-67221405D01*
X154643553Y-67192351D01*
X154762500Y-67204066D01*
X155237500Y-67204066D01*
X155367541Y-67191258D01*
X155492584Y-67153327D01*
X155607824Y-67091729D01*
X155708833Y-67008833D01*
X155723000Y-66991570D01*
X155723001Y-69929577D01*
X154998426Y-70654152D01*
X154987228Y-70644962D01*
X154913406Y-70605503D01*
X154833304Y-70581205D01*
X154750000Y-70573000D01*
X153250000Y-70573000D01*
X153197990Y-70576179D01*
X153116306Y-70594470D01*
X153039760Y-70628344D01*
X152971293Y-70676501D01*
X152019455Y-71496546D01*
X152387964Y-71128037D01*
X152409974Y-71109974D01*
X152482079Y-71022115D01*
X152530593Y-70931350D01*
X152535657Y-70921877D01*
X152568651Y-70813112D01*
X152579791Y-70700000D01*
X152577000Y-70671661D01*
X152577000Y-70654066D01*
X152625000Y-70654066D01*
X152708707Y-70645822D01*
X152789196Y-70621405D01*
X152863376Y-70581755D01*
X152928395Y-70528395D01*
X152981755Y-70463376D01*
X153021405Y-70389196D01*
X153045822Y-70308707D01*
X153054066Y-70225000D01*
X153054066Y-68975000D01*
X153045822Y-68891293D01*
X153021405Y-68810804D01*
X152981755Y-68736624D01*
X152928395Y-68671605D01*
X152863376Y-68618245D01*
X152789196Y-68578595D01*
X152708707Y-68554178D01*
X152625000Y-68545934D01*
X152577000Y-68545934D01*
X152577000Y-68525574D01*
X152628395Y-68483395D01*
X152681755Y-68418376D01*
X152721405Y-68344196D01*
X152745822Y-68263707D01*
X152754066Y-68180000D01*
X152754066Y-66907570D01*
X152754178Y-66908707D01*
G36*
X85700936Y-61587942D02*
G01*
X85672998Y-61728397D01*
X85672998Y-61871603D01*
X85700936Y-62012058D01*
X85755739Y-62144364D01*
X85835300Y-62263436D01*
X85936562Y-62364698D01*
X86055634Y-62444259D01*
X86187940Y-62499062D01*
X86328395Y-62527000D01*
X86471601Y-62527000D01*
X86612056Y-62499062D01*
X86744362Y-62444259D01*
X86845023Y-62377000D01*
X90298997Y-62377000D01*
X92060501Y-64138505D01*
X92060500Y-67070934D01*
X91975000Y-67070934D01*
X91876662Y-67080619D01*
X91782102Y-67109304D01*
X91694956Y-67155884D01*
X91618572Y-67218572D01*
X91577000Y-67269227D01*
X91577000Y-66233205D01*
X91607824Y-66216729D01*
X91708833Y-66133833D01*
X91791729Y-66032824D01*
X91853327Y-65917584D01*
X91891258Y-65792541D01*
X91904066Y-65662500D01*
X91904066Y-65087500D01*
X91891258Y-64957459D01*
X91853327Y-64832416D01*
X91791729Y-64717176D01*
X91708833Y-64616167D01*
X91607824Y-64533271D01*
X91492584Y-64471673D01*
X91367541Y-64433742D01*
X91237500Y-64420934D01*
X90762500Y-64420934D01*
X90632459Y-64433742D01*
X90507416Y-64471673D01*
X90392176Y-64533271D01*
X90291167Y-64616167D01*
X90208271Y-64717176D01*
X90146673Y-64832416D01*
X90108742Y-64957459D01*
X90095934Y-65087500D01*
X90095934Y-65662500D01*
X90108742Y-65792541D01*
X90119715Y-65828714D01*
X89754066Y-65463065D01*
X89754066Y-65087500D01*
X89741258Y-64957459D01*
X89703327Y-64832416D01*
X89641729Y-64717176D01*
X89558833Y-64616167D01*
X89457824Y-64533271D01*
X89342584Y-64471673D01*
X89217541Y-64433742D01*
X89087500Y-64420934D01*
X88612500Y-64420934D01*
X88482459Y-64433742D01*
X88357416Y-64471673D01*
X88242176Y-64533271D01*
X88141167Y-64616167D01*
X88058271Y-64717176D01*
X87996673Y-64832416D01*
X87958742Y-64957459D01*
X87945934Y-65087500D01*
X87945934Y-65662500D01*
X87958742Y-65792541D01*
X87996673Y-65917584D01*
X88058271Y-66032824D01*
X88141167Y-66133833D01*
X88242176Y-66216729D01*
X88357416Y-66278327D01*
X88482459Y-66316258D01*
X88612500Y-66329066D01*
X88988065Y-66329066D01*
X89473001Y-66814002D01*
X89473000Y-67721668D01*
X89470210Y-67750000D01*
X89473000Y-67778331D01*
X89473000Y-67778335D01*
X89475334Y-67802028D01*
X89481349Y-67863111D01*
X89500730Y-67927000D01*
X89514343Y-67971875D01*
X89567921Y-68072114D01*
X89640026Y-68159974D01*
X89662038Y-68178039D01*
X89854840Y-68370842D01*
X84174751Y-68348391D01*
X84244259Y-68244364D01*
X84299062Y-68112058D01*
X84327000Y-67971603D01*
X84327000Y-67828397D01*
X84299062Y-67687942D01*
X84277000Y-67634680D01*
X84277000Y-62080422D01*
X84780422Y-61577000D01*
X85705468Y-61577000D01*
X85700936Y-61587942D01*
G37*
X85700936Y-61587942D02*
X85672998Y-61728397D01*
X85672998Y-61871603D01*
X85700936Y-62012058D01*
X85755739Y-62144364D01*
X85835300Y-62263436D01*
X85936562Y-62364698D01*
X86055634Y-62444259D01*
X86187940Y-62499062D01*
X86328395Y-62527000D01*
X86471601Y-62527000D01*
X86612056Y-62499062D01*
X86744362Y-62444259D01*
X86845023Y-62377000D01*
X90298997Y-62377000D01*
X92060501Y-64138505D01*
X92060500Y-67070934D01*
X91975000Y-67070934D01*
X91876662Y-67080619D01*
X91782102Y-67109304D01*
X91694956Y-67155884D01*
X91618572Y-67218572D01*
X91577000Y-67269227D01*
X91577000Y-66233205D01*
X91607824Y-66216729D01*
X91708833Y-66133833D01*
X91791729Y-66032824D01*
X91853327Y-65917584D01*
X91891258Y-65792541D01*
X91904066Y-65662500D01*
X91904066Y-65087500D01*
X91891258Y-64957459D01*
X91853327Y-64832416D01*
X91791729Y-64717176D01*
X91708833Y-64616167D01*
X91607824Y-64533271D01*
X91492584Y-64471673D01*
X91367541Y-64433742D01*
X91237500Y-64420934D01*
X90762500Y-64420934D01*
X90632459Y-64433742D01*
X90507416Y-64471673D01*
X90392176Y-64533271D01*
X90291167Y-64616167D01*
X90208271Y-64717176D01*
X90146673Y-64832416D01*
X90108742Y-64957459D01*
X90095934Y-65087500D01*
X90095934Y-65662500D01*
X90108742Y-65792541D01*
X90119715Y-65828714D01*
X89754066Y-65463065D01*
X89754066Y-65087500D01*
X89741258Y-64957459D01*
X89703327Y-64832416D01*
X89641729Y-64717176D01*
X89558833Y-64616167D01*
X89457824Y-64533271D01*
X89342584Y-64471673D01*
X89217541Y-64433742D01*
X89087500Y-64420934D01*
X88612500Y-64420934D01*
X88482459Y-64433742D01*
X88357416Y-64471673D01*
X88242176Y-64533271D01*
X88141167Y-64616167D01*
X88058271Y-64717176D01*
X87996673Y-64832416D01*
X87958742Y-64957459D01*
X87945934Y-65087500D01*
X87945934Y-65662500D01*
X87958742Y-65792541D01*
X87996673Y-65917584D01*
X88058271Y-66032824D01*
X88141167Y-66133833D01*
X88242176Y-66216729D01*
X88357416Y-66278327D01*
X88482459Y-66316258D01*
X88612500Y-66329066D01*
X88988065Y-66329066D01*
X89473001Y-66814002D01*
X89473000Y-67721668D01*
X89470210Y-67750000D01*
X89473000Y-67778331D01*
X89473000Y-67778335D01*
X89475334Y-67802028D01*
X89481349Y-67863111D01*
X89500730Y-67927000D01*
X89514343Y-67971875D01*
X89567921Y-68072114D01*
X89640026Y-68159974D01*
X89662038Y-68178039D01*
X89854840Y-68370842D01*
X84174751Y-68348391D01*
X84244259Y-68244364D01*
X84299062Y-68112058D01*
X84327000Y-67971603D01*
X84327000Y-67828397D01*
X84299062Y-67687942D01*
X84277000Y-67634680D01*
X84277000Y-62080422D01*
X84780422Y-61577000D01*
X85705468Y-61577000D01*
X85700936Y-61587942D01*
%TD*%
M02*
